G04*
G04 #@! TF.GenerationSoftware,Altium Limited,Altium Designer,20.2.4 (192)*
G04*
G04 Layer_Color=8388736*
%FSLAX25Y25*%
%MOIN*%
G70*
G04*
G04 #@! TF.SameCoordinates,2C05E507-4EA5-4E47-A472-78439CCED8C8*
G04*
G04*
G04 #@! TF.FilePolarity,Negative*
G04*
G01*
G75*
%ADD10C,0.00787*%
%ADD18R,0.06509X0.05328*%
%ADD19R,0.07887X0.07493*%
G04:AMPARAMS|DCode=20|XSize=59.18mil|YSize=78.87mil|CornerRadius=16.8mil|HoleSize=0mil|Usage=FLASHONLY|Rotation=0.000|XOffset=0mil|YOffset=0mil|HoleType=Round|Shape=RoundedRectangle|*
%AMROUNDEDRECTD20*
21,1,0.05918,0.04528,0,0,0.0*
21,1,0.02559,0.07887,0,0,0.0*
1,1,0.03359,0.01280,-0.02264*
1,1,0.03359,-0.01280,-0.02264*
1,1,0.03359,-0.01280,0.02264*
1,1,0.03359,0.01280,0.02264*
%
%ADD20ROUNDEDRECTD20*%
%ADD21R,0.05918X0.07887*%
%ADD22O,0.06706X0.11824*%
%ADD23O,0.16154X0.07887*%
%ADD24O,0.08280X0.05524*%
G04:AMPARAMS|DCode=25|XSize=55.24mil|YSize=82.8mil|CornerRadius=0mil|HoleSize=0mil|Usage=FLASHONLY|Rotation=90.000|XOffset=0mil|YOffset=0mil|HoleType=Round|Shape=Octagon|*
%AMOCTAGOND25*
4,1,8,-0.04140,-0.01381,-0.04140,0.01381,-0.02759,0.02762,0.02759,0.02762,0.04140,0.01381,0.04140,-0.01381,0.02759,-0.02762,-0.02759,-0.02762,-0.04140,-0.01381,0.0*
%
%ADD25OCTAGOND25*%

%ADD26C,0.06312*%
%ADD27C,0.05918*%
%ADD28C,0.13398*%
%ADD29R,0.08674X0.16548*%
%ADD30R,0.08674X0.18517*%
%ADD31P,0.14076X8X112.5*%
%ADD32R,0.08280X0.05524*%
%ADD33P,0.06832X8X112.5*%
G04:AMPARAMS|DCode=34|XSize=106.42mil|YSize=126.11mil|CornerRadius=0mil|HoleSize=0mil|Usage=FLASHONLY|Rotation=270.000|XOffset=0mil|YOffset=0mil|HoleType=Round|Shape=Octagon|*
%AMOCTAGOND34*
4,1,8,0.06306,0.02661,0.06306,-0.02661,0.03645,-0.05321,-0.03645,-0.05321,-0.06306,-0.02661,-0.06306,0.02661,-0.03645,0.05321,0.03645,0.05321,0.06306,0.02661,0.0*
%
%ADD34OCTAGOND34*%

G04:AMPARAMS|DCode=35|XSize=118.24mil|YSize=141.86mil|CornerRadius=0mil|HoleSize=0mil|Usage=FLASHONLY|Rotation=0.000|XOffset=0mil|YOffset=0mil|HoleType=Round|Shape=Octagon|*
%AMOCTAGOND35*
4,1,8,-0.02956,0.07093,0.02956,0.07093,0.05912,0.04137,0.05912,-0.04137,0.02956,-0.07093,-0.02956,-0.07093,-0.05912,-0.04137,-0.05912,0.04137,-0.02956,0.07093,0.0*
%
%ADD35OCTAGOND35*%

%ADD36P,0.07684X8X112.5*%
%ADD37C,0.06706*%
%ADD38R,0.06706X0.06706*%
%ADD39C,0.14580*%
%ADD40C,0.11824*%
%ADD41C,0.03800*%
%ADD42C,0.04800*%
D10*
X273819Y-35433D02*
Y1575D01*
X-7087Y-272756D02*
X70866D01*
Y-229842D01*
X265748Y-84646D02*
Y-35433D01*
X209842Y-229842D02*
X229724D01*
Y-84646D01*
X265748D01*
X102977Y-229842D02*
X170669D01*
X265748Y-35433D02*
X273819D01*
X209842Y-245591D02*
Y-229842D01*
X170669Y-245591D02*
X209842D01*
X170669D02*
Y-229842D01*
X44882Y1575D02*
Y13780D01*
X25000D02*
X44882D01*
X25000Y1181D02*
Y13780D01*
X70866Y-229842D02*
X102977D01*
X-7087Y-272756D02*
Y-68898D01*
Y1181D02*
X25000D01*
X-7087Y-33465D02*
Y1181D01*
X-18898Y-33465D02*
X-7087D01*
X-18898Y-68898D02*
Y-33465D01*
Y-68898D02*
X-7087D01*
X44882Y1575D02*
X113386D01*
X218898D02*
X273819D01*
X113386Y-6299D02*
Y1575D01*
Y-6299D02*
X218898D01*
Y1575D01*
D18*
X190945Y-132677D02*
D03*
Y-139764D02*
D03*
X237795Y-60236D02*
D03*
Y-53150D02*
D03*
D19*
X221654Y-72933D02*
D03*
Y-60925D02*
D03*
D20*
X98228Y-69095D02*
D03*
Y-34055D02*
D03*
X78150D02*
D03*
D21*
Y-69095D02*
D03*
D22*
X134646Y-32283D02*
D03*
X197638D02*
D03*
D23*
X134646Y-14567D02*
D03*
X197638D02*
D03*
D24*
X102362Y-160236D02*
D03*
Y-166142D02*
D03*
Y-172047D02*
D03*
Y-177953D02*
D03*
Y-183858D02*
D03*
Y-189764D02*
D03*
Y-195669D02*
D03*
Y-201575D02*
D03*
Y-207480D02*
D03*
Y-213386D02*
D03*
X53937Y-137795D02*
D03*
Y-143701D02*
D03*
Y-149606D02*
D03*
D25*
X102362Y-219291D02*
D03*
D26*
X92843Y-105905D02*
D03*
X73158D02*
D03*
D27*
X209646Y-109449D02*
D03*
X219488D02*
D03*
D28*
X86614Y-138976D02*
D03*
X209055Y-142520D02*
D03*
Y-158268D02*
D03*
Y-174016D02*
D03*
Y-189764D02*
D03*
D29*
X11811Y-51181D02*
D03*
D30*
X35433D02*
D03*
D31*
X209055Y-205512D02*
D03*
D32*
X53937Y-131890D02*
D03*
D33*
X20472Y-198819D02*
D03*
Y-188583D02*
D03*
X30315Y-198819D02*
D03*
Y-207087D02*
D03*
Y-180315D02*
D03*
Y-190157D02*
D03*
X20472Y-180315D02*
D03*
Y-207087D02*
D03*
X23819Y-142126D02*
D03*
X13976Y-150000D02*
D03*
X23819D02*
D03*
Y-134252D02*
D03*
Y-118504D02*
D03*
X13976Y-142126D02*
D03*
Y-134252D02*
D03*
Y-118504D02*
D03*
D34*
X8661Y-167717D02*
D03*
Y-219685D02*
D03*
D35*
X5512Y-193701D02*
D03*
D36*
X7087Y-157874D02*
D03*
X30709D02*
D03*
Y-110630D02*
D03*
X7087D02*
D03*
D37*
X161417Y-122835D02*
D03*
X141142Y-74016D02*
D03*
X151142Y-84016D02*
D03*
Y-74016D02*
D03*
X161142Y-84016D02*
D03*
Y-74016D02*
D03*
X171142Y-84016D02*
D03*
Y-74016D02*
D03*
X181142Y-84016D02*
D03*
Y-74016D02*
D03*
X191142Y-84016D02*
D03*
Y-74016D02*
D03*
X161417Y-112992D02*
D03*
Y-103150D02*
D03*
X151575D02*
D03*
Y-112992D02*
D03*
D38*
X141142Y-84016D02*
D03*
D39*
X253346Y-19685D02*
D03*
X15748Y-253071D02*
D03*
D40*
X55118D02*
D03*
D41*
X127165Y-158268D02*
D03*
X120079D02*
D03*
X118504Y-151969D02*
D03*
X111417D02*
D03*
X153150Y-158661D02*
D03*
X172047Y-158268D02*
D03*
X150394Y-184252D02*
D03*
X237795Y-68110D02*
D03*
X125591Y-96063D02*
D03*
X122835Y-93701D02*
D03*
X42913Y-173622D02*
D03*
X43307Y-201181D02*
D03*
X48031Y-221654D02*
D03*
X44882Y-224410D02*
D03*
X86614Y-158268D02*
D03*
X68110Y-163386D02*
D03*
X197244Y-112992D02*
D03*
X207874Y-129921D02*
D03*
X159055Y-186614D02*
D03*
D42*
X252756Y-58661D02*
D03*
Y-66535D02*
D03*
X221654Y-85433D02*
D03*
M02*
