G04*
G04 #@! TF.GenerationSoftware,Altium Limited,Altium Designer,20.2.4 (192)*
G04*
G04 Layer_Color=16711935*
%FSLAX25Y25*%
%MOIN*%
G70*
G04*
G04 #@! TF.SameCoordinates,2C05E507-4EA5-4E47-A472-78439CCED8C8*
G04*
G04*
G04 #@! TF.FilePolarity,Positive*
G04*
G01*
G75*
%ADD10C,0.00787*%
D10*
X273819Y-35433D02*
Y1575D01*
X-7087Y-272756D02*
X70866D01*
Y-229842D01*
X265748Y-84646D02*
Y-35433D01*
X209842Y-229842D02*
X229724D01*
Y-84646D01*
X265748D01*
X102977Y-229842D02*
X170669D01*
X265748Y-35433D02*
X273819D01*
X209842Y-245591D02*
Y-229842D01*
X170669Y-245591D02*
X209842D01*
X170669D02*
Y-229842D01*
X44882Y1575D02*
Y13780D01*
X25000D02*
X44882D01*
X25000Y1181D02*
Y13780D01*
X70866Y-229842D02*
X102977D01*
X-7087Y-272756D02*
Y-68898D01*
Y1181D02*
X25000D01*
X-7087Y-33465D02*
Y1181D01*
X-18898Y-33465D02*
X-7087D01*
X-18898Y-68898D02*
Y-33465D01*
Y-68898D02*
X-7087D01*
X44882Y1575D02*
X113386D01*
X218898D02*
X273819D01*
X113386Y-6299D02*
Y1575D01*
Y-6299D02*
X218898D01*
Y1575D01*
X273819Y-35433D02*
Y1575D01*
X-7087Y-272756D02*
X70866D01*
Y-229842D01*
X265748Y-84646D02*
Y-35433D01*
X209842Y-229842D02*
X229724D01*
Y-84646D01*
X265748D01*
X102977Y-229842D02*
X170669D01*
X265748Y-35433D02*
X273819D01*
X209842Y-245591D02*
Y-229842D01*
X170669Y-245591D02*
X209842D01*
X170669D02*
Y-229842D01*
X44882Y1575D02*
Y13780D01*
X25000D02*
X44882D01*
X25000Y1181D02*
Y13780D01*
X70866Y-229842D02*
X102977D01*
X-7087Y-272756D02*
Y-68898D01*
Y1181D02*
X25000D01*
X-7087Y-33465D02*
Y1181D01*
X-18898Y-33465D02*
X-7087D01*
X-18898Y-68898D02*
Y-33465D01*
Y-68898D02*
X-7087D01*
X44882Y1575D02*
X113386D01*
X218898D02*
X273819D01*
X113386Y-6299D02*
Y1575D01*
Y-6299D02*
X218898D01*
Y1575D01*
M02*
