G04*
G04 #@! TF.GenerationSoftware,Altium Limited,Altium Designer,20.2.4 (192)*
G04*
G04 Layer_Physical_Order=1*
G04 Layer_Color=255*
%FSLAX25Y25*%
%MOIN*%
G70*
G04*
G04 #@! TF.SameCoordinates,2C05E507-4EA5-4E47-A472-78439CCED8C8*
G04*
G04*
G04 #@! TF.FilePolarity,Positive*
G04*
G01*
G75*
%ADD10C,0.00787*%
%ADD12C,0.01000*%
%ADD14R,0.05709X0.04528*%
%ADD15R,0.07087X0.06693*%
G04:AMPARAMS|DCode=16|XSize=51.18mil|YSize=70.87mil|CornerRadius=12.8mil|HoleSize=0mil|Usage=FLASHONLY|Rotation=0.000|XOffset=0mil|YOffset=0mil|HoleType=Round|Shape=RoundedRectangle|*
%AMROUNDEDRECTD16*
21,1,0.05118,0.04528,0,0,0.0*
21,1,0.02559,0.07087,0,0,0.0*
1,1,0.02559,0.01280,-0.02264*
1,1,0.02559,-0.01280,-0.02264*
1,1,0.02559,-0.01280,0.02264*
1,1,0.02559,0.01280,0.02264*
%
%ADD16ROUNDEDRECTD16*%
%ADD17R,0.05118X0.07087*%
%ADD43C,0.02000*%
%ADD44C,0.01500*%
%ADD45C,0.04000*%
%ADD46O,0.05906X0.11024*%
%ADD47O,0.15354X0.07087*%
%ADD48O,0.07480X0.04724*%
G04:AMPARAMS|DCode=49|XSize=47.24mil|YSize=74.8mil|CornerRadius=0mil|HoleSize=0mil|Usage=FLASHONLY|Rotation=90.000|XOffset=0mil|YOffset=0mil|HoleType=Round|Shape=Octagon|*
%AMOCTAGOND49*
4,1,8,-0.03740,-0.01181,-0.03740,0.01181,-0.02559,0.02362,0.02559,0.02362,0.03740,0.01181,0.03740,-0.01181,0.02559,-0.02362,-0.02559,-0.02362,-0.03740,-0.01181,0.0*
%
%ADD49OCTAGOND49*%

%ADD50C,0.05512*%
%ADD51C,0.05118*%
%ADD52C,0.12598*%
%ADD53R,0.07874X0.15748*%
%ADD54R,0.07874X0.17717*%
%ADD55P,0.13210X8X112.5*%
%ADD56R,0.07480X0.04724*%
%ADD57P,0.05966X8X112.5*%
G04:AMPARAMS|DCode=58|XSize=98.43mil|YSize=118.11mil|CornerRadius=0mil|HoleSize=0mil|Usage=FLASHONLY|Rotation=270.000|XOffset=0mil|YOffset=0mil|HoleType=Round|Shape=Octagon|*
%AMOCTAGOND58*
4,1,8,0.05906,0.02461,0.05906,-0.02461,0.03445,-0.04921,-0.03445,-0.04921,-0.05906,-0.02461,-0.05906,0.02461,-0.03445,0.04921,0.03445,0.04921,0.05906,0.02461,0.0*
%
%ADD58OCTAGOND58*%

G04:AMPARAMS|DCode=59|XSize=110.24mil|YSize=133.86mil|CornerRadius=0mil|HoleSize=0mil|Usage=FLASHONLY|Rotation=0.000|XOffset=0mil|YOffset=0mil|HoleType=Round|Shape=Octagon|*
%AMOCTAGOND59*
4,1,8,-0.02756,0.06693,0.02756,0.06693,0.05512,0.03937,0.05512,-0.03937,0.02756,-0.06693,-0.02756,-0.06693,-0.05512,-0.03937,-0.05512,0.03937,-0.02756,0.06693,0.0*
%
%ADD59OCTAGOND59*%

%ADD60P,0.06818X8X112.5*%
%ADD61C,0.05906*%
%ADD62R,0.05906X0.05906*%
%ADD63C,0.13780*%
%ADD64C,0.11024*%
%ADD65C,0.03000*%
%ADD66C,0.04000*%
G36*
X43869Y1575D02*
X43946Y1187D01*
X44166Y858D01*
X44494Y639D01*
X44882Y562D01*
X112373D01*
Y-6299D01*
X112450Y-6687D01*
X112669Y-7016D01*
X112998Y-7235D01*
X113386Y-7312D01*
X218898D01*
X219285Y-7235D01*
X219614Y-7016D01*
X219834Y-6687D01*
X219911Y-6299D01*
Y562D01*
X272806D01*
Y-34420D01*
X265748D01*
X265360Y-34497D01*
X265032Y-34717D01*
X264812Y-35045D01*
X264735Y-35433D01*
Y-83632D01*
X229724D01*
X229337Y-83710D01*
X229008Y-83929D01*
X228788Y-84258D01*
X228711Y-84646D01*
Y-228829D01*
X209842D01*
X209455Y-228906D01*
X209126Y-229126D01*
X208907Y-229455D01*
X208829Y-229842D01*
Y-244577D01*
X171683D01*
Y-229842D01*
X171605Y-229455D01*
X171386Y-229126D01*
X171057Y-228906D01*
X170669Y-228829D01*
X70866D01*
X70478Y-228906D01*
X70150Y-229126D01*
X69930Y-229455D01*
X69853Y-229842D01*
Y-271743D01*
X-6073D01*
Y-68898D01*
X-6151Y-68510D01*
X-6370Y-68181D01*
X-6699Y-67962D01*
X-7087Y-67884D01*
X-17885D01*
Y-34478D01*
X-7087D01*
X-6699Y-34401D01*
X-6370Y-34181D01*
X-6151Y-33852D01*
X-6073Y-33465D01*
Y168D01*
X25000D01*
X25388Y245D01*
X25716Y465D01*
X25936Y793D01*
X26013Y1181D01*
Y12766D01*
X43869D01*
Y1575D01*
D02*
G37*
%LPC*%
G36*
X201772Y-9984D02*
X199138D01*
Y-13067D01*
X206068D01*
X205740Y-12276D01*
X205012Y-11327D01*
X204063Y-10598D01*
X202958Y-10141D01*
X201772Y-9984D01*
D02*
G37*
G36*
X196138D02*
X193504D01*
X192318Y-10141D01*
X191213Y-10598D01*
X190264Y-11327D01*
X189535Y-12276D01*
X189208Y-13067D01*
X196138D01*
Y-9984D01*
D02*
G37*
G36*
X138779D02*
X136146D01*
Y-13067D01*
X143076D01*
X142748Y-12276D01*
X142020Y-11327D01*
X141071Y-10598D01*
X139966Y-10141D01*
X138779Y-9984D01*
D02*
G37*
G36*
X133146D02*
X130512D01*
X129326Y-10141D01*
X128221Y-10598D01*
X127271Y-11327D01*
X126543Y-12276D01*
X126216Y-13067D01*
X133146D01*
Y-9984D01*
D02*
G37*
G36*
X206068Y-16067D02*
X199138D01*
Y-19149D01*
X201772D01*
X202958Y-18993D01*
X204063Y-18535D01*
X205012Y-17807D01*
X205740Y-16858D01*
X206068Y-16067D01*
D02*
G37*
G36*
X196138D02*
X189208D01*
X189535Y-16858D01*
X190264Y-17807D01*
X191213Y-18535D01*
X192318Y-18993D01*
X193504Y-19149D01*
X196138D01*
Y-16067D01*
D02*
G37*
G36*
X143076Y-16067D02*
X136146D01*
Y-19149D01*
X138779D01*
X139966Y-18993D01*
X141071Y-18535D01*
X142020Y-17807D01*
X142748Y-16858D01*
X143076Y-16067D01*
D02*
G37*
G36*
X133146D02*
X126216D01*
X126543Y-16858D01*
X127271Y-17807D01*
X128221Y-18535D01*
X129326Y-18993D01*
X130512Y-19149D01*
X133146D01*
Y-16067D01*
D02*
G37*
G36*
X253346Y-7038D02*
X251368Y-7194D01*
X249438Y-7657D01*
X247605Y-8417D01*
X245913Y-9454D01*
X244404Y-10742D01*
X243115Y-12251D01*
X242078Y-13943D01*
X241319Y-15777D01*
X240855Y-17707D01*
X240700Y-19685D01*
X240855Y-21664D01*
X241319Y-23593D01*
X242078Y-25427D01*
X243115Y-27119D01*
X244404Y-28628D01*
X245913Y-29917D01*
X247605Y-30953D01*
X249438Y-31713D01*
X251368Y-32176D01*
X253346Y-32332D01*
X255325Y-32176D01*
X257255Y-31713D01*
X259088Y-30953D01*
X260780Y-29917D01*
X262289Y-28628D01*
X263578Y-27119D01*
X264615Y-25427D01*
X265374Y-23593D01*
X265838Y-21664D01*
X265993Y-19685D01*
X265838Y-17707D01*
X265374Y-15777D01*
X264615Y-13943D01*
X263578Y-12251D01*
X262289Y-10742D01*
X260780Y-9454D01*
X259088Y-8417D01*
X257255Y-7657D01*
X255325Y-7194D01*
X253346Y-7038D01*
D02*
G37*
G36*
X93000Y-20378D02*
X93000Y-20378D01*
X36055D01*
X35376Y-20467D01*
X34744Y-20729D01*
X34201Y-21146D01*
X34201Y-21146D01*
X13089Y-42257D01*
X6824D01*
Y-60105D01*
X16798D01*
Y-45966D01*
X37141Y-25622D01*
X91914D01*
X95606Y-29315D01*
Y-30428D01*
X95594Y-30436D01*
X95178Y-31058D01*
X95033Y-31791D01*
Y-36319D01*
X95178Y-37052D01*
X95594Y-37674D01*
X96215Y-38089D01*
X96949Y-38235D01*
X99508D01*
X100241Y-38089D01*
X100863Y-37674D01*
X101278Y-37052D01*
X101424Y-36319D01*
Y-31791D01*
X101278Y-31058D01*
X100863Y-30436D01*
X100851Y-30428D01*
Y-28228D01*
X100761Y-27550D01*
X100499Y-26917D01*
X100083Y-26374D01*
X100083Y-26374D01*
X94854Y-21146D01*
X94311Y-20729D01*
X93679Y-20467D01*
X93000Y-20378D01*
D02*
G37*
G36*
X197638Y-25687D02*
X196593Y-25825D01*
X195619Y-26228D01*
X194783Y-26870D01*
X194141Y-27706D01*
X193738Y-28679D01*
X193600Y-29724D01*
Y-34843D01*
X193738Y-35888D01*
X194141Y-36861D01*
X194783Y-37697D01*
X195619Y-38339D01*
X196593Y-38742D01*
X197638Y-38880D01*
X198683Y-38742D01*
X199656Y-38339D01*
X200493Y-37697D01*
X201134Y-36861D01*
X201537Y-35888D01*
X201675Y-34843D01*
Y-29724D01*
X201537Y-28679D01*
X201134Y-27706D01*
X200493Y-26870D01*
X199656Y-26228D01*
X198683Y-25825D01*
X197638Y-25687D01*
D02*
G37*
G36*
X134646D02*
X133601Y-25825D01*
X132627Y-26228D01*
X131791Y-26870D01*
X131149Y-27706D01*
X130746Y-28679D01*
X130608Y-29724D01*
Y-34843D01*
X130746Y-35888D01*
X131149Y-36861D01*
X131791Y-37697D01*
X132627Y-38339D01*
X133601Y-38742D01*
X134646Y-38880D01*
X135691Y-38742D01*
X136664Y-38339D01*
X137501Y-37697D01*
X138142Y-36861D01*
X138545Y-35888D01*
X138683Y-34843D01*
Y-29724D01*
X138545Y-28679D01*
X138142Y-27706D01*
X137501Y-26870D01*
X136664Y-26228D01*
X135691Y-25825D01*
X134646Y-25687D01*
D02*
G37*
G36*
X79429Y-29875D02*
X76870D01*
X76137Y-30021D01*
X75515Y-30436D01*
X75100Y-31058D01*
X74954Y-31791D01*
Y-36319D01*
X75100Y-37052D01*
X75515Y-37674D01*
X75527Y-37682D01*
Y-40264D01*
X67233Y-48559D01*
X40420D01*
Y-41273D01*
X30446D01*
Y-61089D01*
X40420D01*
Y-53803D01*
X68319D01*
X68319Y-53803D01*
X68998Y-53714D01*
X69630Y-53452D01*
X70173Y-53035D01*
X80004Y-43205D01*
X80004Y-43205D01*
X80421Y-42662D01*
X80683Y-42029D01*
X80772Y-41350D01*
Y-37682D01*
X80784Y-37674D01*
X81200Y-37052D01*
X81345Y-36319D01*
Y-31791D01*
X81200Y-31058D01*
X80784Y-30436D01*
X80163Y-30021D01*
X79429Y-29875D01*
D02*
G37*
G36*
X236941Y-50263D02*
X236770Y-50286D01*
X234341D01*
Y-50527D01*
X215354D01*
X215354Y-50527D01*
X214676Y-50617D01*
X214043Y-50879D01*
X213500Y-51295D01*
X213500Y-51295D01*
X207791Y-57004D01*
X207375Y-57547D01*
X207113Y-58179D01*
X207023Y-58858D01*
X207023Y-58858D01*
Y-106938D01*
X206493Y-107629D01*
X206130Y-108507D01*
X206006Y-109449D01*
X206130Y-110391D01*
X206493Y-111269D01*
X207023Y-111960D01*
Y-123425D01*
X207023Y-123425D01*
X207113Y-124104D01*
X207375Y-124736D01*
X207791Y-125279D01*
X216275Y-133763D01*
Y-139376D01*
X215775Y-139502D01*
X215195Y-138417D01*
X214277Y-137298D01*
X213158Y-136380D01*
X211881Y-135697D01*
X210496Y-135277D01*
X209055Y-135135D01*
X207614Y-135277D01*
X206229Y-135697D01*
X204952Y-136380D01*
X204017Y-137147D01*
X203973Y-137141D01*
X203972Y-137141D01*
X194399D01*
Y-136900D01*
X187491D01*
Y-137141D01*
X149850D01*
X134854Y-122146D01*
X134311Y-121729D01*
X133679Y-121467D01*
X133000Y-121378D01*
X133000Y-121378D01*
X114246D01*
X114196Y-120878D01*
X114205Y-120876D01*
X114900Y-120412D01*
X115364Y-119717D01*
X115527Y-118898D01*
X115364Y-118078D01*
X114900Y-117384D01*
X114205Y-116920D01*
X113386Y-116756D01*
X112566Y-116920D01*
X111872Y-117384D01*
X111498Y-117943D01*
X111415Y-117967D01*
X111026D01*
X110943Y-117943D01*
X110569Y-117384D01*
X109874Y-116920D01*
X109055Y-116756D01*
X108236Y-116920D01*
X107541Y-117384D01*
X107077Y-118078D01*
X106914Y-118898D01*
X107077Y-119717D01*
X107541Y-120412D01*
X108236Y-120876D01*
X108245Y-120878D01*
X108195Y-121378D01*
X92338D01*
X76981Y-106020D01*
X76996Y-105905D01*
X76865Y-104912D01*
X76482Y-103986D01*
X75872Y-103191D01*
X75780Y-103121D01*
Y-102429D01*
X80004Y-98205D01*
X80004Y-98205D01*
X80421Y-97662D01*
X80683Y-97029D01*
X80772Y-96350D01*
X80772Y-96350D01*
Y-73238D01*
X81309D01*
Y-64951D01*
X74991D01*
Y-73238D01*
X75527D01*
Y-95264D01*
X71303Y-99488D01*
X70886Y-100031D01*
X70624Y-100664D01*
X70535Y-101342D01*
X70535Y-101343D01*
Y-103121D01*
X70443Y-103191D01*
X69833Y-103986D01*
X69450Y-104912D01*
X69319Y-105905D01*
X69450Y-106899D01*
X69833Y-107825D01*
X70443Y-108620D01*
X71238Y-109230D01*
X72164Y-109613D01*
X73158Y-109744D01*
X73272Y-109729D01*
X89398Y-125854D01*
X89398Y-125854D01*
X89941Y-126271D01*
X90573Y-126533D01*
X91252Y-126622D01*
X107938D01*
X108090Y-127122D01*
X107935Y-127226D01*
X107471Y-127921D01*
X107308Y-128740D01*
X107471Y-129560D01*
X107935Y-130254D01*
X108629Y-130718D01*
X109449Y-130881D01*
X110268Y-130718D01*
X110550Y-130530D01*
X110801Y-130362D01*
X111073Y-130752D01*
X110939Y-130988D01*
X110927Y-131005D01*
X110620Y-131464D01*
X110457Y-132283D01*
X110620Y-133103D01*
X111084Y-133798D01*
X111713Y-134218D01*
X111449Y-134636D01*
X110630Y-134473D01*
X109810Y-134636D01*
X109116Y-135100D01*
X108652Y-135795D01*
X108489Y-136614D01*
X108652Y-137434D01*
X109116Y-138128D01*
X109810Y-138592D01*
X110312Y-138692D01*
X110460Y-138722D01*
Y-139231D01*
X110312Y-139261D01*
X109810Y-139360D01*
X109116Y-139825D01*
X108652Y-140519D01*
X108489Y-141339D01*
X108652Y-142158D01*
X109116Y-142853D01*
X109810Y-143317D01*
X110312Y-143417D01*
X110460Y-143446D01*
Y-143956D01*
X110312Y-143985D01*
X109810Y-144085D01*
X109116Y-144549D01*
X108652Y-145244D01*
X108489Y-146063D01*
X108599Y-146618D01*
X108398Y-146768D01*
X108139Y-146866D01*
X107512Y-146447D01*
X106693Y-146284D01*
X105874Y-146447D01*
X105179Y-146911D01*
X104715Y-147606D01*
X104552Y-148425D01*
X104715Y-149245D01*
X105179Y-149939D01*
X105874Y-150403D01*
X106693Y-150566D01*
X107512Y-150403D01*
X108207Y-149939D01*
X108671Y-149245D01*
X108834Y-148425D01*
X108724Y-147871D01*
X108925Y-147720D01*
X109184Y-147623D01*
X109810Y-148041D01*
X110630Y-148204D01*
X111449Y-148041D01*
X112144Y-147577D01*
X112608Y-146882D01*
X112771Y-146063D01*
X112608Y-145244D01*
X112144Y-144549D01*
X111449Y-144085D01*
X110948Y-143985D01*
X110800Y-143956D01*
Y-143446D01*
X110948Y-143417D01*
X111449Y-143317D01*
X112144Y-142853D01*
X112608Y-142158D01*
X112771Y-141339D01*
X112608Y-140519D01*
X112144Y-139825D01*
X111449Y-139360D01*
X110948Y-139261D01*
X110800Y-139231D01*
Y-138722D01*
X110948Y-138692D01*
X111449Y-138592D01*
X112144Y-138128D01*
X112608Y-137434D01*
X112771Y-136614D01*
X112608Y-135795D01*
X112144Y-135100D01*
X111515Y-134680D01*
X111779Y-134262D01*
X112598Y-134425D01*
X113418Y-134262D01*
X114112Y-133798D01*
X114577Y-133103D01*
X114740Y-132283D01*
X114580Y-131480D01*
X114629Y-131412D01*
X114876Y-131165D01*
X114945Y-131115D01*
X115748Y-131275D01*
X116567Y-131112D01*
X117262Y-130648D01*
X117726Y-129953D01*
X117889Y-129134D01*
X117726Y-128314D01*
X117262Y-127620D01*
X116567Y-127156D01*
X116400Y-127122D01*
X116449Y-126622D01*
X131914D01*
X146909Y-141618D01*
X146909Y-141618D01*
X147453Y-142035D01*
X148085Y-142297D01*
X148764Y-142386D01*
X148764Y-142386D01*
X187491D01*
Y-142628D01*
X194399D01*
Y-142386D01*
X201549D01*
X201670Y-142520D01*
X201812Y-143960D01*
X202233Y-145346D01*
X202915Y-146623D01*
X203833Y-147741D01*
X204952Y-148660D01*
X206229Y-149342D01*
X207614Y-149763D01*
X209055Y-149905D01*
X210496Y-149763D01*
X211881Y-149342D01*
X213158Y-148660D01*
X214277Y-147741D01*
X215195Y-146623D01*
X215775Y-145538D01*
X216275Y-145663D01*
Y-148914D01*
X213095Y-152094D01*
X211881Y-151445D01*
X210496Y-151025D01*
X209055Y-150883D01*
X207614Y-151025D01*
X206229Y-151445D01*
X204952Y-152128D01*
X203833Y-153046D01*
X202915Y-154165D01*
X202233Y-155442D01*
X201812Y-156827D01*
X201670Y-158268D01*
X201812Y-159708D01*
X202233Y-161094D01*
X202915Y-162371D01*
X203833Y-163489D01*
X204952Y-164408D01*
X206229Y-165090D01*
X207614Y-165511D01*
X209055Y-165653D01*
X210496Y-165511D01*
X211881Y-165090D01*
X213158Y-164408D01*
X214277Y-163489D01*
X215195Y-162371D01*
X215878Y-161094D01*
X216298Y-159708D01*
X216440Y-158268D01*
X216298Y-156827D01*
X216177Y-156429D01*
X220752Y-151854D01*
X220752Y-151854D01*
X221169Y-151311D01*
X221431Y-150679D01*
X221520Y-150000D01*
X221520Y-150000D01*
Y-132677D01*
X221520Y-132677D01*
X221431Y-131998D01*
X221169Y-131366D01*
X220752Y-130823D01*
X220752Y-130823D01*
X212268Y-122339D01*
Y-111960D01*
X212798Y-111269D01*
X213162Y-110391D01*
X213286Y-109449D01*
X213162Y-108507D01*
X212798Y-107629D01*
X212268Y-106938D01*
Y-59944D01*
X216441Y-55772D01*
X234341D01*
Y-56013D01*
X241250D01*
Y-55772D01*
X246158D01*
X250902Y-60516D01*
X250902Y-60516D01*
X251445Y-60932D01*
X252077Y-61194D01*
X252756Y-61284D01*
X253435Y-61194D01*
X254067Y-60932D01*
X254610Y-60516D01*
X255027Y-59973D01*
X255289Y-59340D01*
X255378Y-58661D01*
X255289Y-57983D01*
X255027Y-57350D01*
X254610Y-56807D01*
X254610Y-56807D01*
X249098Y-51295D01*
X248555Y-50879D01*
X247923Y-50617D01*
X247244Y-50527D01*
X247244Y-50527D01*
X241250D01*
Y-50286D01*
X237111D01*
X236941Y-50263D01*
D02*
G37*
G36*
X241650Y-56972D02*
X238545D01*
Y-59486D01*
X241650D01*
Y-56972D01*
D02*
G37*
G36*
X237045D02*
X233941D01*
Y-59486D01*
X237045D01*
Y-56972D01*
D02*
G37*
G36*
X226197Y-56579D02*
X222404D01*
Y-60175D01*
X226197D01*
Y-56579D01*
D02*
G37*
G36*
X220904D02*
X217110D01*
Y-60175D01*
X220904D01*
Y-56579D01*
D02*
G37*
G36*
X241650Y-60986D02*
X238545D01*
Y-63500D01*
X241650D01*
Y-60986D01*
D02*
G37*
G36*
X237045D02*
X233941D01*
Y-63500D01*
X237045D01*
Y-60986D01*
D02*
G37*
G36*
X135039Y-61638D02*
X134220Y-61801D01*
X133525Y-62265D01*
X133061Y-62960D01*
X132961Y-63462D01*
X132932Y-63609D01*
X132422D01*
X132393Y-63462D01*
X132293Y-62960D01*
X131829Y-62265D01*
X131134Y-61801D01*
X130315Y-61638D01*
X129496Y-61801D01*
X128801Y-62265D01*
X128337Y-62960D01*
X128174Y-63779D01*
X128337Y-64599D01*
X128801Y-65294D01*
X129496Y-65758D01*
X130315Y-65921D01*
X131134Y-65758D01*
X131829Y-65294D01*
X132293Y-64599D01*
X132393Y-64097D01*
X132422Y-63950D01*
X132932D01*
X132961Y-64097D01*
X133061Y-64599D01*
X133525Y-65294D01*
X134220Y-65758D01*
X135039Y-65921D01*
X135859Y-65758D01*
X136553Y-65294D01*
X137018Y-64599D01*
X137180Y-63779D01*
X137018Y-62960D01*
X136553Y-62265D01*
X135859Y-61801D01*
X135039Y-61638D01*
D02*
G37*
G36*
X226197Y-61675D02*
X222404D01*
Y-65272D01*
X226197D01*
Y-61675D01*
D02*
G37*
G36*
X220904D02*
X217110D01*
Y-65272D01*
X220904D01*
Y-61675D01*
D02*
G37*
G36*
X191339Y-61638D02*
X190519Y-61801D01*
X189825Y-62265D01*
X189360Y-62960D01*
X189197Y-63779D01*
X189360Y-64599D01*
X189825Y-65294D01*
X190519Y-65758D01*
X191339Y-65921D01*
X192158Y-65758D01*
X192853Y-65294D01*
X193317Y-64599D01*
X193480Y-63779D01*
X193317Y-62960D01*
X192853Y-62265D01*
X192158Y-61801D01*
X191339Y-61638D01*
D02*
G37*
G36*
X186221D02*
X185401Y-61801D01*
X184706Y-62265D01*
X184242Y-62960D01*
X184079Y-63779D01*
X184242Y-64599D01*
X184706Y-65294D01*
X185401Y-65758D01*
X186221Y-65921D01*
X187040Y-65758D01*
X187734Y-65294D01*
X188199Y-64599D01*
X188362Y-63779D01*
X188199Y-62960D01*
X187734Y-62265D01*
X187040Y-61801D01*
X186221Y-61638D01*
D02*
G37*
G36*
X181102D02*
X180283Y-61801D01*
X179588Y-62265D01*
X179124Y-62960D01*
X178961Y-63779D01*
X179124Y-64599D01*
X179588Y-65294D01*
X180283Y-65758D01*
X181102Y-65921D01*
X181922Y-65758D01*
X182616Y-65294D01*
X183080Y-64599D01*
X183244Y-63779D01*
X183080Y-62960D01*
X182616Y-62265D01*
X181922Y-61801D01*
X181102Y-61638D01*
D02*
G37*
G36*
X175984D02*
X175165Y-61801D01*
X174470Y-62265D01*
X174006Y-62960D01*
X173843Y-63779D01*
X174006Y-64599D01*
X174470Y-65294D01*
X175165Y-65758D01*
X175984Y-65921D01*
X176804Y-65758D01*
X177498Y-65294D01*
X177962Y-64599D01*
X178125Y-63779D01*
X177962Y-62960D01*
X177498Y-62265D01*
X176804Y-61801D01*
X175984Y-61638D01*
D02*
G37*
G36*
X170866D02*
X170047Y-61801D01*
X169352Y-62265D01*
X168888Y-62960D01*
X168725Y-63779D01*
X168888Y-64599D01*
X169352Y-65294D01*
X170047Y-65758D01*
X170866Y-65921D01*
X171686Y-65758D01*
X172380Y-65294D01*
X172844Y-64599D01*
X173007Y-63779D01*
X172844Y-62960D01*
X172380Y-62265D01*
X171686Y-61801D01*
X170866Y-61638D01*
D02*
G37*
G36*
X165748D02*
X164929Y-61801D01*
X164234Y-62265D01*
X163770Y-62960D01*
X163607Y-63779D01*
X163770Y-64599D01*
X164234Y-65294D01*
X164929Y-65758D01*
X165748Y-65921D01*
X166567Y-65758D01*
X167262Y-65294D01*
X167726Y-64599D01*
X167889Y-63779D01*
X167726Y-62960D01*
X167262Y-62265D01*
X166567Y-61801D01*
X165748Y-61638D01*
D02*
G37*
G36*
X160630D02*
X159810Y-61801D01*
X159116Y-62265D01*
X158652Y-62960D01*
X158489Y-63779D01*
X158652Y-64599D01*
X159116Y-65294D01*
X159810Y-65758D01*
X160630Y-65921D01*
X161449Y-65758D01*
X162144Y-65294D01*
X162608Y-64599D01*
X162771Y-63779D01*
X162608Y-62960D01*
X162144Y-62265D01*
X161449Y-61801D01*
X160630Y-61638D01*
D02*
G37*
G36*
X155512D02*
X154692Y-61801D01*
X153998Y-62265D01*
X153534Y-62960D01*
X153371Y-63779D01*
X153534Y-64599D01*
X153998Y-65294D01*
X154692Y-65758D01*
X155512Y-65921D01*
X156331Y-65758D01*
X157026Y-65294D01*
X157490Y-64599D01*
X157653Y-63779D01*
X157490Y-62960D01*
X157026Y-62265D01*
X156331Y-61801D01*
X155512Y-61638D01*
D02*
G37*
G36*
X150394D02*
X149574Y-61801D01*
X148880Y-62265D01*
X148416Y-62960D01*
X148253Y-63779D01*
X148416Y-64599D01*
X148880Y-65294D01*
X149574Y-65758D01*
X150394Y-65921D01*
X151213Y-65758D01*
X151908Y-65294D01*
X152372Y-64599D01*
X152535Y-63779D01*
X152372Y-62960D01*
X151908Y-62265D01*
X151213Y-61801D01*
X150394Y-61638D01*
D02*
G37*
G36*
X145276D02*
X144456Y-61801D01*
X143762Y-62265D01*
X143297Y-62960D01*
X143134Y-63779D01*
X143297Y-64599D01*
X143762Y-65294D01*
X144456Y-65758D01*
X145276Y-65921D01*
X146095Y-65758D01*
X146790Y-65294D01*
X147254Y-64599D01*
X147417Y-63779D01*
X147254Y-62960D01*
X146790Y-62265D01*
X146095Y-61801D01*
X145276Y-61638D01*
D02*
G37*
G36*
X140157D02*
X139338Y-61801D01*
X138644Y-62265D01*
X138179Y-62960D01*
X138016Y-63779D01*
X138179Y-64599D01*
X138644Y-65294D01*
X139338Y-65758D01*
X140157Y-65921D01*
X140977Y-65758D01*
X141672Y-65294D01*
X142136Y-64599D01*
X142299Y-63779D01*
X142136Y-62960D01*
X141672Y-62265D01*
X140977Y-61801D01*
X140157Y-61638D01*
D02*
G37*
G36*
X99508Y-64507D02*
X98978D01*
Y-68344D01*
X101832D01*
Y-66831D01*
X101655Y-65941D01*
X101151Y-65187D01*
X100397Y-64683D01*
X99508Y-64507D01*
D02*
G37*
G36*
X97478D02*
X96949D01*
X96059Y-64683D01*
X95305Y-65187D01*
X94802Y-65941D01*
X94625Y-66831D01*
Y-68344D01*
X97478D01*
Y-64507D01*
D02*
G37*
G36*
X252756Y-63913D02*
X252077Y-64002D01*
X251445Y-64264D01*
X250902Y-64681D01*
X250902Y-64681D01*
X245272Y-70311D01*
X239182D01*
X239030Y-69811D01*
X239309Y-69624D01*
X239773Y-68930D01*
X239936Y-68110D01*
X239773Y-67291D01*
X239309Y-66596D01*
X238615Y-66132D01*
X237795Y-65969D01*
X236976Y-66132D01*
X236281Y-66596D01*
X235817Y-67291D01*
X235654Y-68110D01*
X235817Y-68930D01*
X236281Y-69624D01*
X236560Y-69811D01*
X236408Y-70311D01*
X225818D01*
X225797Y-70204D01*
Y-68987D01*
X224580D01*
X224447Y-68960D01*
X224314Y-68987D01*
X217510D01*
Y-76880D01*
X219031D01*
Y-85433D01*
X219121Y-86112D01*
X219383Y-86744D01*
X219799Y-87287D01*
X220342Y-87704D01*
X220975Y-87966D01*
X221654Y-88055D01*
X222332Y-87966D01*
X222965Y-87704D01*
X223508Y-87287D01*
X223925Y-86744D01*
X224187Y-86112D01*
X224276Y-85433D01*
Y-76880D01*
X225797D01*
Y-75555D01*
X246358D01*
X246358Y-75555D01*
X247037Y-75466D01*
X247670Y-75204D01*
X248213Y-74787D01*
X254610Y-68390D01*
X254610Y-68390D01*
X255027Y-67847D01*
X255289Y-67214D01*
X255378Y-66535D01*
X255289Y-65857D01*
X255027Y-65224D01*
X254610Y-64681D01*
X254067Y-64264D01*
X253435Y-64002D01*
X252756Y-63913D01*
D02*
G37*
G36*
X129134Y-66363D02*
X128314Y-66526D01*
X127620Y-66990D01*
X127156Y-67685D01*
X126993Y-68504D01*
X127156Y-69323D01*
X127620Y-70018D01*
X128314Y-70482D01*
X129134Y-70645D01*
X129953Y-70482D01*
X130648Y-70018D01*
X131112Y-69323D01*
X131275Y-68504D01*
X131112Y-67685D01*
X130648Y-66990D01*
X129953Y-66526D01*
X129134Y-66363D01*
D02*
G37*
G36*
X162642Y-70359D02*
Y-72516D01*
X164799D01*
X164594Y-72022D01*
X163961Y-71197D01*
X163135Y-70563D01*
X162642Y-70359D01*
D02*
G37*
G36*
X159642Y-70359D02*
X159148Y-70563D01*
X158323Y-71197D01*
X157689Y-72022D01*
X157485Y-72516D01*
X159642D01*
Y-70359D01*
D02*
G37*
G36*
X101832Y-69845D02*
X98978D01*
Y-73682D01*
X99508D01*
X100397Y-73506D01*
X101151Y-73002D01*
X101655Y-72248D01*
X101832Y-71358D01*
Y-69845D01*
D02*
G37*
G36*
X97478D02*
X94625D01*
Y-71358D01*
X94802Y-72248D01*
X95305Y-73002D01*
X96059Y-73506D01*
X96949Y-73682D01*
X97478D01*
Y-69845D01*
D02*
G37*
G36*
X159642Y-75516D02*
X157485D01*
X157689Y-76009D01*
X158323Y-76835D01*
X159148Y-77469D01*
X159642Y-77673D01*
Y-75516D01*
D02*
G37*
G36*
X164799D02*
X162642D01*
Y-77673D01*
X163135Y-77469D01*
X163961Y-76835D01*
X164594Y-76009D01*
X164799Y-75516D01*
D02*
G37*
G36*
X181142Y-69978D02*
X180097Y-70116D01*
X179123Y-70519D01*
X178287Y-71161D01*
X177645Y-71997D01*
X177242Y-72971D01*
X177104Y-74016D01*
X177242Y-75061D01*
X177645Y-76034D01*
X178287Y-76871D01*
X179123Y-77512D01*
X180097Y-77916D01*
X181142Y-78053D01*
X182187Y-77916D01*
X183160Y-77512D01*
X183996Y-76871D01*
X184638Y-76034D01*
X185041Y-75061D01*
X185179Y-74016D01*
X185041Y-72971D01*
X184638Y-71997D01*
X183996Y-71161D01*
X183160Y-70519D01*
X182187Y-70116D01*
X181142Y-69978D01*
D02*
G37*
G36*
X171142D02*
X170097Y-70116D01*
X169123Y-70519D01*
X168287Y-71161D01*
X167645Y-71997D01*
X167242Y-72971D01*
X167104Y-74016D01*
X167242Y-75061D01*
X167645Y-76034D01*
X168287Y-76871D01*
X169123Y-77512D01*
X170097Y-77916D01*
X171142Y-78053D01*
X172187Y-77916D01*
X173160Y-77512D01*
X173996Y-76871D01*
X174638Y-76034D01*
X175041Y-75061D01*
X175179Y-74016D01*
X175041Y-72971D01*
X174638Y-71997D01*
X173996Y-71161D01*
X173160Y-70519D01*
X172187Y-70116D01*
X171142Y-69978D01*
D02*
G37*
G36*
X151142D02*
X150097Y-70116D01*
X149123Y-70519D01*
X148287Y-71161D01*
X147645Y-71997D01*
X147242Y-72971D01*
X147104Y-74016D01*
X147242Y-75061D01*
X147645Y-76034D01*
X148287Y-76871D01*
X149123Y-77512D01*
X150097Y-77916D01*
X151142Y-78053D01*
X152187Y-77916D01*
X153160Y-77512D01*
X153997Y-76871D01*
X154638Y-76034D01*
X155042Y-75061D01*
X155179Y-74016D01*
X155042Y-72971D01*
X154638Y-71997D01*
X153997Y-71161D01*
X153160Y-70519D01*
X152187Y-70116D01*
X151142Y-69978D01*
D02*
G37*
G36*
X141142D02*
X140097Y-70116D01*
X139123Y-70519D01*
X138287Y-71161D01*
X137645Y-71997D01*
X137242Y-72971D01*
X137104Y-74016D01*
X137242Y-75061D01*
X137645Y-76034D01*
X138287Y-76871D01*
X139123Y-77512D01*
X140097Y-77916D01*
X141142Y-78053D01*
X142187Y-77916D01*
X143160Y-77512D01*
X143997Y-76871D01*
X144638Y-76034D01*
X145042Y-75061D01*
X145179Y-74016D01*
X145042Y-72971D01*
X144638Y-71997D01*
X143997Y-71161D01*
X143160Y-70519D01*
X142187Y-70116D01*
X141142Y-69978D01*
D02*
G37*
G36*
X129134Y-75418D02*
X128314Y-75581D01*
X127620Y-76045D01*
X127156Y-76740D01*
X126993Y-77559D01*
X127156Y-78378D01*
X127620Y-79073D01*
X128314Y-79537D01*
X129134Y-79700D01*
X129953Y-79537D01*
X130648Y-79073D01*
X131112Y-78378D01*
X131275Y-77559D01*
X131112Y-76740D01*
X130648Y-76045D01*
X129953Y-75581D01*
X129134Y-75418D01*
D02*
G37*
G36*
X191142Y-69978D02*
X190097Y-70116D01*
X189123Y-70519D01*
X188287Y-71161D01*
X187645Y-71997D01*
X187242Y-72971D01*
X187104Y-74016D01*
X187242Y-75061D01*
X187645Y-76034D01*
X188287Y-76871D01*
X189123Y-77512D01*
X190097Y-77916D01*
X191142Y-78053D01*
X192187Y-77916D01*
X193084Y-77544D01*
X194073Y-78533D01*
Y-80589D01*
X193573Y-80836D01*
X193160Y-80519D01*
X192187Y-80116D01*
X191142Y-79978D01*
X190097Y-80116D01*
X189123Y-80519D01*
X188287Y-81161D01*
X187645Y-81997D01*
X187242Y-82971D01*
X187104Y-84016D01*
X187242Y-85061D01*
X187645Y-86034D01*
X188287Y-86870D01*
X189123Y-87512D01*
X190020Y-87884D01*
Y-91858D01*
X179850Y-102028D01*
X165285D01*
X164914Y-101131D01*
X164272Y-100295D01*
X163436Y-99653D01*
X162462Y-99250D01*
X161417Y-99112D01*
X160372Y-99250D01*
X159399Y-99653D01*
X158563Y-100295D01*
X157921Y-101131D01*
X157518Y-102105D01*
X157380Y-103150D01*
X157518Y-104194D01*
X157921Y-105168D01*
X158563Y-106004D01*
X159399Y-106646D01*
X160372Y-107049D01*
X161417Y-107187D01*
X162462Y-107049D01*
X163436Y-106646D01*
X164272Y-106004D01*
X164914Y-105168D01*
X165285Y-104271D01*
X180050D01*
X180257Y-104771D01*
X173158Y-111871D01*
X165285D01*
X164914Y-110974D01*
X164272Y-110137D01*
X163436Y-109496D01*
X162462Y-109092D01*
X161417Y-108955D01*
X160372Y-109092D01*
X159399Y-109496D01*
X158563Y-110137D01*
X157921Y-110974D01*
X157518Y-111947D01*
X157380Y-112992D01*
X157518Y-114037D01*
X157921Y-115011D01*
X158563Y-115847D01*
X159399Y-116489D01*
X160372Y-116892D01*
X161417Y-117029D01*
X162462Y-116892D01*
X163436Y-116489D01*
X164272Y-115847D01*
X164914Y-115011D01*
X165285Y-114114D01*
X173622D01*
X173622Y-114114D01*
X174051Y-114028D01*
X174415Y-113785D01*
X195987Y-92213D01*
X195988Y-92213D01*
X196231Y-91849D01*
X196316Y-91420D01*
Y-78069D01*
X196316Y-78069D01*
X196231Y-77639D01*
X195988Y-77275D01*
X195987Y-77275D01*
X194670Y-75958D01*
X195042Y-75061D01*
X195179Y-74016D01*
X195042Y-72971D01*
X194638Y-71997D01*
X193997Y-71161D01*
X193160Y-70519D01*
X192187Y-70116D01*
X191142Y-69978D01*
D02*
G37*
G36*
X162642Y-80359D02*
Y-82516D01*
X164799D01*
X164594Y-82022D01*
X163961Y-81197D01*
X163135Y-80563D01*
X162642Y-80359D01*
D02*
G37*
G36*
X159642Y-80359D02*
X159148Y-80563D01*
X158323Y-81197D01*
X157689Y-82022D01*
X157485Y-82516D01*
X159642D01*
Y-80359D01*
D02*
G37*
G36*
X129134Y-80536D02*
X128314Y-80699D01*
X127620Y-81163D01*
X127156Y-81858D01*
X126993Y-82677D01*
X127156Y-83497D01*
X127620Y-84191D01*
X128314Y-84655D01*
X129134Y-84818D01*
X129953Y-84655D01*
X130648Y-84191D01*
X131112Y-83497D01*
X131275Y-82677D01*
X131112Y-81858D01*
X130648Y-81163D01*
X129953Y-80699D01*
X129134Y-80536D01*
D02*
G37*
G36*
X159642Y-85516D02*
X157485D01*
X157689Y-86009D01*
X158323Y-86835D01*
X159148Y-87468D01*
X159642Y-87673D01*
Y-85516D01*
D02*
G37*
G36*
X164799D02*
X162642D01*
Y-87673D01*
X163135Y-87468D01*
X163961Y-86835D01*
X164594Y-86009D01*
X164799Y-85516D01*
D02*
G37*
G36*
X145144Y-80013D02*
X137139D01*
Y-88019D01*
X145144D01*
Y-80013D01*
D02*
G37*
G36*
X181142Y-79978D02*
X180097Y-80116D01*
X179123Y-80519D01*
X178287Y-81161D01*
X177645Y-81997D01*
X177242Y-82971D01*
X177104Y-84016D01*
X177242Y-85061D01*
X177645Y-86034D01*
X178287Y-86870D01*
X179123Y-87512D01*
X180097Y-87915D01*
X181142Y-88053D01*
X182187Y-87915D01*
X183160Y-87512D01*
X183996Y-86870D01*
X184638Y-86034D01*
X185041Y-85061D01*
X185179Y-84016D01*
X185041Y-82971D01*
X184638Y-81997D01*
X183996Y-81161D01*
X183160Y-80519D01*
X182187Y-80116D01*
X181142Y-79978D01*
D02*
G37*
G36*
X171142D02*
X170097Y-80116D01*
X169123Y-80519D01*
X168287Y-81161D01*
X167645Y-81997D01*
X167242Y-82971D01*
X167104Y-84016D01*
X167242Y-85061D01*
X167645Y-86034D01*
X168287Y-86870D01*
X169123Y-87512D01*
X170097Y-87915D01*
X171142Y-88053D01*
X172187Y-87915D01*
X173160Y-87512D01*
X173996Y-86870D01*
X174638Y-86034D01*
X175041Y-85061D01*
X175179Y-84016D01*
X175041Y-82971D01*
X174638Y-81997D01*
X173996Y-81161D01*
X173160Y-80519D01*
X172187Y-80116D01*
X171142Y-79978D01*
D02*
G37*
G36*
X151142D02*
X150097Y-80116D01*
X149123Y-80519D01*
X148287Y-81161D01*
X147645Y-81997D01*
X147242Y-82971D01*
X147104Y-84016D01*
X147242Y-85061D01*
X147645Y-86034D01*
X148287Y-86870D01*
X149123Y-87512D01*
X150097Y-87915D01*
X151142Y-88053D01*
X152187Y-87915D01*
X153160Y-87512D01*
X153997Y-86870D01*
X154638Y-86034D01*
X155042Y-85061D01*
X155179Y-84016D01*
X155042Y-82971D01*
X154638Y-81997D01*
X153997Y-81161D01*
X153160Y-80519D01*
X152187Y-80116D01*
X151142Y-79978D01*
D02*
G37*
G36*
X129134Y-85654D02*
X128314Y-85817D01*
X127620Y-86281D01*
X127156Y-86976D01*
X126993Y-87795D01*
X127156Y-88615D01*
X127620Y-89309D01*
X128314Y-89773D01*
X129134Y-89936D01*
X129953Y-89773D01*
X130648Y-89309D01*
X131112Y-88615D01*
X131275Y-87795D01*
X131112Y-86976D01*
X130648Y-86281D01*
X129953Y-85817D01*
X129134Y-85654D01*
D02*
G37*
G36*
X180315Y-88804D02*
X179496Y-88967D01*
X178801Y-89431D01*
X178337Y-90126D01*
X178174Y-90945D01*
X178304Y-91597D01*
X177884Y-91919D01*
X177591Y-91723D01*
X176772Y-91560D01*
X175952Y-91723D01*
X175258Y-92187D01*
X174794Y-92881D01*
X174630Y-93701D01*
X174702Y-94059D01*
X174642Y-94156D01*
X174269Y-94444D01*
X173622Y-94315D01*
X172803Y-94478D01*
X172108Y-94943D01*
X171644Y-95637D01*
X171481Y-96457D01*
X171644Y-97276D01*
X172108Y-97971D01*
X172803Y-98435D01*
X173622Y-98598D01*
X174441Y-98435D01*
X175136Y-97971D01*
X175600Y-97276D01*
X175763Y-96457D01*
X175692Y-96098D01*
X175752Y-96002D01*
X176125Y-95713D01*
X176772Y-95842D01*
X177591Y-95679D01*
X177718Y-95594D01*
X178213Y-95865D01*
X178337Y-96489D01*
X178801Y-97183D01*
X179496Y-97648D01*
X180315Y-97810D01*
X181134Y-97648D01*
X181829Y-97183D01*
X182293Y-96489D01*
X182456Y-95669D01*
X182417Y-95471D01*
X182867Y-95170D01*
X183039Y-95285D01*
X183858Y-95448D01*
X184678Y-95285D01*
X185372Y-94821D01*
X185836Y-94126D01*
X185999Y-93307D01*
X185836Y-92488D01*
X185372Y-91793D01*
X184678Y-91329D01*
X183858Y-91166D01*
X183039Y-91329D01*
X182867Y-91444D01*
X182417Y-91143D01*
X182456Y-90945D01*
X182293Y-90126D01*
X181829Y-89431D01*
X181134Y-88967D01*
X180315Y-88804D01*
D02*
G37*
G36*
X131102Y-93528D02*
X130283Y-93691D01*
X129588Y-94155D01*
X129124Y-94850D01*
X128961Y-95669D01*
X129124Y-96489D01*
X129588Y-97183D01*
X130283Y-97648D01*
X131102Y-97810D01*
X131922Y-97648D01*
X132616Y-97183D01*
X133080Y-96489D01*
X133244Y-95669D01*
X133080Y-94850D01*
X132616Y-94155D01*
X131922Y-93691D01*
X131102Y-93528D01*
D02*
G37*
G36*
X94342Y-102462D02*
Y-104405D01*
X96287D01*
X96123Y-104011D01*
X95521Y-103227D01*
X94737Y-102625D01*
X94342Y-102462D01*
D02*
G37*
G36*
X91343D02*
X90948Y-102625D01*
X90164Y-103227D01*
X89562Y-104011D01*
X89398Y-104405D01*
X91343D01*
Y-102462D01*
D02*
G37*
G36*
X122835Y-91560D02*
X122015Y-91723D01*
X121321Y-92187D01*
X120856Y-92881D01*
X120694Y-93701D01*
X120856Y-94520D01*
X121321Y-95215D01*
X121713Y-95477D01*
Y-98719D01*
X121713Y-98719D01*
X121799Y-99149D01*
X122042Y-99512D01*
X127922Y-105393D01*
X127922Y-105393D01*
X128286Y-105636D01*
X128715Y-105722D01*
X142124D01*
X147873Y-111470D01*
X147675Y-111947D01*
X147538Y-112992D01*
X147675Y-114037D01*
X148078Y-115011D01*
X148720Y-115847D01*
X149556Y-116489D01*
X150530Y-116892D01*
X151575Y-117029D01*
X152620Y-116892D01*
X153594Y-116489D01*
X154430Y-115847D01*
X155071Y-115011D01*
X155474Y-114037D01*
X155612Y-112992D01*
X155474Y-111947D01*
X155071Y-110974D01*
X154430Y-110137D01*
X153594Y-109496D01*
X152620Y-109092D01*
X151575Y-108955D01*
X150530Y-109092D01*
X149556Y-109496D01*
X149281Y-109707D01*
X144158Y-104584D01*
X144350Y-104122D01*
X147666D01*
X147675Y-104194D01*
X148078Y-105168D01*
X148720Y-106004D01*
X149556Y-106646D01*
X150530Y-107049D01*
X151575Y-107187D01*
X152620Y-107049D01*
X153594Y-106646D01*
X154430Y-106004D01*
X155071Y-105168D01*
X155474Y-104194D01*
X155612Y-103150D01*
X155474Y-102105D01*
X155071Y-101131D01*
X154430Y-100295D01*
X153594Y-99653D01*
X152620Y-99250D01*
X151575Y-99112D01*
X150530Y-99250D01*
X149556Y-99653D01*
X148720Y-100295D01*
X148078Y-101131D01*
X147769Y-101878D01*
X129842D01*
X126712Y-98748D01*
Y-97839D01*
X127105Y-97577D01*
X127569Y-96882D01*
X127732Y-96063D01*
X127569Y-95244D01*
X127105Y-94549D01*
X126410Y-94085D01*
X125591Y-93922D01*
X125395Y-93961D01*
X124962Y-93632D01*
X124813Y-92881D01*
X124349Y-92187D01*
X123654Y-91723D01*
X122835Y-91560D01*
D02*
G37*
G36*
X220988Y-106218D02*
Y-107949D01*
X222719D01*
X222597Y-107654D01*
X222026Y-106911D01*
X221283Y-106340D01*
X220988Y-106218D01*
D02*
G37*
G36*
X217988D02*
X217693Y-106340D01*
X216950Y-106911D01*
X216379Y-107654D01*
X216257Y-107949D01*
X217988D01*
Y-106218D01*
D02*
G37*
G36*
X96287Y-107405D02*
X94342D01*
Y-109350D01*
X94737Y-109186D01*
X95521Y-108584D01*
X96123Y-107800D01*
X96287Y-107405D01*
D02*
G37*
G36*
X91343D02*
X89398D01*
X89562Y-107800D01*
X90164Y-108584D01*
X90948Y-109186D01*
X91343Y-109350D01*
Y-107405D01*
D02*
G37*
G36*
X126871Y-105733D02*
X126052Y-105896D01*
X125357Y-106360D01*
X124893Y-107055D01*
X124730Y-107874D01*
X124893Y-108693D01*
X125357Y-109388D01*
X126052Y-109852D01*
X126871Y-110015D01*
X127690Y-109852D01*
X128385Y-109388D01*
X128849Y-108693D01*
X129012Y-107874D01*
X128849Y-107055D01*
X128385Y-106360D01*
X127690Y-105896D01*
X126871Y-105733D01*
D02*
G37*
G36*
X222719Y-110949D02*
X220988D01*
Y-112680D01*
X221283Y-112558D01*
X222026Y-111987D01*
X222597Y-111244D01*
X222719Y-110949D01*
D02*
G37*
G36*
X217988D02*
X216257D01*
X216379Y-111244D01*
X216950Y-111987D01*
X217693Y-112558D01*
X217988Y-112680D01*
Y-110949D01*
D02*
G37*
G36*
X32809Y-106430D02*
X28609D01*
X26509Y-108530D01*
Y-112730D01*
X28609Y-114830D01*
X32809D01*
X34908Y-112730D01*
Y-108530D01*
X32809Y-106430D01*
D02*
G37*
G36*
X9186D02*
X4987D01*
X2887Y-108530D01*
Y-112730D01*
X4987Y-114830D01*
X9186D01*
X11286Y-112730D01*
Y-108530D01*
X9186Y-106430D01*
D02*
G37*
G36*
X197244Y-110851D02*
X196425Y-111014D01*
X195730Y-111478D01*
X195266Y-112173D01*
X195103Y-112992D01*
X195266Y-113812D01*
X195730Y-114506D01*
X196425Y-114970D01*
X197244Y-115133D01*
X198064Y-114970D01*
X198758Y-114506D01*
X199222Y-113812D01*
X199385Y-112992D01*
X199222Y-112173D01*
X198758Y-111478D01*
X198064Y-111014D01*
X197244Y-110851D01*
D02*
G37*
G36*
X126871D02*
X126052Y-111014D01*
X125357Y-111478D01*
X124893Y-112173D01*
X124730Y-112992D01*
X124893Y-113812D01*
X125357Y-114506D01*
X126052Y-114970D01*
X126871Y-115133D01*
X127690Y-114970D01*
X128385Y-114506D01*
X128849Y-113812D01*
X129012Y-112992D01*
X128849Y-112173D01*
X128385Y-111478D01*
X127690Y-111014D01*
X126871Y-110851D01*
D02*
G37*
G36*
X126871Y-115969D02*
X126052Y-116132D01*
X125357Y-116596D01*
X124893Y-117291D01*
X124730Y-118110D01*
X124893Y-118930D01*
X125357Y-119624D01*
X126052Y-120088D01*
X126871Y-120251D01*
X127690Y-120088D01*
X128385Y-119624D01*
X128849Y-118930D01*
X129012Y-118110D01*
X128849Y-117291D01*
X128385Y-116596D01*
X127690Y-116132D01*
X126871Y-115969D01*
D02*
G37*
G36*
X145276Y-113607D02*
X144456Y-113770D01*
X143762Y-114234D01*
X143297Y-114929D01*
X143134Y-115748D01*
X143297Y-116567D01*
X143762Y-117262D01*
X144068Y-117466D01*
Y-117966D01*
X143762Y-118171D01*
X143297Y-118866D01*
X143134Y-119685D01*
X143297Y-120504D01*
X143762Y-121199D01*
X144456Y-121663D01*
X145276Y-121826D01*
X146095Y-121663D01*
X146790Y-121199D01*
X147163Y-120640D01*
X147246Y-120616D01*
X147636D01*
X147719Y-120640D01*
X148092Y-121199D01*
X148787Y-121663D01*
X149606Y-121826D01*
X150426Y-121663D01*
X151120Y-121199D01*
X151584Y-120504D01*
X151747Y-119685D01*
X151584Y-118866D01*
X151120Y-118171D01*
X150426Y-117707D01*
X149606Y-117544D01*
X148787Y-117707D01*
X148092Y-118171D01*
X147719Y-118730D01*
X147636Y-118754D01*
X147246D01*
X147163Y-118730D01*
X146790Y-118171D01*
X146484Y-117966D01*
Y-117466D01*
X146790Y-117262D01*
X147254Y-116567D01*
X147417Y-115748D01*
X147254Y-114929D01*
X146790Y-114234D01*
X146095Y-113770D01*
X145276Y-113607D01*
D02*
G37*
G36*
X25722Y-114698D02*
X21916D01*
X20013Y-116601D01*
Y-120407D01*
X21916Y-122310D01*
X25722D01*
X27625Y-120407D01*
Y-116601D01*
X25722Y-114698D01*
D02*
G37*
G36*
X15879D02*
X12073D01*
X10170Y-116601D01*
Y-120407D01*
X12073Y-122310D01*
X15879D01*
X17782Y-120407D01*
Y-116601D01*
X15879Y-114698D01*
D02*
G37*
G36*
X161417Y-118797D02*
X160372Y-118935D01*
X159399Y-119338D01*
X158563Y-119980D01*
X157921Y-120816D01*
X157518Y-121790D01*
X157380Y-122835D01*
X157518Y-123880D01*
X157921Y-124853D01*
X158563Y-125689D01*
X159399Y-126331D01*
X160372Y-126734D01*
X161417Y-126872D01*
X162462Y-126734D01*
X163436Y-126331D01*
X164272Y-125689D01*
X164914Y-124853D01*
X165317Y-123880D01*
X165455Y-122835D01*
X165317Y-121790D01*
X164914Y-120816D01*
X164272Y-119980D01*
X163436Y-119338D01*
X162462Y-118935D01*
X161417Y-118797D01*
D02*
G37*
G36*
X194799Y-129413D02*
X191695D01*
Y-131927D01*
X194799D01*
Y-129413D01*
D02*
G37*
G36*
X190195D02*
X187091D01*
Y-131927D01*
X190195D01*
Y-129413D01*
D02*
G37*
G36*
X207874Y-127780D02*
X207055Y-127943D01*
X206360Y-128407D01*
X205896Y-129102D01*
X205733Y-129921D01*
X205896Y-130741D01*
X206360Y-131435D01*
X207055Y-131899D01*
X207874Y-132062D01*
X208693Y-131899D01*
X209388Y-131435D01*
X209852Y-130741D01*
X210015Y-129921D01*
X209852Y-129102D01*
X209388Y-128407D01*
X208693Y-127943D01*
X207874Y-127780D01*
D02*
G37*
G36*
X164961Y-128568D02*
X164141Y-128730D01*
X163447Y-129195D01*
X162982Y-129889D01*
X162820Y-130709D01*
X162982Y-131528D01*
X163447Y-132223D01*
X164141Y-132687D01*
X164961Y-132850D01*
X165780Y-132687D01*
X166475Y-132223D01*
X166939Y-131528D01*
X167102Y-130709D01*
X166939Y-129889D01*
X166475Y-129195D01*
X165780Y-128730D01*
X164961Y-128568D01*
D02*
G37*
G36*
X147244D02*
X146425Y-128730D01*
X145730Y-129195D01*
X145266Y-129889D01*
X145103Y-130709D01*
X145266Y-131528D01*
X145730Y-132223D01*
X146425Y-132687D01*
X147244Y-132850D01*
X148064Y-132687D01*
X148758Y-132223D01*
X149222Y-131528D01*
X149385Y-130709D01*
X149222Y-129889D01*
X148758Y-129195D01*
X148064Y-128730D01*
X147244Y-128568D01*
D02*
G37*
G36*
X159843Y-130536D02*
X159023Y-130699D01*
X158328Y-131163D01*
X157864Y-131858D01*
X157701Y-132677D01*
X157864Y-133497D01*
X158328Y-134191D01*
X159023Y-134655D01*
X159843Y-134818D01*
X160662Y-134655D01*
X161356Y-134191D01*
X161821Y-133497D01*
X161984Y-132677D01*
X161821Y-131858D01*
X161356Y-131163D01*
X160662Y-130699D01*
X159843Y-130536D01*
D02*
G37*
G36*
X134646Y-131717D02*
X133826Y-131880D01*
X133132Y-132344D01*
X132668Y-133039D01*
X132504Y-133858D01*
X132668Y-134678D01*
X132974Y-135137D01*
X133132Y-135372D01*
X132848Y-135779D01*
X132315Y-135423D01*
X131496Y-135260D01*
X130677Y-135423D01*
X129982Y-135888D01*
X129518Y-136582D01*
X129355Y-137402D01*
X129518Y-138221D01*
X129874Y-138753D01*
X129467Y-139037D01*
X129231Y-138880D01*
X128772Y-138573D01*
X127953Y-138410D01*
X127133Y-138573D01*
X126439Y-139037D01*
X125975Y-139732D01*
X125812Y-140551D01*
X125975Y-141371D01*
X126439Y-142065D01*
X126887Y-142365D01*
X126781Y-142895D01*
X126740Y-142904D01*
X126045Y-143368D01*
X125581Y-144062D01*
X125418Y-144882D01*
X125581Y-145701D01*
X126045Y-146396D01*
X126740Y-146860D01*
X127559Y-147023D01*
X128378Y-146860D01*
X129073Y-146396D01*
X129537Y-145701D01*
X129700Y-144882D01*
X129537Y-144062D01*
X129073Y-143368D01*
X128625Y-143068D01*
X128730Y-142538D01*
X128772Y-142529D01*
X129467Y-142065D01*
X129931Y-141371D01*
X130094Y-140551D01*
X129931Y-139732D01*
X129575Y-139199D01*
X129982Y-138916D01*
X130218Y-139073D01*
X130677Y-139380D01*
X131496Y-139543D01*
X132315Y-139380D01*
X133010Y-138916D01*
X133474Y-138221D01*
X133637Y-137402D01*
X133474Y-136582D01*
X133168Y-136123D01*
X133010Y-135888D01*
X133294Y-135481D01*
X133826Y-135836D01*
X134646Y-135999D01*
X135465Y-135836D01*
X136160Y-135372D01*
X136624Y-134678D01*
X136787Y-133858D01*
X136624Y-133039D01*
X136160Y-132344D01*
X135465Y-131880D01*
X134646Y-131717D01*
D02*
G37*
G36*
X194799Y-133427D02*
X191695D01*
Y-135941D01*
X194799D01*
Y-133427D01*
D02*
G37*
G36*
X190195D02*
X187091D01*
Y-135941D01*
X190195D01*
Y-133427D01*
D02*
G37*
G36*
X88114Y-131804D02*
Y-137476D01*
X93787D01*
X93390Y-136170D01*
X92713Y-134901D01*
X91800Y-133790D01*
X90689Y-132878D01*
X89421Y-132200D01*
X88114Y-131804D01*
D02*
G37*
G36*
X85114Y-131804D02*
X83807Y-132200D01*
X82539Y-132878D01*
X81428Y-133790D01*
X80516Y-134901D01*
X79838Y-136170D01*
X79441Y-137476D01*
X85114D01*
Y-131804D01*
D02*
G37*
G36*
X101575Y-146284D02*
X100755Y-146447D01*
X100061Y-146911D01*
X99597Y-147606D01*
X99434Y-148425D01*
X99597Y-149245D01*
X100061Y-149939D01*
X100755Y-150403D01*
X101575Y-150566D01*
X102394Y-150403D01*
X103089Y-149939D01*
X103553Y-149245D01*
X103716Y-148425D01*
X103553Y-147606D01*
X103089Y-146911D01*
X102394Y-146447D01*
X101575Y-146284D01*
D02*
G37*
G36*
X96457D02*
X95637Y-146447D01*
X94943Y-146911D01*
X94478Y-147606D01*
X94315Y-148425D01*
X94478Y-149245D01*
X94943Y-149939D01*
X95637Y-150403D01*
X96457Y-150566D01*
X97276Y-150403D01*
X97971Y-149939D01*
X98435Y-149245D01*
X98598Y-148425D01*
X98435Y-147606D01*
X97971Y-146911D01*
X97276Y-146447D01*
X96457Y-146284D01*
D02*
G37*
G36*
X91339D02*
X90519Y-146447D01*
X89825Y-146911D01*
X89360Y-147606D01*
X89197Y-148425D01*
X89360Y-149245D01*
X89825Y-149939D01*
X90519Y-150403D01*
X91339Y-150566D01*
X92158Y-150403D01*
X92853Y-149939D01*
X93317Y-149245D01*
X93480Y-148425D01*
X93317Y-147606D01*
X92853Y-146911D01*
X92158Y-146447D01*
X91339Y-146284D01*
D02*
G37*
G36*
X93787Y-140476D02*
X86614D01*
X79441D01*
X79838Y-141783D01*
X80516Y-143051D01*
X81428Y-144163D01*
X82539Y-145075D01*
X83807Y-145753D01*
X84999Y-146114D01*
X85105Y-146616D01*
X85099Y-146649D01*
X84706Y-146911D01*
X84242Y-147606D01*
X84079Y-148425D01*
X84242Y-149245D01*
X84706Y-149939D01*
X85401Y-150403D01*
X86221Y-150566D01*
X87040Y-150403D01*
X87735Y-149939D01*
X88199Y-149245D01*
X88362Y-148425D01*
X88199Y-147606D01*
X87735Y-146911D01*
X87463Y-146730D01*
X87592Y-146215D01*
X88045Y-146170D01*
X89421Y-145753D01*
X90689Y-145075D01*
X91800Y-144163D01*
X92713Y-143051D01*
X93390Y-141783D01*
X93787Y-140476D01*
D02*
G37*
G36*
X81102Y-146284D02*
X80283Y-146447D01*
X79588Y-146911D01*
X79124Y-147606D01*
X78961Y-148425D01*
X79124Y-149245D01*
X79588Y-149939D01*
X80283Y-150403D01*
X81102Y-150566D01*
X81922Y-150403D01*
X82616Y-149939D01*
X83081Y-149245D01*
X83244Y-148425D01*
X83081Y-147606D01*
X82616Y-146911D01*
X81922Y-146447D01*
X81102Y-146284D01*
D02*
G37*
G36*
X118504Y-149827D02*
X117685Y-149990D01*
X116990Y-150454D01*
X116728Y-150847D01*
X113194D01*
X112931Y-150454D01*
X112237Y-149990D01*
X111417Y-149827D01*
X110598Y-149990D01*
X109903Y-150454D01*
X109439Y-151149D01*
X109276Y-151969D01*
X109439Y-152788D01*
X109903Y-153482D01*
X110598Y-153947D01*
X111417Y-154110D01*
X112237Y-153947D01*
X112931Y-153482D01*
X113194Y-153090D01*
X116728D01*
X116990Y-153482D01*
X117685Y-153947D01*
X118504Y-154110D01*
X119323Y-153947D01*
X120018Y-153482D01*
X120482Y-152788D01*
X120645Y-151969D01*
X120482Y-151149D01*
X120018Y-150454D01*
X119323Y-149990D01*
X118504Y-149827D01*
D02*
G37*
G36*
X58727Y-128478D02*
X49147D01*
Y-135302D01*
X49541D01*
X49788Y-135802D01*
X49578Y-136074D01*
X49235Y-136905D01*
X49117Y-137795D01*
X49235Y-138686D01*
X49578Y-139516D01*
X50125Y-140229D01*
X50476Y-140498D01*
Y-140998D01*
X50125Y-141267D01*
X49578Y-141980D01*
X49235Y-142810D01*
X49117Y-143701D01*
X49235Y-144592D01*
X49578Y-145422D01*
X50125Y-146134D01*
X50476Y-146404D01*
Y-146904D01*
X50125Y-147173D01*
X49578Y-147886D01*
X49235Y-148716D01*
X49117Y-149606D01*
X49235Y-150497D01*
X49578Y-151327D01*
X50125Y-152040D01*
X50838Y-152587D01*
X51668Y-152931D01*
X52559Y-153048D01*
X55315D01*
X56206Y-152931D01*
X57036Y-152587D01*
X57749Y-152040D01*
X58296Y-151327D01*
X58639Y-150497D01*
X58757Y-149606D01*
X58639Y-148716D01*
X58296Y-147886D01*
X57749Y-147173D01*
X57398Y-146904D01*
Y-146404D01*
X57749Y-146134D01*
X58296Y-145422D01*
X58639Y-144592D01*
X58757Y-143701D01*
X58639Y-142810D01*
X58296Y-141980D01*
X57749Y-141267D01*
X57398Y-140998D01*
Y-140498D01*
X57749Y-140229D01*
X58296Y-139516D01*
X58639Y-138686D01*
X58757Y-137795D01*
X58639Y-136905D01*
X58296Y-136074D01*
X58086Y-135802D01*
X58333Y-135302D01*
X58727D01*
Y-128478D01*
D02*
G37*
G36*
X76378Y-149040D02*
X75559Y-149203D01*
X74864Y-149667D01*
X74400Y-150362D01*
X74237Y-151181D01*
X74400Y-152000D01*
X74864Y-152695D01*
X75559Y-153159D01*
X76378Y-153322D01*
X77197Y-153159D01*
X77892Y-152695D01*
X78356Y-152000D01*
X78519Y-151181D01*
X78356Y-150362D01*
X77892Y-149667D01*
X77197Y-149203D01*
X76378Y-149040D01*
D02*
G37*
G36*
X168504Y-153603D02*
X168504Y-153603D01*
X153150D01*
X153150Y-153603D01*
X152720Y-153688D01*
X152357Y-153931D01*
X152357Y-153931D01*
X149601Y-156687D01*
X149589Y-156704D01*
X148988D01*
X148758Y-156360D01*
X148064Y-155896D01*
X147244Y-155733D01*
X146425Y-155896D01*
X145730Y-156360D01*
X145266Y-157055D01*
X145103Y-157874D01*
X145266Y-158693D01*
X145730Y-159388D01*
X146425Y-159852D01*
X147244Y-160015D01*
X148064Y-159852D01*
X148758Y-159388D01*
X148772Y-159367D01*
X149272Y-159519D01*
Y-161347D01*
X148772Y-161499D01*
X148758Y-161478D01*
X148064Y-161014D01*
X147244Y-160851D01*
X146425Y-161014D01*
X145730Y-161478D01*
X145266Y-162173D01*
X145103Y-162992D01*
X145266Y-163812D01*
X145730Y-164506D01*
X146425Y-164970D01*
X146926Y-165070D01*
X147074Y-165100D01*
Y-165609D01*
X146926Y-165639D01*
X146425Y-165738D01*
X145730Y-166202D01*
X145266Y-166897D01*
X145103Y-167717D01*
X145266Y-168536D01*
X145730Y-169230D01*
X146425Y-169695D01*
X147244Y-169858D01*
X148064Y-169695D01*
X148758Y-169230D01*
X148772Y-169210D01*
X149272Y-169361D01*
Y-171454D01*
X149162Y-171496D01*
X148772Y-171537D01*
X148364Y-170927D01*
X147670Y-170463D01*
X146850Y-170300D01*
X146031Y-170463D01*
X145336Y-170927D01*
X144872Y-171622D01*
X144709Y-172441D01*
X144872Y-173260D01*
X145336Y-173955D01*
X146031Y-174419D01*
X146850Y-174582D01*
X147670Y-174419D01*
X148364Y-173955D01*
X148772Y-173345D01*
X149162Y-173386D01*
X149272Y-173428D01*
Y-177848D01*
X142415Y-184705D01*
X131102D01*
X130673Y-184791D01*
X130309Y-185034D01*
X130309Y-185034D01*
X130089Y-185254D01*
X129628Y-185008D01*
X129700Y-184646D01*
X129537Y-183826D01*
X129073Y-183132D01*
X128378Y-182668D01*
X127877Y-182568D01*
X127729Y-182538D01*
Y-182029D01*
X127877Y-181999D01*
X128378Y-181899D01*
X129073Y-181435D01*
X129537Y-180741D01*
X129700Y-179921D01*
X129537Y-179102D01*
X129073Y-178407D01*
X128378Y-177943D01*
X127559Y-177780D01*
X126740Y-177943D01*
X126045Y-178407D01*
X125581Y-179102D01*
X125418Y-179921D01*
X125581Y-180741D01*
X126045Y-181435D01*
X126740Y-181899D01*
X127241Y-181999D01*
X127389Y-182029D01*
Y-182538D01*
X127241Y-182568D01*
X126740Y-182668D01*
X126045Y-183132D01*
X125581Y-183826D01*
X125418Y-184646D01*
X125581Y-185465D01*
X126045Y-186160D01*
X126740Y-186624D01*
X127559Y-186787D01*
X127921Y-186715D01*
X128167Y-187176D01*
X124404Y-190939D01*
X124161Y-191303D01*
X124075Y-191732D01*
X124075Y-191732D01*
Y-197045D01*
X123965Y-197086D01*
X123575Y-197128D01*
X123168Y-196518D01*
X122473Y-196053D01*
X121653Y-195890D01*
X120834Y-196053D01*
X120140Y-196518D01*
X119675Y-197212D01*
X119512Y-198031D01*
X119675Y-198851D01*
X120140Y-199546D01*
X120834Y-200010D01*
X121653Y-200173D01*
X122473Y-200010D01*
X123168Y-199546D01*
X123575Y-198935D01*
X123965Y-198977D01*
X124075Y-199019D01*
Y-212921D01*
X118827Y-218170D01*
X107152D01*
Y-217585D01*
X105961Y-216394D01*
X105993Y-215895D01*
X106138Y-215784D01*
X106677Y-215081D01*
X106758Y-214886D01*
X102362D01*
X97966D01*
X98047Y-215081D01*
X98586Y-215784D01*
X98731Y-215895D01*
X98764Y-216394D01*
X97572Y-217585D01*
Y-220997D01*
X97826Y-221251D01*
X97634Y-221713D01*
X51646D01*
X50793Y-220861D01*
X50429Y-220617D01*
X50000Y-220532D01*
X50000Y-220532D01*
X49808D01*
X49545Y-220140D01*
X48851Y-219675D01*
X48031Y-219512D01*
X47212Y-219675D01*
X46518Y-220140D01*
X46053Y-220834D01*
X45890Y-221654D01*
X45962Y-222012D01*
X45902Y-222108D01*
X45528Y-222397D01*
X44882Y-222268D01*
X44063Y-222431D01*
X43368Y-222895D01*
X42904Y-223590D01*
X42741Y-224410D01*
X42904Y-225229D01*
X43368Y-225923D01*
X44063Y-226388D01*
X44882Y-226551D01*
X45701Y-226388D01*
X46396Y-225923D01*
X46641Y-225556D01*
X112867D01*
X112867Y-225556D01*
X113297Y-225471D01*
X113661Y-225228D01*
X115275Y-223613D01*
X120617D01*
X120617Y-223613D01*
X121046Y-223528D01*
X121410Y-223284D01*
X129190Y-215504D01*
X129433Y-215141D01*
X129518Y-214711D01*
X129518Y-214711D01*
Y-193622D01*
X132992Y-190148D01*
X145619D01*
X145619Y-190148D01*
X146048Y-190063D01*
X146412Y-189820D01*
X149931Y-186301D01*
X150394Y-186393D01*
X151213Y-186230D01*
X151908Y-185766D01*
X152372Y-185071D01*
X152535Y-184252D01*
X152372Y-183433D01*
X151908Y-182738D01*
X151213Y-182274D01*
X150956Y-182223D01*
X150811Y-181744D01*
X153943Y-178612D01*
X153943Y-178612D01*
X154186Y-178248D01*
X154271Y-177819D01*
Y-160438D01*
X154664Y-160175D01*
X155128Y-159481D01*
X155291Y-158661D01*
X155128Y-157842D01*
X154664Y-157147D01*
X153969Y-156683D01*
X153774Y-156644D01*
X153597Y-156125D01*
X153822Y-155846D01*
X168039D01*
X169998Y-157805D01*
X169906Y-158268D01*
X170069Y-159087D01*
X170533Y-159782D01*
X171228Y-160246D01*
X172047Y-160409D01*
X172867Y-160246D01*
X173561Y-159782D01*
X174025Y-159087D01*
X174188Y-158268D01*
X174025Y-157448D01*
X173561Y-156754D01*
X172867Y-156290D01*
X172047Y-156127D01*
X171584Y-156219D01*
X169297Y-153931D01*
X168933Y-153688D01*
X168504Y-153603D01*
D02*
G37*
G36*
X25722Y-130446D02*
X21916D01*
X20013Y-132349D01*
Y-136155D01*
X21748Y-137890D01*
X21865Y-138189D01*
X21748Y-138488D01*
X20013Y-140223D01*
Y-144029D01*
X21748Y-145764D01*
X21865Y-146063D01*
X21748Y-146362D01*
X20013Y-148097D01*
Y-151903D01*
X21916Y-153806D01*
X25722D01*
X27625Y-151903D01*
Y-148097D01*
X25890Y-146362D01*
X25773Y-146063D01*
X25890Y-145764D01*
X27625Y-144029D01*
Y-140223D01*
X25890Y-138488D01*
X25773Y-138189D01*
X25890Y-137890D01*
X27625Y-136155D01*
Y-132349D01*
X25722Y-130446D01*
D02*
G37*
G36*
X15879D02*
X12073D01*
X10170Y-132349D01*
Y-136155D01*
X11905Y-137890D01*
X12022Y-138189D01*
X11905Y-138488D01*
X10170Y-140223D01*
Y-144029D01*
X11905Y-145764D01*
X12022Y-146063D01*
X11905Y-146362D01*
X10170Y-148097D01*
Y-151903D01*
X12073Y-153806D01*
X15879D01*
X17782Y-151903D01*
Y-148097D01*
X16048Y-146362D01*
X15931Y-146063D01*
X16048Y-145764D01*
X17782Y-144029D01*
Y-140223D01*
X16048Y-138488D01*
X15931Y-138189D01*
X16048Y-137890D01*
X17782Y-136155D01*
Y-132349D01*
X15879Y-130446D01*
D02*
G37*
G36*
X127559Y-151008D02*
X126740Y-151172D01*
X126045Y-151636D01*
X125581Y-152330D01*
X125418Y-153150D01*
X125581Y-153969D01*
X126045Y-154664D01*
X126740Y-155128D01*
X127559Y-155291D01*
X128378Y-155128D01*
X129073Y-154664D01*
X129537Y-153969D01*
X129700Y-153150D01*
X129537Y-152330D01*
X129073Y-151636D01*
X128378Y-151172D01*
X127559Y-151008D01*
D02*
G37*
G36*
X72441Y-152583D02*
X71622Y-152746D01*
X70927Y-153210D01*
X70463Y-153905D01*
X70300Y-154724D01*
X70463Y-155544D01*
X70927Y-156238D01*
X71622Y-156703D01*
X72441Y-156866D01*
X73260Y-156703D01*
X73955Y-156238D01*
X74419Y-155544D01*
X74582Y-154724D01*
X74419Y-153905D01*
X73955Y-153210D01*
X73260Y-152746D01*
X72441Y-152583D01*
D02*
G37*
G36*
X66929D02*
X66110Y-152746D01*
X65415Y-153210D01*
X64951Y-153905D01*
X64788Y-154724D01*
X64951Y-155544D01*
X65415Y-156238D01*
X66110Y-156703D01*
X66929Y-156866D01*
X67748Y-156703D01*
X68443Y-156238D01*
X68907Y-155544D01*
X69070Y-154724D01*
X68907Y-153905D01*
X68443Y-153210D01*
X67748Y-152746D01*
X66929Y-152583D01*
D02*
G37*
G36*
X61024D02*
X60204Y-152746D01*
X59510Y-153210D01*
X59045Y-153905D01*
X58882Y-154724D01*
X59045Y-155544D01*
X59510Y-156238D01*
X60204Y-156703D01*
X61024Y-156866D01*
X61843Y-156703D01*
X62538Y-156238D01*
X63002Y-155544D01*
X63165Y-154724D01*
X63002Y-153905D01*
X62538Y-153210D01*
X61843Y-152746D01*
X61024Y-152583D01*
D02*
G37*
G36*
X127165Y-156127D02*
X126346Y-156290D01*
X125651Y-156754D01*
X125389Y-157146D01*
X121855D01*
X121593Y-156754D01*
X120898Y-156290D01*
X120079Y-156127D01*
X119259Y-156290D01*
X118565Y-156754D01*
X118101Y-157448D01*
X117938Y-158268D01*
X118101Y-159087D01*
X118565Y-159782D01*
X119259Y-160246D01*
X120079Y-160409D01*
X120898Y-160246D01*
X121593Y-159782D01*
X121855Y-159389D01*
X125389D01*
X125651Y-159782D01*
X126346Y-160246D01*
X127165Y-160409D01*
X127985Y-160246D01*
X128679Y-159782D01*
X129144Y-159087D01*
X129306Y-158268D01*
X129144Y-157448D01*
X128679Y-156754D01*
X127985Y-156290D01*
X127165Y-156127D01*
D02*
G37*
G36*
X103862Y-156861D02*
Y-158736D01*
X106758D01*
X106677Y-158541D01*
X106138Y-157838D01*
X105436Y-157299D01*
X104618Y-156961D01*
X103862Y-156861D01*
D02*
G37*
G36*
X100862D02*
X100107Y-156961D01*
X99289Y-157299D01*
X98586Y-157838D01*
X98047Y-158541D01*
X97966Y-158736D01*
X100862D01*
Y-156861D01*
D02*
G37*
G36*
X86614Y-156127D02*
X85795Y-156290D01*
X85100Y-156754D01*
X84636Y-157448D01*
X84473Y-158268D01*
X84636Y-159087D01*
X85100Y-159782D01*
X85795Y-160246D01*
X86614Y-160409D01*
X87434Y-160246D01*
X88128Y-159782D01*
X88592Y-159087D01*
X88755Y-158268D01*
X88592Y-157448D01*
X88128Y-156754D01*
X87434Y-156290D01*
X86614Y-156127D01*
D02*
G37*
G36*
X32809Y-153674D02*
X28609D01*
X26509Y-155774D01*
Y-159974D01*
X28609Y-162074D01*
X32809D01*
X34908Y-159974D01*
Y-155774D01*
X32809Y-153674D01*
D02*
G37*
G36*
X110236Y-158095D02*
X109417Y-158258D01*
X108722Y-158722D01*
X108258Y-159417D01*
X108095Y-160236D01*
X108258Y-161056D01*
X108722Y-161750D01*
X109417Y-162214D01*
X110236Y-162377D01*
X111056Y-162214D01*
X111750Y-161750D01*
X112214Y-161056D01*
X112377Y-160236D01*
X112214Y-159417D01*
X111750Y-158722D01*
X111056Y-158258D01*
X110236Y-158095D01*
D02*
G37*
G36*
X52756Y-159276D02*
X51937Y-159439D01*
X51242Y-159903D01*
X50778Y-160598D01*
X50615Y-161417D01*
X50778Y-162237D01*
X51242Y-162931D01*
X51937Y-163396D01*
X52756Y-163558D01*
X53575Y-163396D01*
X54270Y-162931D01*
X54734Y-162237D01*
X54897Y-161417D01*
X54734Y-160598D01*
X54270Y-159903D01*
X53575Y-159439D01*
X52756Y-159276D01*
D02*
G37*
G36*
X106758Y-161736D02*
X102362D01*
X97966D01*
X98047Y-161932D01*
X98586Y-162634D01*
X98899Y-162874D01*
Y-163504D01*
X98586Y-163744D01*
X98047Y-164446D01*
X97966Y-164642D01*
X102362D01*
X106758D01*
X106677Y-164446D01*
X106138Y-163744D01*
X105826Y-163504D01*
Y-162874D01*
X106138Y-162634D01*
X106677Y-161932D01*
X106758Y-161736D01*
D02*
G37*
G36*
X68110Y-161245D02*
X67291Y-161408D01*
X66596Y-161872D01*
X66132Y-162566D01*
X65969Y-163386D01*
X66132Y-164205D01*
X66596Y-164900D01*
X67291Y-165364D01*
X68110Y-165527D01*
X68930Y-165364D01*
X69624Y-164900D01*
X70088Y-164205D01*
X70251Y-163386D01*
X70088Y-162566D01*
X69624Y-161872D01*
X68930Y-161408D01*
X68110Y-161245D01*
D02*
G37*
G36*
X9186Y-153674D02*
X4987D01*
X2887Y-155774D01*
Y-159974D01*
X4713Y-161799D01*
X1756Y-164756D01*
Y-166217D01*
X8661D01*
X15567D01*
Y-164756D01*
X12606Y-161795D01*
X10118D01*
X9927Y-161333D01*
X11286Y-159974D01*
Y-155774D01*
X9186Y-153674D01*
D02*
G37*
G36*
X48031Y-163213D02*
X47212Y-163376D01*
X46518Y-163840D01*
X46053Y-164535D01*
X45890Y-165354D01*
X46053Y-166174D01*
X46518Y-166868D01*
X47212Y-167332D01*
X48031Y-167496D01*
X48851Y-167332D01*
X49545Y-166868D01*
X50010Y-166174D01*
X50173Y-165354D01*
X50010Y-164535D01*
X49545Y-163840D01*
X48851Y-163376D01*
X48031Y-163213D01*
D02*
G37*
G36*
X110236Y-164001D02*
X109417Y-164164D01*
X108722Y-164628D01*
X108258Y-165322D01*
X108095Y-166142D01*
X108258Y-166961D01*
X108722Y-167656D01*
X109417Y-168120D01*
X110236Y-168283D01*
X111056Y-168120D01*
X111750Y-167656D01*
X112214Y-166961D01*
X112377Y-166142D01*
X112214Y-165322D01*
X111750Y-164628D01*
X111056Y-164164D01*
X110236Y-164001D01*
D02*
G37*
G36*
X43307Y-166756D02*
X42488Y-166920D01*
X41793Y-167384D01*
X41329Y-168078D01*
X41166Y-168898D01*
X41329Y-169717D01*
X41793Y-170412D01*
X42488Y-170876D01*
X43307Y-171039D01*
X44126Y-170876D01*
X44821Y-170412D01*
X45285Y-169717D01*
X45448Y-168898D01*
X45285Y-168078D01*
X44821Y-167384D01*
X44126Y-166920D01*
X43307Y-166756D01*
D02*
G37*
G36*
X15567Y-169217D02*
X10161D01*
Y-173638D01*
X12606D01*
X15567Y-170677D01*
Y-169217D01*
D02*
G37*
G36*
X7161D02*
X1756D01*
Y-170677D01*
X4716Y-173638D01*
X7161D01*
Y-169217D01*
D02*
G37*
G36*
X110236Y-169906D02*
X109417Y-170069D01*
X108722Y-170533D01*
X108258Y-171228D01*
X108095Y-172047D01*
X108258Y-172867D01*
X108722Y-173561D01*
X109417Y-174025D01*
X110236Y-174188D01*
X111056Y-174025D01*
X111750Y-173561D01*
X112214Y-172867D01*
X112377Y-172047D01*
X112214Y-171228D01*
X111750Y-170533D01*
X111056Y-170069D01*
X110236Y-169906D01*
D02*
G37*
G36*
X127559Y-160851D02*
X126740Y-161014D01*
X126045Y-161478D01*
X125581Y-162173D01*
X125418Y-162992D01*
X125581Y-163812D01*
X126045Y-164506D01*
X126740Y-164970D01*
X127241Y-165070D01*
X127389Y-165100D01*
Y-165609D01*
X127241Y-165639D01*
X126740Y-165738D01*
X126045Y-166202D01*
X125581Y-166897D01*
X125418Y-167717D01*
X125581Y-168536D01*
X126045Y-169230D01*
X126740Y-169695D01*
X127241Y-169794D01*
X127389Y-169824D01*
Y-170334D01*
X127241Y-170363D01*
X126740Y-170463D01*
X126045Y-170927D01*
X125581Y-171622D01*
X125418Y-172441D01*
X125581Y-173260D01*
X126045Y-173955D01*
X126740Y-174419D01*
X127559Y-174582D01*
X128378Y-174419D01*
X129073Y-173955D01*
X129537Y-173260D01*
X129700Y-172441D01*
X129537Y-171622D01*
X129073Y-170927D01*
X128378Y-170463D01*
X127877Y-170363D01*
X127729Y-170334D01*
Y-169824D01*
X127877Y-169794D01*
X128378Y-169695D01*
X129073Y-169230D01*
X129537Y-168536D01*
X129700Y-167717D01*
X129537Y-166897D01*
X129073Y-166202D01*
X128378Y-165738D01*
X127877Y-165639D01*
X127729Y-165609D01*
Y-165100D01*
X127877Y-165070D01*
X128378Y-164970D01*
X129073Y-164506D01*
X129537Y-163812D01*
X129700Y-162992D01*
X129537Y-162173D01*
X129073Y-161478D01*
X128378Y-161014D01*
X127559Y-160851D01*
D02*
G37*
G36*
X209055Y-166631D02*
X207614Y-166773D01*
X206229Y-167193D01*
X204952Y-167876D01*
X203833Y-168794D01*
X202915Y-169913D01*
X202233Y-171190D01*
X201812Y-172575D01*
X201670Y-174016D01*
X201812Y-175456D01*
X202233Y-176842D01*
X202915Y-178119D01*
X203118Y-178366D01*
X195992Y-185493D01*
X160831D01*
X160569Y-185100D01*
X159874Y-184636D01*
X159055Y-184473D01*
X158236Y-184636D01*
X157541Y-185100D01*
X157077Y-185795D01*
X156914Y-186614D01*
X157077Y-187434D01*
X157541Y-188128D01*
X158236Y-188592D01*
X159055Y-188755D01*
X159874Y-188592D01*
X160569Y-188128D01*
X160831Y-187736D01*
X196457D01*
X196457Y-187736D01*
X196886Y-187650D01*
X197250Y-187407D01*
X204704Y-179953D01*
X204952Y-180156D01*
X206229Y-180838D01*
X207614Y-181259D01*
X209055Y-181401D01*
X210496Y-181259D01*
X211881Y-180838D01*
X213158Y-180156D01*
X214277Y-179238D01*
X215195Y-178119D01*
X215878Y-176842D01*
X216298Y-175456D01*
X216440Y-174016D01*
X216298Y-172575D01*
X215878Y-171190D01*
X215195Y-169913D01*
X214277Y-168794D01*
X213158Y-167876D01*
X211881Y-167193D01*
X210496Y-166773D01*
X209055Y-166631D01*
D02*
G37*
G36*
X32218Y-176509D02*
X28412D01*
X26509Y-178412D01*
Y-182218D01*
X28412Y-184121D01*
X32218D01*
X34121Y-182218D01*
Y-178412D01*
X32218Y-176509D01*
D02*
G37*
G36*
X22375D02*
X18570D01*
X16667Y-178412D01*
Y-182218D01*
X18570Y-184121D01*
X22375D01*
X24278Y-182218D01*
Y-178412D01*
X22375Y-176509D01*
D02*
G37*
G36*
X8768Y-186008D02*
X7012D01*
Y-192201D01*
X12024D01*
Y-189264D01*
X8768Y-186008D01*
D02*
G37*
G36*
X4012D02*
X2256D01*
X-1000Y-189264D01*
Y-192201D01*
X4012D01*
Y-186008D01*
D02*
G37*
G36*
X22375Y-184777D02*
X18570D01*
X16667Y-186680D01*
Y-190486D01*
X18570Y-192389D01*
X22375D01*
X24278Y-190486D01*
Y-186680D01*
X22375Y-184777D01*
D02*
G37*
G36*
X32218Y-186352D02*
X28412D01*
X26509Y-188254D01*
Y-192060D01*
X28412Y-193963D01*
X32218D01*
X34121Y-192060D01*
Y-188254D01*
X32218Y-186352D01*
D02*
G37*
G36*
X209055Y-182379D02*
X207614Y-182521D01*
X206229Y-182941D01*
X204952Y-183624D01*
X203833Y-184542D01*
X202915Y-185661D01*
X202233Y-186938D01*
X201812Y-188323D01*
X201670Y-189764D01*
X201812Y-191205D01*
X202233Y-192590D01*
X202915Y-193867D01*
X203833Y-194986D01*
X204952Y-195904D01*
X206229Y-196586D01*
X207614Y-197007D01*
X209055Y-197149D01*
X210496Y-197007D01*
X211881Y-196586D01*
X213158Y-195904D01*
X214277Y-194986D01*
X215195Y-193867D01*
X215878Y-192590D01*
X216298Y-191205D01*
X216440Y-189764D01*
X216298Y-188323D01*
X215878Y-186938D01*
X215195Y-185661D01*
X214277Y-184542D01*
X213158Y-183624D01*
X211881Y-182941D01*
X210496Y-182521D01*
X209055Y-182379D01*
D02*
G37*
G36*
X32193Y-195063D02*
X31815D01*
Y-197319D01*
X34071D01*
Y-196941D01*
X32193Y-195063D01*
D02*
G37*
G36*
X28815D02*
X28437D01*
X26559Y-196941D01*
Y-197319D01*
X28815D01*
Y-195063D01*
D02*
G37*
G36*
X12024Y-195201D02*
X7012D01*
Y-201394D01*
X8768D01*
X12024Y-198138D01*
Y-195201D01*
D02*
G37*
G36*
X4012D02*
X-1000D01*
Y-198138D01*
X2256Y-201394D01*
X4012D01*
Y-195201D01*
D02*
G37*
G36*
X34071Y-200319D02*
X31815D01*
Y-202575D01*
X32193D01*
X34071Y-200697D01*
Y-200319D01*
D02*
G37*
G36*
X28815D02*
X26559D01*
Y-200697D01*
X28437Y-202575D01*
X28815D01*
Y-200319D01*
D02*
G37*
G36*
X22375Y-195013D02*
X18570D01*
X16667Y-196916D01*
Y-200722D01*
X18570Y-202625D01*
X22375D01*
X24278Y-200722D01*
Y-196916D01*
X22375Y-195013D01*
D02*
G37*
G36*
X42913Y-171481D02*
X42094Y-171644D01*
X41399Y-172108D01*
X40935Y-172803D01*
X40772Y-173622D01*
X40935Y-174441D01*
X41399Y-175136D01*
X41792Y-175398D01*
Y-199669D01*
X41329Y-200362D01*
X41166Y-201181D01*
X41329Y-202000D01*
X41793Y-202695D01*
X42488Y-203159D01*
X43307Y-203322D01*
X44126Y-203159D01*
X44821Y-202695D01*
X45285Y-202000D01*
X45448Y-201181D01*
X45285Y-200362D01*
X44821Y-199667D01*
X44126Y-199203D01*
X44035Y-199185D01*
Y-175398D01*
X44427Y-175136D01*
X44892Y-174441D01*
X45055Y-173622D01*
X44892Y-172803D01*
X44427Y-172108D01*
X43733Y-171644D01*
X42913Y-171481D01*
D02*
G37*
G36*
X118110Y-199434D02*
X117291Y-199597D01*
X116596Y-200061D01*
X116132Y-200755D01*
X115969Y-201575D01*
X116132Y-202394D01*
X116596Y-203089D01*
X117291Y-203553D01*
X118110Y-203716D01*
X118930Y-203553D01*
X119624Y-203089D01*
X120088Y-202394D01*
X120251Y-201575D01*
X120088Y-200755D01*
X119624Y-200061D01*
X118930Y-199597D01*
X118110Y-199434D01*
D02*
G37*
G36*
X114567Y-202977D02*
X113748Y-203140D01*
X113053Y-203604D01*
X112589Y-204299D01*
X112426Y-205118D01*
X112589Y-205938D01*
X113053Y-206632D01*
X113748Y-207096D01*
X114567Y-207259D01*
X115386Y-207096D01*
X116081Y-206632D01*
X116545Y-205938D01*
X116708Y-205118D01*
X116545Y-204299D01*
X116081Y-203604D01*
X115386Y-203140D01*
X114567Y-202977D01*
D02*
G37*
G36*
X46063D02*
X45244Y-203140D01*
X44549Y-203604D01*
X44085Y-204299D01*
X43922Y-205118D01*
X44085Y-205938D01*
X44549Y-206632D01*
X45244Y-207096D01*
X46063Y-207259D01*
X46882Y-207096D01*
X47577Y-206632D01*
X48041Y-205938D01*
X48204Y-205118D01*
X48041Y-204299D01*
X47577Y-203604D01*
X46882Y-203140D01*
X46063Y-202977D01*
D02*
G37*
G36*
X41732Y-205733D02*
X40913Y-205896D01*
X40218Y-206360D01*
X39754Y-207055D01*
X39591Y-207874D01*
X39754Y-208693D01*
X40218Y-209388D01*
X40913Y-209852D01*
X41732Y-210015D01*
X42552Y-209852D01*
X43246Y-209388D01*
X43710Y-208693D01*
X43873Y-207874D01*
X43710Y-207055D01*
X43246Y-206360D01*
X42552Y-205896D01*
X41732Y-205733D01*
D02*
G37*
G36*
X110630Y-206520D02*
X109810Y-206683D01*
X109116Y-207147D01*
X108652Y-207842D01*
X108489Y-208661D01*
X108652Y-209481D01*
X109116Y-210175D01*
X109810Y-210640D01*
X110630Y-210803D01*
X111449Y-210640D01*
X112144Y-210175D01*
X112608Y-209481D01*
X112771Y-208661D01*
X112608Y-207842D01*
X112144Y-207147D01*
X111449Y-206683D01*
X110630Y-206520D01*
D02*
G37*
G36*
X32218Y-203281D02*
X28412D01*
X26509Y-205184D01*
Y-208990D01*
X28412Y-210893D01*
X32218D01*
X34121Y-208990D01*
Y-205184D01*
X32218Y-203281D01*
D02*
G37*
G36*
X22375D02*
X18570D01*
X16667Y-205184D01*
Y-208990D01*
X18570Y-210893D01*
X22375D01*
X24278Y-208990D01*
Y-205184D01*
X22375Y-203281D01*
D02*
G37*
G36*
X106758Y-167642D02*
X102362D01*
X97966D01*
X98047Y-167837D01*
X98586Y-168540D01*
X98858Y-168748D01*
Y-169378D01*
X98551Y-169614D01*
X98004Y-170326D01*
X97660Y-171157D01*
X97543Y-172047D01*
X97660Y-172938D01*
X98004Y-173768D01*
X98551Y-174481D01*
X98901Y-174750D01*
Y-175250D01*
X98551Y-175519D01*
X98004Y-176232D01*
X97660Y-177062D01*
X97543Y-177953D01*
X97660Y-178843D01*
X98004Y-179674D01*
X98551Y-180386D01*
X98901Y-180656D01*
Y-181156D01*
X98551Y-181425D01*
X98004Y-182137D01*
X97660Y-182967D01*
X97543Y-183858D01*
X97660Y-184749D01*
X98004Y-185579D01*
X98551Y-186292D01*
X98901Y-186561D01*
Y-187061D01*
X98551Y-187330D01*
X98004Y-188043D01*
X97660Y-188873D01*
X97543Y-189764D01*
X97660Y-190655D01*
X98004Y-191485D01*
X98551Y-192197D01*
X98901Y-192466D01*
Y-192966D01*
X98551Y-193236D01*
X98004Y-193948D01*
X97660Y-194779D01*
X97543Y-195669D01*
X97660Y-196560D01*
X98004Y-197390D01*
X98551Y-198103D01*
X98901Y-198372D01*
Y-198872D01*
X98551Y-199141D01*
X98004Y-199854D01*
X97660Y-200684D01*
X97543Y-201575D01*
X97660Y-202466D01*
X98004Y-203296D01*
X98551Y-204008D01*
X98901Y-204278D01*
Y-204778D01*
X98551Y-205047D01*
X98004Y-205760D01*
X97660Y-206590D01*
X97543Y-207480D01*
X97660Y-208371D01*
X98004Y-209201D01*
X98551Y-209914D01*
X98858Y-210150D01*
Y-210780D01*
X98586Y-210988D01*
X98047Y-211690D01*
X97966Y-211886D01*
X102362D01*
X106758D01*
X106677Y-211690D01*
X106138Y-210988D01*
X105867Y-210780D01*
Y-210150D01*
X106174Y-209914D01*
X106721Y-209201D01*
X107064Y-208371D01*
X107182Y-207480D01*
X107064Y-206590D01*
X106721Y-205760D01*
X106174Y-205047D01*
X105823Y-204778D01*
Y-204278D01*
X106174Y-204008D01*
X106721Y-203296D01*
X107064Y-202466D01*
X107182Y-201575D01*
X107064Y-200684D01*
X106721Y-199854D01*
X106174Y-199141D01*
X105823Y-198872D01*
Y-198372D01*
X106174Y-198103D01*
X106721Y-197390D01*
X107064Y-196560D01*
X107182Y-195669D01*
X107064Y-194779D01*
X106721Y-193948D01*
X106174Y-193236D01*
X105823Y-192966D01*
Y-192466D01*
X106174Y-192197D01*
X106721Y-191485D01*
X107064Y-190655D01*
X107182Y-189764D01*
X107064Y-188873D01*
X106721Y-188043D01*
X106174Y-187330D01*
X105823Y-187061D01*
Y-186561D01*
X106174Y-186292D01*
X106721Y-185579D01*
X107064Y-184749D01*
X107182Y-183858D01*
X107064Y-182967D01*
X106721Y-182137D01*
X106174Y-181425D01*
X105823Y-181156D01*
Y-180656D01*
X106174Y-180386D01*
X106721Y-179674D01*
X107064Y-178843D01*
X107182Y-177953D01*
X107064Y-177062D01*
X106721Y-176232D01*
X106174Y-175519D01*
X105823Y-175250D01*
Y-174750D01*
X106174Y-174481D01*
X106721Y-173768D01*
X107064Y-172938D01*
X107182Y-172047D01*
X107064Y-171157D01*
X106721Y-170326D01*
X106174Y-169614D01*
X105867Y-169378D01*
Y-168748D01*
X106138Y-168540D01*
X106677Y-167837D01*
X106758Y-167642D01*
D02*
G37*
G36*
X212631Y-198359D02*
X205479D01*
X201903Y-201936D01*
Y-209088D01*
X205479Y-212664D01*
X212631D01*
X216208Y-209088D01*
Y-201936D01*
X212631Y-198359D01*
D02*
G37*
G36*
X37402Y-209670D02*
X36582Y-209833D01*
X35888Y-210297D01*
X35423Y-210992D01*
X35260Y-211811D01*
X35423Y-212630D01*
X35779Y-213163D01*
X35372Y-213447D01*
X35137Y-213289D01*
X34678Y-212983D01*
X33858Y-212820D01*
X33039Y-212983D01*
X32344Y-213447D01*
X31880Y-214141D01*
X31780Y-214643D01*
X31751Y-214791D01*
X31241D01*
X31212Y-214643D01*
X31112Y-214141D01*
X30648Y-213447D01*
X29953Y-212983D01*
X29134Y-212820D01*
X28315Y-212983D01*
X27620Y-213447D01*
X27156Y-214141D01*
X27056Y-214643D01*
X27027Y-214791D01*
X26517D01*
X26487Y-214643D01*
X26388Y-214141D01*
X25923Y-213447D01*
X25229Y-212983D01*
X24409Y-212820D01*
X23590Y-212983D01*
X22895Y-213447D01*
X22431Y-214141D01*
X22268Y-214961D01*
X22431Y-215780D01*
X22895Y-216475D01*
X23590Y-216939D01*
X24409Y-217102D01*
X25229Y-216939D01*
X25923Y-216475D01*
X26388Y-215780D01*
X26487Y-215278D01*
X26517Y-215131D01*
X27027D01*
X27056Y-215278D01*
X27156Y-215780D01*
X27620Y-216475D01*
X28315Y-216939D01*
X29134Y-217102D01*
X29953Y-216939D01*
X30648Y-216475D01*
X31112Y-215780D01*
X31212Y-215278D01*
X31241Y-215131D01*
X31751D01*
X31780Y-215278D01*
X31880Y-215780D01*
X32344Y-216475D01*
X33039Y-216939D01*
X33858Y-217102D01*
X34678Y-216939D01*
X35372Y-216475D01*
X35836Y-215780D01*
X35999Y-214961D01*
X35836Y-214141D01*
X35481Y-213609D01*
X35888Y-213325D01*
X36123Y-213482D01*
X36582Y-213789D01*
X37402Y-213952D01*
X38221Y-213789D01*
X38916Y-213325D01*
X39380Y-212630D01*
X39543Y-211811D01*
X39380Y-210992D01*
X38916Y-210297D01*
X38221Y-209833D01*
X37402Y-209670D01*
D02*
G37*
G36*
X57087Y-215969D02*
X56267Y-216132D01*
X55573Y-216596D01*
X55108Y-217291D01*
X55009Y-217793D01*
X54979Y-217940D01*
X54470D01*
X54440Y-217793D01*
X54340Y-217291D01*
X53876Y-216596D01*
X53182Y-216132D01*
X52362Y-215969D01*
X51543Y-216132D01*
X50848Y-216596D01*
X50384Y-217291D01*
X50221Y-218110D01*
X50384Y-218930D01*
X50848Y-219624D01*
X51543Y-220088D01*
X52362Y-220251D01*
X53182Y-220088D01*
X53876Y-219624D01*
X54340Y-218930D01*
X54440Y-218428D01*
X54470Y-218280D01*
X54979D01*
X55009Y-218428D01*
X55108Y-218930D01*
X55573Y-219624D01*
X56267Y-220088D01*
X57087Y-220251D01*
X57906Y-220088D01*
X58601Y-219624D01*
X59065Y-218930D01*
X59228Y-218110D01*
X59065Y-217291D01*
X58601Y-216596D01*
X57906Y-216132D01*
X57087Y-215969D01*
D02*
G37*
G36*
X12606Y-213764D02*
X10161D01*
Y-218185D01*
X15567D01*
Y-216724D01*
X12606Y-213764D01*
D02*
G37*
G36*
X7161D02*
X4716D01*
X1756Y-216724D01*
Y-218185D01*
X7161D01*
Y-213764D01*
D02*
G37*
G36*
X15567Y-221185D02*
X10161D01*
Y-225606D01*
X12606D01*
X15567Y-222646D01*
Y-221185D01*
D02*
G37*
G36*
X7161D02*
X1756D01*
Y-222646D01*
X4716Y-225606D01*
X7161D01*
Y-221185D01*
D02*
G37*
G36*
X55118Y-246477D02*
X53832Y-246604D01*
X52595Y-246979D01*
X51455Y-247588D01*
X50456Y-248409D01*
X49636Y-249408D01*
X49026Y-250548D01*
X48651Y-251784D01*
X48524Y-253071D01*
X48651Y-254357D01*
X49026Y-255594D01*
X49636Y-256734D01*
X50456Y-257733D01*
X51455Y-258553D01*
X52595Y-259162D01*
X53832Y-259538D01*
X55118Y-259664D01*
X56404Y-259538D01*
X57641Y-259162D01*
X58781Y-258553D01*
X59781Y-257733D01*
X60601Y-256734D01*
X61210Y-255594D01*
X61585Y-254357D01*
X61712Y-253071D01*
X61585Y-251784D01*
X61210Y-250548D01*
X60601Y-249408D01*
X59781Y-248409D01*
X58781Y-247588D01*
X57641Y-246979D01*
X56404Y-246604D01*
X55118Y-246477D01*
D02*
G37*
G36*
X15748Y-240424D02*
X13770Y-240580D01*
X11840Y-241043D01*
X10007Y-241802D01*
X8314Y-242839D01*
X6805Y-244128D01*
X5517Y-245637D01*
X4480Y-247329D01*
X3720Y-249163D01*
X3257Y-251093D01*
X3101Y-253071D01*
X3257Y-255049D01*
X3720Y-256979D01*
X4480Y-258812D01*
X5517Y-260505D01*
X6805Y-262014D01*
X8314Y-263302D01*
X10007Y-264339D01*
X11840Y-265099D01*
X13770Y-265562D01*
X15748Y-265718D01*
X17726Y-265562D01*
X19656Y-265099D01*
X21490Y-264339D01*
X23182Y-263302D01*
X24691Y-262014D01*
X25980Y-260505D01*
X27016Y-258812D01*
X27776Y-256979D01*
X28239Y-255049D01*
X28395Y-253071D01*
X28239Y-251093D01*
X27776Y-249163D01*
X27016Y-247329D01*
X25980Y-245637D01*
X24691Y-244128D01*
X23182Y-242839D01*
X21490Y-241802D01*
X19656Y-241043D01*
X17726Y-240580D01*
X15748Y-240424D01*
D02*
G37*
%LPD*%
D10*
X273819Y-35433D02*
Y1575D01*
X-7087Y-272756D02*
X70866D01*
Y-229842D01*
X265748Y-84646D02*
Y-35433D01*
X209842Y-229842D02*
X229724D01*
Y-84646D01*
X265748D01*
X102977Y-229842D02*
X170669D01*
X265748Y-35433D02*
X273819D01*
X209842Y-245591D02*
Y-229842D01*
X170669Y-245591D02*
X209842D01*
X170669D02*
Y-229842D01*
X44882Y1575D02*
Y13780D01*
X25000D02*
X44882D01*
X25000Y1181D02*
Y13780D01*
X70866Y-229842D02*
X102977D01*
X-7087Y-272756D02*
Y-68898D01*
Y1181D02*
X25000D01*
X-7087Y-33465D02*
Y1181D01*
X-18898Y-33465D02*
X-7087D01*
X-18898Y-68898D02*
Y-33465D01*
Y-68898D02*
X-7087D01*
X44882Y1575D02*
X113386D01*
X218898D02*
X273819D01*
X113386Y-6299D02*
Y1575D01*
Y-6299D02*
X218898D01*
Y1575D01*
D12*
X120079Y-158268D02*
X127165D01*
X111417Y-151969D02*
X118504D01*
X142589Y-104600D02*
X149800Y-111811D01*
X128715Y-104600D02*
X142589D01*
X149800Y-111811D02*
X151181D01*
X161417Y-103150D02*
X180315D01*
X191142Y-92323D01*
Y-84016D01*
X161417Y-112992D02*
X173622D01*
X195194Y-91420D01*
X191142Y-74016D02*
X195194Y-78069D01*
Y-91420D02*
Y-78069D01*
X168504Y-154724D02*
X172047Y-158268D01*
X153150Y-154724D02*
X168504D01*
X150394Y-157480D02*
X153150Y-154724D01*
X102362Y-219291D02*
X119291D01*
X125197Y-213386D01*
Y-191732D01*
X131102Y-185827D01*
X126797Y-214049D02*
Y-192494D01*
X131865Y-187427D01*
X128397Y-214711D02*
Y-193157D01*
X132527Y-189027D01*
X145619D01*
X150394Y-184252D01*
X119954Y-220891D02*
X126797Y-214049D01*
X114148Y-220891D02*
X119954D01*
X150394Y-178312D02*
Y-157480D01*
X131102Y-185827D02*
X142879D01*
X131865Y-187427D02*
X143542D01*
X153150Y-177819D02*
Y-158661D01*
X142879Y-185827D02*
X150394Y-178312D01*
X143542Y-187427D02*
X153150Y-177819D01*
X129378Y-103000D02*
X150989D01*
X125591Y-99213D02*
X129378Y-103000D01*
X125591Y-99213D02*
Y-96063D01*
X122835Y-98719D02*
X128715Y-104600D01*
X122835Y-98719D02*
Y-93701D01*
X42913Y-200787D02*
X43307Y-201181D01*
X42913Y-200787D02*
Y-173622D01*
X120617Y-222491D02*
X128397Y-214711D01*
X114811Y-222491D02*
X120617D01*
X112867Y-224435D02*
X114811Y-222491D01*
X112205Y-222835D02*
X114148Y-220891D01*
X51181Y-222835D02*
X112205D01*
X50000Y-221654D02*
X51181Y-222835D01*
X48031Y-221654D02*
X50000D01*
X44882Y-224410D02*
X44907Y-224435D01*
X112867D01*
X159055Y-186614D02*
X196457D01*
X209055Y-174016D01*
D14*
X190945Y-132677D02*
D03*
Y-139764D02*
D03*
X237795Y-60236D02*
D03*
Y-53150D02*
D03*
D15*
X221654Y-72933D02*
D03*
Y-60925D02*
D03*
D16*
X98228Y-69095D02*
D03*
Y-34055D02*
D03*
X78150D02*
D03*
D17*
Y-69095D02*
D03*
D43*
X181142Y-74016D02*
Y-72858D01*
D44*
X141142Y-74016D02*
X142520D01*
X151142D02*
X151969D01*
X151142D02*
Y-72642D01*
X221850Y-72933D02*
X224447Y-70337D01*
D45*
X98228Y-34055D02*
Y-28228D01*
X93000Y-23000D02*
X98228Y-28228D01*
X78150Y-41350D02*
Y-34055D01*
X73158Y-105905D02*
Y-101342D01*
X78150Y-96350D01*
Y-69095D01*
X73158Y-105905D02*
X91252Y-124000D01*
X133000D01*
X190847Y-139665D02*
X190945Y-139764D01*
X148764D02*
X190945D01*
X133000Y-124000D02*
X148764Y-139764D01*
X206728Y-142520D02*
X209055D01*
X203973Y-139764D02*
X206728Y-142520D01*
X190945Y-139764D02*
X203973D01*
X209055Y-158268D02*
X210630D01*
X218898Y-150000D01*
Y-132677D01*
X209646Y-123425D02*
X218898Y-132677D01*
X209646Y-123425D02*
Y-109449D01*
Y-58858D01*
X215354Y-53150D01*
X237795D02*
X237913Y-53031D01*
X237795Y-53150D02*
X237913Y-53268D01*
X237205Y-53150D02*
X237795D01*
X215354D02*
X237205D01*
X208665Y-159055D02*
X209055D01*
X236941Y-52886D02*
X237205Y-53150D01*
X237795D02*
X247244D01*
X252756Y-58661D01*
X246358Y-72933D02*
X252756Y-66535D01*
X221654Y-85433D02*
Y-72933D01*
X221850D01*
X246358D01*
X36614Y-51181D02*
X68319D01*
X78150Y-41350D01*
X12992Y-46063D02*
X36055Y-23000D01*
X93000D01*
X12992Y-51181D02*
Y-46063D01*
D46*
X134646Y-32283D02*
D03*
X197638D02*
D03*
D47*
X134646Y-14567D02*
D03*
X197638D02*
D03*
D48*
X102362Y-160236D02*
D03*
Y-166142D02*
D03*
Y-172047D02*
D03*
Y-177953D02*
D03*
Y-183858D02*
D03*
Y-189764D02*
D03*
Y-195669D02*
D03*
Y-201575D02*
D03*
Y-207480D02*
D03*
Y-213386D02*
D03*
X53937Y-137795D02*
D03*
Y-143701D02*
D03*
Y-149606D02*
D03*
D49*
X102362Y-219291D02*
D03*
D50*
X92843Y-105905D02*
D03*
X73158D02*
D03*
D51*
X209646Y-109449D02*
D03*
X219488D02*
D03*
D52*
X86614Y-138976D02*
D03*
X209055Y-142520D02*
D03*
Y-158268D02*
D03*
Y-174016D02*
D03*
Y-189764D02*
D03*
D53*
X11811Y-51181D02*
D03*
D54*
X35433D02*
D03*
D55*
X209055Y-205512D02*
D03*
D56*
X53937Y-131890D02*
D03*
D57*
X20472Y-198819D02*
D03*
Y-188583D02*
D03*
X30315Y-198819D02*
D03*
Y-207087D02*
D03*
Y-180315D02*
D03*
Y-190157D02*
D03*
X20472Y-180315D02*
D03*
Y-207087D02*
D03*
X23819Y-142126D02*
D03*
X13976Y-150000D02*
D03*
X23819D02*
D03*
Y-134252D02*
D03*
Y-118504D02*
D03*
X13976Y-142126D02*
D03*
Y-134252D02*
D03*
Y-118504D02*
D03*
D58*
X8661Y-167717D02*
D03*
Y-219685D02*
D03*
D59*
X5512Y-193701D02*
D03*
D60*
X7087Y-157874D02*
D03*
X30709D02*
D03*
Y-110630D02*
D03*
X7087D02*
D03*
D61*
X161417Y-122835D02*
D03*
X141142Y-74016D02*
D03*
X151142Y-84016D02*
D03*
Y-74016D02*
D03*
X161142Y-84016D02*
D03*
Y-74016D02*
D03*
X171142Y-84016D02*
D03*
Y-74016D02*
D03*
X181142Y-84016D02*
D03*
Y-74016D02*
D03*
X191142Y-84016D02*
D03*
Y-74016D02*
D03*
X161417Y-112992D02*
D03*
Y-103150D02*
D03*
X151575D02*
D03*
Y-112992D02*
D03*
D62*
X141142Y-84016D02*
D03*
D63*
X253346Y-19685D02*
D03*
X15748Y-253071D02*
D03*
D64*
X55118D02*
D03*
D65*
X127165Y-158268D02*
D03*
X120079D02*
D03*
X118504Y-151969D02*
D03*
X111417D02*
D03*
X153150Y-158661D02*
D03*
X172047Y-158268D02*
D03*
X150394Y-184252D02*
D03*
X237795Y-68110D02*
D03*
X125591Y-96063D02*
D03*
X122835Y-93701D02*
D03*
X109055Y-118898D02*
D03*
X113386D02*
D03*
X109449Y-128740D02*
D03*
X42913Y-173622D02*
D03*
X43307Y-201181D02*
D03*
X48031Y-221654D02*
D03*
X44882Y-224410D02*
D03*
X86614Y-158268D02*
D03*
X68110Y-163386D02*
D03*
X197244Y-112992D02*
D03*
X207874Y-129921D02*
D03*
X159055Y-186614D02*
D03*
X126871Y-107874D02*
D03*
X126871Y-112992D02*
D03*
X126871Y-118110D02*
D03*
X145276Y-115748D02*
D03*
X147244Y-130709D02*
D03*
X110630Y-208661D02*
D03*
X114567Y-205118D02*
D03*
X118110Y-201575D02*
D03*
X121653Y-198031D02*
D03*
X127559Y-184646D02*
D03*
X127559Y-172441D02*
D03*
X127559Y-167717D02*
D03*
X127559Y-162992D02*
D03*
X146850Y-172441D02*
D03*
X147244Y-167717D02*
D03*
Y-162992D02*
D03*
Y-157874D02*
D03*
X159843Y-132677D02*
D03*
X164961Y-130709D02*
D03*
X127559Y-179921D02*
D03*
X127559Y-153150D02*
D03*
Y-144882D02*
D03*
X127953Y-140551D02*
D03*
X131496Y-137402D02*
D03*
X134646Y-133858D02*
D03*
X115748Y-129134D02*
D03*
X112598Y-132283D02*
D03*
X110630Y-136614D02*
D03*
Y-141339D02*
D03*
Y-146063D02*
D03*
X110236Y-172047D02*
D03*
Y-166142D02*
D03*
Y-160236D02*
D03*
X145276Y-119685D02*
D03*
X131102Y-95669D02*
D03*
X129134Y-87795D02*
D03*
Y-82677D02*
D03*
Y-77559D02*
D03*
X180315Y-90945D02*
D03*
X176772Y-93701D02*
D03*
X173622Y-96457D02*
D03*
X191339Y-63779D02*
D03*
X129134Y-68504D02*
D03*
X130315Y-63779D02*
D03*
X186221D02*
D03*
X181102D02*
D03*
X175984D02*
D03*
X170866D02*
D03*
X165748D02*
D03*
X160630D02*
D03*
X155512D02*
D03*
X150394D02*
D03*
X145276D02*
D03*
X140157D02*
D03*
X135039D02*
D03*
X24409Y-214961D02*
D03*
X29134D02*
D03*
X33858D02*
D03*
X37402Y-211811D02*
D03*
X41732Y-207874D02*
D03*
X46063Y-205118D02*
D03*
X57087Y-218110D02*
D03*
X52362D02*
D03*
X106693Y-148425D02*
D03*
X101575D02*
D03*
X96457D02*
D03*
X91339D02*
D03*
X86221D02*
D03*
X81102D02*
D03*
X76378Y-151181D02*
D03*
X72441Y-154724D02*
D03*
X66929D02*
D03*
X61024D02*
D03*
X52756Y-161417D02*
D03*
X48031Y-165354D02*
D03*
X43307Y-168898D02*
D03*
X183858Y-93307D02*
D03*
X180315Y-95669D02*
D03*
X149606Y-119685D02*
D03*
D66*
X252756Y-58661D02*
D03*
Y-66535D02*
D03*
X221654Y-85433D02*
D03*
M02*
