M48
;Layer_Color=9474304
;FILE_FORMAT=2:4
INCH,LZ
;TYPE=PLATED
T1F00S00C0.0150
T2F00S00C0.0200
T3F00S00C0.0315
T4F00S00C0.0354
T6F00S00C0.0472
T8F00S00C0.0709
T9F00S00C0.0866
;TYPE=NON_PLATED
T10F00S00C0.1102
T11F00S00C0.1378
%
T01
X004488Y-022441
X004803Y-022165
X005236Y-021811
X005709
X02378Y-006811
X019134Y-006378
X018622
X01811
X017598
X017087
X016575
X016063
X015551
X015039
X014528
X014016
X013504
X013032
X012913Y-00685
Y-007756
Y-008268
Y-00878
X01311Y-009567
X012559Y-009606
X012283Y-00937
X012687Y-010787
X012687Y-011299
X012687Y-011811
X011339Y-01189
X010906
X010945Y-012874
X011575Y-012913
X01126Y-013228
X011063Y-013661
Y-014134
Y-014606
X010669Y-014843
X010157
X009646
X009134
X008622
X00811
X007638Y-015118
X007244Y-015472
X006693
X006102
X006811Y-016339
X008661Y-015827
X011024Y-016024
Y-016614
Y-017205
X012756Y-017244
X012756Y-016772
X012756Y-016299
X012717Y-015827
X012756Y-015315
Y-014488
X012795Y-014055
X01315Y-01374
X013465Y-013386
X014724Y-013071
X014528Y-011968
Y-011575
X014961Y-011968
X015984Y-013268
X016496Y-013071
X017205Y-015827
X015315Y-015866
X014724Y-015787
Y-016299
Y-016772
X014685Y-017244
X015039Y-018425
X015906Y-018661
X012756Y-018465
X012756Y-017992
X012165Y-019803
X011811Y-020157
X011457Y-020512
X011063Y-020866
X011142Y-015197
X01185
X012008Y-015827
X017362Y-009646
X017677Y-00937
X018032Y-009567
Y-009094
X018386Y-009331
X019724Y-011299
X020787Y-012992
X005276Y-016142
X004803Y-016535
X004331Y-01689
X004291Y-017362
X004331Y-020118
X004606Y-020512
X004173Y-020787
X00374Y-021181
X003386Y-021496
X002913
X002441
T02
X022165Y-008543
X025276Y-006654
Y-005866
T03
X010236Y-021929
X021949Y-010945
X020965
X009284Y-010591
X007316
X010236Y-016024
Y-016614
Y-017205
Y-017795
Y-018386
Y-018976
Y-019567
Y-020157
Y-020748
Y-021339
X005394Y-014961
Y-01437
Y-01378
Y-013189
T04
X016142Y-012283
Y-011299
Y-010315
X015157
Y-011299
X015114Y-008402
X014114
Y-007402
X015114
X016114
Y-008402
X017114
Y-007402
X018114
Y-008402
X019114
Y-007402
X002382Y-01185
X001398
Y-013425
Y-014213
Y-015
X002382
Y-014213
Y-013425
X002047Y-018032
Y-018858
Y-019882
Y-020709
X003031
Y-019882
Y-019016
Y-018032
T06
X000709Y-015787
X003071
Y-011063
X000709
T08
X008661Y-013898
X020906Y-014252
Y-015827
Y-017402
Y-018976
Y-020551
T09
X000866Y-021969
X000551Y-01937
X000866Y-016772
T10
X005512Y-025307
T11
X001575Y-025307
X025335Y-001969
M30
