G04*
G04 #@! TF.GenerationSoftware,Altium Limited,Altium Designer,20.2.4 (192)*
G04*
G04 Layer_Color=32896*
%FSLAX25Y25*%
%MOIN*%
G70*
G04*
G04 #@! TF.SameCoordinates,2C05E507-4EA5-4E47-A472-78439CCED8C8*
G04*
G04*
G04 #@! TF.FilePolarity,Positive*
G04*
G01*
G75*
%ADD10C,0.00787*%
%ADD11C,0.01575*%
%ADD12C,0.01000*%
%ADD83C,0.00984*%
%ADD84C,0.00630*%
%ADD85R,0.02362X0.01575*%
G36*
X88449Y-25197D02*
Y-25334D01*
X88586D01*
Y-25471D01*
Y-25608D01*
X88723D01*
Y-25745D01*
Y-25882D01*
Y-26019D01*
X88860D01*
Y-26157D01*
Y-26294D01*
Y-26431D01*
X88998D01*
Y-26568D01*
Y-26705D01*
Y-26842D01*
Y-26979D01*
X89135D01*
Y-27116D01*
Y-27253D01*
Y-27390D01*
Y-27527D01*
Y-27665D01*
Y-27802D01*
Y-27939D01*
Y-28076D01*
X88998D01*
Y-27939D01*
X87626D01*
Y-27802D01*
X87489D01*
Y-27665D01*
Y-27527D01*
X87352D01*
Y-27390D01*
Y-27253D01*
X87215D01*
Y-27116D01*
X87078D01*
Y-26979D01*
X86941D01*
Y-26842D01*
X86804D01*
Y-26705D01*
X86667D01*
Y-26568D01*
X86530D01*
Y-26431D01*
X86393D01*
Y-26294D01*
Y-26157D01*
X86530D01*
Y-26019D01*
X86667D01*
Y-25882D01*
X86941D01*
Y-25745D01*
X87078D01*
Y-25608D01*
X87215D01*
Y-25471D01*
X87489D01*
Y-25334D01*
X87764D01*
Y-25197D01*
X88175D01*
Y-25060D01*
X88449D01*
Y-25197D01*
D02*
G37*
G36*
X100924Y-25060D02*
X101336D01*
Y-25197D01*
X101747D01*
Y-25334D01*
X102021D01*
Y-25471D01*
X102295D01*
Y-25608D01*
X102432D01*
Y-25745D01*
X102569D01*
Y-25882D01*
X102707D01*
Y-26019D01*
X102844D01*
Y-26157D01*
X102981D01*
Y-26294D01*
X103118D01*
Y-26431D01*
X103255D01*
Y-26568D01*
X103392D01*
Y-26705D01*
Y-26842D01*
X103529D01*
Y-26979D01*
X103666D01*
Y-27116D01*
Y-27253D01*
X103803D01*
Y-27390D01*
Y-27527D01*
X103940D01*
Y-27665D01*
Y-27802D01*
X104077D01*
Y-27939D01*
X104215D01*
Y-28076D01*
Y-28213D01*
X104352D01*
Y-28350D01*
X104489D01*
Y-28487D01*
Y-28624D01*
X104352D01*
Y-28487D01*
X104077D01*
Y-28350D01*
X103803D01*
Y-28213D01*
X103666D01*
Y-28076D01*
X103392D01*
Y-27939D01*
X102981D01*
Y-27802D01*
X102707D01*
Y-27665D01*
X102295D01*
Y-27527D01*
X101747D01*
Y-27390D01*
X101061D01*
Y-27253D01*
X100513D01*
Y-27116D01*
X100102D01*
Y-26979D01*
X99828D01*
Y-26842D01*
X99554D01*
Y-26705D01*
X99416D01*
Y-26568D01*
X99279D01*
Y-26431D01*
X99142D01*
Y-26294D01*
X99005D01*
Y-26157D01*
X98868D01*
Y-26019D01*
X98731D01*
Y-25882D01*
X98457D01*
Y-26019D01*
X98045D01*
Y-26157D01*
X97771D01*
Y-26294D01*
X97634D01*
Y-26431D01*
X97360D01*
Y-26568D01*
X97223D01*
Y-26705D01*
Y-26842D01*
X97086D01*
Y-26979D01*
Y-27116D01*
X96949D01*
Y-27253D01*
Y-27390D01*
Y-27527D01*
Y-27665D01*
Y-27802D01*
Y-27939D01*
Y-28076D01*
Y-28213D01*
X97086D01*
Y-28350D01*
Y-28487D01*
X97223D01*
Y-28624D01*
Y-28761D01*
X97360D01*
Y-28898D01*
X97497D01*
Y-29035D01*
X97771D01*
Y-29173D01*
X97908D01*
Y-29310D01*
X98183D01*
Y-29447D01*
X98457D01*
Y-29584D01*
X98731D01*
Y-29721D01*
X99005D01*
Y-29858D01*
X99416D01*
Y-29995D01*
X99691D01*
Y-30132D01*
X100102D01*
Y-30269D01*
X100513D01*
Y-30406D01*
X100924D01*
Y-30544D01*
X101473D01*
Y-30681D01*
X101747D01*
Y-30818D01*
X102158D01*
Y-30955D01*
X102569D01*
Y-31092D01*
X102981D01*
Y-31229D01*
X103392D01*
Y-31366D01*
X103666D01*
Y-31503D01*
X103940D01*
Y-31640D01*
X104215D01*
Y-31777D01*
X104489D01*
Y-31914D01*
X104763D01*
Y-32052D01*
X104900D01*
Y-32189D01*
X105174D01*
Y-32326D01*
X105311D01*
Y-32463D01*
X105586D01*
Y-32600D01*
X105723D01*
Y-32737D01*
X105860D01*
Y-32874D01*
X105997D01*
Y-33011D01*
X106134D01*
Y-33148D01*
X106271D01*
Y-33285D01*
X106408D01*
Y-33422D01*
Y-33560D01*
X106545D01*
Y-33697D01*
X106682D01*
Y-33834D01*
Y-33971D01*
X106819D01*
Y-34108D01*
Y-34245D01*
Y-34382D01*
X106956D01*
Y-34519D01*
Y-34656D01*
Y-34793D01*
X107094D01*
Y-34930D01*
Y-35067D01*
Y-35205D01*
Y-35342D01*
Y-35479D01*
Y-35616D01*
Y-35753D01*
Y-35890D01*
Y-36027D01*
Y-36164D01*
X106956D01*
Y-36301D01*
Y-36438D01*
Y-36575D01*
X106819D01*
Y-36713D01*
Y-36850D01*
X106682D01*
Y-36987D01*
Y-37124D01*
X106545D01*
Y-37261D01*
X106408D01*
Y-37398D01*
X106271D01*
Y-37535D01*
X106134D01*
Y-37672D01*
X105997D01*
Y-37809D01*
X105723D01*
Y-37946D01*
X105586D01*
Y-38083D01*
X105311D01*
Y-38221D01*
X105037D01*
Y-38358D01*
X104626D01*
Y-38495D01*
X104215D01*
Y-38632D01*
X103529D01*
Y-38769D01*
X102432D01*
Y-38632D01*
X102021D01*
Y-38495D01*
X101884D01*
Y-38358D01*
Y-38221D01*
X101747D01*
Y-38083D01*
X101610D01*
Y-37946D01*
X101473D01*
Y-37809D01*
Y-37672D01*
X101336D01*
Y-37535D01*
X101199D01*
Y-37398D01*
X101061D01*
Y-37261D01*
X100924D01*
Y-37124D01*
Y-36987D01*
X100787D01*
Y-36850D01*
X100650D01*
Y-36713D01*
X100513D01*
Y-36575D01*
X100376D01*
Y-36438D01*
X100650D01*
Y-36575D01*
X101473D01*
Y-36713D01*
X103940D01*
Y-36575D01*
X104489D01*
Y-36438D01*
X104900D01*
Y-36301D01*
X105037D01*
Y-36164D01*
X105311D01*
Y-36027D01*
Y-35890D01*
X105448D01*
Y-35753D01*
X105586D01*
Y-35616D01*
Y-35479D01*
Y-35342D01*
Y-35205D01*
X105723D01*
Y-35067D01*
X105586D01*
Y-34930D01*
Y-34793D01*
Y-34656D01*
Y-34519D01*
Y-34382D01*
X105448D01*
Y-34245D01*
Y-34108D01*
X105311D01*
Y-33971D01*
Y-33834D01*
X105174D01*
Y-33697D01*
X105037D01*
Y-33560D01*
Y-33422D01*
X104900D01*
Y-33285D01*
X104626D01*
Y-33148D01*
X104489D01*
Y-33011D01*
X104352D01*
Y-32874D01*
X104077D01*
Y-32737D01*
X103803D01*
Y-32600D01*
X103529D01*
Y-32463D01*
X103255D01*
Y-32326D01*
X102844D01*
Y-32189D01*
X102569D01*
Y-32052D01*
X102158D01*
Y-31914D01*
X101747D01*
Y-31777D01*
X101336D01*
Y-31640D01*
X100924D01*
Y-31503D01*
X100376D01*
Y-31366D01*
X99965D01*
Y-31229D01*
X99554D01*
Y-31092D01*
X99279D01*
Y-30955D01*
X98868D01*
Y-30818D01*
X98594D01*
Y-30681D01*
X98320D01*
Y-30544D01*
X98045D01*
Y-30406D01*
X97771D01*
Y-30269D01*
X97634D01*
Y-30132D01*
X97360D01*
Y-29995D01*
X97223D01*
Y-29858D01*
X97086D01*
Y-29721D01*
X96949D01*
Y-29584D01*
X96812D01*
Y-29447D01*
X96675D01*
Y-29310D01*
X96538D01*
Y-29173D01*
Y-29035D01*
X96400D01*
Y-28898D01*
Y-28761D01*
X96263D01*
Y-28624D01*
Y-28487D01*
X96126D01*
Y-28350D01*
Y-28213D01*
Y-28076D01*
Y-27939D01*
Y-27802D01*
Y-27665D01*
Y-27527D01*
Y-27390D01*
Y-27253D01*
Y-27116D01*
Y-26979D01*
X96263D01*
Y-26842D01*
Y-26705D01*
X96400D01*
Y-26568D01*
Y-26431D01*
X96538D01*
Y-26294D01*
X96675D01*
Y-26157D01*
Y-26019D01*
X96812D01*
Y-25882D01*
X96949D01*
Y-25745D01*
X97086D01*
Y-25608D01*
X97360D01*
Y-25471D01*
X97497D01*
Y-25334D01*
X97771D01*
Y-25197D01*
X98045D01*
Y-25060D01*
X98457D01*
Y-24923D01*
X100924D01*
Y-25060D01*
D02*
G37*
G36*
X91191Y-24923D02*
Y-25060D01*
Y-25197D01*
Y-25334D01*
X91328D01*
Y-25471D01*
Y-25608D01*
Y-25745D01*
Y-25882D01*
Y-26019D01*
Y-26157D01*
Y-26294D01*
Y-26431D01*
Y-26568D01*
Y-26705D01*
Y-26842D01*
Y-26979D01*
Y-27116D01*
Y-27253D01*
Y-27390D01*
Y-27527D01*
Y-27665D01*
Y-27802D01*
Y-27939D01*
Y-28076D01*
X91191D01*
Y-28213D01*
Y-28350D01*
Y-28487D01*
Y-28624D01*
X91054D01*
Y-28761D01*
Y-28898D01*
X90780D01*
Y-28761D01*
X90643D01*
Y-28624D01*
X90505D01*
Y-28487D01*
X90231D01*
Y-28350D01*
X89957D01*
Y-28213D01*
X89683D01*
Y-28076D01*
X89409D01*
Y-27939D01*
Y-27802D01*
Y-27665D01*
Y-27527D01*
Y-27390D01*
Y-27253D01*
Y-27116D01*
Y-26979D01*
X89272D01*
Y-26842D01*
Y-26705D01*
Y-26568D01*
Y-26431D01*
X89135D01*
Y-26294D01*
Y-26157D01*
Y-26019D01*
X88998D01*
Y-25882D01*
Y-25745D01*
Y-25608D01*
X88860D01*
Y-25471D01*
Y-25334D01*
X88723D01*
Y-25197D01*
Y-25060D01*
Y-24923D01*
X89272D01*
Y-24786D01*
X91191D01*
Y-24923D01*
D02*
G37*
G36*
X71175Y-28624D02*
X71861D01*
Y-28761D01*
X72272D01*
Y-28898D01*
X72546D01*
Y-29035D01*
X72821D01*
Y-29173D01*
X73095D01*
Y-29310D01*
X73232D01*
Y-29447D01*
X73369D01*
Y-29584D01*
X73506D01*
Y-29721D01*
X73643D01*
Y-29858D01*
X73780D01*
Y-29995D01*
X73917D01*
Y-30132D01*
X74054D01*
Y-30269D01*
Y-30406D01*
X74192D01*
Y-30544D01*
Y-30681D01*
X74329D01*
Y-30818D01*
Y-30955D01*
X74466D01*
Y-31092D01*
Y-31229D01*
Y-31366D01*
Y-31503D01*
X74603D01*
Y-31640D01*
Y-31777D01*
X74466D01*
Y-31914D01*
Y-32052D01*
X74329D01*
Y-32189D01*
X73506D01*
Y-32326D01*
X70764D01*
Y-32189D01*
X70079D01*
Y-32052D01*
X69668D01*
Y-31914D01*
X69256D01*
Y-31777D01*
X68845D01*
Y-31640D01*
X68571D01*
Y-31503D01*
X68297D01*
Y-31366D01*
X68022D01*
Y-31229D01*
X67748D01*
Y-31092D01*
X67474D01*
Y-30955D01*
X67337D01*
Y-30818D01*
X67063D01*
Y-30681D01*
X66926D01*
Y-30544D01*
X66789D01*
Y-30406D01*
X66651D01*
Y-30269D01*
Y-30132D01*
Y-29995D01*
Y-29858D01*
Y-29721D01*
Y-29584D01*
X66789D01*
Y-29447D01*
X67063D01*
Y-29310D01*
X67748D01*
Y-29447D01*
X68022D01*
Y-29584D01*
X68160D01*
Y-29447D01*
X68297D01*
Y-29310D01*
Y-29173D01*
X68434D01*
Y-29035D01*
X68708D01*
Y-28898D01*
X68845D01*
Y-28761D01*
X69256D01*
Y-28624D01*
X69805D01*
Y-28487D01*
X71175D01*
Y-28624D01*
D02*
G37*
G36*
X87489Y-28350D02*
X87626D01*
Y-28487D01*
Y-28624D01*
Y-28761D01*
X87764D01*
Y-28898D01*
Y-29035D01*
Y-29173D01*
X87901D01*
Y-29310D01*
Y-29447D01*
Y-29584D01*
Y-29721D01*
Y-29858D01*
X88038D01*
Y-29995D01*
Y-30132D01*
X87764D01*
Y-29995D01*
X87489D01*
Y-29858D01*
X87215D01*
Y-29721D01*
X86119D01*
Y-29858D01*
X85707D01*
Y-29995D01*
X85433D01*
Y-30132D01*
X85296D01*
Y-30269D01*
X85159D01*
Y-30406D01*
X85022D01*
Y-30544D01*
X84885D01*
Y-30406D01*
Y-30269D01*
X85022D01*
Y-30132D01*
Y-29995D01*
Y-29858D01*
X85159D01*
Y-29721D01*
Y-29584D01*
X85296D01*
Y-29447D01*
X85433D01*
Y-29310D01*
X85570D01*
Y-29173D01*
Y-29035D01*
X85844D01*
Y-28898D01*
X85981D01*
Y-28761D01*
X86119D01*
Y-28624D01*
X86393D01*
Y-28487D01*
X86667D01*
Y-28350D01*
X87215D01*
Y-28213D01*
X87489D01*
Y-28350D01*
D02*
G37*
G36*
X91876Y-25060D02*
X92288D01*
Y-25197D01*
X92699D01*
Y-25334D01*
X92973D01*
Y-25471D01*
X93110D01*
Y-25608D01*
X93384D01*
Y-25745D01*
Y-25882D01*
Y-26019D01*
Y-26157D01*
Y-26294D01*
Y-26431D01*
Y-26568D01*
Y-26705D01*
Y-26842D01*
Y-26979D01*
Y-27116D01*
Y-27253D01*
Y-27390D01*
Y-27527D01*
Y-27665D01*
Y-27802D01*
Y-27939D01*
Y-28076D01*
Y-28213D01*
X93247D01*
Y-28350D01*
Y-28487D01*
Y-28624D01*
Y-28761D01*
X93110D01*
Y-28898D01*
Y-29035D01*
Y-29173D01*
X92973D01*
Y-29310D01*
Y-29447D01*
X92836D01*
Y-29584D01*
Y-29721D01*
X92699D01*
Y-29858D01*
Y-29995D01*
X92562D01*
Y-30132D01*
Y-30269D01*
X92425D01*
Y-30406D01*
Y-30544D01*
X92288D01*
Y-30681D01*
X92014D01*
Y-30544D01*
Y-30406D01*
Y-30269D01*
X91876D01*
Y-30132D01*
X91739D01*
Y-29995D01*
Y-29858D01*
X91602D01*
Y-29721D01*
Y-29584D01*
X91465D01*
Y-29447D01*
X91328D01*
Y-29310D01*
X91191D01*
Y-29173D01*
Y-29035D01*
X91328D01*
Y-28898D01*
Y-28761D01*
X91465D01*
Y-28624D01*
Y-28487D01*
Y-28350D01*
Y-28213D01*
X91602D01*
Y-28076D01*
Y-27939D01*
Y-27802D01*
Y-27665D01*
Y-27527D01*
Y-27390D01*
Y-27253D01*
Y-27116D01*
Y-26979D01*
Y-26842D01*
Y-26705D01*
Y-26568D01*
Y-26431D01*
Y-26294D01*
Y-26157D01*
Y-26019D01*
Y-25882D01*
Y-25745D01*
Y-25608D01*
Y-25471D01*
Y-25334D01*
X91465D01*
Y-25197D01*
Y-25060D01*
Y-24923D01*
X91876D01*
Y-25060D01*
D02*
G37*
G36*
X88998Y-28350D02*
X89135D01*
Y-28487D01*
Y-28624D01*
Y-28761D01*
Y-28898D01*
Y-29035D01*
Y-29173D01*
Y-29310D01*
Y-29447D01*
Y-29584D01*
X88998D01*
Y-29721D01*
Y-29858D01*
Y-29995D01*
Y-30132D01*
X88860D01*
Y-30269D01*
Y-30406D01*
Y-30544D01*
X88723D01*
Y-30681D01*
Y-30818D01*
X88449D01*
Y-30681D01*
X88312D01*
Y-30544D01*
Y-30406D01*
Y-30269D01*
Y-30132D01*
Y-29995D01*
Y-29858D01*
Y-29721D01*
X88175D01*
Y-29584D01*
Y-29447D01*
Y-29310D01*
Y-29173D01*
X88038D01*
Y-29035D01*
Y-28898D01*
Y-28761D01*
Y-28624D01*
X87901D01*
Y-28487D01*
Y-28350D01*
X87764D01*
Y-28213D01*
X88998D01*
Y-28350D01*
D02*
G37*
G36*
X86256Y-26705D02*
X86393D01*
Y-26842D01*
X86530D01*
Y-26979D01*
X86667D01*
Y-27116D01*
X86804D01*
Y-27253D01*
X86941D01*
Y-27390D01*
X87078D01*
Y-27527D01*
Y-27665D01*
X87215D01*
Y-27802D01*
X87352D01*
Y-27939D01*
X87215D01*
Y-28076D01*
X86667D01*
Y-28213D01*
X86256D01*
Y-28350D01*
X86119D01*
Y-28487D01*
X85844D01*
Y-28624D01*
X85707D01*
Y-28761D01*
X85433D01*
Y-28898D01*
X85296D01*
Y-29035D01*
Y-29173D01*
X85159D01*
Y-29310D01*
X85022D01*
Y-29447D01*
Y-29584D01*
X84885D01*
Y-29721D01*
X84748D01*
Y-29858D01*
Y-29995D01*
Y-30132D01*
Y-30269D01*
X84610D01*
Y-30406D01*
Y-30544D01*
Y-30681D01*
Y-30818D01*
Y-30955D01*
X84473D01*
Y-30818D01*
Y-30681D01*
Y-30544D01*
Y-30406D01*
Y-30269D01*
Y-30132D01*
Y-29995D01*
Y-29858D01*
Y-29721D01*
X84610D01*
Y-29584D01*
Y-29447D01*
Y-29310D01*
Y-29173D01*
X84748D01*
Y-29035D01*
Y-28898D01*
Y-28761D01*
X84885D01*
Y-28624D01*
Y-28487D01*
Y-28350D01*
X85022D01*
Y-28213D01*
Y-28076D01*
X85159D01*
Y-27939D01*
Y-27802D01*
X85296D01*
Y-27665D01*
Y-27527D01*
X85433D01*
Y-27390D01*
X85570D01*
Y-27253D01*
Y-27116D01*
X85707D01*
Y-26979D01*
X85844D01*
Y-26842D01*
X85981D01*
Y-26705D01*
X86119D01*
Y-26568D01*
X86256D01*
Y-26705D01*
D02*
G37*
G36*
X89683Y-28487D02*
X89957D01*
Y-28624D01*
X90231D01*
Y-28761D01*
X90368D01*
Y-28898D01*
X90505D01*
Y-29035D01*
X90780D01*
Y-29173D01*
X90917D01*
Y-29310D01*
Y-29447D01*
X90780D01*
Y-29584D01*
Y-29721D01*
X90643D01*
Y-29858D01*
Y-29995D01*
X90505D01*
Y-30132D01*
X90368D01*
Y-30269D01*
Y-30406D01*
X90231D01*
Y-30544D01*
X90094D01*
Y-30681D01*
Y-30818D01*
X89957D01*
Y-30955D01*
X89820D01*
Y-31092D01*
X89683D01*
Y-31229D01*
X89546D01*
Y-31366D01*
X89409D01*
Y-31503D01*
X89272D01*
Y-31640D01*
X89135D01*
Y-31777D01*
X88998D01*
Y-31914D01*
X88860D01*
Y-32052D01*
X88723D01*
Y-31914D01*
Y-31777D01*
Y-31640D01*
Y-31503D01*
Y-31366D01*
Y-31229D01*
Y-31092D01*
X88860D01*
Y-30955D01*
X88998D01*
Y-30818D01*
Y-30681D01*
X89135D01*
Y-30544D01*
Y-30406D01*
Y-30269D01*
X89272D01*
Y-30132D01*
Y-29995D01*
Y-29858D01*
Y-29721D01*
X89409D01*
Y-29584D01*
Y-29447D01*
Y-29310D01*
Y-29173D01*
Y-29035D01*
Y-28898D01*
Y-28761D01*
Y-28624D01*
Y-28487D01*
X89546D01*
Y-28350D01*
X89683D01*
Y-28487D01*
D02*
G37*
G36*
X93933Y-26157D02*
X94070D01*
Y-26294D01*
X94207D01*
Y-26431D01*
Y-26568D01*
X94344D01*
Y-26705D01*
X94481D01*
Y-26842D01*
X94618D01*
Y-26979D01*
X94755D01*
Y-27116D01*
X94892D01*
Y-27253D01*
Y-27390D01*
X95029D01*
Y-27527D01*
X95167D01*
Y-27665D01*
Y-27802D01*
X95304D01*
Y-27939D01*
X95441D01*
Y-28076D01*
Y-28213D01*
X95578D01*
Y-28350D01*
Y-28487D01*
Y-28624D01*
Y-28761D01*
Y-28898D01*
Y-29035D01*
X95441D01*
Y-29173D01*
Y-29310D01*
Y-29447D01*
X95304D01*
Y-29584D01*
Y-29721D01*
Y-29858D01*
X95167D01*
Y-29995D01*
X95029D01*
Y-30132D01*
Y-30269D01*
X94892D01*
Y-30406D01*
Y-30544D01*
X94755D01*
Y-30681D01*
X94618D01*
Y-30818D01*
X94481D01*
Y-30955D01*
Y-31092D01*
X94344D01*
Y-31229D01*
X94207D01*
Y-31366D01*
X94070D01*
Y-31503D01*
X93933D01*
Y-31640D01*
X93796D01*
Y-31777D01*
X93521D01*
Y-31914D01*
X93384D01*
Y-32052D01*
X93247D01*
Y-32189D01*
X92973D01*
Y-32326D01*
X92699D01*
Y-32463D01*
X92425D01*
Y-32326D01*
Y-32189D01*
Y-32052D01*
Y-31914D01*
Y-31777D01*
Y-31640D01*
Y-31503D01*
X92288D01*
Y-31366D01*
Y-31229D01*
Y-31092D01*
Y-30955D01*
X92425D01*
Y-30818D01*
X92562D01*
Y-30681D01*
Y-30544D01*
X92699D01*
Y-30406D01*
X92836D01*
Y-30269D01*
Y-30132D01*
X92973D01*
Y-29995D01*
Y-29858D01*
X93110D01*
Y-29721D01*
Y-29584D01*
X93247D01*
Y-29447D01*
Y-29310D01*
Y-29173D01*
X93384D01*
Y-29035D01*
Y-28898D01*
Y-28761D01*
X93521D01*
Y-28624D01*
Y-28487D01*
Y-28350D01*
Y-28213D01*
X93659D01*
Y-28076D01*
Y-27939D01*
Y-27802D01*
Y-27665D01*
Y-27527D01*
Y-27390D01*
Y-27253D01*
Y-27116D01*
X93796D01*
Y-26979D01*
Y-26842D01*
Y-26705D01*
Y-26568D01*
Y-26431D01*
X93659D01*
Y-26294D01*
Y-26157D01*
Y-26019D01*
X93933D01*
Y-26157D01*
D02*
G37*
G36*
X91191Y-29721D02*
X91328D01*
Y-29858D01*
Y-29995D01*
X91465D01*
Y-30132D01*
X91602D01*
Y-30269D01*
Y-30406D01*
X91739D01*
Y-30544D01*
Y-30681D01*
X91876D01*
Y-30818D01*
Y-30955D01*
Y-31092D01*
Y-31229D01*
X91739D01*
Y-31366D01*
X91602D01*
Y-31503D01*
X91465D01*
Y-31640D01*
X91328D01*
Y-31777D01*
X91191D01*
Y-31914D01*
X91054D01*
Y-32052D01*
X90780D01*
Y-32189D01*
X90643D01*
Y-32326D01*
X90505D01*
Y-32463D01*
X90231D01*
Y-32600D01*
X90094D01*
Y-32737D01*
X89820D01*
Y-32874D01*
X89546D01*
Y-33011D01*
X89272D01*
Y-33148D01*
X88998D01*
Y-33285D01*
X88723D01*
Y-33422D01*
X88449D01*
Y-33285D01*
Y-33148D01*
X88586D01*
Y-33011D01*
Y-32874D01*
Y-32737D01*
X88723D01*
Y-32600D01*
Y-32463D01*
Y-32326D01*
X88998D01*
Y-32189D01*
X89135D01*
Y-32052D01*
X89272D01*
Y-31914D01*
X89409D01*
Y-31777D01*
X89546D01*
Y-31640D01*
X89683D01*
Y-31503D01*
X89820D01*
Y-31366D01*
X89957D01*
Y-31229D01*
X90094D01*
Y-31092D01*
X90231D01*
Y-30955D01*
Y-30818D01*
X90368D01*
Y-30681D01*
X90505D01*
Y-30544D01*
X90643D01*
Y-30406D01*
Y-30269D01*
X90780D01*
Y-30132D01*
Y-29995D01*
X90917D01*
Y-29858D01*
Y-29721D01*
X91054D01*
Y-29584D01*
X91191D01*
Y-29721D01*
D02*
G37*
G36*
X88449Y-33560D02*
X88312D01*
Y-33422D01*
X88449D01*
Y-33560D01*
D02*
G37*
G36*
X95852Y-29173D02*
X95989D01*
Y-29310D01*
Y-29447D01*
Y-29584D01*
Y-29721D01*
X96126D01*
Y-29858D01*
Y-29995D01*
Y-30132D01*
Y-30269D01*
X96263D01*
Y-30406D01*
Y-30544D01*
Y-30681D01*
Y-30818D01*
Y-30955D01*
Y-31092D01*
Y-31229D01*
Y-31366D01*
Y-31503D01*
X96126D01*
Y-31640D01*
X95989D01*
Y-31777D01*
Y-31914D01*
X95852D01*
Y-32052D01*
X95715D01*
Y-32189D01*
X95578D01*
Y-32326D01*
X95441D01*
Y-32463D01*
X95304D01*
Y-32600D01*
X95167D01*
Y-32737D01*
X95029D01*
Y-32874D01*
X94755D01*
Y-33011D01*
X94618D01*
Y-33148D01*
X94481D01*
Y-33285D01*
X94207D01*
Y-33422D01*
X94070D01*
Y-33560D01*
X93796D01*
Y-33697D01*
X93521D01*
Y-33834D01*
X93247D01*
Y-33971D01*
X92973D01*
Y-34108D01*
X92699D01*
Y-34245D01*
X92288D01*
Y-34382D01*
X92151D01*
Y-34245D01*
Y-34108D01*
X92288D01*
Y-33971D01*
Y-33834D01*
Y-33697D01*
X92425D01*
Y-33560D01*
Y-33422D01*
Y-33285D01*
Y-33148D01*
Y-33011D01*
Y-32874D01*
Y-32737D01*
X92836D01*
Y-32600D01*
X93110D01*
Y-32463D01*
X93247D01*
Y-32326D01*
X93521D01*
Y-32189D01*
X93659D01*
Y-32052D01*
X93933D01*
Y-31914D01*
X94070D01*
Y-31777D01*
X94207D01*
Y-31640D01*
X94344D01*
Y-31503D01*
X94481D01*
Y-31366D01*
X94618D01*
Y-31229D01*
X94755D01*
Y-31092D01*
Y-30955D01*
X94892D01*
Y-30818D01*
X95029D01*
Y-30681D01*
X95167D01*
Y-30544D01*
Y-30406D01*
X95304D01*
Y-30269D01*
Y-30132D01*
X95441D01*
Y-29995D01*
Y-29858D01*
X95578D01*
Y-29721D01*
Y-29584D01*
X95715D01*
Y-29447D01*
Y-29310D01*
Y-29173D01*
Y-29035D01*
X95852D01*
Y-29173D01*
D02*
G37*
G36*
X92151Y-31640D02*
Y-31777D01*
Y-31914D01*
Y-32052D01*
Y-32189D01*
Y-32326D01*
Y-32463D01*
Y-32600D01*
Y-32737D01*
Y-32874D01*
Y-33011D01*
Y-33148D01*
Y-33285D01*
Y-33422D01*
X92014D01*
Y-33560D01*
X91739D01*
Y-33697D01*
X91465D01*
Y-33834D01*
X91054D01*
Y-33971D01*
X90505D01*
Y-34108D01*
X89820D01*
Y-34245D01*
X88860D01*
Y-34382D01*
X87626D01*
Y-34245D01*
X87764D01*
Y-34108D01*
X87901D01*
Y-33971D01*
X88038D01*
Y-33834D01*
X88449D01*
Y-33697D01*
X88860D01*
Y-33560D01*
X89135D01*
Y-33422D01*
X89409D01*
Y-33285D01*
X89683D01*
Y-33148D01*
X89957D01*
Y-33011D01*
X90094D01*
Y-32874D01*
X90368D01*
Y-32737D01*
X90643D01*
Y-32600D01*
X90780D01*
Y-32463D01*
X90917D01*
Y-32326D01*
X91191D01*
Y-32189D01*
X91328D01*
Y-32052D01*
X91465D01*
Y-31914D01*
X91602D01*
Y-31777D01*
X91739D01*
Y-31640D01*
X91876D01*
Y-31503D01*
X92151D01*
Y-31640D01*
D02*
G37*
G36*
X96263Y-32052D02*
Y-32189D01*
Y-32326D01*
Y-32463D01*
Y-32600D01*
Y-32737D01*
Y-32874D01*
X96126D01*
Y-33011D01*
Y-33148D01*
Y-33285D01*
Y-33422D01*
Y-33560D01*
X95989D01*
Y-33697D01*
Y-33834D01*
Y-33971D01*
X95852D01*
Y-34108D01*
Y-34245D01*
Y-34382D01*
X95715D01*
Y-34519D01*
Y-34656D01*
X95441D01*
Y-34793D01*
X95304D01*
Y-34930D01*
X94892D01*
Y-35067D01*
X94618D01*
Y-35205D01*
X94344D01*
Y-35342D01*
X93933D01*
Y-35479D01*
X93521D01*
Y-35616D01*
X92973D01*
Y-35753D01*
X92288D01*
Y-35890D01*
X91465D01*
Y-36027D01*
X91054D01*
Y-35890D01*
X91191D01*
Y-35753D01*
X91328D01*
Y-35616D01*
Y-35479D01*
X91465D01*
Y-35342D01*
X91602D01*
Y-35205D01*
X91739D01*
Y-35067D01*
Y-34930D01*
X91876D01*
Y-34793D01*
Y-34656D01*
X92288D01*
Y-34519D01*
X92699D01*
Y-34382D01*
X92973D01*
Y-34245D01*
X93384D01*
Y-34108D01*
X93659D01*
Y-33971D01*
X93933D01*
Y-33834D01*
X94070D01*
Y-33697D01*
X94344D01*
Y-33560D01*
X94481D01*
Y-33422D01*
X94755D01*
Y-33285D01*
X94892D01*
Y-33148D01*
X95029D01*
Y-33011D01*
X95304D01*
Y-32874D01*
X95441D01*
Y-32737D01*
X95578D01*
Y-32600D01*
X95715D01*
Y-32463D01*
X95852D01*
Y-32326D01*
X95989D01*
Y-32189D01*
X96126D01*
Y-32052D01*
Y-31914D01*
X96263D01*
Y-32052D01*
D02*
G37*
G36*
X92014Y-33971D02*
Y-34108D01*
X91876D01*
Y-34245D01*
Y-34382D01*
X91739D01*
Y-34519D01*
Y-34656D01*
X91602D01*
Y-34793D01*
Y-34930D01*
X91465D01*
Y-35067D01*
X91328D01*
Y-35205D01*
X91191D01*
Y-35342D01*
Y-35479D01*
X91054D01*
Y-35616D01*
X90917D01*
Y-35753D01*
X90780D01*
Y-35890D01*
X90643D01*
Y-36027D01*
X87489D01*
Y-35890D01*
X86530D01*
Y-35753D01*
X85844D01*
Y-35616D01*
Y-35479D01*
X86119D01*
Y-35342D01*
X86393D01*
Y-35205D01*
X86530D01*
Y-35067D01*
X86667D01*
Y-34930D01*
X86941D01*
Y-34793D01*
X87078D01*
Y-34656D01*
X88860D01*
Y-34519D01*
X89820D01*
Y-34382D01*
X90505D01*
Y-34245D01*
X91054D01*
Y-34108D01*
X91602D01*
Y-33971D01*
X91876D01*
Y-33834D01*
X92014D01*
Y-33971D01*
D02*
G37*
G36*
X85844Y-36027D02*
X86530D01*
Y-36164D01*
X87489D01*
Y-36301D01*
X90094D01*
Y-36438D01*
Y-36575D01*
X89820D01*
Y-36713D01*
X89683D01*
Y-36850D01*
X89546D01*
Y-36987D01*
X89272D01*
Y-37124D01*
X89135D01*
Y-37261D01*
X88860D01*
Y-37398D01*
X88723D01*
Y-37535D01*
X87764D01*
Y-37398D01*
X87078D01*
Y-37261D01*
X86393D01*
Y-37124D01*
X85844D01*
Y-36987D01*
X85433D01*
Y-36850D01*
X85022D01*
Y-36713D01*
X84748D01*
Y-36575D01*
X84473D01*
Y-36438D01*
X84610D01*
Y-36301D01*
X84885D01*
Y-36164D01*
X85022D01*
Y-36027D01*
X85296D01*
Y-35890D01*
X85844D01*
Y-36027D01*
D02*
G37*
G36*
X95441Y-35205D02*
Y-35342D01*
X95304D01*
Y-35479D01*
X95167D01*
Y-35616D01*
Y-35753D01*
X95029D01*
Y-35890D01*
X94892D01*
Y-36027D01*
Y-36164D01*
X94755D01*
Y-36301D01*
X94618D01*
Y-36438D01*
X94481D01*
Y-36575D01*
Y-36713D01*
X94344D01*
Y-36850D01*
X94207D01*
Y-36987D01*
X94070D01*
Y-37124D01*
X93933D01*
Y-37261D01*
X93796D01*
Y-37398D01*
X93659D01*
Y-37535D01*
X93384D01*
Y-37672D01*
X92151D01*
Y-37809D01*
X90094D01*
Y-37672D01*
X88998D01*
Y-37535D01*
X89135D01*
Y-37398D01*
X89409D01*
Y-37261D01*
X89546D01*
Y-37124D01*
X89820D01*
Y-36987D01*
X89957D01*
Y-36850D01*
X90094D01*
Y-36713D01*
X90231D01*
Y-36575D01*
X90368D01*
Y-36438D01*
X90643D01*
Y-36301D01*
X91465D01*
Y-36164D01*
X92425D01*
Y-36027D01*
X92973D01*
Y-35890D01*
X93521D01*
Y-35753D01*
X93933D01*
Y-35616D01*
X94344D01*
Y-35479D01*
X94755D01*
Y-35342D01*
X95029D01*
Y-35205D01*
X95304D01*
Y-35067D01*
X95441D01*
Y-35205D01*
D02*
G37*
G36*
X92973Y-38083D02*
X92836D01*
Y-38221D01*
X92562D01*
Y-38358D01*
X92425D01*
Y-38495D01*
X92151D01*
Y-38632D01*
X92014D01*
Y-38769D01*
X91739D01*
Y-38906D01*
X91465D01*
Y-39043D01*
X91328D01*
Y-39180D01*
X91054D01*
Y-39317D01*
X90917D01*
Y-39454D01*
X89272D01*
Y-39317D01*
X88312D01*
Y-39180D01*
X87626D01*
Y-39043D01*
X87078D01*
Y-38906D01*
X86941D01*
Y-38769D01*
X87215D01*
Y-38632D01*
X87489D01*
Y-38495D01*
X87626D01*
Y-38358D01*
X87901D01*
Y-38221D01*
X88175D01*
Y-38083D01*
X88449D01*
Y-37946D01*
X89957D01*
Y-38083D01*
X92425D01*
Y-37946D01*
X92973D01*
Y-38083D01*
D02*
G37*
G36*
X87901Y-30544D02*
X88038D01*
Y-30681D01*
X88175D01*
Y-30818D01*
Y-30955D01*
X88312D01*
Y-31092D01*
Y-31229D01*
X88449D01*
Y-31366D01*
Y-31503D01*
Y-31640D01*
Y-31777D01*
Y-31914D01*
Y-32052D01*
Y-32189D01*
Y-32326D01*
Y-32463D01*
Y-32600D01*
Y-32737D01*
X88312D01*
Y-32874D01*
Y-33011D01*
X88175D01*
Y-33148D01*
Y-33285D01*
X88038D01*
Y-33422D01*
X87901D01*
Y-33560D01*
Y-33697D01*
X87764D01*
Y-33834D01*
X87626D01*
Y-33971D01*
X87489D01*
Y-34108D01*
X87352D01*
Y-34245D01*
X87215D01*
Y-34382D01*
X86941D01*
Y-34519D01*
X86804D01*
Y-34656D01*
X86667D01*
Y-34793D01*
X86530D01*
Y-34930D01*
X86256D01*
Y-35067D01*
X86119D01*
Y-35205D01*
X85844D01*
Y-35342D01*
X85707D01*
Y-35479D01*
X85433D01*
Y-35616D01*
X85296D01*
Y-35753D01*
X85022D01*
Y-35890D01*
X84748D01*
Y-36027D01*
X84610D01*
Y-36164D01*
X84336D01*
Y-36301D01*
X84062D01*
Y-36438D01*
X83788D01*
Y-36575D01*
X83514D01*
Y-36713D01*
X83240D01*
Y-36850D01*
X82965D01*
Y-36987D01*
X82691D01*
Y-37124D01*
X82417D01*
Y-37261D01*
X82143D01*
Y-37398D01*
X81869D01*
Y-37535D01*
X81595D01*
Y-37672D01*
X81320D01*
Y-37809D01*
X80909D01*
Y-37946D01*
X80635D01*
Y-38083D01*
X80361D01*
Y-38221D01*
X80086D01*
Y-38083D01*
Y-37946D01*
Y-37809D01*
Y-37672D01*
Y-37535D01*
X79949D01*
Y-37398D01*
Y-37261D01*
Y-37124D01*
Y-36987D01*
X80224D01*
Y-36850D01*
X80498D01*
Y-36713D01*
X80772D01*
Y-36575D01*
X81046D01*
Y-36438D01*
X81320D01*
Y-36301D01*
X81595D01*
Y-36164D01*
X81869D01*
Y-36027D01*
X82143D01*
Y-35890D01*
X82417D01*
Y-35753D01*
X82554D01*
Y-35616D01*
X82828D01*
Y-35479D01*
X83103D01*
Y-35342D01*
X83377D01*
Y-35205D01*
X83514D01*
Y-35067D01*
X83788D01*
Y-34930D01*
X84062D01*
Y-34793D01*
X84199D01*
Y-34656D01*
X84473D01*
Y-34519D01*
X84748D01*
Y-34382D01*
X84885D01*
Y-34245D01*
X85159D01*
Y-34108D01*
X85296D01*
Y-33971D01*
X85570D01*
Y-33834D01*
X85707D01*
Y-33697D01*
X85844D01*
Y-33560D01*
X86119D01*
Y-33422D01*
X86256D01*
Y-33285D01*
X86393D01*
Y-33148D01*
X86530D01*
Y-33011D01*
X86804D01*
Y-32874D01*
X86941D01*
Y-32737D01*
X87078D01*
Y-32600D01*
X87215D01*
Y-32463D01*
Y-32326D01*
X87352D01*
Y-32189D01*
X87489D01*
Y-32052D01*
X87626D01*
Y-31914D01*
Y-31777D01*
X87764D01*
Y-31640D01*
Y-31503D01*
X87901D01*
Y-31366D01*
Y-31229D01*
Y-31092D01*
Y-30955D01*
Y-30818D01*
Y-30681D01*
X87764D01*
Y-30544D01*
Y-30406D01*
X87901D01*
Y-30544D01*
D02*
G37*
G36*
X84336Y-36850D02*
X84610D01*
Y-36987D01*
X85022D01*
Y-37124D01*
X85433D01*
Y-37261D01*
X85844D01*
Y-37398D01*
X86256D01*
Y-37535D01*
X86941D01*
Y-37672D01*
X87626D01*
Y-37809D01*
X88038D01*
Y-37946D01*
X87901D01*
Y-38083D01*
X87626D01*
Y-38221D01*
X87352D01*
Y-38358D01*
X87215D01*
Y-38495D01*
X86941D01*
Y-38632D01*
X86667D01*
Y-38769D01*
X86119D01*
Y-38632D01*
X85707D01*
Y-38495D01*
X85433D01*
Y-38358D01*
X85022D01*
Y-38221D01*
X84748D01*
Y-38083D01*
X84473D01*
Y-37946D01*
X84199D01*
Y-37809D01*
X83925D01*
Y-37672D01*
X83788D01*
Y-37535D01*
X83514D01*
Y-37398D01*
X83377D01*
Y-37261D01*
X83240D01*
Y-37124D01*
X83377D01*
Y-36987D01*
X83651D01*
Y-36850D01*
X83925D01*
Y-36713D01*
X84336D01*
Y-36850D01*
D02*
G37*
G36*
X74877Y-32463D02*
X75014D01*
Y-32600D01*
X75151D01*
Y-32737D01*
X75288D01*
Y-32874D01*
Y-33011D01*
Y-33148D01*
Y-33285D01*
Y-33422D01*
Y-33560D01*
X75563D01*
Y-33697D01*
Y-33834D01*
X75700D01*
Y-33971D01*
Y-34108D01*
Y-34245D01*
Y-34382D01*
Y-34519D01*
X75974D01*
Y-34656D01*
X76111D01*
Y-34793D01*
X76248D01*
Y-34930D01*
Y-35067D01*
X76385D01*
Y-35205D01*
Y-35342D01*
X76248D01*
Y-35479D01*
X76659D01*
Y-35616D01*
X76796D01*
Y-35753D01*
X76933D01*
Y-35890D01*
X77070D01*
Y-36027D01*
Y-36164D01*
Y-36301D01*
X77345D01*
Y-36438D01*
X77619D01*
Y-36575D01*
X77756D01*
Y-36713D01*
Y-36850D01*
Y-36987D01*
Y-37124D01*
Y-37261D01*
Y-37398D01*
X77619D01*
Y-37535D01*
Y-37672D01*
X77482D01*
Y-37809D01*
X77345D01*
Y-37946D01*
X77070D01*
Y-38083D01*
X76933D01*
Y-38221D01*
X76659D01*
Y-38358D01*
X76248D01*
Y-38495D01*
X75974D01*
Y-38632D01*
X75563D01*
Y-38769D01*
X75288D01*
Y-38906D01*
X75014D01*
Y-38769D01*
Y-38632D01*
X74877D01*
Y-38495D01*
Y-38358D01*
X74740D01*
Y-38221D01*
Y-38083D01*
X74603D01*
Y-37946D01*
Y-37809D01*
X74466D01*
Y-37672D01*
Y-37535D01*
X74329D01*
Y-37398D01*
X74192D01*
Y-37261D01*
Y-37124D01*
X74054D01*
Y-36987D01*
Y-36850D01*
X73917D01*
Y-36713D01*
Y-36575D01*
X73780D01*
Y-36438D01*
Y-36301D01*
X73643D01*
Y-36164D01*
Y-36027D01*
X73506D01*
Y-35890D01*
Y-35753D01*
Y-35616D01*
X73369D01*
Y-35479D01*
Y-35342D01*
X73232D01*
Y-35205D01*
Y-35067D01*
Y-34930D01*
X73095D01*
Y-34793D01*
Y-34656D01*
Y-34519D01*
X72958D01*
Y-34382D01*
Y-34245D01*
Y-34108D01*
X72821D01*
Y-33971D01*
Y-33834D01*
Y-33697D01*
X72684D01*
Y-33560D01*
Y-33422D01*
Y-33285D01*
Y-33148D01*
X72546D01*
Y-33011D01*
Y-32874D01*
Y-32737D01*
Y-32600D01*
X73780D01*
Y-32463D01*
X74329D01*
Y-32326D01*
X74877D01*
Y-32463D01*
D02*
G37*
G36*
X82965Y-37398D02*
X83103D01*
Y-37535D01*
X83240D01*
Y-37672D01*
X83377D01*
Y-37809D01*
X83651D01*
Y-37946D01*
X83788D01*
Y-38083D01*
X84062D01*
Y-38221D01*
X84336D01*
Y-38358D01*
X84610D01*
Y-38495D01*
X85022D01*
Y-38632D01*
X85296D01*
Y-38769D01*
X85707D01*
Y-38906D01*
X85981D01*
Y-39043D01*
X85844D01*
Y-39180D01*
X85570D01*
Y-39317D01*
X85296D01*
Y-39454D01*
X85022D01*
Y-39592D01*
X84748D01*
Y-39729D01*
X84473D01*
Y-39592D01*
X84336D01*
Y-39454D01*
X84062D01*
Y-39317D01*
X83925D01*
Y-39180D01*
X83651D01*
Y-39043D01*
X83377D01*
Y-38906D01*
X83240D01*
Y-38769D01*
X82965D01*
Y-38632D01*
X82828D01*
Y-38495D01*
X82691D01*
Y-38358D01*
X82417D01*
Y-38221D01*
X82280D01*
Y-38083D01*
X82143D01*
Y-37946D01*
X82006D01*
Y-37809D01*
Y-37672D01*
X82280D01*
Y-37535D01*
X82554D01*
Y-37398D01*
X82828D01*
Y-37261D01*
X82965D01*
Y-37398D01*
D02*
G37*
G36*
X72958Y-35205D02*
Y-35342D01*
Y-35479D01*
X73095D01*
Y-35616D01*
Y-35753D01*
Y-35890D01*
X73232D01*
Y-36027D01*
Y-36164D01*
X73369D01*
Y-36301D01*
Y-36438D01*
X73506D01*
Y-36575D01*
Y-36713D01*
X73643D01*
Y-36850D01*
Y-36987D01*
X73780D01*
Y-37124D01*
Y-37261D01*
X73917D01*
Y-37398D01*
Y-37535D01*
X74054D01*
Y-37672D01*
Y-37809D01*
X74192D01*
Y-37946D01*
X74329D01*
Y-38083D01*
Y-38221D01*
X74466D01*
Y-38358D01*
Y-38495D01*
X74603D01*
Y-38632D01*
X74740D01*
Y-38769D01*
Y-38906D01*
X74877D01*
Y-39043D01*
X74603D01*
Y-39180D01*
X74329D01*
Y-39317D01*
X73917D01*
Y-39454D01*
X73643D01*
Y-39592D01*
X73232D01*
Y-39729D01*
X72958D01*
Y-39866D01*
X72546D01*
Y-39729D01*
Y-39592D01*
Y-39454D01*
Y-39317D01*
X72684D01*
Y-39180D01*
Y-39043D01*
Y-38906D01*
Y-38769D01*
Y-38632D01*
Y-38495D01*
Y-38358D01*
Y-38221D01*
Y-38083D01*
X72821D01*
Y-37946D01*
Y-37809D01*
Y-37672D01*
Y-37535D01*
Y-37398D01*
Y-37261D01*
Y-37124D01*
Y-36987D01*
Y-36850D01*
Y-36713D01*
Y-36575D01*
Y-36438D01*
Y-36301D01*
Y-36164D01*
Y-36027D01*
Y-35890D01*
Y-35753D01*
Y-35616D01*
Y-35479D01*
Y-35342D01*
Y-35205D01*
Y-35067D01*
X72958D01*
Y-35205D01*
D02*
G37*
G36*
X81732Y-38083D02*
X81869D01*
Y-38221D01*
X82006D01*
Y-38358D01*
X82143D01*
Y-38495D01*
X82417D01*
Y-38632D01*
X82554D01*
Y-38769D01*
X82691D01*
Y-38906D01*
X82965D01*
Y-39043D01*
X83103D01*
Y-39180D01*
X83377D01*
Y-39317D01*
X83514D01*
Y-39454D01*
X83788D01*
Y-39592D01*
X83925D01*
Y-39729D01*
X84199D01*
Y-39866D01*
Y-40003D01*
X83925D01*
Y-40140D01*
X83514D01*
Y-40277D01*
X83240D01*
Y-40414D01*
X82965D01*
Y-40277D01*
X82691D01*
Y-40140D01*
X82554D01*
Y-40003D01*
X82417D01*
Y-39866D01*
X82143D01*
Y-39729D01*
X82006D01*
Y-39592D01*
X81869D01*
Y-39454D01*
X81732D01*
Y-39317D01*
X81595D01*
Y-39180D01*
X81320D01*
Y-39043D01*
X81183D01*
Y-38906D01*
X81046D01*
Y-38769D01*
X80909D01*
Y-38632D01*
X80772D01*
Y-38495D01*
X80635D01*
Y-38358D01*
X80909D01*
Y-38221D01*
X81183D01*
Y-38083D01*
X81457D01*
Y-37946D01*
X81732D01*
Y-38083D01*
D02*
G37*
G36*
X86941Y-39317D02*
X87626D01*
Y-39454D01*
X88312D01*
Y-39592D01*
X89135D01*
Y-39729D01*
X90094D01*
Y-39866D01*
X89957D01*
Y-40003D01*
X89683D01*
Y-40140D01*
X89409D01*
Y-40277D01*
X89135D01*
Y-40414D01*
X88860D01*
Y-40551D01*
X88586D01*
Y-40688D01*
X88312D01*
Y-40825D01*
X88038D01*
Y-40962D01*
X87489D01*
Y-40825D01*
X86941D01*
Y-40688D01*
X86530D01*
Y-40551D01*
X86256D01*
Y-40414D01*
X85844D01*
Y-40277D01*
X85570D01*
Y-40140D01*
X85296D01*
Y-40003D01*
X85022D01*
Y-39866D01*
Y-39729D01*
X85433D01*
Y-39592D01*
X85707D01*
Y-39454D01*
X85981D01*
Y-39317D01*
X86256D01*
Y-39180D01*
X86941D01*
Y-39317D01*
D02*
G37*
G36*
X80498Y-38769D02*
X80635D01*
Y-38906D01*
X80772D01*
Y-39043D01*
X80909D01*
Y-39180D01*
X81046D01*
Y-39317D01*
X81320D01*
Y-39454D01*
X81457D01*
Y-39592D01*
X81595D01*
Y-39729D01*
X81732D01*
Y-39866D01*
X81869D01*
Y-40003D01*
X82006D01*
Y-40140D01*
X82280D01*
Y-40277D01*
X82417D01*
Y-40414D01*
X82691D01*
Y-40551D01*
Y-40688D01*
X82280D01*
Y-40825D01*
X81869D01*
Y-40962D01*
X81595D01*
Y-41100D01*
X81320D01*
Y-40962D01*
X81183D01*
Y-40825D01*
X80909D01*
Y-40688D01*
X80772D01*
Y-40551D01*
X80635D01*
Y-40414D01*
X80498D01*
Y-40277D01*
X80361D01*
Y-40140D01*
X80224D01*
Y-40003D01*
X80086D01*
Y-39866D01*
X79949D01*
Y-39729D01*
X79812D01*
Y-39592D01*
X79675D01*
Y-39454D01*
Y-39317D01*
X79812D01*
Y-39180D01*
Y-39043D01*
Y-38906D01*
X79949D01*
Y-38769D01*
X80086D01*
Y-38632D01*
X80498D01*
Y-38769D01*
D02*
G37*
G36*
X70216Y-32600D02*
X71039D01*
Y-32737D01*
X72272D01*
Y-32874D01*
X72409D01*
Y-33011D01*
Y-33148D01*
Y-33285D01*
Y-33422D01*
Y-33560D01*
Y-33697D01*
Y-33834D01*
X72546D01*
Y-33971D01*
Y-34108D01*
Y-34245D01*
Y-34382D01*
Y-34519D01*
Y-34656D01*
Y-34793D01*
Y-34930D01*
Y-35067D01*
Y-35205D01*
Y-35342D01*
Y-35479D01*
Y-35616D01*
Y-35753D01*
Y-35890D01*
Y-36027D01*
Y-36164D01*
Y-36301D01*
Y-36438D01*
Y-36575D01*
Y-36713D01*
Y-36850D01*
Y-36987D01*
Y-37124D01*
Y-37261D01*
Y-37398D01*
Y-37535D01*
Y-37672D01*
Y-37809D01*
Y-37946D01*
Y-38083D01*
X72409D01*
Y-38221D01*
Y-38358D01*
Y-38495D01*
Y-38632D01*
Y-38769D01*
Y-38906D01*
Y-39043D01*
Y-39180D01*
Y-39317D01*
X72272D01*
Y-39454D01*
Y-39592D01*
Y-39729D01*
Y-39866D01*
Y-40003D01*
X72135D01*
Y-40140D01*
X71724D01*
Y-40277D01*
X71313D01*
Y-40414D01*
X70901D01*
Y-40551D01*
X70627D01*
Y-40688D01*
X70216D01*
Y-40825D01*
X69942D01*
Y-40962D01*
X69668D01*
Y-41100D01*
X69393D01*
Y-41237D01*
X69119D01*
Y-41374D01*
X68845D01*
Y-41237D01*
Y-41100D01*
Y-40962D01*
Y-40825D01*
X68982D01*
Y-40688D01*
Y-40551D01*
X69119D01*
Y-40414D01*
X69256D01*
Y-40277D01*
Y-40140D01*
X69119D01*
Y-40003D01*
Y-39866D01*
Y-39729D01*
X69256D01*
Y-39592D01*
Y-39454D01*
Y-39317D01*
X69393D01*
Y-39180D01*
X69530D01*
Y-39043D01*
Y-38906D01*
Y-38769D01*
Y-38632D01*
Y-38495D01*
Y-38358D01*
X69668D01*
Y-38221D01*
X69805D01*
Y-38083D01*
Y-37946D01*
X69942D01*
Y-37809D01*
Y-37672D01*
X69805D01*
Y-37535D01*
Y-37398D01*
Y-37261D01*
X69942D01*
Y-37124D01*
Y-36987D01*
X70079D01*
Y-36850D01*
Y-36713D01*
X69942D01*
Y-36575D01*
Y-36438D01*
Y-36301D01*
Y-36164D01*
Y-36027D01*
X70079D01*
Y-35890D01*
Y-35753D01*
X70216D01*
Y-35616D01*
X70079D01*
Y-35479D01*
Y-35342D01*
X69942D01*
Y-35205D01*
Y-35067D01*
Y-34930D01*
X70079D01*
Y-34793D01*
Y-34656D01*
X70216D01*
Y-34519D01*
X70079D01*
Y-34382D01*
X69942D01*
Y-34245D01*
Y-34108D01*
Y-33971D01*
Y-33834D01*
Y-33697D01*
X70079D01*
Y-33560D01*
Y-33422D01*
Y-33285D01*
X69942D01*
Y-33148D01*
X69805D01*
Y-33011D01*
Y-32874D01*
Y-32737D01*
Y-32600D01*
Y-32463D01*
X70216D01*
Y-32600D01*
D02*
G37*
G36*
X79675Y-40003D02*
X79812D01*
Y-40140D01*
X79949D01*
Y-40277D01*
X80086D01*
Y-40414D01*
X80224D01*
Y-40551D01*
X80361D01*
Y-40688D01*
X80498D01*
Y-40825D01*
X80772D01*
Y-40962D01*
X80909D01*
Y-41100D01*
X81046D01*
Y-41237D01*
Y-41374D01*
X80635D01*
Y-41511D01*
X80224D01*
Y-41648D01*
X79812D01*
Y-41511D01*
X79675D01*
Y-41374D01*
X79538D01*
Y-41237D01*
X79401D01*
Y-41100D01*
X79264D01*
Y-40962D01*
X79127D01*
Y-40825D01*
X78990D01*
Y-40688D01*
Y-40551D01*
Y-40414D01*
X79127D01*
Y-40277D01*
X79264D01*
Y-40140D01*
Y-40003D01*
X79401D01*
Y-39866D01*
X79675D01*
Y-40003D01*
D02*
G37*
G36*
X84748Y-40140D02*
X85022D01*
Y-40277D01*
X85159D01*
Y-40414D01*
X85433D01*
Y-40551D01*
X85844D01*
Y-40688D01*
X86119D01*
Y-40825D01*
X86530D01*
Y-40962D01*
X86941D01*
Y-41100D01*
X87352D01*
Y-41237D01*
X87215D01*
Y-41374D01*
X86941D01*
Y-41511D01*
X86667D01*
Y-41648D01*
X86393D01*
Y-41785D01*
X86119D01*
Y-41922D01*
X85570D01*
Y-41785D01*
X85296D01*
Y-41648D01*
X84885D01*
Y-41511D01*
X84748D01*
Y-41374D01*
X84473D01*
Y-41237D01*
X84199D01*
Y-41100D01*
X83925D01*
Y-40962D01*
X83788D01*
Y-40825D01*
X83514D01*
Y-40688D01*
X83377D01*
Y-40551D01*
X83651D01*
Y-40414D01*
X83925D01*
Y-40277D01*
X84199D01*
Y-40140D01*
X84473D01*
Y-40003D01*
X84748D01*
Y-40140D01*
D02*
G37*
G36*
X78853Y-40962D02*
Y-41100D01*
X78990D01*
Y-41237D01*
X79127D01*
Y-41374D01*
X79264D01*
Y-41511D01*
X79401D01*
Y-41648D01*
X79538D01*
Y-41785D01*
Y-41922D01*
X79127D01*
Y-42059D01*
X78716D01*
Y-42196D01*
X78579D01*
Y-42059D01*
X78441D01*
Y-41922D01*
X78304D01*
Y-41785D01*
Y-41648D01*
X78167D01*
Y-41511D01*
Y-41374D01*
X78304D01*
Y-41237D01*
X78441D01*
Y-41100D01*
X78579D01*
Y-40962D01*
X78716D01*
Y-40825D01*
X78853D01*
Y-40962D01*
D02*
G37*
G36*
X78030Y-41922D02*
X78167D01*
Y-42059D01*
Y-42196D01*
X78304D01*
Y-42333D01*
X78030D01*
Y-42470D01*
X77619D01*
Y-42608D01*
X77208D01*
Y-42470D01*
X77345D01*
Y-42333D01*
X77482D01*
Y-42196D01*
X77619D01*
Y-42059D01*
X77756D01*
Y-41922D01*
X77893D01*
Y-41785D01*
X78030D01*
Y-41922D01*
D02*
G37*
G36*
X83240Y-40962D02*
X83377D01*
Y-41100D01*
X83651D01*
Y-41237D01*
X83788D01*
Y-41374D01*
X84062D01*
Y-41511D01*
X84336D01*
Y-41648D01*
X84610D01*
Y-41785D01*
X84885D01*
Y-41922D01*
X85159D01*
Y-42059D01*
X85433D01*
Y-42196D01*
X85296D01*
Y-42333D01*
X85022D01*
Y-42470D01*
X84610D01*
Y-42608D01*
X84336D01*
Y-42745D01*
X83925D01*
Y-42608D01*
X83514D01*
Y-42470D01*
X83377D01*
Y-42333D01*
X83103D01*
Y-42196D01*
X82828D01*
Y-42059D01*
X82554D01*
Y-41922D01*
X82417D01*
Y-41785D01*
X82143D01*
Y-41648D01*
X82006D01*
Y-41511D01*
X81869D01*
Y-41374D01*
X81732D01*
Y-41237D01*
X82006D01*
Y-41100D01*
X82280D01*
Y-40962D01*
X82691D01*
Y-40825D01*
X83240D01*
Y-40962D01*
D02*
G37*
G36*
X77208Y-42745D02*
X77070D01*
Y-42608D01*
X77208D01*
Y-42745D01*
D02*
G37*
G36*
X81595Y-41648D02*
X81732D01*
Y-41785D01*
X81869D01*
Y-41922D01*
X82143D01*
Y-42059D01*
X82280D01*
Y-42196D01*
X82554D01*
Y-42333D01*
X82691D01*
Y-42470D01*
X82965D01*
Y-42608D01*
X83240D01*
Y-42745D01*
X83514D01*
Y-42882D01*
X83651D01*
Y-43019D01*
X83377D01*
Y-43156D01*
X83103D01*
Y-43293D01*
X82828D01*
Y-43430D01*
X82554D01*
Y-43567D01*
X82417D01*
Y-43430D01*
X82143D01*
Y-43293D01*
X81869D01*
Y-43156D01*
X81595D01*
Y-43019D01*
X81457D01*
Y-42882D01*
X81183D01*
Y-42745D01*
X81046D01*
Y-42608D01*
X80909D01*
Y-42470D01*
X80635D01*
Y-42333D01*
X80498D01*
Y-42196D01*
X80361D01*
Y-42059D01*
X80224D01*
Y-41922D01*
Y-41785D01*
X80635D01*
Y-41648D01*
X80909D01*
Y-41511D01*
X81595D01*
Y-41648D01*
D02*
G37*
G36*
X67474Y-31503D02*
X67611D01*
Y-31640D01*
X67885D01*
Y-31777D01*
X68160D01*
Y-31914D01*
X68571D01*
Y-32052D01*
X68845D01*
Y-32189D01*
X69256D01*
Y-32326D01*
X69393D01*
Y-32463D01*
Y-32600D01*
Y-32737D01*
Y-32874D01*
Y-33011D01*
Y-33148D01*
X69530D01*
Y-33285D01*
X69668D01*
Y-33422D01*
Y-33560D01*
X69530D01*
Y-33697D01*
Y-33834D01*
Y-33971D01*
Y-34108D01*
Y-34245D01*
Y-34382D01*
X69668D01*
Y-34519D01*
Y-34656D01*
Y-34793D01*
X69530D01*
Y-34930D01*
Y-35067D01*
Y-35205D01*
Y-35342D01*
X69668D01*
Y-35479D01*
Y-35616D01*
X69805D01*
Y-35753D01*
X69668D01*
Y-35890D01*
Y-36027D01*
X69530D01*
Y-36164D01*
Y-36301D01*
Y-36438D01*
Y-36575D01*
Y-36713D01*
X69668D01*
Y-36850D01*
Y-36987D01*
X69530D01*
Y-37124D01*
X69393D01*
Y-37261D01*
Y-37398D01*
Y-37535D01*
Y-37672D01*
Y-37809D01*
X69530D01*
Y-37946D01*
X69393D01*
Y-38083D01*
X69256D01*
Y-38221D01*
Y-38358D01*
X69119D01*
Y-38495D01*
Y-38632D01*
Y-38769D01*
Y-38906D01*
Y-39043D01*
Y-39180D01*
X68982D01*
Y-39317D01*
X68845D01*
Y-39454D01*
Y-39592D01*
X68708D01*
Y-39729D01*
Y-39866D01*
Y-40003D01*
Y-40140D01*
Y-40277D01*
X68845D01*
Y-40414D01*
X68708D01*
Y-40551D01*
X68571D01*
Y-40688D01*
X68434D01*
Y-40825D01*
Y-40962D01*
Y-41100D01*
Y-41237D01*
Y-41374D01*
Y-41511D01*
X68571D01*
Y-41648D01*
X68434D01*
Y-41785D01*
X68297D01*
Y-41922D01*
X68160D01*
Y-42059D01*
X68022D01*
Y-42196D01*
X67885D01*
Y-42333D01*
X67748D01*
Y-42470D01*
X67611D01*
Y-42608D01*
X67474D01*
Y-42745D01*
X67337D01*
Y-42882D01*
X67200D01*
Y-43019D01*
X67063D01*
Y-43156D01*
Y-43293D01*
X66926D01*
Y-43430D01*
X66789D01*
Y-43567D01*
Y-43704D01*
X66651D01*
Y-43841D01*
X66514D01*
Y-43704D01*
Y-43567D01*
X66651D01*
Y-43430D01*
Y-43293D01*
X66789D01*
Y-43156D01*
X66926D01*
Y-43019D01*
Y-42882D01*
X67063D01*
Y-42745D01*
Y-42608D01*
X67200D01*
Y-42470D01*
Y-42333D01*
X67337D01*
Y-42196D01*
Y-42059D01*
X67474D01*
Y-41922D01*
Y-41785D01*
X67611D01*
Y-41648D01*
Y-41511D01*
X67748D01*
Y-41374D01*
Y-41237D01*
Y-41100D01*
X67885D01*
Y-40962D01*
Y-40825D01*
Y-40688D01*
Y-40551D01*
X68022D01*
Y-40414D01*
Y-40277D01*
Y-40140D01*
X68160D01*
Y-40003D01*
Y-39866D01*
Y-39729D01*
Y-39592D01*
Y-39454D01*
X68297D01*
Y-39317D01*
Y-39180D01*
Y-39043D01*
Y-38906D01*
Y-38769D01*
Y-38632D01*
X68434D01*
Y-38495D01*
Y-38358D01*
Y-38221D01*
Y-38083D01*
Y-37946D01*
Y-37809D01*
Y-37672D01*
Y-37535D01*
Y-37398D01*
X67063D01*
Y-37261D01*
X66926D01*
Y-37124D01*
X66789D01*
Y-36987D01*
X66651D01*
Y-36850D01*
Y-36713D01*
Y-36575D01*
X66789D01*
Y-36438D01*
Y-36301D01*
Y-36164D01*
X66651D01*
Y-36027D01*
Y-35890D01*
Y-35753D01*
Y-35616D01*
X67063D01*
Y-35479D01*
Y-35342D01*
X66514D01*
Y-35205D01*
X66377D01*
Y-35067D01*
Y-34930D01*
Y-34793D01*
Y-34656D01*
X65966D01*
Y-34519D01*
X65692D01*
Y-34382D01*
X65555D01*
Y-34245D01*
Y-34108D01*
X65692D01*
Y-33971D01*
X65829D01*
Y-33834D01*
X65966D01*
Y-33697D01*
Y-33560D01*
Y-33422D01*
X66103D01*
Y-33285D01*
Y-33148D01*
X66240D01*
Y-33011D01*
Y-32874D01*
X66377D01*
Y-32737D01*
X66514D01*
Y-32600D01*
Y-32463D01*
X66651D01*
Y-32326D01*
Y-32189D01*
X66789D01*
Y-32052D01*
Y-31914D01*
X66926D01*
Y-31777D01*
X67063D01*
Y-31640D01*
Y-31503D01*
Y-31366D01*
X67474D01*
Y-31503D01*
D02*
G37*
G36*
X66514Y-43979D02*
Y-44116D01*
X66377D01*
Y-43979D01*
Y-43841D01*
X66514D01*
Y-43979D01*
D02*
G37*
G36*
X79949Y-42196D02*
X80086D01*
Y-42333D01*
X80224D01*
Y-42470D01*
X80361D01*
Y-42608D01*
X80635D01*
Y-42745D01*
X80772D01*
Y-42882D01*
X80909D01*
Y-43019D01*
X81046D01*
Y-43156D01*
X81320D01*
Y-43293D01*
X81457D01*
Y-43430D01*
X81732D01*
Y-43567D01*
X82006D01*
Y-43704D01*
Y-43841D01*
X81595D01*
Y-43979D01*
X81183D01*
Y-44116D01*
X80909D01*
Y-44253D01*
X80498D01*
Y-44116D01*
X80361D01*
Y-43979D01*
X80086D01*
Y-43841D01*
X79949D01*
Y-43704D01*
X79812D01*
Y-43567D01*
X79675D01*
Y-43430D01*
X79538D01*
Y-43293D01*
X79401D01*
Y-43156D01*
X79264D01*
Y-43019D01*
X79127D01*
Y-42882D01*
Y-42745D01*
X78990D01*
Y-42608D01*
X78853D01*
Y-42470D01*
Y-42333D01*
X79127D01*
Y-42196D01*
X79538D01*
Y-42059D01*
X79949D01*
Y-42196D01*
D02*
G37*
G36*
X66377Y-44253D02*
X66240D01*
Y-44116D01*
X66377D01*
Y-44253D01*
D02*
G37*
G36*
X78579Y-42745D02*
X78716D01*
Y-42882D01*
X78853D01*
Y-43019D01*
X78990D01*
Y-43156D01*
X79127D01*
Y-43293D01*
Y-43430D01*
X79264D01*
Y-43567D01*
X79401D01*
Y-43704D01*
X79538D01*
Y-43841D01*
X79675D01*
Y-43979D01*
X79812D01*
Y-44116D01*
X80086D01*
Y-44253D01*
X80224D01*
Y-44390D01*
Y-44527D01*
X79949D01*
Y-44664D01*
X79675D01*
Y-44801D01*
X79264D01*
Y-44938D01*
X78716D01*
Y-44801D01*
X78579D01*
Y-44664D01*
X78441D01*
Y-44527D01*
Y-44390D01*
X78304D01*
Y-44253D01*
X78167D01*
Y-44116D01*
X78030D01*
Y-43979D01*
X77893D01*
Y-43841D01*
X77756D01*
Y-43704D01*
X77619D01*
Y-43567D01*
Y-43430D01*
X77482D01*
Y-43293D01*
X77345D01*
Y-43156D01*
X77208D01*
Y-43019D01*
Y-42882D01*
X77619D01*
Y-42745D01*
X78030D01*
Y-42608D01*
X78579D01*
Y-42745D01*
D02*
G37*
G36*
X77070Y-43293D02*
Y-43430D01*
X77208D01*
Y-43567D01*
X77345D01*
Y-43704D01*
X77482D01*
Y-43841D01*
Y-43979D01*
X77619D01*
Y-44116D01*
X77756D01*
Y-44253D01*
X77893D01*
Y-44390D01*
X78030D01*
Y-44527D01*
X78167D01*
Y-44664D01*
X78304D01*
Y-44801D01*
X78441D01*
Y-44938D01*
X78579D01*
Y-45075D01*
Y-45212D01*
X78304D01*
Y-45349D01*
X78030D01*
Y-45487D01*
X77619D01*
Y-45624D01*
X77345D01*
Y-45487D01*
X77208D01*
Y-45349D01*
X77070D01*
Y-45212D01*
X76933D01*
Y-45075D01*
X76796D01*
Y-44938D01*
X76659D01*
Y-44801D01*
X76522D01*
Y-44664D01*
Y-44527D01*
X76385D01*
Y-44390D01*
X76248D01*
Y-44253D01*
X76111D01*
Y-44116D01*
X75974D01*
Y-43979D01*
Y-43841D01*
Y-43704D01*
X76111D01*
Y-43567D01*
X76248D01*
Y-43430D01*
X76385D01*
Y-43293D01*
X76522D01*
Y-43156D01*
X77070D01*
Y-43293D01*
D02*
G37*
G36*
X75837Y-44253D02*
Y-44390D01*
X75974D01*
Y-44527D01*
X76111D01*
Y-44664D01*
X76248D01*
Y-44801D01*
Y-44938D01*
X76385D01*
Y-45075D01*
X76522D01*
Y-45212D01*
X76659D01*
Y-45349D01*
X76796D01*
Y-45487D01*
X76933D01*
Y-45624D01*
X77070D01*
Y-45761D01*
Y-45898D01*
X76659D01*
Y-46035D01*
X76248D01*
Y-46172D01*
X75974D01*
Y-46309D01*
X75700D01*
Y-46172D01*
X75563D01*
Y-46035D01*
Y-45898D01*
X75425D01*
Y-45761D01*
Y-45624D01*
X75288D01*
Y-45487D01*
Y-45349D01*
X75151D01*
Y-45212D01*
Y-45075D01*
X75014D01*
Y-44938D01*
Y-44801D01*
Y-44664D01*
X75151D01*
Y-44527D01*
X75288D01*
Y-44390D01*
X75425D01*
Y-44253D01*
X75563D01*
Y-44116D01*
X75837D01*
Y-44253D01*
D02*
G37*
G36*
X74877Y-45212D02*
Y-45349D01*
Y-45487D01*
X75014D01*
Y-45624D01*
Y-45761D01*
X75151D01*
Y-45898D01*
Y-46035D01*
X75288D01*
Y-46172D01*
Y-46309D01*
X75425D01*
Y-46446D01*
X75288D01*
Y-46583D01*
X75014D01*
Y-46720D01*
X74466D01*
Y-46583D01*
X74329D01*
Y-46446D01*
X74192D01*
Y-46309D01*
Y-46172D01*
X74054D01*
Y-46035D01*
Y-45898D01*
Y-45761D01*
Y-45624D01*
X74192D01*
Y-45487D01*
X74329D01*
Y-45349D01*
X74466D01*
Y-45212D01*
X74603D01*
Y-45075D01*
X74877D01*
Y-45212D01*
D02*
G37*
G36*
X75151Y-46995D02*
X74740D01*
Y-46857D01*
X75151D01*
Y-46995D01*
D02*
G37*
G36*
X74740Y-47132D02*
X74603D01*
Y-46995D01*
X74740D01*
Y-47132D01*
D02*
G37*
G36*
X73780Y-46172D02*
X73917D01*
Y-46309D01*
Y-46446D01*
X74054D01*
Y-46583D01*
Y-46720D01*
X74192D01*
Y-46857D01*
Y-46995D01*
X73917D01*
Y-47132D01*
X73506D01*
Y-47269D01*
X73232D01*
Y-47406D01*
X72821D01*
Y-47269D01*
Y-47132D01*
X72958D01*
Y-46995D01*
Y-46857D01*
X73095D01*
Y-46720D01*
X73232D01*
Y-46583D01*
X73369D01*
Y-46446D01*
Y-46309D01*
X73506D01*
Y-46172D01*
X73643D01*
Y-46035D01*
X73780D01*
Y-46172D01*
D02*
G37*
G36*
X72821Y-47543D02*
X72684D01*
Y-47406D01*
X72821D01*
Y-47543D01*
D02*
G37*
G36*
X79538Y-37535D02*
Y-37672D01*
X79675D01*
Y-37809D01*
Y-37946D01*
Y-38083D01*
Y-38221D01*
X79538D01*
Y-38358D01*
Y-38495D01*
Y-38632D01*
Y-38769D01*
X79401D01*
Y-38906D01*
Y-39043D01*
Y-39180D01*
X79264D01*
Y-39317D01*
Y-39454D01*
X79127D01*
Y-39592D01*
X78990D01*
Y-39729D01*
Y-39866D01*
X78853D01*
Y-40003D01*
X78716D01*
Y-40140D01*
Y-40277D01*
X78579D01*
Y-40414D01*
X78441D01*
Y-40551D01*
X78304D01*
Y-40688D01*
Y-40825D01*
X78167D01*
Y-40962D01*
X78030D01*
Y-41100D01*
X77893D01*
Y-41237D01*
X77756D01*
Y-41374D01*
X77619D01*
Y-41511D01*
Y-41648D01*
X77482D01*
Y-41785D01*
X77345D01*
Y-41922D01*
X77208D01*
Y-42059D01*
X77070D01*
Y-42196D01*
X76933D01*
Y-42333D01*
X76796D01*
Y-42470D01*
X76659D01*
Y-42608D01*
X76522D01*
Y-42745D01*
X76385D01*
Y-42882D01*
X76248D01*
Y-43019D01*
X76111D01*
Y-43156D01*
X75974D01*
Y-43293D01*
X75837D01*
Y-43430D01*
X75700D01*
Y-43567D01*
X75563D01*
Y-43704D01*
X75425D01*
Y-43841D01*
X75288D01*
Y-43979D01*
X75151D01*
Y-44116D01*
X75014D01*
Y-44253D01*
X74740D01*
Y-44390D01*
X74603D01*
Y-44527D01*
X74466D01*
Y-44664D01*
X74329D01*
Y-44801D01*
X74192D01*
Y-44938D01*
X74054D01*
Y-45075D01*
X73917D01*
Y-45212D01*
X73780D01*
Y-45349D01*
X73643D01*
Y-45487D01*
X73506D01*
Y-45624D01*
Y-45761D01*
X73369D01*
Y-45898D01*
X73232D01*
Y-46035D01*
X73095D01*
Y-46172D01*
X72958D01*
Y-46309D01*
X72821D01*
Y-46446D01*
X72684D01*
Y-46583D01*
Y-46720D01*
X72546D01*
Y-46857D01*
X72409D01*
Y-46995D01*
Y-47132D01*
X72272D01*
Y-47269D01*
Y-47406D01*
X72135D01*
Y-47543D01*
Y-47680D01*
X71998D01*
Y-47817D01*
X71587D01*
Y-47954D01*
X71039D01*
Y-48091D01*
X70627D01*
Y-48228D01*
X70216D01*
Y-48365D01*
X69805D01*
Y-48502D01*
X69393D01*
Y-48640D01*
X68982D01*
Y-48502D01*
Y-48365D01*
X69119D01*
Y-48228D01*
Y-48091D01*
Y-47954D01*
X69256D01*
Y-47817D01*
Y-47680D01*
X69393D01*
Y-47543D01*
X69530D01*
Y-47406D01*
Y-47269D01*
X69668D01*
Y-47132D01*
X69805D01*
Y-46995D01*
X69942D01*
Y-46857D01*
Y-46720D01*
X70079D01*
Y-46583D01*
X70216D01*
Y-46446D01*
X70353D01*
Y-46309D01*
X70490D01*
Y-46172D01*
X70627D01*
Y-46035D01*
X70764D01*
Y-45898D01*
X70901D01*
Y-45761D01*
X71039D01*
Y-45624D01*
X71175D01*
Y-45487D01*
X71313D01*
Y-45349D01*
X71450D01*
Y-45212D01*
X71587D01*
Y-45075D01*
X71724D01*
Y-44938D01*
X71861D01*
Y-44801D01*
X71998D01*
Y-44664D01*
X72135D01*
Y-44527D01*
X72272D01*
Y-44390D01*
X72409D01*
Y-44253D01*
X72546D01*
Y-44116D01*
X72821D01*
Y-43979D01*
X72958D01*
Y-43841D01*
X73095D01*
Y-43704D01*
X73232D01*
Y-43567D01*
X73369D01*
Y-43430D01*
X73506D01*
Y-43293D01*
X73643D01*
Y-43156D01*
X73780D01*
Y-43019D01*
X73917D01*
Y-42882D01*
X74054D01*
Y-42745D01*
X74192D01*
Y-42608D01*
X74329D01*
Y-42470D01*
X74466D01*
Y-42333D01*
X74603D01*
Y-42196D01*
X74740D01*
Y-42059D01*
X74877D01*
Y-41922D01*
X75014D01*
Y-41785D01*
X75151D01*
Y-41648D01*
X75288D01*
Y-41511D01*
X75425D01*
Y-41374D01*
X75563D01*
Y-41237D01*
X75700D01*
Y-41100D01*
X75837D01*
Y-40962D01*
X75974D01*
Y-40825D01*
X76111D01*
Y-40688D01*
X76248D01*
Y-40551D01*
Y-40414D01*
X76385D01*
Y-40277D01*
X76522D01*
Y-40140D01*
X76659D01*
Y-40003D01*
Y-39866D01*
X76796D01*
Y-39729D01*
X76933D01*
Y-39592D01*
Y-39454D01*
X77070D01*
Y-39317D01*
X77208D01*
Y-39180D01*
Y-39043D01*
X77345D01*
Y-38906D01*
Y-38769D01*
X77482D01*
Y-38632D01*
Y-38495D01*
Y-38358D01*
Y-38221D01*
X77756D01*
Y-38083D01*
X78030D01*
Y-37946D01*
X78304D01*
Y-37809D01*
X78579D01*
Y-37672D01*
X78990D01*
Y-37535D01*
X79264D01*
Y-37398D01*
X79538D01*
Y-37535D01*
D02*
G37*
G36*
X79401Y-46309D02*
X79675D01*
Y-46446D01*
X79812D01*
Y-46583D01*
X79949D01*
Y-46720D01*
X80086D01*
Y-46857D01*
X80224D01*
Y-46995D01*
X80361D01*
Y-47132D01*
X80498D01*
Y-47269D01*
X80635D01*
Y-47406D01*
X80772D01*
Y-47543D01*
X80909D01*
Y-47680D01*
X81046D01*
Y-47817D01*
Y-47954D01*
X81183D01*
Y-48091D01*
X81320D01*
Y-48228D01*
Y-48365D01*
X81457D01*
Y-48502D01*
X81595D01*
Y-48640D01*
Y-48777D01*
X81732D01*
Y-48914D01*
X81869D01*
Y-49051D01*
Y-49188D01*
X82006D01*
Y-49325D01*
Y-49462D01*
X82143D01*
Y-49599D01*
Y-49736D01*
X82280D01*
Y-49873D01*
Y-50011D01*
Y-50148D01*
X82417D01*
Y-50285D01*
Y-50422D01*
X82554D01*
Y-50559D01*
Y-50696D01*
Y-50833D01*
Y-50970D01*
Y-51107D01*
X82691D01*
Y-51244D01*
Y-51381D01*
Y-51518D01*
Y-51656D01*
Y-51793D01*
Y-51930D01*
Y-52067D01*
Y-52204D01*
Y-52341D01*
X82554D01*
Y-52478D01*
X82417D01*
Y-52615D01*
X82143D01*
Y-52752D01*
X81457D01*
Y-52615D01*
X79812D01*
Y-52478D01*
X79538D01*
Y-52341D01*
Y-52204D01*
Y-52067D01*
Y-51930D01*
Y-51793D01*
Y-51656D01*
X79401D01*
Y-51793D01*
Y-51930D01*
X79264D01*
Y-52067D01*
Y-52204D01*
X79127D01*
Y-52341D01*
Y-52478D01*
X78579D01*
Y-52341D01*
Y-52204D01*
Y-52067D01*
Y-51930D01*
Y-51793D01*
Y-51656D01*
Y-51518D01*
X78716D01*
Y-51381D01*
Y-51244D01*
X78579D01*
Y-51381D01*
X78441D01*
Y-51518D01*
Y-51656D01*
X78304D01*
Y-51793D01*
Y-51930D01*
X78167D01*
Y-52067D01*
Y-52204D01*
Y-52341D01*
Y-52478D01*
X76933D01*
Y-52341D01*
X77070D01*
Y-52204D01*
Y-52067D01*
X77208D01*
Y-51930D01*
Y-51793D01*
X77345D01*
Y-51656D01*
X77482D01*
Y-51518D01*
Y-51381D01*
X77619D01*
Y-51244D01*
X77756D01*
Y-51107D01*
X77893D01*
Y-50970D01*
X78030D01*
Y-50833D01*
X78167D01*
Y-50696D01*
X78441D01*
Y-50559D01*
X78716D01*
Y-50422D01*
X79127D01*
Y-50285D01*
X80224D01*
Y-50422D01*
X80498D01*
Y-50285D01*
X80361D01*
Y-50148D01*
X80224D01*
Y-50011D01*
Y-49873D01*
X80086D01*
Y-49736D01*
X79949D01*
Y-49599D01*
X79812D01*
Y-49462D01*
Y-49325D01*
X79675D01*
Y-49188D01*
X79538D01*
Y-49051D01*
X79401D01*
Y-48914D01*
X79127D01*
Y-48777D01*
X78990D01*
Y-48640D01*
X78853D01*
Y-48502D01*
X78716D01*
Y-48365D01*
X78441D01*
Y-48228D01*
X78304D01*
Y-48091D01*
X78030D01*
Y-47954D01*
X77893D01*
Y-47817D01*
X77619D01*
Y-47680D01*
X77345D01*
Y-47543D01*
X77070D01*
Y-47406D01*
X76796D01*
Y-47269D01*
X76385D01*
Y-47132D01*
X75837D01*
Y-46995D01*
X75974D01*
Y-46857D01*
X76522D01*
Y-46720D01*
X76933D01*
Y-46583D01*
X77482D01*
Y-46446D01*
X78030D01*
Y-46309D01*
X78579D01*
Y-46172D01*
X79401D01*
Y-46309D01*
D02*
G37*
G36*
X96949Y-34930D02*
X97497D01*
Y-35067D01*
X97908D01*
Y-35205D01*
X98183D01*
Y-35342D01*
X98457D01*
Y-35479D01*
X98594D01*
Y-35616D01*
X98868D01*
Y-35753D01*
X99005D01*
Y-35890D01*
X99142D01*
Y-36027D01*
X99416D01*
Y-36164D01*
X99554D01*
Y-36301D01*
X99691D01*
Y-36438D01*
X99828D01*
Y-36575D01*
X99965D01*
Y-36713D01*
X100102D01*
Y-36850D01*
X100239D01*
Y-36987D01*
X100376D01*
Y-37124D01*
X100513D01*
Y-37261D01*
X100650D01*
Y-37398D01*
Y-37535D01*
X100787D01*
Y-37672D01*
X100924D01*
Y-37809D01*
X101061D01*
Y-37946D01*
X101199D01*
Y-38083D01*
X101336D01*
Y-38221D01*
Y-38358D01*
X101473D01*
Y-38495D01*
X101610D01*
Y-38632D01*
X101747D01*
Y-38769D01*
Y-38906D01*
X101884D01*
Y-39043D01*
X102021D01*
Y-39180D01*
X102158D01*
Y-39317D01*
X102295D01*
Y-39454D01*
Y-39592D01*
X102432D01*
Y-39729D01*
X102569D01*
Y-39866D01*
X102707D01*
Y-40003D01*
Y-40140D01*
X102844D01*
Y-40277D01*
X102981D01*
Y-40414D01*
X103118D01*
Y-40551D01*
X103255D01*
Y-40688D01*
X103392D01*
Y-40825D01*
Y-40962D01*
X103529D01*
Y-41100D01*
X103666D01*
Y-41237D01*
X103803D01*
Y-41374D01*
X103940D01*
Y-41511D01*
X104077D01*
Y-41648D01*
X104215D01*
Y-41785D01*
X104352D01*
Y-41922D01*
X104489D01*
Y-42059D01*
X104626D01*
Y-42196D01*
X104900D01*
Y-42333D01*
X105037D01*
Y-42470D01*
X105174D01*
Y-42608D01*
X105448D01*
Y-42745D01*
X105723D01*
Y-42882D01*
X105997D01*
Y-43019D01*
X106545D01*
Y-43156D01*
X107642D01*
Y-43019D01*
X108327D01*
Y-43156D01*
X108465D01*
Y-43293D01*
X108601D01*
Y-43430D01*
X108739D01*
Y-43567D01*
Y-43704D01*
X108876D01*
Y-43841D01*
X109013D01*
Y-43979D01*
Y-44116D01*
X109150D01*
Y-44253D01*
Y-44390D01*
X109287D01*
Y-44527D01*
Y-44664D01*
X109424D01*
Y-44801D01*
Y-44938D01*
X109561D01*
Y-45075D01*
Y-45212D01*
Y-45349D01*
X109698D01*
Y-45487D01*
Y-45624D01*
X109835D01*
Y-45761D01*
Y-45898D01*
Y-46035D01*
X109973D01*
Y-46172D01*
Y-46309D01*
Y-46446D01*
Y-46583D01*
X110110D01*
Y-46720D01*
Y-46857D01*
Y-46995D01*
Y-47132D01*
X110247D01*
Y-47269D01*
Y-47406D01*
Y-47543D01*
Y-47680D01*
Y-47817D01*
Y-47954D01*
Y-48091D01*
X110384D01*
Y-48228D01*
Y-48365D01*
Y-48502D01*
Y-48640D01*
Y-48777D01*
Y-48914D01*
Y-49051D01*
Y-49188D01*
Y-49325D01*
Y-49462D01*
Y-49599D01*
X110247D01*
Y-49736D01*
Y-49873D01*
Y-50011D01*
Y-50148D01*
Y-50285D01*
X110110D01*
Y-50422D01*
Y-50559D01*
Y-50696D01*
Y-50833D01*
X109973D01*
Y-50970D01*
Y-51107D01*
X109835D01*
Y-51244D01*
Y-51381D01*
X109698D01*
Y-51518D01*
Y-51656D01*
X109561D01*
Y-51793D01*
X109424D01*
Y-51930D01*
X109287D01*
Y-52067D01*
Y-52204D01*
X109150D01*
Y-52341D01*
X109013D01*
Y-52478D01*
X108601D01*
Y-52341D01*
X107094D01*
Y-52478D01*
X106271D01*
Y-52341D01*
Y-52204D01*
Y-52067D01*
Y-51930D01*
Y-51793D01*
Y-51656D01*
Y-51518D01*
X106134D01*
Y-51656D01*
Y-51793D01*
Y-51930D01*
Y-52067D01*
Y-52204D01*
X105997D01*
Y-52341D01*
Y-52478D01*
X105586D01*
Y-52341D01*
Y-52204D01*
Y-52067D01*
Y-51930D01*
Y-51793D01*
Y-51656D01*
Y-51518D01*
Y-51381D01*
X105448D01*
Y-51518D01*
Y-51656D01*
X105311D01*
Y-51793D01*
Y-51930D01*
Y-52067D01*
X105174D01*
Y-52204D01*
Y-52341D01*
Y-52478D01*
X104215D01*
Y-52341D01*
Y-52204D01*
Y-52067D01*
X104352D01*
Y-51930D01*
Y-51793D01*
Y-51656D01*
X104489D01*
Y-51518D01*
Y-51381D01*
X104626D01*
Y-51244D01*
Y-51107D01*
X104763D01*
Y-50970D01*
X104900D01*
Y-50833D01*
X105037D01*
Y-50696D01*
X105174D01*
Y-50559D01*
X105311D01*
Y-50422D01*
X105586D01*
Y-50285D01*
X105860D01*
Y-50148D01*
X106956D01*
Y-50285D01*
X107094D01*
Y-50422D01*
X107368D01*
Y-50559D01*
X107505D01*
Y-50696D01*
X108053D01*
Y-50559D01*
X108190D01*
Y-50422D01*
Y-50285D01*
X108327D01*
Y-50148D01*
Y-50011D01*
Y-49873D01*
Y-49736D01*
Y-49599D01*
Y-49462D01*
X108465D01*
Y-49325D01*
Y-49188D01*
Y-49051D01*
X108327D01*
Y-48914D01*
Y-48777D01*
Y-48640D01*
Y-48502D01*
Y-48365D01*
Y-48228D01*
Y-48091D01*
X108190D01*
Y-47954D01*
Y-47817D01*
Y-47680D01*
Y-47543D01*
X108053D01*
Y-47406D01*
Y-47269D01*
X107916D01*
Y-47132D01*
Y-46995D01*
Y-46857D01*
X107779D01*
Y-46720D01*
Y-46583D01*
X107642D01*
Y-46446D01*
Y-46309D01*
X107505D01*
Y-46172D01*
X107368D01*
Y-46035D01*
Y-45898D01*
X107231D01*
Y-45761D01*
X107094D01*
Y-45624D01*
X106956D01*
Y-45487D01*
X106819D01*
Y-45624D01*
X103392D01*
Y-45487D01*
X102707D01*
Y-45349D01*
X102158D01*
Y-45212D01*
X101747D01*
Y-45075D01*
X101336D01*
Y-44938D01*
X100924D01*
Y-44801D01*
X100650D01*
Y-44664D01*
X100376D01*
Y-44527D01*
X100239D01*
Y-44390D01*
X99965D01*
Y-44253D01*
X99691D01*
Y-44116D01*
X99554D01*
Y-43979D01*
X99279D01*
Y-43841D01*
X99142D01*
Y-43704D01*
X98868D01*
Y-43567D01*
X98731D01*
Y-43430D01*
X98594D01*
Y-43293D01*
X98457D01*
Y-43156D01*
X98183D01*
Y-43019D01*
X98045D01*
Y-42882D01*
X97908D01*
Y-42745D01*
X97771D01*
Y-42608D01*
X97634D01*
Y-42470D01*
X97497D01*
Y-42333D01*
X97223D01*
Y-42196D01*
X97086D01*
Y-42059D01*
X96949D01*
Y-41922D01*
X96812D01*
Y-41785D01*
X96675D01*
Y-41648D01*
X96400D01*
Y-41511D01*
X96263D01*
Y-41374D01*
X96126D01*
Y-41237D01*
X95852D01*
Y-41100D01*
X95578D01*
Y-40962D01*
X95304D01*
Y-41100D01*
X95441D01*
Y-41237D01*
X95578D01*
Y-41374D01*
X95852D01*
Y-41511D01*
X95989D01*
Y-41648D01*
X96126D01*
Y-41785D01*
X96263D01*
Y-41922D01*
X96400D01*
Y-42059D01*
X96538D01*
Y-42196D01*
X96675D01*
Y-42333D01*
X96812D01*
Y-42470D01*
X96949D01*
Y-42608D01*
X97086D01*
Y-42745D01*
X97223D01*
Y-42882D01*
X97360D01*
Y-43019D01*
X97497D01*
Y-43156D01*
X97634D01*
Y-43293D01*
X97771D01*
Y-43430D01*
X97908D01*
Y-43567D01*
X98183D01*
Y-43704D01*
X98320D01*
Y-43841D01*
X98457D01*
Y-43979D01*
X98594D01*
Y-44116D01*
X98731D01*
Y-44253D01*
X98868D01*
Y-44390D01*
X99142D01*
Y-44527D01*
X99279D01*
Y-44664D01*
X99554D01*
Y-44801D01*
X99691D01*
Y-44938D01*
Y-45075D01*
X99554D01*
Y-45212D01*
Y-45349D01*
Y-45487D01*
Y-45624D01*
Y-45761D01*
Y-45898D01*
Y-46035D01*
Y-46172D01*
Y-46309D01*
Y-46446D01*
Y-46583D01*
Y-46720D01*
Y-46857D01*
Y-46995D01*
Y-47132D01*
X99691D01*
Y-47269D01*
Y-47406D01*
Y-47543D01*
X99828D01*
Y-47680D01*
Y-47817D01*
X100102D01*
Y-47954D01*
Y-48091D01*
X99965D01*
Y-48228D01*
X99828D01*
Y-48365D01*
X99691D01*
Y-48502D01*
X99554D01*
Y-48640D01*
X99416D01*
Y-48777D01*
X99279D01*
Y-48914D01*
X99142D01*
Y-49051D01*
X99005D01*
Y-49188D01*
X98868D01*
Y-49325D01*
X98731D01*
Y-49462D01*
X98594D01*
Y-49599D01*
X98457D01*
Y-49736D01*
X98320D01*
Y-49873D01*
X98183D01*
Y-50011D01*
X98045D01*
Y-50148D01*
X97908D01*
Y-50285D01*
X97771D01*
Y-50422D01*
X97634D01*
Y-50559D01*
X97497D01*
Y-50696D01*
X97360D01*
Y-50833D01*
X97086D01*
Y-50970D01*
X96949D01*
Y-51107D01*
X96812D01*
Y-51244D01*
X96538D01*
Y-51381D01*
X96400D01*
Y-51518D01*
X96263D01*
Y-51656D01*
X95989D01*
Y-51793D01*
X95852D01*
Y-51930D01*
X95578D01*
Y-52067D01*
X95304D01*
Y-52204D01*
X94892D01*
Y-52341D01*
X94481D01*
Y-52478D01*
X94070D01*
Y-52615D01*
X92151D01*
Y-52478D01*
Y-52341D01*
Y-52204D01*
X92014D01*
Y-52067D01*
Y-51930D01*
X92151D01*
Y-51793D01*
Y-51656D01*
Y-51518D01*
Y-51381D01*
Y-51244D01*
X92014D01*
Y-51381D01*
X91876D01*
Y-51518D01*
Y-51656D01*
Y-51793D01*
X91739D01*
Y-51930D01*
Y-52067D01*
Y-52204D01*
Y-52341D01*
Y-52478D01*
Y-52615D01*
X91191D01*
Y-52478D01*
Y-52341D01*
Y-52204D01*
Y-52067D01*
Y-51930D01*
Y-51793D01*
Y-51656D01*
Y-51518D01*
X91328D01*
Y-51381D01*
Y-51244D01*
X91191D01*
Y-51381D01*
X91054D01*
Y-51518D01*
Y-51656D01*
Y-51793D01*
X90917D01*
Y-51930D01*
Y-52067D01*
Y-52204D01*
X90780D01*
Y-52341D01*
Y-52478D01*
Y-52615D01*
X89820D01*
Y-52478D01*
Y-52341D01*
Y-52204D01*
Y-52067D01*
X89957D01*
Y-51930D01*
Y-51793D01*
X90094D01*
Y-51656D01*
Y-51518D01*
X90231D01*
Y-51381D01*
X90368D01*
Y-51244D01*
Y-51107D01*
X90505D01*
Y-50970D01*
X90643D01*
Y-50833D01*
X90780D01*
Y-50696D01*
X90917D01*
Y-50559D01*
X91054D01*
Y-50422D01*
X91328D01*
Y-50285D01*
X91465D01*
Y-50148D01*
X91876D01*
Y-50011D01*
X92699D01*
Y-50148D01*
X93521D01*
Y-50285D01*
X94070D01*
Y-50422D01*
X94755D01*
Y-50285D01*
X95029D01*
Y-50148D01*
X95304D01*
Y-50011D01*
X95441D01*
Y-49873D01*
X95715D01*
Y-49736D01*
X95852D01*
Y-49599D01*
X95989D01*
Y-49462D01*
X96126D01*
Y-49325D01*
X96263D01*
Y-49188D01*
X96400D01*
Y-49051D01*
X96538D01*
Y-48914D01*
X96675D01*
Y-48777D01*
X96812D01*
Y-48640D01*
X96949D01*
Y-48502D01*
X97086D01*
Y-48365D01*
Y-48228D01*
X97223D01*
Y-48091D01*
X97360D01*
Y-47954D01*
Y-47817D01*
X97497D01*
Y-47680D01*
X97223D01*
Y-47543D01*
X97086D01*
Y-47406D01*
X96949D01*
Y-47269D01*
X96812D01*
Y-47132D01*
X96675D01*
Y-46995D01*
X96538D01*
Y-46857D01*
X96400D01*
Y-46720D01*
X96263D01*
Y-46583D01*
X96126D01*
Y-46446D01*
X95989D01*
Y-46309D01*
X95852D01*
Y-46172D01*
X95715D01*
Y-46035D01*
Y-45898D01*
X95578D01*
Y-45761D01*
X95441D01*
Y-45624D01*
Y-45487D01*
X95304D01*
Y-45349D01*
Y-45212D01*
X95167D01*
Y-45075D01*
Y-44938D01*
X95029D01*
Y-44801D01*
Y-44664D01*
X94892D01*
Y-44527D01*
Y-44390D01*
Y-44253D01*
X94755D01*
Y-44116D01*
Y-43979D01*
Y-43841D01*
X94618D01*
Y-43704D01*
Y-43567D01*
Y-43430D01*
Y-43293D01*
Y-43156D01*
Y-43019D01*
X94892D01*
Y-42882D01*
X95715D01*
Y-42745D01*
X96675D01*
Y-42608D01*
Y-42470D01*
X95989D01*
Y-42608D01*
X95029D01*
Y-42745D01*
X94070D01*
Y-42882D01*
X93247D01*
Y-43019D01*
X92425D01*
Y-43156D01*
X91465D01*
Y-43293D01*
X90780D01*
Y-43430D01*
X89957D01*
Y-43567D01*
X89135D01*
Y-43704D01*
X88449D01*
Y-43841D01*
X87626D01*
Y-43979D01*
X86941D01*
Y-44116D01*
X86256D01*
Y-44253D01*
X85570D01*
Y-44390D01*
X84885D01*
Y-44527D01*
X84199D01*
Y-44664D01*
X83514D01*
Y-44801D01*
X82965D01*
Y-44938D01*
X82280D01*
Y-45075D01*
X81732D01*
Y-45212D01*
X81046D01*
Y-45349D01*
X80498D01*
Y-45487D01*
X79949D01*
Y-45624D01*
X79401D01*
Y-45761D01*
X78853D01*
Y-45898D01*
X78304D01*
Y-46035D01*
X77893D01*
Y-46172D01*
X77345D01*
Y-46309D01*
X76796D01*
Y-46446D01*
X76385D01*
Y-46583D01*
X75974D01*
Y-46720D01*
X75563D01*
Y-46857D01*
X75151D01*
Y-46720D01*
X75425D01*
Y-46583D01*
X75837D01*
Y-46446D01*
X76248D01*
Y-46309D01*
X76522D01*
Y-46172D01*
X76933D01*
Y-46035D01*
X77345D01*
Y-45898D01*
X77619D01*
Y-45761D01*
X77893D01*
Y-45624D01*
X78304D01*
Y-45487D01*
X78716D01*
Y-45349D01*
X78990D01*
Y-45212D01*
X79264D01*
Y-45075D01*
X79675D01*
Y-44938D01*
X80086D01*
Y-44801D01*
X80361D01*
Y-44664D01*
X80772D01*
Y-44527D01*
X81046D01*
Y-44390D01*
X81457D01*
Y-44253D01*
X81732D01*
Y-44116D01*
X82143D01*
Y-43979D01*
X82417D01*
Y-43841D01*
X82691D01*
Y-43704D01*
X83103D01*
Y-43567D01*
X83377D01*
Y-43430D01*
X83651D01*
Y-43293D01*
X84062D01*
Y-43156D01*
X84336D01*
Y-43019D01*
X84610D01*
Y-42882D01*
X85022D01*
Y-42745D01*
X85296D01*
Y-42608D01*
X85570D01*
Y-42470D01*
X85844D01*
Y-42333D01*
X86256D01*
Y-42196D01*
X86530D01*
Y-42059D01*
X86804D01*
Y-41922D01*
X87078D01*
Y-41785D01*
X87352D01*
Y-41648D01*
X87626D01*
Y-41511D01*
X87901D01*
Y-41374D01*
X88175D01*
Y-41237D01*
X88449D01*
Y-41100D01*
X88723D01*
Y-40962D01*
X88998D01*
Y-40825D01*
X89272D01*
Y-40688D01*
X89546D01*
Y-40551D01*
X89820D01*
Y-40414D01*
X89957D01*
Y-40277D01*
X90231D01*
Y-40140D01*
X90505D01*
Y-40003D01*
X90780D01*
Y-39866D01*
X91054D01*
Y-39729D01*
X91191D01*
Y-39592D01*
X91465D01*
Y-39454D01*
X91602D01*
Y-39317D01*
X91876D01*
Y-39180D01*
X92014D01*
Y-39043D01*
X92288D01*
Y-38906D01*
X92562D01*
Y-38769D01*
X92699D01*
Y-38632D01*
X92836D01*
Y-38495D01*
X93110D01*
Y-38358D01*
X93247D01*
Y-38221D01*
X93384D01*
Y-38083D01*
X93659D01*
Y-37946D01*
X93796D01*
Y-37809D01*
X93933D01*
Y-37672D01*
X94070D01*
Y-37535D01*
X94207D01*
Y-37398D01*
X94344D01*
Y-37261D01*
X94481D01*
Y-37124D01*
X94618D01*
Y-36987D01*
X94755D01*
Y-36850D01*
X94892D01*
Y-36713D01*
X95029D01*
Y-36575D01*
X95167D01*
Y-36438D01*
Y-36301D01*
X95304D01*
Y-36164D01*
X95441D01*
Y-36027D01*
Y-35890D01*
X95578D01*
Y-35753D01*
Y-35616D01*
X95715D01*
Y-35479D01*
Y-35342D01*
X95852D01*
Y-35205D01*
Y-35067D01*
Y-34930D01*
X95989D01*
Y-34793D01*
X96949D01*
Y-34930D01*
D02*
G37*
G36*
X77208Y-38495D02*
Y-38632D01*
X77070D01*
Y-38769D01*
Y-38906D01*
X76933D01*
Y-39043D01*
Y-39180D01*
X76796D01*
Y-39317D01*
Y-39454D01*
X76659D01*
Y-39592D01*
X76522D01*
Y-39729D01*
Y-39866D01*
X76385D01*
Y-40003D01*
X76248D01*
Y-40140D01*
X76111D01*
Y-40277D01*
Y-40414D01*
X75974D01*
Y-40551D01*
X75837D01*
Y-40688D01*
X75700D01*
Y-40825D01*
X75563D01*
Y-40962D01*
X75425D01*
Y-41100D01*
X75288D01*
Y-41237D01*
X75151D01*
Y-41374D01*
X75014D01*
Y-41511D01*
X74877D01*
Y-41648D01*
X74740D01*
Y-41785D01*
X74603D01*
Y-41922D01*
X74466D01*
Y-42059D01*
X74329D01*
Y-42196D01*
X74192D01*
Y-42333D01*
X74054D01*
Y-42470D01*
X73917D01*
Y-42608D01*
X73780D01*
Y-42745D01*
X73643D01*
Y-42882D01*
X73506D01*
Y-43019D01*
X73369D01*
Y-43156D01*
X73095D01*
Y-43293D01*
X72958D01*
Y-43430D01*
X72821D01*
Y-43567D01*
X72684D01*
Y-43704D01*
X72546D01*
Y-43841D01*
X72409D01*
Y-43979D01*
X72272D01*
Y-44116D01*
X72135D01*
Y-44253D01*
X71998D01*
Y-44390D01*
X71861D01*
Y-44527D01*
X71724D01*
Y-44664D01*
X71587D01*
Y-44801D01*
X71450D01*
Y-44938D01*
X71313D01*
Y-45075D01*
X71175D01*
Y-45212D01*
X71039D01*
Y-45349D01*
X70901D01*
Y-45487D01*
X70764D01*
Y-45624D01*
X70627D01*
Y-45761D01*
X70490D01*
Y-45898D01*
X70353D01*
Y-46035D01*
X70216D01*
Y-46172D01*
X70079D01*
Y-46309D01*
X69942D01*
Y-46446D01*
X69805D01*
Y-46583D01*
Y-46720D01*
X69668D01*
Y-46857D01*
X69530D01*
Y-46995D01*
Y-47132D01*
X69393D01*
Y-47269D01*
X69256D01*
Y-47406D01*
Y-47543D01*
X69119D01*
Y-47680D01*
Y-47817D01*
X68982D01*
Y-47954D01*
Y-48091D01*
X68845D01*
Y-48228D01*
Y-48365D01*
Y-48502D01*
Y-48640D01*
X68708D01*
Y-48777D01*
X68571D01*
Y-48914D01*
X68297D01*
Y-49051D01*
X67885D01*
Y-49188D01*
X67474D01*
Y-49325D01*
X67063D01*
Y-49462D01*
X66651D01*
Y-49599D01*
X66240D01*
Y-49736D01*
X65829D01*
Y-49873D01*
X65418D01*
Y-50011D01*
X65006D01*
Y-50148D01*
X64732D01*
Y-50285D01*
X64321D01*
Y-50422D01*
X63910D01*
Y-50559D01*
X63498D01*
Y-50696D01*
X63224D01*
Y-50833D01*
X62813D01*
Y-50970D01*
X62539D01*
Y-51107D01*
X62128D01*
Y-51244D01*
X61853D01*
Y-51381D01*
X61579D01*
Y-51518D01*
X61305D01*
Y-51656D01*
X61031D01*
Y-51793D01*
X60757D01*
Y-51930D01*
X60482D01*
Y-52067D01*
X60208D01*
Y-52204D01*
X60071D01*
Y-52341D01*
X59797D01*
Y-52478D01*
X59660D01*
Y-52615D01*
X59386D01*
Y-52752D01*
X59111D01*
Y-52615D01*
X56644D01*
Y-52478D01*
Y-52341D01*
Y-52204D01*
Y-52067D01*
Y-51930D01*
X56781D01*
Y-51793D01*
Y-51656D01*
X56918D01*
Y-51518D01*
Y-51381D01*
X56781D01*
Y-51518D01*
X56644D01*
Y-51656D01*
X56507D01*
Y-51793D01*
X56370D01*
Y-51930D01*
Y-52067D01*
Y-52204D01*
X56233D01*
Y-52341D01*
Y-52478D01*
Y-52615D01*
X55684D01*
Y-52478D01*
Y-52341D01*
Y-52204D01*
Y-52067D01*
X55821D01*
Y-51930D01*
Y-51793D01*
X55958D01*
Y-51656D01*
Y-51518D01*
X55821D01*
Y-51656D01*
X55684D01*
Y-51793D01*
X55547D01*
Y-51930D01*
X55410D01*
Y-52067D01*
Y-52204D01*
Y-52341D01*
X55273D01*
Y-52478D01*
Y-52615D01*
X54176D01*
Y-52478D01*
X54313D01*
Y-52341D01*
X54450D01*
Y-52204D01*
X54588D01*
Y-52067D01*
X54725D01*
Y-51930D01*
Y-51793D01*
X54862D01*
Y-51656D01*
X54999D01*
Y-51518D01*
Y-51381D01*
X55136D01*
Y-51244D01*
X55273D01*
Y-51107D01*
X55410D01*
Y-50970D01*
X55547D01*
Y-50833D01*
X55684D01*
Y-50696D01*
X55821D01*
Y-50559D01*
X56233D01*
Y-50422D01*
X57329D01*
Y-50559D01*
X58015D01*
Y-50696D01*
X58426D01*
Y-50833D01*
X58700D01*
Y-50970D01*
X59111D01*
Y-50833D01*
X59249D01*
Y-50696D01*
Y-50559D01*
X59386D01*
Y-50422D01*
X59523D01*
Y-50285D01*
X59660D01*
Y-50148D01*
X59797D01*
Y-50011D01*
Y-49873D01*
X59934D01*
Y-49736D01*
X60071D01*
Y-49599D01*
X60208D01*
Y-49462D01*
X60345D01*
Y-49325D01*
X60482D01*
Y-49188D01*
X60757D01*
Y-49051D01*
X60894D01*
Y-48914D01*
X61031D01*
Y-48777D01*
X61168D01*
Y-48640D01*
X61305D01*
Y-48502D01*
X61579D01*
Y-48365D01*
X61716D01*
Y-48228D01*
X61853D01*
Y-48091D01*
X62128D01*
Y-47954D01*
X62402D01*
Y-47817D01*
X62676D01*
Y-47680D01*
X62950D01*
Y-47543D01*
X63224D01*
Y-47406D01*
X63498D01*
Y-47269D01*
X63910D01*
Y-47132D01*
X64184D01*
Y-46995D01*
X64732D01*
Y-46857D01*
X65418D01*
Y-46720D01*
X65555D01*
Y-46583D01*
X65692D01*
Y-46446D01*
Y-46309D01*
Y-46172D01*
X65829D01*
Y-46035D01*
Y-45898D01*
Y-45761D01*
X65966D01*
Y-45624D01*
Y-45487D01*
Y-45349D01*
X66103D01*
Y-45212D01*
Y-45075D01*
Y-44938D01*
X66240D01*
Y-44801D01*
Y-44664D01*
X66377D01*
Y-44527D01*
Y-44390D01*
X66514D01*
Y-44253D01*
X66651D01*
Y-44116D01*
Y-43979D01*
X66789D01*
Y-43841D01*
X66926D01*
Y-43704D01*
Y-43567D01*
X67063D01*
Y-43430D01*
X67200D01*
Y-43293D01*
X67337D01*
Y-43156D01*
X67474D01*
Y-43019D01*
X67611D01*
Y-42882D01*
X67748D01*
Y-42745D01*
X67885D01*
Y-42608D01*
X68022D01*
Y-42470D01*
X68160D01*
Y-42333D01*
X68434D01*
Y-42196D01*
X68571D01*
Y-42059D01*
X68708D01*
Y-41922D01*
X68982D01*
Y-41785D01*
X69256D01*
Y-41648D01*
X69393D01*
Y-41511D01*
X69668D01*
Y-41374D01*
X69942D01*
Y-41237D01*
X70353D01*
Y-41100D01*
X70627D01*
Y-40962D01*
X70901D01*
Y-40825D01*
X71313D01*
Y-40688D01*
X71724D01*
Y-40551D01*
X71998D01*
Y-40414D01*
X72409D01*
Y-40277D01*
X72684D01*
Y-40140D01*
X73095D01*
Y-40003D01*
X73506D01*
Y-39866D01*
X73780D01*
Y-39729D01*
X74192D01*
Y-39592D01*
X74466D01*
Y-39454D01*
X74877D01*
Y-39317D01*
X75151D01*
Y-39180D01*
X75425D01*
Y-39043D01*
X75837D01*
Y-38906D01*
X76111D01*
Y-38769D01*
X76522D01*
Y-38632D01*
X76796D01*
Y-38495D01*
X77070D01*
Y-38358D01*
X77208D01*
Y-38495D01*
D02*
G37*
G36*
X87352Y-55357D02*
X87489D01*
Y-55494D01*
Y-55631D01*
Y-55768D01*
Y-55905D01*
Y-56042D01*
Y-56180D01*
Y-56317D01*
Y-56454D01*
Y-56591D01*
Y-56728D01*
Y-56865D01*
X87078D01*
Y-57002D01*
X86119D01*
Y-56865D01*
Y-56728D01*
Y-56591D01*
Y-56454D01*
Y-56317D01*
Y-56180D01*
Y-56042D01*
Y-55905D01*
Y-55768D01*
Y-55631D01*
X86256D01*
Y-55494D01*
X86393D01*
Y-55357D01*
X86941D01*
Y-55220D01*
X87352D01*
Y-55357D01*
D02*
G37*
G36*
X84748Y-57962D02*
X84885D01*
Y-58099D01*
X85022D01*
Y-58236D01*
Y-58373D01*
X85159D01*
Y-58510D01*
Y-58647D01*
Y-58784D01*
X85296D01*
Y-58921D01*
Y-59059D01*
Y-59196D01*
Y-59333D01*
Y-59470D01*
Y-59607D01*
Y-59744D01*
Y-59881D01*
Y-60018D01*
Y-60155D01*
Y-60292D01*
Y-60430D01*
Y-60567D01*
Y-60704D01*
Y-60841D01*
Y-60978D01*
Y-61115D01*
Y-61252D01*
Y-61389D01*
Y-61526D01*
Y-61663D01*
Y-61800D01*
X85159D01*
Y-61937D01*
Y-62075D01*
Y-62212D01*
Y-62349D01*
Y-62486D01*
Y-62623D01*
Y-62760D01*
Y-62897D01*
Y-63034D01*
X85022D01*
Y-63171D01*
Y-63308D01*
Y-63446D01*
Y-63583D01*
Y-63720D01*
Y-63857D01*
Y-63994D01*
Y-64131D01*
Y-64268D01*
X85159D01*
Y-64405D01*
Y-64542D01*
X85022D01*
Y-64679D01*
X84885D01*
Y-64816D01*
X84748D01*
Y-64954D01*
X84062D01*
Y-64816D01*
X83788D01*
Y-64679D01*
Y-64542D01*
X83651D01*
Y-64405D01*
Y-64268D01*
X83514D01*
Y-64131D01*
Y-63994D01*
Y-63857D01*
Y-63720D01*
Y-63583D01*
Y-63446D01*
Y-63308D01*
Y-63171D01*
Y-63034D01*
Y-62897D01*
Y-62760D01*
Y-62623D01*
Y-62486D01*
Y-62349D01*
Y-62212D01*
Y-62075D01*
X83651D01*
Y-61937D01*
Y-61800D01*
Y-61663D01*
Y-61526D01*
Y-61389D01*
Y-61252D01*
Y-61115D01*
X83514D01*
Y-60978D01*
Y-60841D01*
Y-60704D01*
Y-60567D01*
Y-60430D01*
Y-60292D01*
X83377D01*
Y-60155D01*
Y-60018D01*
X83240D01*
Y-59881D01*
Y-59744D01*
X83103D01*
Y-59607D01*
X82965D01*
Y-59470D01*
X82554D01*
Y-59333D01*
X82143D01*
Y-59470D01*
X81457D01*
Y-59607D01*
X81320D01*
Y-59744D01*
Y-59881D01*
X81183D01*
Y-60018D01*
Y-60155D01*
Y-60292D01*
Y-60430D01*
Y-60567D01*
X81046D01*
Y-60704D01*
Y-60841D01*
Y-60978D01*
Y-61115D01*
Y-61252D01*
Y-61389D01*
Y-61526D01*
Y-61663D01*
Y-61800D01*
Y-61937D01*
Y-62075D01*
Y-62212D01*
Y-62349D01*
Y-62486D01*
Y-62623D01*
Y-62760D01*
Y-62897D01*
Y-63034D01*
Y-63171D01*
Y-63308D01*
Y-63446D01*
Y-63583D01*
Y-63720D01*
Y-63857D01*
Y-63994D01*
Y-64131D01*
Y-64268D01*
Y-64405D01*
Y-64542D01*
X80909D01*
Y-64679D01*
X80772D01*
Y-64816D01*
X80635D01*
Y-64954D01*
X80086D01*
Y-64816D01*
X79812D01*
Y-64679D01*
Y-64542D01*
X79675D01*
Y-64405D01*
Y-64268D01*
X79538D01*
Y-64131D01*
Y-63994D01*
Y-63857D01*
Y-63720D01*
Y-63583D01*
Y-63446D01*
Y-63308D01*
Y-63171D01*
Y-63034D01*
Y-62897D01*
Y-62760D01*
Y-62623D01*
Y-62486D01*
X79675D01*
Y-62349D01*
X79538D01*
Y-62212D01*
Y-62075D01*
Y-61937D01*
Y-61800D01*
Y-61663D01*
Y-61526D01*
Y-61389D01*
Y-61252D01*
Y-61115D01*
Y-60978D01*
X79401D01*
Y-60841D01*
Y-60704D01*
Y-60567D01*
Y-60430D01*
Y-60292D01*
X79538D01*
Y-60155D01*
Y-60018D01*
X79675D01*
Y-59881D01*
Y-59744D01*
X79812D01*
Y-59607D01*
Y-59470D01*
X79949D01*
Y-59333D01*
Y-59196D01*
X80086D01*
Y-59059D01*
X80224D01*
Y-58921D01*
X80361D01*
Y-58784D01*
X80635D01*
Y-58647D01*
X80772D01*
Y-58510D01*
X80909D01*
Y-58373D01*
X81046D01*
Y-58236D01*
X81183D01*
Y-58099D01*
X81595D01*
Y-57962D01*
X83240D01*
Y-58099D01*
X83514D01*
Y-58236D01*
X83925D01*
Y-58099D01*
X84199D01*
Y-57962D01*
X84473D01*
Y-57825D01*
X84748D01*
Y-57962D01*
D02*
G37*
G36*
X78167Y-54123D02*
X78441D01*
Y-54260D01*
Y-54397D01*
Y-54535D01*
X78579D01*
Y-54672D01*
Y-54809D01*
Y-54946D01*
Y-55083D01*
Y-55220D01*
Y-55357D01*
Y-55494D01*
Y-55631D01*
Y-55768D01*
Y-55905D01*
X78441D01*
Y-56042D01*
Y-56180D01*
Y-56317D01*
Y-56454D01*
Y-56591D01*
Y-56728D01*
Y-56865D01*
Y-57002D01*
Y-57139D01*
Y-57276D01*
Y-57414D01*
Y-57551D01*
Y-57688D01*
Y-57825D01*
Y-57962D01*
Y-58099D01*
Y-58236D01*
Y-58373D01*
Y-58510D01*
Y-58647D01*
Y-58784D01*
Y-58921D01*
Y-59059D01*
Y-59196D01*
Y-59333D01*
Y-59470D01*
Y-59607D01*
Y-59744D01*
Y-59881D01*
Y-60018D01*
Y-60155D01*
Y-60292D01*
Y-60430D01*
Y-60567D01*
Y-60704D01*
Y-60841D01*
Y-60978D01*
Y-61115D01*
Y-61252D01*
Y-61389D01*
Y-61526D01*
X78579D01*
Y-61663D01*
Y-61800D01*
Y-61937D01*
Y-62075D01*
Y-62212D01*
Y-62349D01*
Y-62486D01*
Y-62623D01*
Y-62760D01*
X78716D01*
Y-62897D01*
Y-63034D01*
Y-63171D01*
Y-63308D01*
Y-63446D01*
Y-63583D01*
X78853D01*
Y-63720D01*
Y-63857D01*
Y-63994D01*
Y-64131D01*
Y-64268D01*
Y-64405D01*
X78579D01*
Y-64542D01*
X77208D01*
Y-64405D01*
X77070D01*
Y-64268D01*
X76933D01*
Y-64131D01*
Y-63994D01*
Y-63857D01*
Y-63720D01*
Y-63583D01*
Y-63446D01*
Y-63308D01*
Y-63171D01*
X77070D01*
Y-63034D01*
Y-62897D01*
X77208D01*
Y-62760D01*
Y-62623D01*
Y-62486D01*
Y-62349D01*
X77070D01*
Y-62486D01*
X76933D01*
Y-62623D01*
X76796D01*
Y-62760D01*
X76659D01*
Y-62897D01*
X76385D01*
Y-63034D01*
X76248D01*
Y-63171D01*
X75974D01*
Y-63308D01*
X75837D01*
Y-63446D01*
X75563D01*
Y-63583D01*
X75288D01*
Y-63720D01*
X75151D01*
Y-63857D01*
X74877D01*
Y-63994D01*
X74466D01*
Y-64131D01*
X74192D01*
Y-64268D01*
X74054D01*
Y-64405D01*
X73917D01*
Y-64542D01*
X73780D01*
Y-64679D01*
X73643D01*
Y-64816D01*
X73506D01*
Y-64954D01*
X73232D01*
Y-64816D01*
X73095D01*
Y-64679D01*
X72958D01*
Y-64542D01*
Y-64405D01*
Y-64268D01*
Y-64131D01*
Y-63994D01*
Y-63857D01*
Y-63720D01*
Y-63583D01*
X73232D01*
Y-63446D01*
X73369D01*
Y-63308D01*
X73506D01*
Y-63171D01*
X73780D01*
Y-63034D01*
X74054D01*
Y-62897D01*
X74192D01*
Y-62760D01*
X74466D01*
Y-62623D01*
X74603D01*
Y-62486D01*
X74877D01*
Y-62349D01*
X75014D01*
Y-62212D01*
X75151D01*
Y-62075D01*
X75288D01*
Y-61937D01*
X75425D01*
Y-61800D01*
X75700D01*
Y-61663D01*
X75837D01*
Y-61526D01*
X75974D01*
Y-61389D01*
X76248D01*
Y-61252D01*
X76385D01*
Y-61115D01*
Y-60978D01*
X76522D01*
Y-60841D01*
X76385D01*
Y-60704D01*
X76248D01*
Y-60567D01*
X76111D01*
Y-60430D01*
X75974D01*
Y-60292D01*
X75837D01*
Y-60155D01*
X75563D01*
Y-60018D01*
X75425D01*
Y-59881D01*
X75288D01*
Y-59744D01*
X75151D01*
Y-59607D01*
X74877D01*
Y-59470D01*
X74740D01*
Y-59333D01*
X74603D01*
Y-59196D01*
X74329D01*
Y-59059D01*
X74192D01*
Y-58921D01*
X74054D01*
Y-58784D01*
X73917D01*
Y-58647D01*
X73643D01*
Y-58510D01*
X73506D01*
Y-58373D01*
X73369D01*
Y-58236D01*
X73232D01*
Y-58099D01*
Y-57962D01*
X73095D01*
Y-57825D01*
Y-57688D01*
X73232D01*
Y-57551D01*
Y-57414D01*
X73369D01*
Y-57276D01*
X74192D01*
Y-57414D01*
X74329D01*
Y-57551D01*
X74603D01*
Y-57688D01*
X74740D01*
Y-57825D01*
X75014D01*
Y-57962D01*
X75151D01*
Y-58099D01*
X75288D01*
Y-58236D01*
X75425D01*
Y-58373D01*
X75700D01*
Y-58510D01*
X75837D01*
Y-58647D01*
X76111D01*
Y-58784D01*
X76248D01*
Y-58921D01*
X76385D01*
Y-59059D01*
X76522D01*
Y-59196D01*
X76659D01*
Y-59333D01*
X76796D01*
Y-59470D01*
X76933D01*
Y-59607D01*
X77070D01*
Y-59470D01*
Y-59333D01*
Y-59196D01*
Y-59059D01*
Y-58921D01*
Y-58784D01*
Y-58647D01*
Y-58510D01*
Y-58373D01*
Y-58236D01*
Y-58099D01*
Y-57962D01*
Y-57825D01*
Y-57688D01*
Y-57551D01*
Y-57414D01*
Y-57276D01*
Y-57139D01*
Y-57002D01*
Y-56865D01*
Y-56728D01*
Y-56591D01*
Y-56454D01*
Y-56317D01*
Y-56180D01*
Y-56042D01*
Y-55905D01*
Y-55768D01*
Y-55631D01*
Y-55494D01*
Y-55357D01*
Y-55220D01*
Y-55083D01*
Y-54946D01*
Y-54809D01*
Y-54672D01*
Y-54535D01*
Y-54397D01*
X77208D01*
Y-54260D01*
X77345D01*
Y-54123D01*
X77619D01*
Y-53986D01*
X78167D01*
Y-54123D01*
D02*
G37*
G36*
X95029D02*
X95167D01*
Y-54260D01*
X95304D01*
Y-54397D01*
X95441D01*
Y-54535D01*
X95578D01*
Y-54672D01*
X95715D01*
Y-54809D01*
X95852D01*
Y-54946D01*
X95989D01*
Y-55083D01*
X96126D01*
Y-55220D01*
X96263D01*
Y-55357D01*
X96400D01*
Y-55494D01*
X96538D01*
Y-55631D01*
X96675D01*
Y-55768D01*
X96812D01*
Y-55905D01*
X96949D01*
Y-56042D01*
X97086D01*
Y-56180D01*
X97223D01*
Y-56317D01*
X97360D01*
Y-56454D01*
Y-56591D01*
X97497D01*
Y-56728D01*
X97634D01*
Y-56865D01*
X97771D01*
Y-57002D01*
X97908D01*
Y-57139D01*
X98045D01*
Y-57276D01*
X98183D01*
Y-57414D01*
X98320D01*
Y-57551D01*
X98457D01*
Y-57688D01*
Y-57825D01*
Y-57962D01*
Y-58099D01*
Y-58236D01*
X98320D01*
Y-58373D01*
Y-58510D01*
X98183D01*
Y-58647D01*
X98045D01*
Y-58784D01*
X97908D01*
Y-58921D01*
X97771D01*
Y-59059D01*
X97497D01*
Y-59196D01*
X97360D01*
Y-59333D01*
X97223D01*
Y-59470D01*
X97086D01*
Y-59607D01*
X96812D01*
Y-59744D01*
X96675D01*
Y-59881D01*
X96538D01*
Y-60018D01*
X96263D01*
Y-60155D01*
X96126D01*
Y-60292D01*
X95989D01*
Y-60430D01*
X95852D01*
Y-60567D01*
Y-60704D01*
X95715D01*
Y-60841D01*
Y-60978D01*
X95852D01*
Y-61115D01*
Y-61252D01*
X95989D01*
Y-61389D01*
X96126D01*
Y-61526D01*
X96263D01*
Y-61663D01*
X96400D01*
Y-61800D01*
X96538D01*
Y-61937D01*
X96812D01*
Y-62075D01*
X96949D01*
Y-62212D01*
X97223D01*
Y-62349D01*
X97497D01*
Y-62486D01*
X97771D01*
Y-62623D01*
X98045D01*
Y-62760D01*
X98183D01*
Y-62897D01*
X98320D01*
Y-63034D01*
X98594D01*
Y-63171D01*
Y-63308D01*
X98731D01*
Y-63446D01*
X98868D01*
Y-63583D01*
Y-63720D01*
X99005D01*
Y-63857D01*
Y-63994D01*
Y-64131D01*
Y-64268D01*
Y-64405D01*
X98868D01*
Y-64542D01*
X98045D01*
Y-64405D01*
X97771D01*
Y-64268D01*
X97634D01*
Y-64131D01*
X97360D01*
Y-63994D01*
X97223D01*
Y-63857D01*
X97086D01*
Y-63720D01*
X96949D01*
Y-63583D01*
X96675D01*
Y-63446D01*
X96538D01*
Y-63308D01*
X96400D01*
Y-63171D01*
X96126D01*
Y-63034D01*
X95989D01*
Y-62897D01*
Y-62760D01*
X95852D01*
Y-62623D01*
X95715D01*
Y-62486D01*
X95578D01*
Y-62349D01*
X95441D01*
Y-62212D01*
X95304D01*
Y-62075D01*
X95029D01*
Y-61937D01*
X94892D01*
Y-61800D01*
X94755D01*
Y-61663D01*
X94618D01*
Y-61526D01*
X94481D01*
Y-61389D01*
X94344D01*
Y-61252D01*
Y-61115D01*
X94207D01*
Y-60978D01*
Y-60841D01*
Y-60704D01*
X94344D01*
Y-60567D01*
X94481D01*
Y-60430D01*
Y-60292D01*
X94618D01*
Y-60155D01*
X94755D01*
Y-60018D01*
Y-59881D01*
X94892D01*
Y-59744D01*
X95029D01*
Y-59607D01*
X95167D01*
Y-59470D01*
X95304D01*
Y-59333D01*
X95441D01*
Y-59196D01*
X95578D01*
Y-59059D01*
X95715D01*
Y-58921D01*
X95852D01*
Y-58784D01*
X95989D01*
Y-58647D01*
X96126D01*
Y-58510D01*
X96263D01*
Y-58373D01*
X96400D01*
Y-58236D01*
X96675D01*
Y-58099D01*
Y-57962D01*
X96538D01*
Y-57825D01*
X96400D01*
Y-57688D01*
X96263D01*
Y-57551D01*
X96126D01*
Y-57414D01*
Y-57276D01*
X95989D01*
Y-57139D01*
X95852D01*
Y-57002D01*
X95715D01*
Y-56865D01*
X95578D01*
Y-56728D01*
X95441D01*
Y-56591D01*
Y-56454D01*
X95304D01*
Y-56317D01*
X95167D01*
Y-56180D01*
X95029D01*
Y-56042D01*
X94892D01*
Y-55905D01*
X94618D01*
Y-55768D01*
X94481D01*
Y-55631D01*
X94207D01*
Y-55494D01*
Y-55357D01*
X94070D01*
Y-55220D01*
Y-55083D01*
X93933D01*
Y-54946D01*
Y-54809D01*
Y-54672D01*
X93796D01*
Y-54535D01*
Y-54397D01*
Y-54260D01*
X94070D01*
Y-54123D01*
X94618D01*
Y-53986D01*
X95029D01*
Y-54123D01*
D02*
G37*
G36*
X69805Y-57276D02*
X69942D01*
Y-57414D01*
X70079D01*
Y-57551D01*
X70216D01*
Y-57688D01*
X70490D01*
Y-57825D01*
X70627D01*
Y-57962D01*
X70764D01*
Y-58099D01*
X71039D01*
Y-58236D01*
X71175D01*
Y-58373D01*
X71313D01*
Y-58510D01*
X71450D01*
Y-58647D01*
X71587D01*
Y-58784D01*
X71724D01*
Y-58921D01*
X71861D01*
Y-59059D01*
X71998D01*
Y-59196D01*
X72135D01*
Y-59333D01*
X72272D01*
Y-59470D01*
X72409D01*
Y-59607D01*
Y-59744D01*
Y-59881D01*
Y-60018D01*
Y-60155D01*
X72272D01*
Y-60292D01*
X72135D01*
Y-60430D01*
X71998D01*
Y-60567D01*
X71724D01*
Y-60704D01*
X71587D01*
Y-60841D01*
X71450D01*
Y-60978D01*
X71175D01*
Y-61115D01*
X71039D01*
Y-61252D01*
X70764D01*
Y-61389D01*
X70627D01*
Y-61526D01*
X70353D01*
Y-61663D01*
Y-61800D01*
X70216D01*
Y-61937D01*
Y-62075D01*
X70353D01*
Y-62212D01*
X70490D01*
Y-62349D01*
X70627D01*
Y-62486D01*
X70764D01*
Y-62623D01*
X70901D01*
Y-62760D01*
X71175D01*
Y-62897D01*
X71450D01*
Y-63034D01*
X71724D01*
Y-63171D01*
X71861D01*
Y-63308D01*
X71998D01*
Y-63446D01*
X72135D01*
Y-63583D01*
X72272D01*
Y-63720D01*
X72409D01*
Y-63857D01*
X72546D01*
Y-63994D01*
Y-64131D01*
Y-64268D01*
Y-64405D01*
Y-64542D01*
X71450D01*
Y-64405D01*
X71313D01*
Y-64268D01*
X71039D01*
Y-64131D01*
X70764D01*
Y-63994D01*
X70353D01*
Y-63857D01*
X70216D01*
Y-63720D01*
X70079D01*
Y-63583D01*
Y-63446D01*
X69942D01*
Y-63308D01*
X69805D01*
Y-63171D01*
X69668D01*
Y-63034D01*
X69393D01*
Y-62897D01*
X69256D01*
Y-62760D01*
X69119D01*
Y-62623D01*
X68982D01*
Y-62486D01*
X68845D01*
Y-62349D01*
X68708D01*
Y-62212D01*
Y-62075D01*
X68571D01*
Y-61937D01*
Y-61800D01*
Y-61663D01*
X68708D01*
Y-61526D01*
X68845D01*
Y-61389D01*
X68982D01*
Y-61252D01*
Y-61115D01*
X69119D01*
Y-60978D01*
X69256D01*
Y-60841D01*
X69393D01*
Y-60704D01*
X69530D01*
Y-60567D01*
X69668D01*
Y-60430D01*
X69805D01*
Y-60292D01*
X69942D01*
Y-60155D01*
X70216D01*
Y-60018D01*
X70353D01*
Y-59881D01*
X70490D01*
Y-59744D01*
Y-59607D01*
X70353D01*
Y-59470D01*
X70216D01*
Y-59333D01*
X70079D01*
Y-59196D01*
Y-59059D01*
X69942D01*
Y-58921D01*
X69805D01*
Y-58784D01*
X69530D01*
Y-58647D01*
X69256D01*
Y-58510D01*
X69119D01*
Y-58373D01*
X68982D01*
Y-58236D01*
X68845D01*
Y-58099D01*
Y-57962D01*
X68708D01*
Y-57825D01*
Y-57688D01*
Y-57551D01*
Y-57414D01*
X68982D01*
Y-57276D01*
X69530D01*
Y-57139D01*
X69805D01*
Y-57276D01*
D02*
G37*
G36*
X87489Y-57825D02*
X87626D01*
Y-57962D01*
Y-58099D01*
Y-58236D01*
Y-58373D01*
Y-58510D01*
X87489D01*
Y-58647D01*
Y-58784D01*
Y-58921D01*
Y-59059D01*
Y-59196D01*
Y-59333D01*
Y-59470D01*
X87352D01*
Y-59607D01*
Y-59744D01*
Y-59881D01*
Y-60018D01*
Y-60155D01*
Y-60292D01*
Y-60430D01*
Y-60567D01*
Y-60704D01*
Y-60841D01*
Y-60978D01*
Y-61115D01*
Y-61252D01*
X87215D01*
Y-61389D01*
Y-61526D01*
Y-61663D01*
Y-61800D01*
Y-61937D01*
Y-62075D01*
Y-62212D01*
Y-62349D01*
Y-62486D01*
Y-62623D01*
Y-62760D01*
Y-62897D01*
Y-63034D01*
Y-63171D01*
Y-63308D01*
Y-63446D01*
Y-63583D01*
Y-63720D01*
Y-63857D01*
Y-63994D01*
Y-64131D01*
Y-64268D01*
Y-64405D01*
X87078D01*
Y-64542D01*
Y-64679D01*
X86804D01*
Y-64816D01*
X86667D01*
Y-64679D01*
X86393D01*
Y-64542D01*
X86256D01*
Y-64405D01*
X86119D01*
Y-64268D01*
X85981D01*
Y-64131D01*
Y-63994D01*
Y-63857D01*
Y-63720D01*
Y-63583D01*
Y-63446D01*
Y-63308D01*
Y-63171D01*
Y-63034D01*
Y-62897D01*
Y-62760D01*
Y-62623D01*
Y-62486D01*
Y-62349D01*
Y-62212D01*
Y-62075D01*
Y-61937D01*
Y-61800D01*
Y-61663D01*
Y-61526D01*
Y-61389D01*
Y-61252D01*
Y-61115D01*
X86119D01*
Y-60978D01*
Y-60841D01*
Y-60704D01*
Y-60567D01*
Y-60430D01*
Y-60292D01*
Y-60155D01*
Y-60018D01*
Y-59881D01*
Y-59744D01*
Y-59607D01*
Y-59470D01*
Y-59333D01*
Y-59196D01*
X85981D01*
Y-59059D01*
Y-58921D01*
Y-58784D01*
Y-58647D01*
Y-58510D01*
X85844D01*
Y-58373D01*
Y-58236D01*
X85981D01*
Y-58099D01*
Y-57962D01*
Y-57825D01*
X86119D01*
Y-57688D01*
X87489D01*
Y-57825D01*
D02*
G37*
G36*
X93384Y-57688D02*
Y-57825D01*
Y-57962D01*
Y-58099D01*
Y-58236D01*
Y-58373D01*
Y-58510D01*
Y-58647D01*
Y-58784D01*
Y-58921D01*
Y-59059D01*
X93247D01*
Y-59196D01*
Y-59333D01*
Y-59470D01*
Y-59607D01*
Y-59744D01*
Y-59881D01*
X93110D01*
Y-60018D01*
Y-60155D01*
Y-60292D01*
Y-60430D01*
Y-60567D01*
Y-60704D01*
Y-60841D01*
Y-60978D01*
Y-61115D01*
Y-61252D01*
X92973D01*
Y-61389D01*
Y-61526D01*
Y-61663D01*
Y-61800D01*
Y-61937D01*
Y-62075D01*
Y-62212D01*
Y-62349D01*
Y-62486D01*
Y-62623D01*
Y-62760D01*
Y-62897D01*
Y-63034D01*
Y-63171D01*
Y-63308D01*
Y-63446D01*
Y-63583D01*
Y-63720D01*
Y-63857D01*
Y-63994D01*
Y-64131D01*
Y-64268D01*
Y-64405D01*
Y-64542D01*
Y-64679D01*
Y-64816D01*
Y-64954D01*
Y-65091D01*
Y-65228D01*
Y-65365D01*
Y-65502D01*
X93110D01*
Y-65639D01*
Y-65776D01*
Y-65913D01*
Y-66050D01*
X93247D01*
Y-66187D01*
Y-66324D01*
Y-66461D01*
Y-66599D01*
Y-66736D01*
X93384D01*
Y-66873D01*
Y-67010D01*
Y-67147D01*
Y-67284D01*
Y-67421D01*
X93521D01*
Y-67558D01*
Y-67695D01*
Y-67832D01*
Y-67970D01*
Y-68107D01*
X93384D01*
Y-68244D01*
X92014D01*
Y-68381D01*
X91739D01*
Y-68244D01*
X91602D01*
Y-68107D01*
Y-67970D01*
Y-67832D01*
Y-67695D01*
Y-67558D01*
Y-67421D01*
X91465D01*
Y-67284D01*
Y-67147D01*
Y-67010D01*
Y-66873D01*
Y-66736D01*
X91602D01*
Y-66599D01*
X91739D01*
Y-66461D01*
Y-66324D01*
Y-66187D01*
X91876D01*
Y-66050D01*
X91739D01*
Y-65913D01*
Y-65776D01*
Y-65639D01*
Y-65502D01*
Y-65365D01*
Y-65228D01*
X91602D01*
Y-65091D01*
Y-64954D01*
Y-64816D01*
Y-64679D01*
Y-64542D01*
X91465D01*
Y-64405D01*
Y-64268D01*
Y-64131D01*
Y-63994D01*
Y-63857D01*
Y-63720D01*
X91328D01*
Y-63583D01*
X91054D01*
Y-63446D01*
X90643D01*
Y-63308D01*
X90368D01*
Y-63171D01*
X90094D01*
Y-63034D01*
X89820D01*
Y-62897D01*
X89683D01*
Y-62760D01*
X89409D01*
Y-62623D01*
X89135D01*
Y-62486D01*
X88998D01*
Y-62349D01*
X88723D01*
Y-62212D01*
X88586D01*
Y-62075D01*
X88449D01*
Y-61937D01*
X88312D01*
Y-61800D01*
X88175D01*
Y-61663D01*
X88038D01*
Y-61526D01*
X87901D01*
Y-61389D01*
Y-61252D01*
Y-61115D01*
X88038D01*
Y-60978D01*
X88175D01*
Y-60841D01*
X88312D01*
Y-60704D01*
X88449D01*
Y-60567D01*
X88586D01*
Y-60430D01*
X88723D01*
Y-60292D01*
X88860D01*
Y-60155D01*
X88998D01*
Y-60018D01*
X89135D01*
Y-59881D01*
X89272D01*
Y-59744D01*
X89409D01*
Y-59607D01*
X89683D01*
Y-59470D01*
X89820D01*
Y-59333D01*
X90094D01*
Y-59196D01*
X90231D01*
Y-59059D01*
X90505D01*
Y-58921D01*
X90780D01*
Y-58784D01*
Y-58647D01*
X90917D01*
Y-58510D01*
X91054D01*
Y-58373D01*
X91328D01*
Y-58236D01*
X91739D01*
Y-58099D01*
X92014D01*
Y-57962D01*
X92288D01*
Y-57825D01*
X92562D01*
Y-57688D01*
X92973D01*
Y-57551D01*
X93384D01*
Y-57688D01*
D02*
G37*
G36*
X25205Y-76009D02*
X25706D01*
Y-76051D01*
X26040D01*
Y-76092D01*
X26291D01*
Y-76134D01*
X26458D01*
Y-76176D01*
X26583D01*
Y-76218D01*
X26709D01*
Y-76259D01*
X26834D01*
Y-76301D01*
X26876D01*
Y-76343D01*
X26918D01*
Y-76301D01*
X26959D01*
Y-76343D01*
X27127D01*
Y-76385D01*
X27210D01*
Y-76427D01*
X27294D01*
Y-76468D01*
X27419D01*
Y-76510D01*
X27503D01*
Y-76552D01*
X27586D01*
Y-76594D01*
X27670D01*
Y-76635D01*
X27753D01*
Y-76677D01*
X27837D01*
Y-76719D01*
X27879D01*
Y-76761D01*
X27962D01*
Y-76802D01*
X28004D01*
Y-76844D01*
X28087D01*
Y-76886D01*
X28129D01*
Y-76928D01*
X28171D01*
Y-76970D01*
X28296D01*
Y-77011D01*
X28338D01*
Y-77053D01*
X28380D01*
Y-77095D01*
X28422D01*
Y-77137D01*
X28505D01*
Y-77179D01*
X28547D01*
Y-77220D01*
Y-77262D01*
X28672D01*
Y-77304D01*
X28714D01*
Y-77346D01*
X28756D01*
Y-77387D01*
X28798D01*
Y-77429D01*
X28839D01*
Y-77471D01*
X28881D01*
Y-77513D01*
X28923D01*
Y-77555D01*
X28965D01*
Y-77596D01*
X29007D01*
Y-77638D01*
X29048D01*
Y-77680D01*
X29090D01*
Y-77722D01*
X29132D01*
Y-77763D01*
X29174D01*
Y-77805D01*
X29215D01*
Y-77847D01*
X29257D01*
Y-77889D01*
Y-77931D01*
X29299D01*
Y-77972D01*
X29341D01*
Y-78014D01*
X29383D01*
Y-78056D01*
Y-78098D01*
X29424D01*
Y-78139D01*
X29466D01*
Y-78181D01*
X29508D01*
Y-78223D01*
Y-78265D01*
X29550D01*
Y-78307D01*
X29592D01*
Y-78348D01*
Y-78390D01*
X29633D01*
Y-78432D01*
Y-78474D01*
X29675D01*
Y-78515D01*
X29717D01*
Y-78557D01*
Y-78599D01*
X29759D01*
Y-78641D01*
Y-78683D01*
X29800D01*
Y-78724D01*
Y-78766D01*
X29842D01*
Y-78808D01*
Y-78850D01*
X29884D01*
Y-78891D01*
X29842D01*
Y-78933D01*
X29926D01*
Y-78975D01*
Y-79017D01*
Y-79059D01*
X29967D01*
Y-79100D01*
Y-79142D01*
Y-79184D01*
X30009D01*
Y-79226D01*
Y-79268D01*
X30051D01*
Y-79309D01*
Y-79351D01*
Y-79393D01*
X30093D01*
Y-79435D01*
Y-79476D01*
Y-79518D01*
Y-79560D01*
X30135D01*
Y-79602D01*
Y-79643D01*
Y-79685D01*
X30176D01*
Y-79727D01*
Y-79769D01*
Y-79811D01*
Y-79852D01*
X30218D01*
Y-79894D01*
Y-79936D01*
Y-79978D01*
Y-80019D01*
Y-80061D01*
Y-80103D01*
X30260D01*
Y-80145D01*
Y-80187D01*
Y-80228D01*
X30218D01*
Y-80270D01*
X30260D01*
Y-80312D01*
Y-80354D01*
Y-80396D01*
Y-80437D01*
Y-80479D01*
Y-80521D01*
X30302D01*
Y-80563D01*
Y-80604D01*
Y-80646D01*
Y-80688D01*
Y-80730D01*
Y-80771D01*
Y-80813D01*
Y-80855D01*
Y-80897D01*
Y-80939D01*
Y-80980D01*
Y-81022D01*
Y-81064D01*
Y-81106D01*
Y-81147D01*
Y-81189D01*
Y-81231D01*
Y-81273D01*
X30260D01*
Y-81231D01*
X30218D01*
Y-81273D01*
X30260D01*
Y-81315D01*
Y-81356D01*
Y-81398D01*
Y-81440D01*
Y-81482D01*
Y-81524D01*
Y-81565D01*
Y-81607D01*
X30218D01*
Y-81649D01*
Y-81691D01*
Y-81732D01*
Y-81774D01*
X30176D01*
Y-81816D01*
X30218D01*
Y-81858D01*
X30176D01*
Y-81899D01*
Y-81941D01*
Y-81983D01*
X30135D01*
Y-82025D01*
Y-82067D01*
Y-82108D01*
Y-82150D01*
X30093D01*
Y-82192D01*
Y-82234D01*
Y-82276D01*
X30051D01*
Y-82317D01*
Y-82359D01*
Y-82401D01*
X30009D01*
Y-82443D01*
Y-82485D01*
X29967D01*
Y-82526D01*
Y-82568D01*
Y-82610D01*
X29926D01*
Y-82652D01*
Y-82693D01*
X29884D01*
Y-82735D01*
Y-82777D01*
X29842D01*
Y-82819D01*
Y-82860D01*
X29800D01*
Y-82902D01*
Y-82944D01*
X29759D01*
Y-82986D01*
Y-83028D01*
X29717D01*
Y-83069D01*
X29675D01*
Y-83111D01*
Y-83153D01*
X29633D01*
Y-83195D01*
X29592D01*
Y-83236D01*
Y-83278D01*
X29550D01*
Y-83320D01*
X29508D01*
Y-83362D01*
X29466D01*
Y-83404D01*
X29424D01*
Y-83445D01*
X29383D01*
Y-83487D01*
X29341D01*
Y-83529D01*
X29299D01*
Y-83571D01*
X29257D01*
Y-83529D01*
Y-83487D01*
X29215D01*
Y-83529D01*
Y-83571D01*
X29257D01*
Y-83613D01*
X29174D01*
Y-83654D01*
X29132D01*
Y-83696D01*
X29048D01*
Y-83738D01*
X29007D01*
Y-83696D01*
X28965D01*
Y-83738D01*
X29007D01*
Y-83780D01*
X28923D01*
Y-83821D01*
X28839D01*
Y-83863D01*
X28798D01*
Y-83821D01*
X28756D01*
Y-83863D01*
Y-83905D01*
X28672D01*
Y-83947D01*
X28589D01*
Y-83988D01*
X28464D01*
Y-84030D01*
X28255D01*
Y-84072D01*
X28213D01*
Y-84030D01*
X28171D01*
Y-84072D01*
X28004D01*
Y-84114D01*
X27837D01*
Y-84072D01*
X27795D01*
Y-84114D01*
X27294D01*
Y-84072D01*
X27043D01*
Y-84030D01*
X26834D01*
Y-83988D01*
Y-83947D01*
X26792D01*
Y-83988D01*
X26709D01*
Y-83947D01*
X26583D01*
Y-83905D01*
X26500D01*
Y-83863D01*
X26416D01*
Y-83821D01*
X26333D01*
Y-83780D01*
X26291D01*
Y-83738D01*
X26207D01*
Y-83696D01*
X26124D01*
Y-83654D01*
X26082D01*
Y-83613D01*
X26040D01*
Y-83571D01*
X25957D01*
Y-83529D01*
Y-83487D01*
X25873D01*
Y-83445D01*
X25831D01*
Y-83404D01*
Y-83362D01*
X25790D01*
Y-83320D01*
X25748D01*
Y-83278D01*
X25706D01*
Y-83236D01*
X25664D01*
Y-83195D01*
Y-83153D01*
X25622D01*
Y-83111D01*
X25581D01*
Y-83069D01*
Y-83028D01*
X25539D01*
Y-82986D01*
Y-82944D01*
X25497D01*
Y-82902D01*
Y-82860D01*
X25455D01*
Y-82819D01*
Y-82777D01*
X25414D01*
Y-82735D01*
Y-82693D01*
Y-82652D01*
X25372D01*
Y-82610D01*
Y-82568D01*
X25330D01*
Y-82526D01*
Y-82485D01*
Y-82443D01*
X25288D01*
Y-82401D01*
Y-82359D01*
Y-82317D01*
Y-82276D01*
Y-82234D01*
Y-82192D01*
X25247D01*
Y-82150D01*
Y-82108D01*
Y-82067D01*
Y-82025D01*
Y-81983D01*
Y-81941D01*
Y-81899D01*
X25205D01*
Y-81858D01*
Y-81816D01*
Y-81774D01*
Y-81732D01*
Y-81691D01*
Y-81649D01*
Y-81607D01*
Y-81565D01*
Y-81524D01*
Y-81482D01*
Y-81440D01*
Y-81398D01*
X25247D01*
Y-81356D01*
X25205D01*
Y-81315D01*
X25247D01*
Y-81273D01*
Y-81231D01*
Y-81189D01*
Y-81147D01*
Y-81106D01*
Y-81064D01*
Y-81022D01*
Y-80980D01*
X25288D01*
Y-80939D01*
Y-80897D01*
Y-80855D01*
Y-80813D01*
Y-80771D01*
Y-80730D01*
X25330D01*
Y-80688D01*
Y-80646D01*
Y-80604D01*
X25372D01*
Y-80563D01*
Y-80521D01*
Y-80479D01*
X25414D01*
Y-80437D01*
Y-80396D01*
Y-80354D01*
X25455D01*
Y-80312D01*
Y-80270D01*
X25497D01*
Y-80228D01*
X25539D01*
Y-80187D01*
Y-80145D01*
X25581D01*
Y-80187D01*
X25622D01*
Y-80145D01*
X25581D01*
Y-80103D01*
Y-80061D01*
X25622D01*
Y-80019D01*
X25706D01*
Y-79978D01*
X25664D01*
Y-79936D01*
X25706D01*
Y-79894D01*
X25748D01*
Y-79852D01*
X25790D01*
Y-79811D01*
X25873D01*
Y-79769D01*
Y-79727D01*
X25915D01*
Y-79685D01*
X25957D01*
Y-79643D01*
X26040D01*
Y-79602D01*
X26082D01*
Y-79560D01*
X26124D01*
Y-79518D01*
X26207D01*
Y-79476D01*
X26291D01*
Y-79518D01*
X26333D01*
Y-79476D01*
X26291D01*
Y-79435D01*
X26333D01*
Y-79393D01*
X26416D01*
Y-79351D01*
X26542D01*
Y-79309D01*
X26667D01*
Y-79268D01*
X26751D01*
Y-79226D01*
X26792D01*
Y-79268D01*
X26834D01*
Y-79226D01*
X26959D01*
Y-79184D01*
X27252D01*
Y-79142D01*
X27461D01*
Y-79184D01*
X27753D01*
Y-79226D01*
X27920D01*
Y-79268D01*
X28046D01*
Y-79309D01*
X28171D01*
Y-79351D01*
X28255D01*
Y-79393D01*
X28338D01*
Y-79435D01*
X28464D01*
Y-79476D01*
X28547D01*
Y-79518D01*
X28631D01*
Y-79560D01*
X28672D01*
Y-79602D01*
X28714D01*
Y-79643D01*
X28798D01*
Y-79685D01*
X28839D01*
Y-79727D01*
X28881D01*
Y-79769D01*
X28965D01*
Y-79811D01*
X29007D01*
Y-79852D01*
X29048D01*
Y-79894D01*
Y-79936D01*
X29174D01*
Y-79894D01*
Y-79852D01*
Y-79811D01*
Y-79769D01*
Y-79727D01*
Y-79685D01*
Y-79643D01*
Y-79602D01*
Y-79560D01*
Y-79518D01*
Y-79476D01*
Y-79435D01*
Y-79393D01*
X29132D01*
Y-79351D01*
Y-79309D01*
Y-79268D01*
Y-79226D01*
Y-79184D01*
X29090D01*
Y-79142D01*
Y-79100D01*
Y-79059D01*
X29048D01*
Y-79017D01*
Y-78975D01*
Y-78933D01*
X29007D01*
Y-78891D01*
Y-78850D01*
X28965D01*
Y-78808D01*
Y-78766D01*
X28923D01*
Y-78724D01*
X28965D01*
Y-78683D01*
X28881D01*
Y-78641D01*
Y-78599D01*
X28839D01*
Y-78557D01*
Y-78515D01*
X28798D01*
Y-78474D01*
Y-78432D01*
X28756D01*
Y-78390D01*
X28714D01*
Y-78348D01*
Y-78307D01*
X28672D01*
Y-78265D01*
Y-78223D01*
X28589D01*
Y-78181D01*
X28547D01*
Y-78139D01*
X28505D01*
Y-78098D01*
Y-78056D01*
X28422D01*
Y-78014D01*
Y-77972D01*
X28380D01*
Y-77931D01*
X28296D01*
Y-77889D01*
X28255D01*
Y-77847D01*
X28213D01*
Y-77805D01*
X28171D01*
Y-77763D01*
X28087D01*
Y-77722D01*
X28046D01*
Y-77680D01*
X28004D01*
Y-77638D01*
X27920D01*
Y-77596D01*
X27879D01*
Y-77555D01*
X27837D01*
Y-77513D01*
X27753D01*
Y-77471D01*
X27670D01*
Y-77429D01*
X27628D01*
Y-77387D01*
X27586D01*
Y-77346D01*
X27503D01*
Y-77304D01*
X27419D01*
Y-77262D01*
X27336D01*
Y-77220D01*
X27252D01*
Y-77179D01*
X27168D01*
Y-77137D01*
X27043D01*
Y-77095D01*
X26918D01*
Y-77053D01*
X26834D01*
Y-77011D01*
X26709D01*
Y-76970D01*
X26583D01*
Y-76928D01*
X26416D01*
Y-76886D01*
X26207D01*
Y-76844D01*
X26166D01*
Y-76802D01*
X26124D01*
Y-76844D01*
X25957D01*
Y-76802D01*
Y-76761D01*
X25915D01*
Y-76802D01*
X25622D01*
Y-76761D01*
X25038D01*
Y-76802D01*
X24954D01*
Y-76761D01*
X24912D01*
Y-76802D01*
X24662D01*
Y-76761D01*
X24620D01*
Y-76802D01*
X24662D01*
Y-76844D01*
X24453D01*
Y-76886D01*
X24244D01*
Y-76928D01*
X24118D01*
Y-76970D01*
X24035D01*
Y-77011D01*
X23951D01*
Y-77053D01*
X23868D01*
Y-77095D01*
X23784D01*
Y-77137D01*
X23701D01*
Y-77179D01*
X23617D01*
Y-77220D01*
X23534D01*
Y-77262D01*
X23492D01*
Y-77304D01*
X23408D01*
Y-77346D01*
X23367D01*
Y-77387D01*
X23325D01*
Y-77429D01*
X23241D01*
Y-77471D01*
X23199D01*
Y-77513D01*
X23158D01*
Y-77555D01*
X23116D01*
Y-77596D01*
X23074D01*
Y-77638D01*
X23032D01*
Y-77680D01*
X22990D01*
Y-77722D01*
X22949D01*
Y-77763D01*
X22907D01*
Y-77805D01*
X22865D01*
Y-77847D01*
X22823D01*
Y-77889D01*
X22782D01*
Y-77931D01*
X22740D01*
Y-77972D01*
Y-78014D01*
X22698D01*
Y-78056D01*
X22656D01*
Y-78098D01*
Y-78139D01*
X22614D01*
Y-78181D01*
X22573D01*
Y-78139D01*
X22531D01*
Y-78181D01*
X22573D01*
Y-78223D01*
X22531D01*
Y-78265D01*
Y-78307D01*
X22489D01*
Y-78348D01*
X22447D01*
Y-78390D01*
Y-78432D01*
X22406D01*
Y-78474D01*
Y-78515D01*
X22364D01*
Y-78557D01*
X22322D01*
Y-78599D01*
Y-78641D01*
X22280D01*
Y-78683D01*
Y-78724D01*
X22238D01*
Y-78766D01*
Y-78808D01*
X22197D01*
Y-78850D01*
Y-78891D01*
X22155D01*
Y-78933D01*
Y-78975D01*
Y-79017D01*
X22113D01*
Y-79059D01*
Y-79100D01*
X22071D01*
Y-79142D01*
Y-79184D01*
X22030D01*
Y-79226D01*
Y-79268D01*
Y-79309D01*
X21988D01*
Y-79351D01*
Y-79393D01*
X21946D01*
Y-79435D01*
Y-79476D01*
Y-79518D01*
Y-79560D01*
X21904D01*
Y-79602D01*
Y-79643D01*
Y-79685D01*
X21862D01*
Y-79727D01*
Y-79769D01*
Y-79811D01*
Y-79852D01*
X21821D01*
Y-79894D01*
Y-79936D01*
Y-79978D01*
Y-80019D01*
X21779D01*
Y-80061D01*
Y-80103D01*
Y-80145D01*
Y-80187D01*
X21737D01*
Y-80228D01*
Y-80270D01*
Y-80312D01*
Y-80354D01*
X21695D01*
Y-80396D01*
Y-80437D01*
Y-80479D01*
Y-80521D01*
Y-80563D01*
X21654D01*
Y-80521D01*
X21612D01*
Y-80563D01*
X21654D01*
Y-80604D01*
Y-80646D01*
Y-80688D01*
Y-80730D01*
Y-80771D01*
Y-80813D01*
X21612D01*
Y-80855D01*
Y-80897D01*
Y-80939D01*
Y-80980D01*
Y-81022D01*
Y-81064D01*
Y-81106D01*
X21570D01*
Y-81147D01*
Y-81189D01*
Y-81231D01*
Y-81273D01*
Y-81315D01*
Y-81356D01*
X21528D01*
Y-81398D01*
Y-81440D01*
Y-81482D01*
Y-81524D01*
Y-81565D01*
Y-81607D01*
X21486D01*
Y-81649D01*
Y-81691D01*
Y-81732D01*
Y-81774D01*
Y-81816D01*
Y-81858D01*
Y-81899D01*
Y-81941D01*
Y-81983D01*
X21445D01*
Y-82025D01*
Y-82067D01*
Y-82108D01*
Y-82150D01*
Y-82192D01*
Y-82234D01*
Y-82276D01*
Y-82317D01*
Y-82359D01*
Y-82401D01*
Y-82443D01*
Y-82485D01*
Y-82526D01*
X21403D01*
Y-82568D01*
Y-82610D01*
Y-82652D01*
Y-82693D01*
Y-82735D01*
Y-82777D01*
Y-82819D01*
Y-82860D01*
Y-82902D01*
Y-82944D01*
Y-82986D01*
Y-83028D01*
Y-83069D01*
Y-83111D01*
Y-83153D01*
Y-83195D01*
Y-83236D01*
Y-83278D01*
Y-83320D01*
Y-83362D01*
Y-83404D01*
Y-83445D01*
Y-83487D01*
Y-83529D01*
Y-83571D01*
Y-83613D01*
Y-83654D01*
Y-83696D01*
Y-83738D01*
Y-83780D01*
Y-83821D01*
Y-83863D01*
Y-83905D01*
Y-83947D01*
Y-83988D01*
Y-84030D01*
X21445D01*
Y-84072D01*
Y-84114D01*
Y-84156D01*
Y-84197D01*
Y-84239D01*
Y-84281D01*
Y-84323D01*
Y-84364D01*
Y-84406D01*
Y-84448D01*
Y-84490D01*
Y-84532D01*
Y-84573D01*
Y-84615D01*
X21486D01*
Y-84657D01*
Y-84699D01*
Y-84741D01*
Y-84782D01*
Y-84824D01*
Y-84866D01*
Y-84908D01*
Y-84949D01*
X21528D01*
Y-84991D01*
Y-85033D01*
Y-85075D01*
Y-85116D01*
Y-85158D01*
X21486D01*
Y-85200D01*
X21528D01*
Y-85242D01*
X21570D01*
Y-85284D01*
Y-85325D01*
Y-85367D01*
Y-85409D01*
Y-85451D01*
Y-85492D01*
Y-85534D01*
X21612D01*
Y-85576D01*
Y-85618D01*
Y-85660D01*
Y-85701D01*
Y-85743D01*
Y-85785D01*
Y-85827D01*
X21654D01*
Y-85869D01*
Y-85910D01*
Y-85952D01*
Y-85994D01*
X21695D01*
Y-86036D01*
Y-86077D01*
Y-86119D01*
Y-86161D01*
Y-86203D01*
X21737D01*
Y-86245D01*
Y-86286D01*
Y-86328D01*
X21779D01*
Y-86370D01*
Y-86412D01*
Y-86453D01*
Y-86495D01*
X21821D01*
Y-86537D01*
Y-86579D01*
Y-86621D01*
X21862D01*
Y-86662D01*
Y-86704D01*
Y-86746D01*
Y-86788D01*
X21904D01*
Y-86830D01*
Y-86871D01*
Y-86913D01*
X21946D01*
Y-86955D01*
Y-86997D01*
Y-87038D01*
X21988D01*
Y-87080D01*
Y-87122D01*
Y-87164D01*
X22030D01*
Y-87205D01*
Y-87247D01*
X22071D01*
Y-87289D01*
Y-87331D01*
X22113D01*
Y-87373D01*
Y-87414D01*
Y-87456D01*
X22155D01*
Y-87498D01*
Y-87540D01*
X22197D01*
Y-87581D01*
Y-87623D01*
Y-87665D01*
X22238D01*
Y-87707D01*
Y-87749D01*
X22280D01*
Y-87790D01*
X22238D01*
Y-87832D01*
X22322D01*
Y-87874D01*
Y-87916D01*
X22364D01*
Y-87958D01*
Y-87999D01*
X22406D01*
Y-88041D01*
Y-88083D01*
X22447D01*
Y-88125D01*
Y-88166D01*
X22489D01*
Y-88208D01*
X22447D01*
Y-88250D01*
X22531D01*
Y-88292D01*
Y-88333D01*
X22573D01*
Y-88375D01*
Y-88417D01*
X22614D01*
Y-88459D01*
Y-88501D01*
X22656D01*
Y-88542D01*
Y-88584D01*
X22698D01*
Y-88626D01*
X22740D01*
Y-88668D01*
Y-88709D01*
X22782D01*
Y-88751D01*
Y-88793D01*
X22823D01*
Y-88835D01*
X22865D01*
Y-88877D01*
Y-88918D01*
X22907D01*
Y-88960D01*
X22949D01*
Y-89002D01*
Y-89044D01*
X22990D01*
Y-89086D01*
X23032D01*
Y-89127D01*
Y-89169D01*
X23074D01*
Y-89211D01*
X23116D01*
Y-89253D01*
Y-89294D01*
X23158D01*
Y-89336D01*
X23199D01*
Y-89378D01*
Y-89420D01*
X23241D01*
Y-89461D01*
X23283D01*
Y-89503D01*
Y-89545D01*
X23325D01*
Y-89587D01*
X23367D01*
Y-89629D01*
X23408D01*
Y-89670D01*
Y-89712D01*
X23450D01*
Y-89754D01*
X23492D01*
Y-89796D01*
X23534D01*
Y-89837D01*
Y-89879D01*
X23575D01*
Y-89921D01*
X23617D01*
Y-89963D01*
X23659D01*
Y-90005D01*
X23701D01*
Y-90047D01*
Y-90088D01*
X23742D01*
Y-90130D01*
X23784D01*
Y-90172D01*
X23826D01*
Y-90214D01*
X23868D01*
Y-90255D01*
X23910D01*
Y-90297D01*
X23951D01*
Y-90339D01*
Y-90381D01*
X23993D01*
Y-90422D01*
X24035D01*
Y-90464D01*
X24077D01*
Y-90506D01*
X24118D01*
Y-90548D01*
X24160D01*
Y-90590D01*
X24202D01*
Y-90631D01*
X24244D01*
Y-90673D01*
X24286D01*
Y-90715D01*
X24327D01*
Y-90757D01*
X24369D01*
Y-90798D01*
X24411D01*
Y-90840D01*
X24453D01*
Y-90882D01*
X24495D01*
Y-90924D01*
Y-90966D01*
X24578D01*
Y-91007D01*
Y-91049D01*
X24620D01*
Y-91091D01*
X24662D01*
Y-91133D01*
X24745D01*
Y-91175D01*
Y-91216D01*
X24829D01*
Y-91258D01*
Y-91300D01*
Y-91342D01*
X24870D01*
Y-91383D01*
X24912D01*
Y-91342D01*
X24870D01*
Y-91300D01*
X24912D01*
Y-91342D01*
X24954D01*
Y-91383D01*
X24996D01*
Y-91425D01*
X25038D01*
Y-91467D01*
X25079D01*
Y-91509D01*
X25121D01*
Y-91550D01*
X25205D01*
Y-91592D01*
X25247D01*
Y-91634D01*
X25288D01*
Y-91676D01*
X25330D01*
Y-91718D01*
X25372D01*
Y-91759D01*
X25414D01*
Y-91801D01*
X25455D01*
Y-91843D01*
X25497D01*
Y-91885D01*
X25581D01*
Y-91926D01*
X25622D01*
Y-91968D01*
X25664D01*
Y-92010D01*
X25748D01*
Y-92052D01*
X25790D01*
Y-92094D01*
X25831D01*
Y-92135D01*
X25915D01*
Y-92177D01*
X25957D01*
Y-92219D01*
X25999D01*
Y-92261D01*
Y-92303D01*
X26040D01*
Y-92261D01*
X26082D01*
Y-92303D01*
X26124D01*
Y-92344D01*
X26166D01*
Y-92386D01*
Y-92428D01*
X26207D01*
Y-92386D01*
X26249D01*
Y-92428D01*
X26291D01*
Y-92470D01*
X26375D01*
Y-92511D01*
X26416D01*
Y-92553D01*
X26458D01*
Y-92595D01*
X26542D01*
Y-92637D01*
X26583D01*
Y-92678D01*
X26667D01*
Y-92720D01*
X26751D01*
Y-92762D01*
X26792D01*
Y-92804D01*
Y-92846D01*
X26834D01*
Y-92804D01*
X26876D01*
Y-92846D01*
X26918D01*
Y-92887D01*
X27001D01*
Y-92929D01*
X27085D01*
Y-92971D01*
X27127D01*
Y-93013D01*
X27168D01*
Y-93054D01*
X27252D01*
Y-93096D01*
X27336D01*
Y-93138D01*
X27377D01*
Y-93180D01*
X27461D01*
Y-93222D01*
X27544D01*
Y-93263D01*
X27586D01*
Y-93305D01*
X27670D01*
Y-93347D01*
X27753D01*
Y-93389D01*
X27837D01*
Y-93431D01*
X27920D01*
Y-93472D01*
X28004D01*
Y-93514D01*
X28046D01*
Y-93556D01*
X28129D01*
Y-93598D01*
X28213D01*
Y-93639D01*
Y-93681D01*
X28255D01*
Y-93639D01*
X28338D01*
Y-93681D01*
X28380D01*
Y-93723D01*
X28464D01*
Y-93765D01*
X28547D01*
Y-93807D01*
X28672D01*
Y-93848D01*
X28714D01*
Y-93890D01*
X28798D01*
Y-93932D01*
X28923D01*
Y-93974D01*
X29007D01*
Y-94015D01*
X29090D01*
Y-94057D01*
X29174D01*
Y-94099D01*
X29299D01*
Y-94141D01*
X29383D01*
Y-94183D01*
X29466D01*
Y-94224D01*
X29592D01*
Y-94266D01*
X29675D01*
Y-94308D01*
X29759D01*
Y-94350D01*
X29842D01*
Y-94392D01*
X29967D01*
Y-94433D01*
X30051D01*
Y-94475D01*
X30135D01*
Y-94517D01*
X30176D01*
Y-94559D01*
X30344D01*
Y-94600D01*
X30427D01*
Y-94642D01*
X30511D01*
Y-94684D01*
X30594D01*
Y-94726D01*
X30636D01*
Y-94767D01*
X30678D01*
Y-94726D01*
X30720D01*
Y-94767D01*
X30803D01*
Y-94809D01*
X30887D01*
Y-94851D01*
X30970D01*
Y-94893D01*
Y-94935D01*
X31054D01*
Y-94976D01*
X31096D01*
Y-95018D01*
X31137D01*
Y-95060D01*
X31096D01*
Y-95102D01*
Y-95144D01*
X31012D01*
Y-95185D01*
X30887D01*
Y-95227D01*
X30636D01*
Y-95185D01*
X30511D01*
Y-95144D01*
X30427D01*
Y-95102D01*
X30302D01*
Y-95060D01*
X30135D01*
Y-95018D01*
X30009D01*
Y-94976D01*
X29884D01*
Y-94935D01*
X29800D01*
Y-94893D01*
X29675D01*
Y-94851D01*
X29550D01*
Y-94809D01*
X29424D01*
Y-94767D01*
X29299D01*
Y-94726D01*
X29174D01*
Y-94684D01*
X29090D01*
Y-94642D01*
X28965D01*
Y-94600D01*
X28839D01*
Y-94559D01*
X28756D01*
Y-94517D01*
X28631D01*
Y-94475D01*
Y-94433D01*
X28589D01*
Y-94475D01*
X28505D01*
Y-94433D01*
X28380D01*
Y-94392D01*
Y-94350D01*
X28338D01*
Y-94392D01*
X28296D01*
Y-94350D01*
X28213D01*
Y-94308D01*
X28087D01*
Y-94266D01*
X28004D01*
Y-94224D01*
X27920D01*
Y-94183D01*
X27837D01*
Y-94141D01*
X27711D01*
Y-94099D01*
X27628D01*
Y-94057D01*
Y-94015D01*
X27586D01*
Y-94057D01*
X27544D01*
Y-94015D01*
X27461D01*
Y-93974D01*
X27336D01*
Y-93932D01*
X27252D01*
Y-93890D01*
X27168D01*
Y-93848D01*
X27043D01*
Y-93807D01*
X26959D01*
Y-93765D01*
X26876D01*
Y-93723D01*
X26792D01*
Y-93681D01*
X26709D01*
Y-93639D01*
X26625D01*
Y-93598D01*
X26542D01*
Y-93556D01*
X26458D01*
Y-93514D01*
X26375D01*
Y-93472D01*
X26291D01*
Y-93431D01*
X26207D01*
Y-93389D01*
X26166D01*
Y-93347D01*
X26040D01*
Y-93305D01*
X25999D01*
Y-93263D01*
X25957D01*
Y-93222D01*
X25915D01*
Y-93263D01*
X25873D01*
Y-93222D01*
X25831D01*
Y-93180D01*
X25748D01*
Y-93138D01*
X25664D01*
Y-93096D01*
X25581D01*
Y-93054D01*
X25497D01*
Y-93013D01*
X25414D01*
Y-92971D01*
X25330D01*
Y-92929D01*
Y-92887D01*
X25205D01*
Y-92846D01*
X25163D01*
Y-92804D01*
X25079D01*
Y-92762D01*
X25038D01*
Y-92720D01*
X24954D01*
Y-92678D01*
X24870D01*
Y-92637D01*
Y-92595D01*
X24829D01*
Y-92637D01*
X24787D01*
Y-92595D01*
X24745D01*
Y-92553D01*
X24662D01*
Y-92511D01*
X24620D01*
Y-92470D01*
X24536D01*
Y-92428D01*
X24495D01*
Y-92386D01*
X24453D01*
Y-92344D01*
X24327D01*
Y-92303D01*
X24286D01*
Y-92261D01*
X24202D01*
Y-92219D01*
X24160D01*
Y-92177D01*
X24077D01*
Y-92135D01*
X24035D01*
Y-92094D01*
X23951D01*
Y-92052D01*
X23910D01*
Y-92010D01*
X23868D01*
Y-91968D01*
X23784D01*
Y-91926D01*
X23742D01*
Y-91885D01*
X23659D01*
Y-91843D01*
Y-91801D01*
X23575D01*
Y-91759D01*
X23492D01*
Y-91718D01*
X23450D01*
Y-91676D01*
X23408D01*
Y-91634D01*
X23325D01*
Y-91592D01*
X23283D01*
Y-91550D01*
Y-91509D01*
X23158D01*
Y-91467D01*
X23116D01*
Y-91425D01*
X23074D01*
Y-91383D01*
X23032D01*
Y-91342D01*
X22949D01*
Y-91300D01*
X22907D01*
Y-91258D01*
X22865D01*
Y-91216D01*
X22823D01*
Y-91175D01*
X22740D01*
Y-91133D01*
X22698D01*
Y-91091D01*
X22656D01*
Y-91049D01*
X22614D01*
Y-91007D01*
X22573D01*
Y-90966D01*
X22531D01*
Y-90924D01*
X22489D01*
Y-90882D01*
X22406D01*
Y-90840D01*
X22364D01*
Y-90798D01*
X22322D01*
Y-90757D01*
X22280D01*
Y-90715D01*
X22238D01*
Y-90673D01*
X22197D01*
Y-90631D01*
X22155D01*
Y-90590D01*
X22071D01*
Y-90548D01*
X22030D01*
Y-90506D01*
X21988D01*
Y-90464D01*
X21946D01*
Y-90422D01*
X21904D01*
Y-90381D01*
X21862D01*
Y-90339D01*
X21821D01*
Y-90297D01*
X21779D01*
Y-90255D01*
X21737D01*
Y-90214D01*
X21695D01*
Y-90172D01*
X21654D01*
Y-90130D01*
X21612D01*
Y-90088D01*
X21570D01*
Y-90047D01*
X21528D01*
Y-90005D01*
X21486D01*
Y-89963D01*
X21445D01*
Y-89921D01*
X21403D01*
Y-89879D01*
X21361D01*
Y-89837D01*
X21319D01*
Y-89796D01*
Y-89754D01*
X21278D01*
Y-89712D01*
X21236D01*
Y-89670D01*
X21194D01*
Y-89629D01*
X21152D01*
Y-89587D01*
X21110D01*
Y-89545D01*
X21069D01*
Y-89503D01*
X21027D01*
Y-89461D01*
Y-89420D01*
X20985D01*
Y-89378D01*
X20943D01*
Y-89336D01*
X20901D01*
Y-89294D01*
X20860D01*
Y-89253D01*
X20818D01*
Y-89211D01*
Y-89169D01*
X20776D01*
Y-89127D01*
X20734D01*
Y-89086D01*
X20693D01*
Y-89044D01*
X20651D01*
Y-89002D01*
Y-88960D01*
X20609D01*
Y-88918D01*
X20567D01*
Y-88877D01*
Y-88835D01*
X20526D01*
Y-88793D01*
X20484D01*
Y-88751D01*
Y-88709D01*
X20442D01*
Y-88668D01*
X20400D01*
Y-88626D01*
X20358D01*
Y-88584D01*
Y-88542D01*
X20317D01*
Y-88501D01*
X20275D01*
Y-88459D01*
X20317D01*
Y-88417D01*
X20233D01*
Y-88375D01*
X20191D01*
Y-88333D01*
Y-88292D01*
X20150D01*
Y-88250D01*
X20108D01*
Y-88208D01*
Y-88166D01*
X20066D01*
Y-88125D01*
Y-88083D01*
X20024D01*
Y-88041D01*
X19982D01*
Y-87999D01*
Y-87958D01*
X19941D01*
Y-87916D01*
X19982D01*
Y-87874D01*
X19899D01*
Y-87832D01*
Y-87790D01*
X19857D01*
Y-87749D01*
Y-87707D01*
X19815D01*
Y-87665D01*
X19773D01*
Y-87623D01*
Y-87581D01*
X19732D01*
Y-87540D01*
Y-87498D01*
X19690D01*
Y-87456D01*
X19732D01*
Y-87414D01*
X19648D01*
Y-87373D01*
Y-87331D01*
X19606D01*
Y-87289D01*
Y-87247D01*
X19648D01*
Y-87289D01*
X19690D01*
Y-87247D01*
X19648D01*
Y-87205D01*
X19565D01*
Y-87164D01*
X19523D01*
Y-87122D01*
Y-87080D01*
X19481D01*
Y-87038D01*
Y-86997D01*
X19439D01*
Y-86955D01*
Y-86913D01*
Y-86871D01*
X19398D01*
Y-86830D01*
Y-86788D01*
X19356D01*
Y-86746D01*
Y-86704D01*
Y-86662D01*
X19314D01*
Y-86621D01*
Y-86579D01*
X19272D01*
Y-86537D01*
Y-86495D01*
Y-86453D01*
X19230D01*
Y-86412D01*
Y-86370D01*
X19189D01*
Y-86328D01*
Y-86286D01*
Y-86245D01*
X19147D01*
Y-86203D01*
Y-86161D01*
Y-86119D01*
X19105D01*
Y-86077D01*
Y-86036D01*
Y-85994D01*
X19063D01*
Y-85952D01*
Y-85910D01*
X19022D01*
Y-85869D01*
Y-85827D01*
Y-85785D01*
Y-85743D01*
X18980D01*
Y-85701D01*
Y-85660D01*
Y-85618D01*
Y-85576D01*
X18938D01*
Y-85534D01*
Y-85492D01*
X18980D01*
Y-85451D01*
X18896D01*
Y-85409D01*
Y-85367D01*
Y-85325D01*
Y-85284D01*
X18854D01*
Y-85242D01*
Y-85200D01*
Y-85158D01*
Y-85116D01*
X18813D01*
Y-85075D01*
Y-85033D01*
Y-84991D01*
Y-84949D01*
X18771D01*
Y-84908D01*
Y-84866D01*
Y-84824D01*
Y-84782D01*
X18729D01*
Y-84741D01*
Y-84699D01*
Y-84657D01*
Y-84615D01*
Y-84573D01*
Y-84532D01*
X18687D01*
Y-84490D01*
Y-84448D01*
Y-84406D01*
Y-84364D01*
Y-84323D01*
Y-84281D01*
Y-84239D01*
Y-84197D01*
Y-84156D01*
Y-84114D01*
X18645D01*
Y-84072D01*
Y-84030D01*
Y-83988D01*
Y-83947D01*
Y-83905D01*
Y-83863D01*
Y-83821D01*
Y-83780D01*
Y-83738D01*
X18604D01*
Y-83696D01*
Y-83654D01*
Y-83613D01*
Y-83571D01*
Y-83529D01*
Y-83487D01*
Y-83445D01*
Y-83404D01*
Y-83362D01*
Y-83320D01*
Y-83278D01*
Y-83236D01*
Y-83195D01*
Y-83153D01*
Y-83111D01*
Y-83069D01*
Y-83028D01*
Y-82986D01*
Y-82944D01*
Y-82902D01*
Y-82860D01*
Y-82819D01*
X18645D01*
Y-82777D01*
X18604D01*
Y-82735D01*
Y-82693D01*
Y-82652D01*
Y-82610D01*
Y-82568D01*
Y-82526D01*
Y-82485D01*
Y-82443D01*
Y-82401D01*
Y-82359D01*
Y-82317D01*
Y-82276D01*
Y-82234D01*
Y-82192D01*
Y-82150D01*
X18645D01*
Y-82108D01*
X18687D01*
Y-82067D01*
X18645D01*
Y-82025D01*
Y-81983D01*
Y-81941D01*
Y-81899D01*
Y-81858D01*
X18687D01*
Y-81816D01*
X18645D01*
Y-81774D01*
Y-81732D01*
Y-81691D01*
X18687D01*
Y-81649D01*
Y-81607D01*
Y-81565D01*
Y-81524D01*
X18729D01*
Y-81482D01*
X18687D01*
Y-81440D01*
Y-81398D01*
Y-81356D01*
Y-81315D01*
X18729D01*
Y-81273D01*
X18687D01*
Y-81231D01*
X18729D01*
Y-81189D01*
Y-81147D01*
Y-81106D01*
Y-81064D01*
Y-81022D01*
Y-80980D01*
X18771D01*
Y-80939D01*
Y-80897D01*
X18813D01*
Y-80855D01*
X18771D01*
Y-80813D01*
Y-80771D01*
X18813D01*
Y-80730D01*
Y-80688D01*
Y-80646D01*
X18854D01*
Y-80604D01*
Y-80563D01*
Y-80521D01*
Y-80479D01*
X18896D01*
Y-80437D01*
Y-80396D01*
Y-80354D01*
Y-80312D01*
X18938D01*
Y-80270D01*
Y-80228D01*
Y-80187D01*
X18980D01*
Y-80145D01*
Y-80103D01*
Y-80061D01*
X19022D01*
Y-80019D01*
Y-79978D01*
Y-79936D01*
Y-79894D01*
X19063D01*
Y-79852D01*
Y-79811D01*
Y-79769D01*
X19105D01*
Y-79727D01*
Y-79685D01*
X19147D01*
Y-79643D01*
Y-79602D01*
Y-79560D01*
X19189D01*
Y-79518D01*
Y-79476D01*
X19230D01*
Y-79435D01*
Y-79393D01*
X19272D01*
Y-79351D01*
Y-79309D01*
X19314D01*
Y-79268D01*
Y-79226D01*
Y-79184D01*
X19356D01*
Y-79142D01*
Y-79100D01*
X19398D01*
Y-79059D01*
Y-79017D01*
X19439D01*
Y-78975D01*
X19481D01*
Y-78933D01*
Y-78891D01*
X19523D01*
Y-78850D01*
Y-78808D01*
X19565D01*
Y-78766D01*
Y-78724D01*
X19606D01*
Y-78683D01*
Y-78641D01*
X19648D01*
Y-78599D01*
X19690D01*
Y-78557D01*
X19732D01*
Y-78515D01*
Y-78474D01*
X19773D01*
Y-78432D01*
Y-78390D01*
X19815D01*
Y-78348D01*
X19857D01*
Y-78307D01*
X19899D01*
Y-78265D01*
Y-78223D01*
X19941D01*
Y-78181D01*
X19982D01*
Y-78139D01*
Y-78098D01*
X20024D01*
Y-78056D01*
X20066D01*
Y-78014D01*
X20108D01*
Y-77972D01*
X20150D01*
Y-77931D01*
Y-77889D01*
X20191D01*
Y-77847D01*
X20233D01*
Y-77805D01*
X20275D01*
Y-77763D01*
X20317D01*
Y-77722D01*
X20358D01*
Y-77680D01*
X20400D01*
Y-77638D01*
X20442D01*
Y-77596D01*
X20484D01*
Y-77555D01*
X20526D01*
Y-77513D01*
X20567D01*
Y-77471D01*
X20609D01*
Y-77429D01*
X20651D01*
Y-77387D01*
X20693D01*
Y-77346D01*
X20776D01*
Y-77304D01*
Y-77262D01*
X20860D01*
Y-77220D01*
X20901D01*
Y-77179D01*
X20943D01*
Y-77137D01*
X21027D01*
Y-77095D01*
X21069D01*
Y-77053D01*
X21110D01*
Y-77011D01*
X21152D01*
Y-77053D01*
X21194D01*
Y-77011D01*
Y-76970D01*
X21236D01*
Y-76928D01*
X21319D01*
Y-76886D01*
X21361D01*
Y-76844D01*
X21445D01*
Y-76802D01*
X21528D01*
Y-76761D01*
X21570D01*
Y-76719D01*
X21654D01*
Y-76677D01*
X21737D01*
Y-76635D01*
X21821D01*
Y-76594D01*
X21904D01*
Y-76552D01*
X22030D01*
Y-76510D01*
X22113D01*
Y-76468D01*
X22238D01*
Y-76427D01*
X22322D01*
Y-76385D01*
X22489D01*
Y-76343D01*
X22614D01*
Y-76385D01*
Y-76427D01*
X22656D01*
Y-76385D01*
Y-76343D01*
X22614D01*
Y-76301D01*
X22740D01*
Y-76259D01*
X22907D01*
Y-76218D01*
X23032D01*
Y-76176D01*
X23199D01*
Y-76134D01*
X23408D01*
Y-76092D01*
X23659D01*
Y-76051D01*
X23993D01*
Y-76009D01*
X24495D01*
Y-75967D01*
X24620D01*
Y-76009D01*
X24662D01*
Y-75967D01*
X24703D01*
Y-76009D01*
X24745D01*
Y-75967D01*
X25205D01*
Y-76009D01*
D02*
G37*
G36*
X15846Y-77805D02*
X16055D01*
Y-77847D01*
X16181D01*
Y-77889D01*
X16264D01*
Y-77931D01*
X16348D01*
Y-77972D01*
X16389D01*
Y-78014D01*
Y-78056D01*
X16431D01*
Y-78098D01*
Y-78139D01*
X16473D01*
Y-78181D01*
X16515D01*
Y-78139D01*
X16473D01*
Y-78098D01*
Y-78056D01*
X16431D01*
Y-78014D01*
X16473D01*
Y-78056D01*
X16515D01*
Y-78098D01*
X16556D01*
Y-78139D01*
X16598D01*
Y-78181D01*
Y-78223D01*
X16682D01*
Y-78265D01*
Y-78307D01*
X16724D01*
Y-78348D01*
X16765D01*
Y-78390D01*
Y-78432D01*
X16807D01*
Y-78474D01*
Y-78515D01*
X16849D01*
Y-78557D01*
Y-78599D01*
X16807D01*
Y-78641D01*
X16849D01*
Y-78683D01*
X16891D01*
Y-78724D01*
Y-78766D01*
Y-78808D01*
Y-78850D01*
Y-78891D01*
Y-78933D01*
Y-78975D01*
Y-79017D01*
Y-79059D01*
X16849D01*
Y-79100D01*
X16891D01*
Y-79142D01*
Y-79184D01*
Y-79226D01*
Y-79268D01*
Y-79309D01*
X16849D01*
Y-79351D01*
Y-79393D01*
Y-79435D01*
Y-79476D01*
X16807D01*
Y-79518D01*
Y-79560D01*
X16765D01*
Y-79602D01*
Y-79643D01*
X16724D01*
Y-79685D01*
X16682D01*
Y-79727D01*
X16640D01*
Y-79769D01*
Y-79811D01*
X16598D01*
Y-79852D01*
X16556D01*
Y-79894D01*
X16515D01*
Y-79936D01*
X16473D01*
Y-79978D01*
X16389D01*
Y-80019D01*
X16306D01*
Y-80061D01*
X16264D01*
Y-80103D01*
X16181D01*
Y-80145D01*
X16013D01*
Y-80187D01*
X15763D01*
Y-80145D01*
X15721D01*
Y-80187D01*
X15596D01*
Y-80145D01*
Y-80103D01*
X15554D01*
Y-80145D01*
Y-80187D01*
X15345D01*
Y-80145D01*
X15178D01*
Y-80103D01*
X15094D01*
Y-80061D01*
X15053D01*
Y-80019D01*
Y-79978D01*
X15011D01*
Y-79936D01*
X14969D01*
Y-79978D01*
X15011D01*
Y-80019D01*
X14969D01*
Y-79978D01*
X14927D01*
Y-79936D01*
X14844D01*
Y-79894D01*
X14802D01*
Y-79852D01*
X14760D01*
Y-79811D01*
X14718D01*
Y-79769D01*
Y-79727D01*
X14676D01*
Y-79685D01*
X14635D01*
Y-79643D01*
Y-79602D01*
X14593D01*
Y-79560D01*
X14551D01*
Y-79518D01*
X14593D01*
Y-79476D01*
X14551D01*
Y-79435D01*
X14509D01*
Y-79393D01*
Y-79351D01*
Y-79309D01*
Y-79268D01*
X14468D01*
Y-79226D01*
Y-79184D01*
Y-79142D01*
Y-79100D01*
Y-79059D01*
Y-79017D01*
Y-78975D01*
Y-78933D01*
Y-78891D01*
Y-78850D01*
Y-78808D01*
Y-78766D01*
Y-78724D01*
X14509D01*
Y-78683D01*
Y-78641D01*
X14551D01*
Y-78599D01*
X14509D01*
Y-78557D01*
Y-78515D01*
X14551D01*
Y-78474D01*
Y-78432D01*
X14593D01*
Y-78390D01*
Y-78348D01*
X14635D01*
Y-78307D01*
X14676D01*
Y-78265D01*
Y-78223D01*
X14718D01*
Y-78181D01*
X14760D01*
Y-78139D01*
X14802D01*
Y-78098D01*
X14844D01*
Y-78056D01*
X14885D01*
Y-78014D01*
X14969D01*
Y-77972D01*
X15011D01*
Y-77931D01*
X15094D01*
Y-77889D01*
X15178D01*
Y-77847D01*
X15303D01*
Y-77805D01*
X15470D01*
Y-77763D01*
X15846D01*
Y-77805D01*
D02*
G37*
G36*
Y-83445D02*
X16055D01*
Y-83487D01*
X16181D01*
Y-83529D01*
X16264D01*
Y-83571D01*
Y-83613D01*
X16306D01*
Y-83571D01*
X16348D01*
Y-83613D01*
X16389D01*
Y-83654D01*
X16473D01*
Y-83696D01*
X16515D01*
Y-83738D01*
X16556D01*
Y-83780D01*
X16598D01*
Y-83821D01*
X16640D01*
Y-83863D01*
Y-83905D01*
X16682D01*
Y-83947D01*
X16724D01*
Y-83988D01*
X16765D01*
Y-84030D01*
Y-84072D01*
X16807D01*
Y-84114D01*
Y-84156D01*
Y-84197D01*
X16849D01*
Y-84239D01*
Y-84281D01*
Y-84323D01*
X16891D01*
Y-84364D01*
Y-84406D01*
Y-84448D01*
Y-84490D01*
Y-84532D01*
Y-84573D01*
Y-84615D01*
Y-84657D01*
Y-84699D01*
Y-84741D01*
Y-84782D01*
Y-84824D01*
Y-84866D01*
Y-84908D01*
Y-84949D01*
X16849D01*
Y-84991D01*
Y-85033D01*
Y-85075D01*
Y-85116D01*
X16807D01*
Y-85158D01*
Y-85200D01*
X16765D01*
Y-85242D01*
Y-85284D01*
X16724D01*
Y-85325D01*
X16682D01*
Y-85367D01*
X16640D01*
Y-85409D01*
Y-85451D01*
X16598D01*
Y-85492D01*
X16556D01*
Y-85534D01*
X16515D01*
Y-85576D01*
X16473D01*
Y-85618D01*
X16389D01*
Y-85660D01*
X16348D01*
Y-85701D01*
X16264D01*
Y-85743D01*
X16139D01*
Y-85785D01*
X16097D01*
Y-85827D01*
X15846D01*
Y-85869D01*
X15804D01*
Y-85827D01*
X15763D01*
Y-85869D01*
X15512D01*
Y-85827D01*
X15303D01*
Y-85785D01*
X15178D01*
Y-85743D01*
X15094D01*
Y-85701D01*
X15011D01*
Y-85660D01*
X14969D01*
Y-85618D01*
X14885D01*
Y-85576D01*
X14844D01*
Y-85534D01*
X14802D01*
Y-85492D01*
X14760D01*
Y-85451D01*
X14718D01*
Y-85409D01*
Y-85367D01*
X14676D01*
Y-85325D01*
X14635D01*
Y-85284D01*
X14593D01*
Y-85242D01*
Y-85200D01*
X14551D01*
Y-85158D01*
Y-85116D01*
Y-85075D01*
X14509D01*
Y-85033D01*
Y-84991D01*
Y-84949D01*
Y-84908D01*
X14468D01*
Y-84866D01*
X14509D01*
Y-84824D01*
X14468D01*
Y-84782D01*
Y-84741D01*
Y-84699D01*
Y-84657D01*
Y-84615D01*
Y-84573D01*
Y-84532D01*
Y-84490D01*
Y-84448D01*
Y-84406D01*
Y-84364D01*
X14509D01*
Y-84323D01*
Y-84281D01*
Y-84239D01*
Y-84197D01*
X14551D01*
Y-84156D01*
Y-84114D01*
X14635D01*
Y-84072D01*
X14593D01*
Y-84030D01*
X14635D01*
Y-83988D01*
X14676D01*
Y-83947D01*
Y-83905D01*
X14718D01*
Y-83863D01*
X14760D01*
Y-83821D01*
X14802D01*
Y-83780D01*
X14844D01*
Y-83738D01*
X14885D01*
Y-83696D01*
X14927D01*
Y-83654D01*
X15053D01*
Y-83613D01*
Y-83571D01*
X15136D01*
Y-83529D01*
X15220D01*
Y-83487D01*
X15345D01*
Y-83445D01*
X15554D01*
Y-83404D01*
X15846D01*
Y-83445D01*
D02*
G37*
G36*
X171334Y-224358D02*
X172328D01*
Y-225035D01*
X171334D01*
Y-226012D01*
X170673D01*
Y-225035D01*
X169685D01*
Y-224358D01*
X170673D01*
Y-223381D01*
X171334D01*
Y-224358D01*
D02*
G37*
%LPC*%
G36*
X67611Y-32189D02*
X67337D01*
Y-32326D01*
X67063D01*
Y-32463D01*
X66926D01*
Y-32600D01*
X67200D01*
Y-32737D01*
X67474D01*
Y-32874D01*
X67611D01*
Y-32737D01*
Y-32600D01*
X67474D01*
Y-32463D01*
Y-32326D01*
X67611D01*
Y-32189D01*
D02*
G37*
G36*
X68571Y-32600D02*
X68297D01*
Y-32737D01*
X68160D01*
Y-32874D01*
X67885D01*
Y-33011D01*
X68571D01*
Y-32874D01*
X68982D01*
Y-32737D01*
X68571D01*
Y-32600D01*
D02*
G37*
G36*
X91739Y-59607D02*
X91602D01*
Y-59744D01*
X91465D01*
Y-59881D01*
X91191D01*
Y-60018D01*
X91054D01*
Y-60155D01*
X90917D01*
Y-60292D01*
X90643D01*
Y-60430D01*
X90505D01*
Y-60567D01*
X90368D01*
Y-60704D01*
X90231D01*
Y-60841D01*
X90094D01*
Y-60978D01*
X89957D01*
Y-61115D01*
X89820D01*
Y-61252D01*
X89683D01*
Y-61389D01*
X89820D01*
Y-61526D01*
X89957D01*
Y-61663D01*
X90231D01*
Y-61800D01*
X90505D01*
Y-61937D01*
X90780D01*
Y-62075D01*
X91191D01*
Y-62212D01*
X91602D01*
Y-62075D01*
Y-61937D01*
Y-61800D01*
Y-61663D01*
Y-61526D01*
Y-61389D01*
Y-61252D01*
Y-61115D01*
Y-60978D01*
Y-60841D01*
Y-60704D01*
Y-60567D01*
X91739D01*
Y-60430D01*
Y-60292D01*
Y-60155D01*
Y-60018D01*
Y-59881D01*
Y-59744D01*
Y-59607D01*
D02*
G37*
G36*
X23158Y-76259D02*
X23116D01*
Y-76301D01*
X23158D01*
Y-76259D01*
D02*
G37*
G36*
X26333Y-76301D02*
X26291D01*
Y-76343D01*
X26333D01*
Y-76301D01*
D02*
G37*
G36*
X23116D02*
X23074D01*
Y-76343D01*
X23116D01*
Y-76301D01*
D02*
G37*
G36*
X27001Y-76385D02*
X26959D01*
Y-76427D01*
X27001D01*
Y-76385D01*
D02*
G37*
G36*
X26709D02*
X26667D01*
Y-76427D01*
X26709D01*
Y-76385D01*
D02*
G37*
G36*
X26249D02*
X26207D01*
Y-76427D01*
X26249D01*
Y-76385D01*
D02*
G37*
G36*
X27210Y-76427D02*
X27168D01*
Y-76468D01*
X27210D01*
Y-76427D01*
D02*
G37*
G36*
X27294Y-76552D02*
X27252D01*
Y-76594D01*
X27294D01*
Y-76552D01*
D02*
G37*
G36*
X27127D02*
X27085D01*
Y-76594D01*
X27127D01*
Y-76552D01*
D02*
G37*
G36*
X27503Y-76594D02*
X27461D01*
Y-76635D01*
X27503D01*
Y-76594D01*
D02*
G37*
G36*
X27210Y-76552D02*
X27168D01*
Y-76594D01*
Y-76635D01*
X27210D01*
Y-76594D01*
Y-76552D01*
D02*
G37*
G36*
X27294Y-76677D02*
X27252D01*
Y-76719D01*
X27294D01*
Y-76677D01*
D02*
G37*
G36*
X21862Y-76719D02*
X21821D01*
Y-76761D01*
X21862D01*
Y-76719D01*
D02*
G37*
G36*
X24286Y-76761D02*
X24244D01*
Y-76802D01*
X24286D01*
Y-76761D01*
D02*
G37*
G36*
X24202D02*
X24160D01*
Y-76802D01*
X24202D01*
Y-76761D01*
D02*
G37*
G36*
X23826D02*
X23784D01*
Y-76802D01*
X23826D01*
Y-76761D01*
D02*
G37*
G36*
X26751Y-76802D02*
X26709D01*
Y-76844D01*
X26751D01*
Y-76802D01*
D02*
G37*
G36*
X24035Y-76844D02*
X23993D01*
Y-76886D01*
X24035D01*
Y-76844D01*
D02*
G37*
G36*
X21570D02*
X21528D01*
Y-76886D01*
X21570D01*
Y-76844D01*
D02*
G37*
G36*
X26583D02*
X26542D01*
Y-76886D01*
X26583D01*
Y-76928D01*
X26625D01*
Y-76886D01*
X26583D01*
Y-76844D01*
D02*
G37*
G36*
X21445Y-76928D02*
X21403D01*
Y-76970D01*
X21445D01*
Y-76928D01*
D02*
G37*
G36*
X28087Y-76970D02*
X28046D01*
Y-77011D01*
X28087D01*
Y-76970D01*
D02*
G37*
G36*
X27043Y-76928D02*
X27001D01*
Y-76970D01*
X27043D01*
Y-77011D01*
X27085D01*
Y-76970D01*
X27043D01*
Y-76928D01*
D02*
G37*
G36*
X21528Y-76970D02*
X21486D01*
Y-77011D01*
X21528D01*
Y-76970D01*
D02*
G37*
G36*
X27837Y-77011D02*
X27795D01*
Y-77053D01*
X27837D01*
Y-77011D01*
D02*
G37*
G36*
X28004Y-77053D02*
X27962D01*
Y-77095D01*
X28004D01*
Y-77053D01*
D02*
G37*
G36*
X27795D02*
X27753D01*
Y-77095D01*
X27795D01*
Y-77053D01*
D02*
G37*
G36*
X27503Y-77095D02*
X27461D01*
Y-77137D01*
X27503D01*
Y-77095D01*
D02*
G37*
G36*
X27294D02*
X27252D01*
Y-77137D01*
X27294D01*
Y-77095D01*
D02*
G37*
G36*
X23450Y-77137D02*
X23408D01*
Y-77179D01*
X23450D01*
Y-77137D01*
D02*
G37*
G36*
X28464Y-77220D02*
X28422D01*
Y-77262D01*
X28464D01*
Y-77220D01*
D02*
G37*
G36*
X27586D02*
X27544D01*
Y-77262D01*
Y-77304D01*
X27586D01*
Y-77262D01*
Y-77220D01*
D02*
G37*
G36*
X23367Y-77262D02*
X23325D01*
Y-77304D01*
X23367D01*
Y-77262D01*
D02*
G37*
G36*
X27753Y-77304D02*
X27711D01*
Y-77346D01*
X27753D01*
Y-77304D01*
D02*
G37*
G36*
X20734Y-77429D02*
X20693D01*
Y-77471D01*
X20734D01*
Y-77429D01*
D02*
G37*
G36*
X28087Y-77471D02*
X28046D01*
Y-77513D01*
X28087D01*
Y-77471D01*
D02*
G37*
G36*
X23032Y-77555D02*
X22990D01*
Y-77596D01*
X23032D01*
Y-77555D01*
D02*
G37*
G36*
X20609D02*
X20567D01*
Y-77596D01*
X20609D01*
Y-77555D01*
D02*
G37*
G36*
X22949Y-77638D02*
X22907D01*
Y-77680D01*
X22949D01*
Y-77638D01*
D02*
G37*
G36*
X20526D02*
X20484D01*
Y-77680D01*
X20526D01*
Y-77638D01*
D02*
G37*
G36*
X29090Y-77722D02*
X29048D01*
Y-77763D01*
X29090D01*
Y-77722D01*
D02*
G37*
G36*
X28589Y-77763D02*
X28547D01*
Y-77805D01*
X28589D01*
Y-77763D01*
D02*
G37*
G36*
X28714Y-77805D02*
X28672D01*
Y-77847D01*
X28714D01*
Y-77805D01*
D02*
G37*
G36*
X22614D02*
X22573D01*
Y-77847D01*
X22614D01*
Y-77805D01*
D02*
G37*
G36*
X29174Y-77847D02*
X29132D01*
Y-77889D01*
X29174D01*
Y-77847D01*
D02*
G37*
G36*
X28505D02*
X28464D01*
Y-77889D01*
X28505D01*
Y-77847D01*
D02*
G37*
G36*
X22740D02*
X22698D01*
Y-77889D01*
X22740D01*
Y-77847D01*
D02*
G37*
G36*
X28589Y-77931D02*
X28547D01*
Y-77972D01*
X28589D01*
Y-77931D01*
D02*
G37*
G36*
X29299Y-78056D02*
X29257D01*
Y-78098D01*
X29299D01*
Y-78056D01*
D02*
G37*
G36*
X20024Y-78348D02*
X19982D01*
Y-78390D01*
X20024D01*
Y-78348D01*
D02*
G37*
G36*
X19941Y-78432D02*
X19899D01*
Y-78474D01*
X19941D01*
Y-78432D01*
D02*
G37*
G36*
X29675Y-78515D02*
X29633D01*
Y-78557D01*
X29675D01*
Y-78515D01*
D02*
G37*
G36*
X29048Y-78599D02*
X29007D01*
Y-78641D01*
X29048D01*
Y-78599D01*
D02*
G37*
G36*
X19941D02*
X19899D01*
Y-78641D01*
X19941D01*
Y-78599D01*
D02*
G37*
G36*
X19773D02*
X19732D01*
Y-78641D01*
X19773D01*
Y-78599D01*
D02*
G37*
G36*
X22197Y-78683D02*
X22155D01*
Y-78724D01*
X22197D01*
Y-78683D01*
D02*
G37*
G36*
X29090Y-78891D02*
X29048D01*
Y-78933D01*
X29090D01*
Y-78891D01*
D02*
G37*
G36*
X19606Y-79017D02*
X19565D01*
Y-79059D01*
X19606D01*
Y-79017D01*
D02*
G37*
G36*
X19732D02*
X19648D01*
Y-79059D01*
X19690D01*
Y-79100D01*
X19732D01*
Y-79059D01*
Y-79017D01*
D02*
G37*
G36*
X29341Y-79142D02*
X29299D01*
Y-79184D01*
X29341D01*
Y-79142D01*
D02*
G37*
G36*
X21821D02*
X21779D01*
Y-79184D01*
X21821D01*
Y-79142D01*
D02*
G37*
G36*
X27336Y-79184D02*
X27294D01*
Y-79226D01*
X27336D01*
Y-79184D01*
D02*
G37*
G36*
X27795Y-79268D02*
X27753D01*
Y-79309D01*
X27795D01*
Y-79268D01*
D02*
G37*
G36*
X21862D02*
X21821D01*
Y-79309D01*
X21862D01*
Y-79268D01*
D02*
G37*
G36*
X21779D02*
X21737D01*
Y-79309D01*
X21779D01*
Y-79268D01*
D02*
G37*
G36*
X27920Y-79309D02*
X27879D01*
Y-79351D01*
X27920D01*
Y-79309D01*
D02*
G37*
G36*
X26751D02*
X26709D01*
Y-79351D01*
X26751D01*
Y-79309D01*
D02*
G37*
G36*
X29257Y-79351D02*
X29215D01*
Y-79393D01*
X29257D01*
Y-79351D01*
D02*
G37*
G36*
X29383Y-79393D02*
X29341D01*
Y-79435D01*
X29383D01*
Y-79393D01*
D02*
G37*
G36*
X21862D02*
X21821D01*
Y-79435D01*
X21862D01*
Y-79393D01*
D02*
G37*
G36*
X21779Y-79435D02*
X21737D01*
Y-79476D01*
X21779D01*
Y-79435D01*
D02*
G37*
G36*
X26416Y-79518D02*
X26375D01*
Y-79560D01*
X26416D01*
Y-79518D01*
D02*
G37*
G36*
X21779D02*
X21737D01*
Y-79560D01*
X21779D01*
Y-79518D01*
D02*
G37*
G36*
X21862Y-79560D02*
X21821D01*
Y-79602D01*
X21862D01*
Y-79560D01*
D02*
G37*
G36*
X28589Y-79685D02*
X28547D01*
Y-79727D01*
X28589D01*
Y-79685D01*
D02*
G37*
G36*
X19272D02*
X19230D01*
Y-79727D01*
X19272D01*
Y-79685D01*
D02*
G37*
G36*
X29257Y-79769D02*
X29215D01*
Y-79811D01*
X29257D01*
Y-79769D01*
D02*
G37*
G36*
X26082D02*
X26040D01*
Y-79811D01*
X26082D01*
Y-79769D01*
D02*
G37*
G36*
X28923Y-79852D02*
X28881D01*
Y-79894D01*
X28923D01*
Y-79852D01*
D02*
G37*
G36*
X25957Y-79978D02*
X25915D01*
Y-80019D01*
X25957D01*
Y-79978D01*
D02*
G37*
G36*
X29132Y-80061D02*
X29090D01*
Y-80103D01*
X29132D01*
Y-80061D01*
D02*
G37*
G36*
X29048D02*
X29007D01*
Y-80103D01*
X29048D01*
Y-80061D01*
D02*
G37*
G36*
X25748Y-80145D02*
X25706D01*
Y-80187D01*
X25748D01*
Y-80145D01*
D02*
G37*
G36*
X21570Y-80103D02*
X21528D01*
Y-80145D01*
X21570D01*
Y-80187D01*
X21612D01*
Y-80145D01*
X21570D01*
Y-80103D01*
D02*
G37*
G36*
X25581Y-80270D02*
X25539D01*
Y-80312D01*
X25581D01*
Y-80270D01*
D02*
G37*
G36*
X21528Y-80437D02*
X21486D01*
Y-80479D01*
X21528D01*
Y-80437D01*
D02*
G37*
G36*
X30218Y-80688D02*
X30176D01*
Y-80730D01*
X30218D01*
Y-80688D01*
D02*
G37*
G36*
X21612Y-80730D02*
X21570D01*
Y-80771D01*
X21612D01*
Y-80730D01*
D02*
G37*
G36*
X18980Y-80897D02*
X18938D01*
Y-80939D01*
X18980D01*
Y-80897D01*
D02*
G37*
G36*
X18938Y-80939D02*
X18896D01*
Y-80980D01*
X18938D01*
Y-80939D01*
D02*
G37*
G36*
X30260Y-81064D02*
X30218D01*
Y-81106D01*
X30260D01*
Y-81064D01*
D02*
G37*
G36*
Y-81147D02*
X30218D01*
Y-81189D01*
X30260D01*
Y-81147D01*
D02*
G37*
G36*
X30176D02*
X30135D01*
Y-81189D01*
X30176D01*
Y-81147D01*
D02*
G37*
G36*
X25372Y-81189D02*
X25330D01*
Y-81231D01*
X25372D01*
Y-81189D01*
D02*
G37*
G36*
X30135Y-81356D02*
X30093D01*
Y-81398D01*
X30135D01*
Y-81356D01*
D02*
G37*
G36*
X25414Y-81398D02*
X25372D01*
Y-81440D01*
X25414D01*
Y-81398D01*
D02*
G37*
G36*
X21445Y-81691D02*
X21403D01*
Y-81732D01*
X21445D01*
Y-81691D01*
D02*
G37*
G36*
X30135Y-81732D02*
X30093D01*
Y-81774D01*
X30135D01*
Y-81732D01*
D02*
G37*
G36*
X25372Y-81983D02*
X25330D01*
Y-82025D01*
X25372D01*
Y-81983D01*
D02*
G37*
G36*
X29842Y-82150D02*
X29800D01*
Y-82192D01*
X29842D01*
Y-82150D01*
D02*
G37*
G36*
X29967Y-82234D02*
X29926D01*
Y-82276D01*
X29967D01*
Y-82234D01*
D02*
G37*
G36*
X18687Y-82568D02*
X18645D01*
Y-82610D01*
X18687D01*
Y-82568D01*
D02*
G37*
G36*
X25664Y-82860D02*
X25622D01*
Y-82902D01*
X25664D01*
Y-82860D01*
D02*
G37*
G36*
X29550Y-82944D02*
X29508D01*
Y-82986D01*
X29550D01*
Y-82944D01*
D02*
G37*
G36*
X25706Y-82986D02*
X25664D01*
Y-83028D01*
X25706D01*
Y-82986D01*
D02*
G37*
G36*
X25748Y-83069D02*
X25706D01*
Y-83111D01*
X25748D01*
Y-83069D01*
D02*
G37*
G36*
X29592Y-83111D02*
X29508D01*
Y-83153D01*
X29592D01*
Y-83111D01*
D02*
G37*
G36*
X25748Y-83153D02*
X25706D01*
Y-83195D01*
X25748D01*
Y-83153D01*
D02*
G37*
G36*
X25957Y-83404D02*
X25915D01*
Y-83445D01*
X25957D01*
Y-83404D01*
D02*
G37*
G36*
X26416Y-83445D02*
X26375D01*
Y-83487D01*
X26416D01*
Y-83445D01*
D02*
G37*
G36*
X28923Y-83571D02*
X28881D01*
Y-83613D01*
X28923D01*
Y-83571D01*
D02*
G37*
G36*
X26124Y-83487D02*
X26082D01*
Y-83529D01*
Y-83571D01*
Y-83613D01*
X26124D01*
Y-83571D01*
Y-83529D01*
Y-83487D01*
D02*
G37*
G36*
X18729Y-83571D02*
X18687D01*
Y-83613D01*
X18729D01*
Y-83571D01*
D02*
G37*
G36*
X28798Y-83654D02*
X28756D01*
Y-83696D01*
X28798D01*
Y-83654D01*
D02*
G37*
G36*
X26667Y-83780D02*
X26625D01*
Y-83821D01*
X26667D01*
Y-83780D01*
D02*
G37*
G36*
X28547Y-83821D02*
X28505D01*
Y-83863D01*
X28547D01*
Y-83821D01*
D02*
G37*
G36*
X27043D02*
X27001D01*
Y-83863D01*
X27043D01*
Y-83821D01*
D02*
G37*
G36*
X28087Y-83863D02*
X28046D01*
Y-83905D01*
X28087D01*
Y-83863D01*
D02*
G37*
G36*
X27879D02*
X27837D01*
Y-83905D01*
X27879D01*
Y-83863D01*
D02*
G37*
G36*
X28422Y-83947D02*
X28380D01*
Y-83988D01*
X28422D01*
Y-83947D01*
D02*
G37*
G36*
X27127D02*
X27085D01*
Y-83988D01*
X27127D01*
Y-83947D01*
D02*
G37*
G36*
X27252Y-83988D02*
X27210D01*
Y-84030D01*
X27252D01*
Y-83988D01*
D02*
G37*
G36*
X18729Y-84072D02*
X18687D01*
Y-84114D01*
X18729D01*
Y-84072D01*
D02*
G37*
G36*
X18938Y-84991D02*
X18896D01*
Y-85033D01*
X18938D01*
Y-84991D01*
D02*
G37*
G36*
X18980Y-85158D02*
X18938D01*
Y-85200D01*
X18980D01*
Y-85158D01*
D02*
G37*
G36*
X21528Y-85618D02*
X21486D01*
Y-85660D01*
X21528D01*
Y-85618D01*
D02*
G37*
G36*
X19063Y-85701D02*
X19022D01*
Y-85743D01*
X19063D01*
Y-85701D01*
D02*
G37*
G36*
X19398Y-85910D02*
X19356D01*
Y-85952D01*
X19398D01*
Y-85910D01*
D02*
G37*
G36*
X21445Y-86119D02*
X21403D01*
Y-86161D01*
X21445D01*
Y-86119D01*
D02*
G37*
G36*
X21570Y-86161D02*
X21528D01*
Y-86203D01*
X21570D01*
Y-86161D01*
D02*
G37*
G36*
Y-86245D02*
X21528D01*
Y-86286D01*
X21570D01*
Y-86328D01*
X21612D01*
Y-86286D01*
X21570D01*
Y-86245D01*
D02*
G37*
G36*
X19398Y-86579D02*
X19356D01*
Y-86621D01*
X19398D01*
Y-86579D01*
D02*
G37*
G36*
X21779Y-86662D02*
X21737D01*
Y-86704D01*
X21779D01*
Y-86662D01*
D02*
G37*
G36*
X19523Y-86788D02*
X19481D01*
Y-86830D01*
X19523D01*
Y-86788D01*
D02*
G37*
G36*
X19565Y-86871D02*
X19523D01*
Y-86913D01*
X19565D01*
Y-86871D01*
D02*
G37*
G36*
X21779Y-86997D02*
X21737D01*
Y-87038D01*
X21779D01*
Y-86997D01*
D02*
G37*
G36*
X19899Y-87456D02*
X19857D01*
Y-87498D01*
X19899D01*
Y-87456D01*
D02*
G37*
G36*
X19941Y-87749D02*
X19899D01*
Y-87790D01*
X19941D01*
Y-87749D01*
D02*
G37*
G36*
X22197Y-87790D02*
X22155D01*
Y-87832D01*
X22197D01*
Y-87790D01*
D02*
G37*
G36*
X22280Y-87916D02*
X22238D01*
Y-87958D01*
X22280D01*
Y-87916D01*
D02*
G37*
G36*
X22531Y-88375D02*
X22489D01*
Y-88417D01*
X22531D01*
Y-88375D01*
D02*
G37*
G36*
X20609Y-88459D02*
X20567D01*
Y-88501D01*
X20609D01*
Y-88459D01*
D02*
G37*
G36*
X20526D02*
X20484D01*
Y-88501D01*
X20526D01*
Y-88459D01*
D02*
G37*
G36*
X22614Y-88668D02*
X22573D01*
Y-88709D01*
X22614D01*
Y-88668D01*
D02*
G37*
G36*
X20567Y-88709D02*
X20526D01*
Y-88751D01*
X20567D01*
Y-88709D01*
D02*
G37*
G36*
X23032Y-89169D02*
X22990D01*
Y-89211D01*
X23032D01*
Y-89169D01*
D02*
G37*
G36*
X20985D02*
X20943D01*
Y-89211D01*
X20985D01*
Y-89169D01*
D02*
G37*
G36*
X22990Y-89378D02*
X22907D01*
Y-89420D01*
X22990D01*
Y-89378D01*
D02*
G37*
G36*
X23241Y-89461D02*
X23199D01*
Y-89503D01*
X23241D01*
Y-89461D01*
D02*
G37*
G36*
X21403D02*
X21361D01*
Y-89503D01*
X21403D01*
Y-89461D01*
D02*
G37*
G36*
X21319Y-89670D02*
X21278D01*
Y-89712D01*
X21319D01*
Y-89670D01*
D02*
G37*
G36*
X23408Y-89712D02*
X23367D01*
Y-89754D01*
X23408D01*
Y-89712D01*
D02*
G37*
G36*
X23534Y-89879D02*
X23492D01*
Y-89921D01*
X23534D01*
Y-89879D01*
D02*
G37*
G36*
X23826Y-90255D02*
X23784D01*
Y-90297D01*
X23826D01*
Y-90255D01*
D02*
G37*
G36*
X22155Y-90464D02*
X22113D01*
Y-90506D01*
X22155D01*
Y-90464D01*
D02*
G37*
G36*
X22364Y-90631D02*
X22322D01*
Y-90673D01*
X22364D01*
Y-90631D01*
D02*
G37*
G36*
X22322Y-90673D02*
X22280D01*
Y-90715D01*
X22322D01*
Y-90673D01*
D02*
G37*
G36*
X24327Y-90757D02*
X24286D01*
Y-90798D01*
X24327D01*
Y-90757D01*
D02*
G37*
G36*
X22698Y-90924D02*
X22656D01*
Y-90966D01*
X22698D01*
Y-90924D01*
D02*
G37*
G36*
X22740Y-91007D02*
X22698D01*
Y-91049D01*
X22740D01*
Y-91007D01*
D02*
G37*
G36*
X24536Y-91049D02*
X24495D01*
Y-91091D01*
X24536D01*
Y-91049D01*
D02*
G37*
G36*
X23241Y-91133D02*
X23199D01*
Y-91175D01*
X23241D01*
Y-91133D01*
D02*
G37*
G36*
X23367Y-91175D02*
X23325D01*
Y-91216D01*
X23367D01*
Y-91175D01*
D02*
G37*
G36*
X23032D02*
X22990D01*
Y-91216D01*
X23032D01*
Y-91175D01*
D02*
G37*
G36*
X23241Y-91300D02*
X23199D01*
Y-91342D01*
X23241D01*
Y-91300D01*
D02*
G37*
G36*
X24912Y-91425D02*
X24870D01*
Y-91467D01*
X24912D01*
Y-91425D01*
D02*
G37*
G36*
X23283D02*
X23241D01*
Y-91467D01*
X23283D01*
Y-91425D01*
D02*
G37*
G36*
X23450Y-91509D02*
X23408D01*
Y-91550D01*
X23450D01*
Y-91509D01*
D02*
G37*
G36*
X23408Y-91550D02*
X23367D01*
Y-91592D01*
X23408D01*
Y-91550D01*
D02*
G37*
G36*
X23534Y-91592D02*
X23492D01*
Y-91634D01*
X23534D01*
Y-91592D01*
D02*
G37*
G36*
X23742Y-91718D02*
X23701D01*
Y-91759D01*
X23742D01*
Y-91718D01*
D02*
G37*
G36*
X23659D02*
X23617D01*
Y-91759D01*
X23659D01*
Y-91718D01*
D02*
G37*
G36*
X24035Y-91801D02*
X23993D01*
Y-91843D01*
X24035D01*
Y-91801D01*
D02*
G37*
G36*
X23784Y-91843D02*
X23742D01*
Y-91885D01*
X23784D01*
Y-91843D01*
D02*
G37*
G36*
X23910Y-91926D02*
X23868D01*
Y-91968D01*
X23910D01*
Y-91926D01*
D02*
G37*
G36*
X25581Y-91968D02*
X25539D01*
Y-92010D01*
X25581D01*
Y-91968D01*
D02*
G37*
G36*
X24411Y-92219D02*
X24369D01*
Y-92261D01*
X24411D01*
Y-92219D01*
D02*
G37*
G36*
X24536Y-92344D02*
X24495D01*
Y-92386D01*
X24536D01*
Y-92344D01*
D02*
G37*
G36*
X26040Y-92428D02*
X25999D01*
Y-92470D01*
X26040D01*
Y-92428D01*
D02*
G37*
G36*
X25831D02*
X25790D01*
Y-92470D01*
X25831D01*
Y-92428D01*
D02*
G37*
G36*
X25079Y-92470D02*
X25038D01*
Y-92511D01*
X25079D01*
Y-92470D01*
D02*
G37*
G36*
X24996Y-92637D02*
X24954D01*
Y-92678D01*
X24996D01*
Y-92637D01*
D02*
G37*
G36*
X26583Y-92678D02*
X26542D01*
Y-92720D01*
X26583D01*
Y-92678D01*
D02*
G37*
G36*
X26834Y-92887D02*
X26792D01*
Y-92929D01*
X26834D01*
Y-92887D01*
D02*
G37*
G36*
X25455Y-92929D02*
X25414D01*
Y-92971D01*
X25455D01*
Y-92929D01*
D02*
G37*
G36*
X26876Y-92971D02*
X26834D01*
Y-93013D01*
X26876D01*
Y-92971D01*
D02*
G37*
G36*
X26918Y-93096D02*
X26834D01*
Y-93138D01*
X26918D01*
Y-93096D01*
D02*
G37*
G36*
X27127Y-93263D02*
X27085D01*
Y-93305D01*
X27127D01*
Y-93263D01*
D02*
G37*
G36*
X27419Y-93431D02*
X27377D01*
Y-93472D01*
X27419D01*
Y-93431D01*
D02*
G37*
G36*
X27294D02*
X27252D01*
Y-93472D01*
X27294D01*
Y-93431D01*
D02*
G37*
G36*
X26667Y-93472D02*
X26625D01*
Y-93514D01*
X26667D01*
Y-93472D01*
D02*
G37*
G36*
X27043Y-93514D02*
X27001D01*
Y-93556D01*
X27043D01*
Y-93514D01*
D02*
G37*
G36*
X27920Y-93556D02*
X27879D01*
Y-93598D01*
X27920D01*
Y-93556D01*
D02*
G37*
G36*
X27085Y-93639D02*
X27043D01*
Y-93681D01*
X27085D01*
Y-93639D01*
D02*
G37*
G36*
X28380Y-93723D02*
X28338D01*
Y-93765D01*
X28380D01*
Y-93723D01*
D02*
G37*
G36*
X27586Y-93890D02*
X27544D01*
Y-93932D01*
X27586D01*
Y-93890D01*
D02*
G37*
G36*
X28756Y-93974D02*
X28714D01*
Y-94015D01*
X28756D01*
Y-93974D01*
D02*
G37*
G36*
X28464Y-94141D02*
X28422D01*
Y-94183D01*
X28464D01*
Y-94141D01*
D02*
G37*
G36*
X28213D02*
X28171D01*
Y-94183D01*
X28213D01*
Y-94141D01*
D02*
G37*
G36*
X28380Y-94224D02*
X28338D01*
Y-94266D01*
X28380D01*
Y-94224D01*
D02*
G37*
G36*
X29508Y-94308D02*
X29466D01*
Y-94350D01*
X29508D01*
Y-94308D01*
D02*
G37*
G36*
X29257Y-94266D02*
X29215D01*
Y-94308D01*
X29257D01*
Y-94350D01*
X29299D01*
Y-94308D01*
X29257D01*
Y-94266D01*
D02*
G37*
G36*
X28589Y-94308D02*
X28547D01*
Y-94350D01*
X28589D01*
Y-94308D01*
D02*
G37*
G36*
X29174Y-94350D02*
X29132D01*
Y-94392D01*
X29174D01*
Y-94433D01*
X29215D01*
Y-94392D01*
X29174D01*
Y-94350D01*
D02*
G37*
G36*
X29424Y-94517D02*
X29383D01*
Y-94559D01*
X29424D01*
Y-94517D01*
D02*
G37*
G36*
X29257D02*
X29215D01*
Y-94559D01*
X29257D01*
Y-94517D01*
D02*
G37*
G36*
X29299Y-94600D02*
X29257D01*
Y-94642D01*
X29299D01*
Y-94600D01*
D02*
G37*
G36*
X30511Y-94767D02*
X30469D01*
Y-94809D01*
X30511D01*
Y-94767D01*
D02*
G37*
G36*
X29759Y-94809D02*
X29717D01*
Y-94851D01*
X29759D01*
Y-94809D01*
D02*
G37*
G36*
X30427Y-94851D02*
X30385D01*
Y-94893D01*
X30427D01*
Y-94851D01*
D02*
G37*
G36*
X30260Y-94893D02*
X30218D01*
Y-94935D01*
X30260D01*
Y-94893D01*
D02*
G37*
G36*
X30135Y-94935D02*
X30093D01*
Y-94976D01*
X30135D01*
Y-94935D01*
D02*
G37*
G36*
X15428Y-77889D02*
X15387D01*
Y-77931D01*
X15428D01*
Y-77889D01*
D02*
G37*
G36*
X15637D02*
X15596D01*
Y-77931D01*
X15637D01*
Y-77972D01*
X15679D01*
Y-77931D01*
X15637D01*
Y-77889D01*
D02*
G37*
G36*
X15846Y-78014D02*
X15804D01*
Y-78056D01*
X15846D01*
Y-78014D01*
D02*
G37*
G36*
X16139Y-78056D02*
X16097D01*
Y-78098D01*
X16139D01*
Y-78056D01*
D02*
G37*
G36*
X14969D02*
X14927D01*
Y-78098D01*
X14969D01*
Y-78056D01*
D02*
G37*
G36*
X16598Y-78307D02*
X16515D01*
Y-78348D01*
X16598D01*
Y-78307D01*
D02*
G37*
G36*
X16431Y-78390D02*
X16389D01*
Y-78432D01*
X16431D01*
Y-78390D01*
D02*
G37*
G36*
X14718Y-78683D02*
X14676D01*
Y-78724D01*
X14718D01*
Y-78683D01*
D02*
G37*
G36*
X16849Y-78724D02*
X16807D01*
Y-78766D01*
X16849D01*
Y-78724D01*
D02*
G37*
G36*
Y-78808D02*
X16807D01*
Y-78850D01*
X16849D01*
Y-78808D01*
D02*
G37*
G36*
X14551Y-79100D02*
X14509D01*
Y-79142D01*
X14551D01*
Y-79100D01*
D02*
G37*
G36*
X14635Y-79268D02*
X14593D01*
Y-79309D01*
X14635D01*
Y-79268D01*
D02*
G37*
G36*
X14676Y-79393D02*
X14635D01*
Y-79435D01*
X14676D01*
Y-79393D01*
D02*
G37*
G36*
X14635Y-79435D02*
X14593D01*
Y-79476D01*
X14635D01*
Y-79435D01*
D02*
G37*
G36*
X16556Y-79560D02*
X16515D01*
Y-79602D01*
X16556D01*
Y-79560D01*
D02*
G37*
G36*
X14969Y-79769D02*
X14927D01*
Y-79811D01*
X14969D01*
Y-79769D01*
D02*
G37*
G36*
X16181Y-79811D02*
X16139D01*
Y-79852D01*
X16181D01*
Y-79811D01*
D02*
G37*
G36*
X16431Y-79852D02*
X16389D01*
Y-79894D01*
X16431D01*
Y-79852D01*
D02*
G37*
G36*
X16389Y-79894D02*
X16348D01*
Y-79936D01*
X16389D01*
Y-79894D01*
D02*
G37*
G36*
X16264D02*
X16222D01*
Y-79936D01*
X16264D01*
Y-79894D01*
D02*
G37*
G36*
X15094D02*
X15053D01*
Y-79936D01*
X15094D01*
Y-79894D01*
D02*
G37*
G36*
X15261Y-80061D02*
X15220D01*
Y-80103D01*
X15261D01*
Y-80061D01*
D02*
G37*
G36*
X16097Y-83529D02*
X16055D01*
Y-83571D01*
X16097D01*
Y-83529D01*
D02*
G37*
G36*
X16473Y-83696D02*
X16431D01*
Y-83738D01*
X16473D01*
Y-83696D01*
D02*
G37*
G36*
X16598Y-83905D02*
X16556D01*
Y-83947D01*
X16598D01*
Y-83905D01*
D02*
G37*
G36*
X15011D02*
X14969D01*
Y-83947D01*
Y-83988D01*
X15011D01*
Y-83947D01*
Y-83905D01*
D02*
G37*
G36*
X14760Y-84030D02*
X14718D01*
Y-84072D01*
X14760D01*
Y-84030D01*
D02*
G37*
G36*
X16431Y-84072D02*
X16389D01*
Y-84114D01*
X16431D01*
Y-84072D01*
D02*
G37*
G36*
X14718Y-84364D02*
X14635D01*
Y-84406D01*
X14718D01*
Y-84364D01*
D02*
G37*
G36*
X14551Y-84448D02*
X14509D01*
Y-84490D01*
X14551D01*
Y-84448D01*
D02*
G37*
G36*
X16849Y-84699D02*
X16807D01*
Y-84741D01*
X16849D01*
Y-84699D01*
D02*
G37*
G36*
X14676Y-84949D02*
X14635D01*
Y-84991D01*
X14676D01*
Y-85033D01*
X14718D01*
Y-84991D01*
X14676D01*
Y-84949D01*
D02*
G37*
G36*
X16598Y-85242D02*
X16556D01*
Y-85284D01*
X16598D01*
Y-85242D01*
D02*
G37*
G36*
X14676D02*
X14635D01*
Y-85284D01*
X14676D01*
Y-85242D01*
D02*
G37*
G36*
X15345Y-85451D02*
X15303D01*
Y-85492D01*
X15345D01*
Y-85451D01*
D02*
G37*
G36*
X16348D02*
X16306D01*
Y-85492D01*
Y-85534D01*
X16348D01*
Y-85492D01*
Y-85451D01*
D02*
G37*
G36*
X15261Y-85492D02*
X15220D01*
Y-85534D01*
X15261D01*
Y-85492D01*
D02*
G37*
G36*
X15053Y-85451D02*
X15011D01*
Y-85492D01*
X15053D01*
Y-85534D01*
X15094D01*
Y-85492D01*
X15053D01*
Y-85451D01*
D02*
G37*
G36*
X16181Y-85534D02*
X16139D01*
Y-85576D01*
X16181D01*
Y-85534D01*
D02*
G37*
%LPD*%
D10*
X163386Y-141732D02*
Y-133858D01*
Y-141732D02*
X166142D01*
X163386Y-133858D02*
X166142D01*
X174803D02*
X177559D01*
X174803Y-141732D02*
X177559D01*
Y-133858D01*
X151772Y-199213D02*
Y-196850D01*
X148425D02*
X151772D01*
X139567Y-199213D02*
Y-196850D01*
X142913D01*
X97638Y-156693D02*
X107087D01*
X97638Y-222835D02*
X107087D01*
X97638D02*
Y-156693D01*
X107087Y-222835D02*
Y-156693D01*
X212598Y-125197D02*
Y-117717D01*
X209842D02*
X212598D01*
Y-125591D02*
Y-125197D01*
X209842Y-125591D02*
X212598D01*
X198425D02*
Y-117717D01*
X201181D01*
X198425Y-125591D02*
X201181D01*
X212598Y-101969D02*
Y-94488D01*
X209842D02*
X212598D01*
Y-102362D02*
Y-101969D01*
X209842Y-102362D02*
X212598D01*
X198425D02*
Y-94488D01*
X201181D01*
X198425Y-102362D02*
X201181D01*
X199213Y-214961D02*
X218898D01*
Y-132677D01*
X199213D02*
X218898D01*
X199213Y-214961D02*
Y-132677D01*
Y-197638D02*
X218898D01*
X49213Y-128347D02*
X58661D01*
Y-153150D02*
Y-128347D01*
X49213Y-153150D02*
Y-128347D01*
Y-153150D02*
X58661D01*
X129528Y-192913D02*
X137402D01*
X129528Y-195669D02*
Y-192913D01*
X137402Y-195669D02*
Y-192913D01*
Y-207087D02*
Y-204331D01*
X129528Y-207087D02*
Y-204331D01*
Y-207087D02*
X137402D01*
X138583Y-216142D02*
Y-208268D01*
Y-216142D02*
X141339D01*
X138583Y-208268D02*
X141339D01*
X150000D02*
X152756D01*
X150000Y-216142D02*
X152756D01*
Y-208268D01*
X155512Y-172047D02*
Y-164173D01*
Y-172047D02*
X158268D01*
X155512Y-164173D02*
X158268D01*
X166929D02*
X169685D01*
X166929Y-172047D02*
X169685D01*
Y-164173D01*
X143701Y-172047D02*
Y-164173D01*
X140945D02*
X143701D01*
X140945Y-172047D02*
X143701D01*
X129528D02*
X132283D01*
X129528Y-164173D02*
X132283D01*
X129528Y-172047D02*
Y-164173D01*
X46457Y-177559D02*
Y-169685D01*
Y-177559D02*
X49213D01*
X46457Y-169685D02*
X49213D01*
X57874D02*
X60630D01*
X57874Y-177559D02*
X60630D01*
Y-169685D01*
X234055Y-83661D02*
X244291D01*
Y-41535D01*
X234055D02*
X244291D01*
X143701Y-162205D02*
Y-154331D01*
X140945D02*
X143701D01*
X140945Y-162205D02*
X143701D01*
X129528D02*
X132283D01*
X129528Y-154331D02*
X132283D01*
X129528Y-162205D02*
Y-154331D01*
X155512Y-162205D02*
Y-154331D01*
Y-162205D02*
X158268D01*
X155512Y-154331D02*
X158268D01*
X166929D02*
X169685D01*
X166929Y-162205D02*
X169685D01*
Y-154331D01*
X189370Y-214173D02*
Y-212992D01*
X174016D02*
X189370D01*
X174016Y-224803D02*
X189370D01*
Y-223622D01*
X177953Y-224803D02*
Y-223622D01*
Y-214173D02*
Y-212992D01*
X168504Y-197244D02*
Y-189370D01*
X165748Y-197244D02*
X168504D01*
X165748Y-189370D02*
X168504D01*
X154331D02*
X157087D01*
X154331Y-197244D02*
X157087D01*
X154331D02*
Y-189370D01*
X168504Y-216142D02*
Y-208268D01*
X165748Y-216142D02*
X168504D01*
X165748Y-208268D02*
X168504D01*
X154331D02*
X157087D01*
X154331Y-216142D02*
X157087D01*
X154331D02*
Y-208268D01*
X168504Y-206693D02*
Y-198819D01*
X165748Y-206693D02*
X168504D01*
X165748Y-198819D02*
X168504D01*
X154331D02*
X157087D01*
X154331Y-206693D02*
X157087D01*
X154331D02*
Y-198819D01*
X181689Y-182236D02*
Y-145236D01*
X115879Y-182236D02*
Y-145236D01*
Y-182236D02*
X181689D01*
X115879Y-145236D02*
X181689D01*
X194716Y-128348D02*
Y-98018D01*
X117323D02*
X194716D01*
X117323Y-128348D02*
X194716D01*
X117323D02*
Y-98018D01*
X100000Y-225590D02*
Y-224147D01*
Y-224869D01*
X104329D01*
X103608Y-225590D01*
X56299Y-125591D02*
Y-127034D01*
Y-126312D01*
X51970D01*
X52691Y-125591D01*
X84252Y-219685D02*
Y-218242D01*
Y-218964D01*
X88581D01*
X87860Y-219685D01*
X6431Y-132941D02*
X7087Y-132285D01*
X8399D01*
X9055Y-132941D01*
Y-135564D01*
X8399Y-136221D01*
X7087D01*
X6431Y-135564D01*
X3151Y-132285D02*
X4463D01*
X5119Y-132941D01*
Y-135564D01*
X4463Y-136221D01*
X3151D01*
X2496Y-135564D01*
Y-132941D01*
X3151Y-132285D01*
X1184Y-136221D02*
Y-132285D01*
X-128Y-133597D01*
X-1440Y-132285D01*
Y-136221D01*
X44620Y-136484D02*
X45276Y-135828D01*
X46588D01*
X47244Y-136484D01*
Y-139108D01*
X46588Y-139764D01*
X45276D01*
X44620Y-139108D01*
X41341Y-135828D02*
X42652D01*
X43308Y-136484D01*
Y-139108D01*
X42652Y-139764D01*
X41341D01*
X40685Y-139108D01*
Y-136484D01*
X41341Y-135828D01*
X39373Y-139764D02*
Y-135828D01*
X38061Y-137140D01*
X36749Y-135828D01*
Y-139764D01*
X102888Y-137665D02*
X103544Y-137009D01*
X104856D01*
X105512Y-137665D01*
Y-140289D01*
X104856Y-140945D01*
X103544D01*
X102888Y-140289D01*
Y-138977D01*
X104200D01*
X101576Y-140945D02*
Y-137009D01*
X98952Y-140945D01*
Y-137009D01*
X97640D02*
Y-140945D01*
X95673D01*
X95016Y-140289D01*
Y-137665D01*
X95673Y-137009D01*
X97640D01*
X135433Y-87795D02*
X133990D01*
X134712D01*
Y-83466D01*
X135433Y-84188D01*
X200787Y-87795D02*
X199344D01*
X200066D01*
Y-83466D01*
X200787Y-84188D01*
X197180Y-87795D02*
X195737D01*
X196458D01*
Y-83466D01*
X197180Y-84188D01*
X60236Y-182677D02*
Y-179135D01*
X58465D01*
X57875Y-179725D01*
Y-180906D01*
X58465Y-181497D01*
X60236D01*
X59056D02*
X57875Y-182677D01*
X54333Y-179725D02*
X54923Y-179135D01*
X56104D01*
X56694Y-179725D01*
Y-180316D01*
X56104Y-180906D01*
X54923D01*
X54333Y-181497D01*
Y-182087D01*
X54923Y-182677D01*
X56104D01*
X56694Y-182087D01*
X53152Y-179135D02*
Y-179725D01*
X51971Y-180906D01*
X50791Y-179725D01*
Y-179135D01*
X51971Y-180906D02*
Y-182677D01*
X49610D02*
Y-179135D01*
X47248Y-182677D01*
Y-179135D01*
X43706Y-179725D02*
X44297Y-179135D01*
X45477D01*
X46068Y-179725D01*
Y-182087D01*
X45477Y-182677D01*
X44297D01*
X43706Y-182087D01*
X273819Y-35433D02*
Y1575D01*
X-7087Y-272756D02*
X70866D01*
Y-229842D01*
X265748Y-84646D02*
Y-35433D01*
X209842Y-229842D02*
X229724D01*
Y-84646D01*
X265748D01*
X102977Y-229842D02*
X170669D01*
X265748Y-35433D02*
X273819D01*
X209842Y-245591D02*
Y-229842D01*
X170669Y-245591D02*
X209842D01*
X170669D02*
Y-229842D01*
X44882Y1575D02*
Y13780D01*
X25000D02*
X44882D01*
X25000Y1181D02*
Y13780D01*
X70866Y-229842D02*
X102977D01*
X-7087Y-272756D02*
Y-68898D01*
Y1181D02*
X25000D01*
X-7087Y-33465D02*
Y1181D01*
X-18898Y-33465D02*
X-7087D01*
X-18898Y-68898D02*
Y-33465D01*
Y-68898D02*
X-7087D01*
X44882Y1575D02*
X113386D01*
X218898D02*
X273819D01*
X113386Y-6299D02*
Y1575D01*
Y-6299D02*
X218898D01*
Y1575D01*
D11*
X24098Y-38181D02*
G03*
X24098Y-38181I-787J0D01*
G01*
D12*
X24789Y-35932D02*
G03*
X24678Y-40578I-1525J-2288D01*
G01*
X24811Y-38181D02*
X30311D01*
X14811D02*
X20311D01*
X8311D02*
X11811D01*
X33561D02*
X37061D01*
X35311Y-39931D02*
Y-36431D01*
X161417Y-30709D02*
Y-26773D01*
X159450D01*
X158793Y-27429D01*
Y-28741D01*
X159450Y-29397D01*
X161417D01*
X160105D02*
X158793Y-30709D01*
X154858Y-27429D02*
X155514Y-26773D01*
X156826D01*
X157482Y-27429D01*
Y-30053D01*
X156826Y-30709D01*
X155514D01*
X154858Y-30053D01*
X153546Y-30709D02*
Y-28085D01*
X152234Y-26773D01*
X150922Y-28085D01*
Y-30709D01*
Y-28741D01*
X153546D01*
X149610Y-31365D02*
X146986D01*
X145674Y-26773D02*
Y-29397D01*
X144362Y-30709D01*
X143051Y-29397D01*
Y-26773D01*
X188976Y-30315D02*
Y-26379D01*
X187009D01*
X186353Y-27035D01*
Y-28347D01*
X187009Y-29003D01*
X188976D01*
X187664D02*
X186353Y-30315D01*
X182417Y-27035D02*
X183073Y-26379D01*
X184385D01*
X185041Y-27035D01*
Y-29659D01*
X184385Y-30315D01*
X183073D01*
X182417Y-29659D01*
X181105Y-30315D02*
Y-27691D01*
X179793Y-26379D01*
X178481Y-27691D01*
Y-30315D01*
Y-28347D01*
X181105D01*
X177169Y-30971D02*
X174545D01*
X173233Y-30315D02*
Y-27691D01*
X171922Y-26379D01*
X170610Y-27691D01*
Y-30315D01*
Y-28347D01*
X173233D01*
X197638Y-146457D02*
Y-141734D01*
X195276D01*
X194489Y-142521D01*
Y-144095D01*
X195276Y-144882D01*
X197638D01*
X189766Y-142521D02*
X190553Y-141734D01*
X192128D01*
X192915Y-142521D01*
Y-143308D01*
X192128Y-144095D01*
X190553D01*
X189766Y-144882D01*
Y-145669D01*
X190553Y-146457D01*
X192128D01*
X192915Y-145669D01*
X188192Y-146457D02*
X186618D01*
X187405D01*
Y-141734D01*
X188192Y-142521D01*
X197283Y-162000D02*
Y-157277D01*
X194922D01*
X194135Y-158064D01*
Y-159639D01*
X194922Y-160426D01*
X197283D01*
X189412Y-158064D02*
X190199Y-157277D01*
X191773D01*
X192561Y-158064D01*
Y-158851D01*
X191773Y-159639D01*
X190199D01*
X189412Y-160426D01*
Y-161213D01*
X190199Y-162000D01*
X191773D01*
X192561Y-161213D01*
X184689Y-162000D02*
X187838D01*
X184689Y-158851D01*
Y-158064D01*
X185476Y-157277D01*
X187051D01*
X187838Y-158064D01*
X197283Y-173277D02*
Y-176426D01*
X195709Y-178000D01*
X194135Y-176426D01*
Y-173277D01*
X189412Y-174851D02*
X191773D01*
X192561Y-175639D01*
Y-177213D01*
X191773Y-178000D01*
X189412D01*
X184689Y-174851D02*
X187051D01*
X187838Y-175639D01*
Y-177213D01*
X187051Y-178000D01*
X184689D01*
X192783Y-193500D02*
Y-188777D01*
X190422D01*
X189635Y-189564D01*
Y-191139D01*
X190422Y-191926D01*
X192783D01*
X188061Y-193500D02*
Y-190351D01*
X186486Y-188777D01*
X184912Y-190351D01*
Y-193500D01*
Y-191139D01*
X188061D01*
X192783Y-208000D02*
Y-203277D01*
X190422D01*
X189635Y-204064D01*
Y-205639D01*
X190422Y-206426D01*
X192783D01*
X188061Y-203277D02*
Y-206426D01*
X186486Y-208000D01*
X184912Y-206426D01*
Y-203277D01*
X161811Y-139764D02*
Y-135828D01*
X159843D01*
X159187Y-136484D01*
Y-137796D01*
X159843Y-138452D01*
X161811D01*
X160499D02*
X159187Y-139764D01*
X157875D02*
Y-135828D01*
X156563Y-137140D01*
X155252Y-135828D01*
Y-139764D01*
X151972Y-135828D02*
X153284D01*
X153940Y-136484D01*
Y-139108D01*
X153284Y-139764D01*
X151972D01*
X151316Y-139108D01*
Y-136484D01*
X151972Y-135828D01*
X150004Y-139764D02*
Y-135828D01*
X147380Y-139764D01*
Y-135828D01*
X144100D02*
X145412D01*
X146068Y-136484D01*
Y-139108D01*
X145412Y-139764D01*
X144100D01*
X143444Y-139108D01*
Y-136484D01*
X144100Y-135828D01*
X145933Y-190223D02*
Y-187337D01*
X146654Y-186616D01*
X148097D01*
X148819Y-187337D01*
Y-190223D01*
X148097Y-190945D01*
X146654D01*
X147376Y-189502D02*
X145933Y-190945D01*
X146654D02*
X145933Y-190223D01*
X144490Y-190945D02*
X143046D01*
X143768D01*
Y-186616D01*
X144490Y-187337D01*
X103413Y-150789D02*
X104856D01*
X104135D01*
Y-154397D01*
X104856Y-155118D01*
X105578D01*
X106299Y-154397D01*
X101970Y-151510D02*
X101248Y-150789D01*
X99805D01*
X99084Y-151510D01*
Y-152232D01*
X99805Y-152953D01*
X100527D01*
X99805D01*
X99084Y-153675D01*
Y-154397D01*
X99805Y-155118D01*
X101248D01*
X101970Y-154397D01*
X219948Y-120408D02*
X220670Y-119686D01*
X222113D01*
X222835Y-120408D01*
Y-123294D01*
X222113Y-124016D01*
X220670D01*
X219948Y-123294D01*
X215619Y-119686D02*
X218505D01*
Y-121851D01*
X217062Y-121130D01*
X216341D01*
X215619Y-121851D01*
Y-123294D01*
X216341Y-124016D01*
X217784D01*
X218505Y-123294D01*
X219949Y-97180D02*
X220670Y-96458D01*
X222113D01*
X222835Y-97180D01*
Y-100066D01*
X222113Y-100787D01*
X220670D01*
X219949Y-100066D01*
X215619Y-96458D02*
X217062Y-97180D01*
X218505Y-98623D01*
Y-100066D01*
X217784Y-100787D01*
X216341D01*
X215619Y-100066D01*
Y-99344D01*
X216341Y-98623D01*
X218505D01*
X210893Y-217324D02*
X212336D01*
X211615D01*
Y-220932D01*
X212336Y-221654D01*
X213058D01*
X213779Y-220932D01*
X206564Y-221654D02*
X209450D01*
X206564Y-218767D01*
Y-218046D01*
X207286Y-217324D01*
X208729D01*
X209450Y-218046D01*
X54988Y-155120D02*
X56431D01*
X55709D01*
Y-158727D01*
X56431Y-159449D01*
X57152D01*
X57874Y-158727D01*
X51380Y-159449D02*
Y-155120D01*
X53545Y-157284D01*
X50659D01*
X127953Y-196850D02*
X123624D01*
Y-199015D01*
X124345Y-199737D01*
X125788D01*
X126510Y-199015D01*
Y-196850D01*
Y-198293D02*
X127953Y-199737D01*
X123624Y-204066D02*
Y-201180D01*
X125788D01*
X125067Y-202623D01*
Y-203344D01*
X125788Y-204066D01*
X127231D01*
X127953Y-203344D01*
Y-201901D01*
X127231Y-201180D01*
X148819Y-221654D02*
Y-217324D01*
X146654D01*
X145933Y-218046D01*
Y-219489D01*
X146654Y-220210D01*
X148819D01*
X147376D02*
X145933Y-221654D01*
X142325D02*
Y-217324D01*
X144490Y-219489D01*
X141603D01*
X176772Y-178740D02*
Y-174804D01*
X174804D01*
X174148Y-175460D01*
Y-176772D01*
X174804Y-177428D01*
X176772D01*
X175460D02*
X174148Y-178740D01*
X170212Y-174804D02*
X171524D01*
X170868D01*
Y-178084D01*
X171524Y-178740D01*
X172180D01*
X172836Y-178084D01*
X168900Y-178740D02*
Y-176116D01*
X167588Y-174804D01*
X166276Y-176116D01*
Y-178740D01*
Y-176772D01*
X168900D01*
X164964D02*
X162341D01*
X161029Y-174804D02*
X159717D01*
X160373D01*
Y-178740D01*
X161029D01*
X159717D01*
X157749D02*
Y-174804D01*
X155125Y-178740D01*
Y-174804D01*
X153813D02*
X151189D01*
X152501D01*
Y-178740D01*
X146850D02*
Y-174804D01*
X144883D01*
X144227Y-175460D01*
Y-176772D01*
X144883Y-177428D01*
X146850D01*
X145538D02*
X144227Y-178740D01*
X140291Y-174804D02*
X141603D01*
X140947D01*
Y-178084D01*
X141603Y-178740D01*
X142259D01*
X142915Y-178084D01*
X138979Y-174804D02*
Y-177428D01*
X137667Y-178740D01*
X136355Y-177428D01*
Y-174804D01*
X135043Y-176772D02*
X132419D01*
X131107Y-174804D02*
X129796D01*
X130452D01*
Y-178740D01*
X131107D01*
X129796D01*
X127828D02*
Y-174804D01*
X125204Y-178740D01*
Y-174804D01*
X123892D02*
X121268D01*
X122580D01*
Y-178740D01*
X232283Y-35828D02*
Y-39436D01*
X231562Y-40157D01*
X230119D01*
X229397Y-39436D01*
Y-35828D01*
X227954Y-40157D02*
X226511D01*
X227233D01*
Y-35828D01*
X227954Y-36550D01*
X186620Y-120683D02*
Y-123569D01*
X185177Y-125012D01*
X183734Y-123569D01*
Y-120683D01*
X182291Y-125012D02*
X180848D01*
X181570D01*
Y-122126D01*
X182291D01*
X175797Y-120683D02*
Y-125012D01*
X177962D01*
X178683Y-124291D01*
Y-122847D01*
X177962Y-122126D01*
X175797D01*
X172189Y-125012D02*
X173632D01*
X174354Y-124291D01*
Y-122847D01*
X173632Y-122126D01*
X172189D01*
X171468Y-122847D01*
Y-123569D01*
X174354D01*
X169303Y-125012D02*
X167860D01*
X167138Y-124291D01*
Y-122847D01*
X167860Y-122126D01*
X169303D01*
X170025Y-122847D01*
Y-124291D01*
X169303Y-125012D01*
X146850Y-151969D02*
Y-148033D01*
X144883D01*
X144227Y-148689D01*
Y-150001D01*
X144883Y-150657D01*
X146850D01*
X145538D02*
X144227Y-151969D01*
X140291Y-148033D02*
X141603D01*
X140947D01*
Y-151312D01*
X141603Y-151969D01*
X142259D01*
X142915Y-151312D01*
X138979Y-148033D02*
Y-150657D01*
X137667Y-151969D01*
X136355Y-150657D01*
Y-148033D01*
X135043Y-150001D02*
X132419D01*
X128484Y-148033D02*
X131107D01*
Y-151969D01*
X128484D01*
X131107Y-150001D02*
X129796D01*
X127172Y-148033D02*
X124548Y-151969D01*
Y-148033D02*
X127172Y-151969D01*
X123236Y-148033D02*
X120612D01*
X121924D01*
Y-151969D01*
X176772D02*
Y-148033D01*
X174804D01*
X174148Y-148689D01*
Y-150001D01*
X174804Y-150657D01*
X176772D01*
X175460D02*
X174148Y-151969D01*
X170212Y-148033D02*
X171524D01*
X170868D01*
Y-151312D01*
X171524Y-151969D01*
X172180D01*
X172836Y-151312D01*
X168900Y-151969D02*
Y-149345D01*
X167588Y-148033D01*
X166276Y-149345D01*
Y-151969D01*
Y-150001D01*
X168900D01*
X164964D02*
X162341D01*
X158405Y-148033D02*
X161029D01*
Y-151969D01*
X158405D01*
X161029Y-150001D02*
X159717D01*
X157093Y-148033D02*
X154469Y-151969D01*
Y-148033D02*
X157093Y-151969D01*
X153157Y-148033D02*
X150533D01*
X151845D01*
Y-151969D01*
X182941Y-227888D02*
X183662Y-227167D01*
X185105D01*
X185827Y-227888D01*
Y-230774D01*
X185105Y-231496D01*
X183662D01*
X182941Y-230774D01*
X181498Y-227888D02*
X180776Y-227167D01*
X179333D01*
X178611Y-227888D01*
Y-228610D01*
X179333Y-229331D01*
X178611Y-230053D01*
Y-230774D01*
X179333Y-231496D01*
X180776D01*
X181498Y-230774D01*
Y-230053D01*
X180776Y-229331D01*
X181498Y-228610D01*
Y-227888D01*
X180776Y-229331D02*
X179333D01*
X177559Y-195669D02*
Y-191340D01*
X175394D01*
X174673Y-192061D01*
Y-193505D01*
X175394Y-194226D01*
X177559D01*
X176116D02*
X174673Y-195669D01*
X170343D02*
X173230D01*
X170343Y-192783D01*
Y-192061D01*
X171065Y-191340D01*
X172508D01*
X173230Y-192061D01*
X164173Y-222441D02*
Y-218112D01*
X162009D01*
X161287Y-218833D01*
Y-220276D01*
X162009Y-220998D01*
X164173D01*
X162730D02*
X161287Y-222441D01*
X159844D02*
X158401D01*
X159122D01*
Y-218112D01*
X159844Y-218833D01*
X177559Y-205118D02*
Y-200789D01*
X175394D01*
X174673Y-201510D01*
Y-202953D01*
X175394Y-203675D01*
X177559D01*
X176116D02*
X174673Y-205118D01*
X173230Y-201510D02*
X172508Y-200789D01*
X171065D01*
X170343Y-201510D01*
Y-202232D01*
X171065Y-202953D01*
X171787D01*
X171065D01*
X170343Y-203675D01*
Y-204397D01*
X171065Y-205118D01*
X172508D01*
X173230Y-204397D01*
X192564Y-115118D02*
Y-112495D01*
X191252Y-111183D01*
X189940Y-112495D01*
Y-115118D01*
Y-113151D01*
X192564D01*
X188628Y-112495D02*
Y-114462D01*
X187972Y-115118D01*
X186004D01*
Y-112495D01*
X182069Y-111183D02*
Y-115118D01*
X184036D01*
X184692Y-114462D01*
Y-113151D01*
X184036Y-112495D01*
X182069D01*
X180757Y-115118D02*
X179445D01*
X180101D01*
Y-112495D01*
X180757D01*
X176821Y-115118D02*
X175509D01*
X174853Y-114462D01*
Y-113151D01*
X175509Y-112495D01*
X176821D01*
X177477Y-113151D01*
Y-114462D01*
X176821Y-115118D01*
X173541Y-115774D02*
X170917D01*
X169605Y-115118D02*
Y-111183D01*
X167638D01*
X166981Y-111839D01*
Y-113151D01*
X167638Y-113806D01*
X169605D01*
X168293D02*
X166981Y-115118D01*
X192564Y-105108D02*
Y-102484D01*
X191252Y-101172D01*
X189940Y-102484D01*
Y-105108D01*
Y-103140D01*
X192564D01*
X188628Y-102484D02*
Y-104452D01*
X187972Y-105108D01*
X186004D01*
Y-102484D01*
X182069Y-101172D02*
Y-105108D01*
X184036D01*
X184692Y-104452D01*
Y-103140D01*
X184036Y-102484D01*
X182069D01*
X180757Y-105108D02*
X179445D01*
X180101D01*
Y-102484D01*
X180757D01*
X176821Y-105108D02*
X175509D01*
X174853Y-104452D01*
Y-103140D01*
X175509Y-102484D01*
X176821D01*
X177477Y-103140D01*
Y-104452D01*
X176821Y-105108D01*
X173541Y-105764D02*
X170917D01*
X169605Y-101172D02*
Y-105108D01*
X166981D01*
X143106Y-105268D02*
Y-100938D01*
X140941D01*
X140220Y-101660D01*
Y-103103D01*
X140941Y-103825D01*
X143106D01*
X141663D02*
X140220Y-105268D01*
X135890Y-101660D02*
X136612Y-100938D01*
X138055D01*
X138777Y-101660D01*
Y-104546D01*
X138055Y-105268D01*
X136612D01*
X135890Y-104546D01*
X134447Y-105268D02*
Y-102382D01*
X133004Y-100938D01*
X131561Y-102382D01*
Y-105268D01*
Y-103103D01*
X134447D01*
X130118Y-105989D02*
X127232D01*
X125789Y-105268D02*
Y-102382D01*
X124346Y-100938D01*
X122903Y-102382D01*
Y-105268D01*
Y-103103D01*
X125789D01*
X143106Y-114953D02*
Y-110624D01*
X140941D01*
X140220Y-111345D01*
Y-112788D01*
X140941Y-113510D01*
X143106D01*
X141663D02*
X140220Y-114953D01*
X135890Y-111345D02*
X136612Y-110624D01*
X138055D01*
X138777Y-111345D01*
Y-114231D01*
X138055Y-114953D01*
X136612D01*
X135890Y-114231D01*
X134447Y-114953D02*
Y-112067D01*
X133004Y-110624D01*
X131561Y-112067D01*
Y-114953D01*
Y-112788D01*
X134447D01*
X130118Y-115674D02*
X127232D01*
X125789Y-110624D02*
Y-113510D01*
X124346Y-114953D01*
X122903Y-113510D01*
Y-110624D01*
X89634Y-150789D02*
X91077D01*
X90355D01*
Y-154397D01*
X91077Y-155118D01*
X91798D01*
X92520Y-154397D01*
X88190Y-151510D02*
X87469Y-150789D01*
X86026D01*
X85304Y-151510D01*
Y-152232D01*
X86026Y-152954D01*
X86747D01*
X86026D01*
X85304Y-153675D01*
Y-154397D01*
X86026Y-155118D01*
X87469D01*
X88190Y-154397D01*
X83861Y-155118D02*
Y-152232D01*
X82418Y-150789D01*
X80975Y-152232D01*
Y-155118D01*
Y-152954D01*
X83861D01*
D83*
X257973Y-48366D02*
G03*
X257973Y-48366I-492J0D01*
G01*
D84*
X77429Y-172179D02*
X77953Y-171655D01*
X79003D01*
X79528Y-172179D01*
Y-174278D01*
X79003Y-174803D01*
X77953D01*
X77429Y-174278D01*
X74280Y-172179D02*
X74805Y-171655D01*
X75854D01*
X76379Y-172179D01*
Y-172704D01*
X75854Y-173229D01*
X74805D01*
X74280Y-173754D01*
Y-174278D01*
X74805Y-174803D01*
X75854D01*
X76379Y-174278D01*
X73230Y-172704D02*
Y-174278D01*
X72706Y-174803D01*
X71131D01*
Y-175328D01*
X71656Y-175853D01*
X72181D01*
X71131Y-174803D02*
Y-172704D01*
X70082Y-174803D02*
Y-172704D01*
X68507D01*
X67983Y-173229D01*
Y-174803D01*
X64834Y-172704D02*
X66408D01*
X66933Y-173229D01*
Y-174278D01*
X66408Y-174803D01*
X64834D01*
X77429Y-162337D02*
X77953Y-161812D01*
X79003D01*
X79528Y-162337D01*
Y-164436D01*
X79003Y-164961D01*
X77953D01*
X77429Y-164436D01*
Y-163386D01*
X78478D01*
X76379Y-164961D02*
Y-161812D01*
X74280Y-164961D01*
Y-161812D01*
X73230D02*
Y-164961D01*
X71656D01*
X71131Y-164436D01*
Y-162337D01*
X71656Y-161812D01*
X73230D01*
X77429Y-167061D02*
X77953Y-166536D01*
X79003D01*
X79528Y-167061D01*
Y-169160D01*
X79003Y-169685D01*
X77953D01*
X77429Y-169160D01*
Y-168111D01*
X78478D01*
X76379Y-169685D02*
Y-166536D01*
X74280Y-169685D01*
Y-166536D01*
X73230D02*
Y-169685D01*
X71656D01*
X71131Y-169160D01*
Y-167061D01*
X71656Y-166536D01*
X73230D01*
X79528Y-179921D02*
Y-176773D01*
X77953D01*
X77429Y-177297D01*
Y-178347D01*
X77953Y-178872D01*
X79528D01*
X78478D02*
X77429Y-179921D01*
X74805D02*
X75854D01*
X76379Y-179396D01*
Y-178347D01*
X75854Y-177822D01*
X74805D01*
X74280Y-178347D01*
Y-178872D01*
X76379D01*
X71131Y-176773D02*
Y-179921D01*
X72706D01*
X73230Y-179396D01*
Y-178347D01*
X72706Y-177822D01*
X71131D01*
X79528Y-186615D02*
Y-189764D01*
X77953D01*
X77429Y-189239D01*
Y-188714D01*
X77953Y-188189D01*
X79528D01*
X77953D01*
X77429Y-187665D01*
Y-187140D01*
X77953Y-186615D01*
X79528D01*
X76379Y-189764D02*
X75329D01*
X75854D01*
Y-186615D01*
X76379D01*
X73755Y-187665D02*
Y-189239D01*
X73230Y-189764D01*
X71656D01*
Y-187665D01*
X69032Y-189764D02*
X70082D01*
X70607Y-189239D01*
Y-188189D01*
X70082Y-187665D01*
X69032D01*
X68507Y-188189D01*
Y-188714D01*
X70607D01*
X77429Y-182022D02*
X77953Y-181497D01*
X79003D01*
X79528Y-182022D01*
Y-184121D01*
X79003Y-184646D01*
X77953D01*
X77429Y-184121D01*
Y-183071D01*
X78478D01*
X76379Y-182547D02*
Y-184646D01*
Y-183596D01*
X75854Y-183071D01*
X75329Y-182547D01*
X74805D01*
X71656Y-184646D02*
X72706D01*
X73230Y-184121D01*
Y-183071D01*
X72706Y-182547D01*
X71656D01*
X71131Y-183071D01*
Y-183596D01*
X73230D01*
X68507Y-184646D02*
X69557D01*
X70082Y-184121D01*
Y-183071D01*
X69557Y-182547D01*
X68507D01*
X67983Y-183071D01*
Y-183596D01*
X70082D01*
X66933Y-184646D02*
Y-182547D01*
X65359D01*
X64834Y-183071D01*
Y-184646D01*
X77429Y-192258D02*
X77953Y-191733D01*
X79003D01*
X79528Y-192258D01*
Y-194357D01*
X79003Y-194882D01*
X77953D01*
X77429Y-194357D01*
X75854Y-194882D02*
X74805D01*
X74280Y-194357D01*
Y-193308D01*
X74805Y-192783D01*
X75854D01*
X76379Y-193308D01*
Y-194357D01*
X75854Y-194882D01*
X73230D02*
Y-192783D01*
X72706D01*
X72181Y-193308D01*
Y-194882D01*
Y-193308D01*
X71656Y-192783D01*
X71131Y-193308D01*
Y-194882D01*
X70082Y-195931D02*
Y-192783D01*
X68507D01*
X67983Y-193308D01*
Y-194357D01*
X68507Y-194882D01*
X70082D01*
X79528Y-196851D02*
Y-200000D01*
X77429D01*
X76379Y-197901D02*
Y-199475D01*
X75854Y-200000D01*
X74280D01*
Y-197901D01*
X73230Y-200000D02*
Y-197901D01*
X72706D01*
X72181Y-198426D01*
Y-200000D01*
Y-198426D01*
X71656Y-197901D01*
X71131Y-198426D01*
Y-200000D01*
X69557Y-197901D02*
X68507D01*
X67983Y-198426D01*
Y-200000D01*
X69557D01*
X70082Y-199475D01*
X69557Y-198951D01*
X67983D01*
X77429Y-202101D02*
X77953Y-201576D01*
X79003D01*
X79528Y-202101D01*
Y-204200D01*
X79003Y-204724D01*
X77953D01*
X77429Y-204200D01*
X76379Y-201576D02*
Y-204724D01*
Y-203150D01*
X75854Y-202625D01*
X74805D01*
X74280Y-203150D01*
Y-204724D01*
X73230Y-202625D02*
Y-204724D01*
Y-203675D01*
X72706Y-203150D01*
X72181Y-202625D01*
X71656D01*
X69557Y-204724D02*
X68507D01*
X67983Y-204200D01*
Y-203150D01*
X68507Y-202625D01*
X69557D01*
X70082Y-203150D01*
Y-204200D01*
X69557Y-204724D01*
X66933D02*
Y-202625D01*
X66408D01*
X65884Y-203150D01*
Y-204724D01*
Y-203150D01*
X65359Y-202625D01*
X64834Y-203150D01*
Y-204724D01*
X63260Y-202625D02*
X62210D01*
X61686Y-203150D01*
Y-204724D01*
X63260D01*
X63785Y-204200D01*
X63260Y-203675D01*
X61686D01*
X77429Y-207219D02*
X77953Y-206694D01*
X79003D01*
X79528Y-207219D01*
Y-209318D01*
X79003Y-209842D01*
X77953D01*
X77429Y-209318D01*
Y-208268D01*
X78478D01*
X76379Y-209842D02*
Y-206694D01*
X74280Y-209842D01*
Y-206694D01*
X73230D02*
Y-209842D01*
X71656D01*
X71131Y-209318D01*
Y-207219D01*
X71656Y-206694D01*
X73230D01*
X79528Y-214961D02*
Y-212862D01*
X78478Y-211812D01*
X77429Y-212862D01*
Y-214961D01*
Y-213386D01*
X79528D01*
X76379Y-212862D02*
Y-214436D01*
X75854Y-214961D01*
X74280D01*
Y-212862D01*
X71131Y-211812D02*
Y-214961D01*
X72706D01*
X73230Y-214436D01*
Y-213386D01*
X72706Y-212862D01*
X71131D01*
X70082Y-214961D02*
X69032D01*
X69557D01*
Y-212862D01*
X70082D01*
X66933Y-214961D02*
X65884D01*
X65359Y-214436D01*
Y-213386D01*
X65884Y-212862D01*
X66933D01*
X67458Y-213386D01*
Y-214436D01*
X66933Y-214961D01*
D85*
X174803Y-213780D02*
D03*
Y-224016D02*
D03*
M02*
