G04*
G04 #@! TF.GenerationSoftware,Altium Limited,Altium Designer,20.2.4 (192)*
G04*
G04 Layer_Physical_Order=2*
G04 Layer_Color=16711680*
%FSLAX25Y25*%
%MOIN*%
G70*
G04*
G04 #@! TF.SameCoordinates,2C05E507-4EA5-4E47-A472-78439CCED8C8*
G04*
G04*
G04 #@! TF.FilePolarity,Positive*
G04*
G01*
G75*
%ADD10C,0.00787*%
%ADD12C,0.01000*%
%ADD44C,0.01500*%
%ADD45C,0.04000*%
%ADD46O,0.05906X0.11024*%
%ADD47O,0.15354X0.07087*%
%ADD48O,0.07480X0.04724*%
G04:AMPARAMS|DCode=49|XSize=47.24mil|YSize=74.8mil|CornerRadius=0mil|HoleSize=0mil|Usage=FLASHONLY|Rotation=90.000|XOffset=0mil|YOffset=0mil|HoleType=Round|Shape=Octagon|*
%AMOCTAGOND49*
4,1,8,-0.03740,-0.01181,-0.03740,0.01181,-0.02559,0.02362,0.02559,0.02362,0.03740,0.01181,0.03740,-0.01181,0.02559,-0.02362,-0.02559,-0.02362,-0.03740,-0.01181,0.0*
%
%ADD49OCTAGOND49*%

%ADD50C,0.05512*%
%ADD51C,0.05118*%
%ADD52C,0.12598*%
%ADD53R,0.07874X0.15748*%
%ADD54R,0.07874X0.17717*%
%ADD55P,0.13210X8X112.5*%
%ADD56R,0.07480X0.04724*%
%ADD57P,0.05966X8X112.5*%
G04:AMPARAMS|DCode=58|XSize=98.43mil|YSize=118.11mil|CornerRadius=0mil|HoleSize=0mil|Usage=FLASHONLY|Rotation=270.000|XOffset=0mil|YOffset=0mil|HoleType=Round|Shape=Octagon|*
%AMOCTAGOND58*
4,1,8,0.05906,0.02461,0.05906,-0.02461,0.03445,-0.04921,-0.03445,-0.04921,-0.05906,-0.02461,-0.05906,0.02461,-0.03445,0.04921,0.03445,0.04921,0.05906,0.02461,0.0*
%
%ADD58OCTAGOND58*%

G04:AMPARAMS|DCode=59|XSize=110.24mil|YSize=133.86mil|CornerRadius=0mil|HoleSize=0mil|Usage=FLASHONLY|Rotation=0.000|XOffset=0mil|YOffset=0mil|HoleType=Round|Shape=Octagon|*
%AMOCTAGOND59*
4,1,8,-0.02756,0.06693,0.02756,0.06693,0.05512,0.03937,0.05512,-0.03937,0.02756,-0.06693,-0.02756,-0.06693,-0.05512,-0.03937,-0.05512,0.03937,-0.02756,0.06693,0.0*
%
%ADD59OCTAGOND59*%

%ADD60P,0.06818X8X112.5*%
%ADD61C,0.05906*%
%ADD62R,0.05906X0.05906*%
%ADD63C,0.13780*%
%ADD64C,0.11024*%
%ADD65C,0.03000*%
%ADD66C,0.04000*%
%ADD67R,0.04134X0.05512*%
%ADD68R,0.02362X0.05709*%
%ADD69R,0.04528X0.05709*%
%ADD70R,0.05512X0.04134*%
%ADD71R,0.33465X0.37402*%
%ADD72R,0.13386X0.04134*%
%ADD73R,0.06693X0.07087*%
%ADD74R,0.10236X0.03740*%
G36*
X43869Y1575D02*
X43946Y1187D01*
X44166Y858D01*
X44494Y639D01*
X44882Y562D01*
X112373D01*
Y-6299D01*
X112450Y-6687D01*
X112669Y-7016D01*
X112998Y-7235D01*
X113386Y-7312D01*
X218898D01*
X219285Y-7235D01*
X219614Y-7016D01*
X219834Y-6687D01*
X219911Y-6299D01*
Y562D01*
X272806D01*
Y-34420D01*
X265748D01*
X265360Y-34497D01*
X265032Y-34717D01*
X264812Y-35045D01*
X264735Y-35433D01*
Y-49931D01*
X250187D01*
Y-52495D01*
X250165Y-52665D01*
X250165Y-52665D01*
Y-58422D01*
X250133Y-58661D01*
X250223Y-59340D01*
X250485Y-59973D01*
X250902Y-60516D01*
X251445Y-60932D01*
X252077Y-61194D01*
X252756Y-61284D01*
X253435Y-61194D01*
X254067Y-60932D01*
X254610Y-60516D01*
X254642Y-60484D01*
X254642Y-60484D01*
X255059Y-59941D01*
X255321Y-59309D01*
X255410Y-58630D01*
X255410Y-58630D01*
Y-55265D01*
X264735D01*
Y-69932D01*
X255410D01*
Y-66567D01*
X255410Y-66567D01*
X255321Y-65888D01*
X255059Y-65256D01*
X254642Y-64713D01*
X254642Y-64713D01*
X254610Y-64681D01*
X254067Y-64264D01*
X253435Y-64002D01*
X252756Y-63913D01*
X252077Y-64002D01*
X251445Y-64264D01*
X250902Y-64681D01*
X250485Y-65224D01*
X250223Y-65857D01*
X250133Y-66535D01*
X250165Y-66775D01*
Y-72531D01*
X250165Y-72531D01*
X250187Y-72702D01*
Y-75265D01*
X264735D01*
Y-83632D01*
X229724D01*
X229337Y-83710D01*
X229008Y-83929D01*
X228788Y-84258D01*
X228711Y-84646D01*
Y-228829D01*
X209842D01*
X209455Y-228906D01*
X209126Y-229126D01*
X208907Y-229455D01*
X208829Y-229842D01*
Y-244577D01*
X171683D01*
Y-229842D01*
X171605Y-229455D01*
X171386Y-229126D01*
X171057Y-228906D01*
X170669Y-228829D01*
X70866D01*
X70478Y-228906D01*
X70150Y-229126D01*
X69930Y-229455D01*
X69853Y-229842D01*
Y-271743D01*
X-6073D01*
Y-68898D01*
X-6151Y-68510D01*
X-6370Y-68181D01*
X-6699Y-67962D01*
X-7087Y-67884D01*
X-17885D01*
Y-34478D01*
X-7087D01*
X-6699Y-34401D01*
X-6370Y-34181D01*
X-6151Y-33852D01*
X-6073Y-33465D01*
Y168D01*
X25000D01*
X25388Y245D01*
X25716Y465D01*
X25936Y793D01*
X26013Y1181D01*
Y12766D01*
X43869D01*
Y1575D01*
D02*
G37*
%LPC*%
G36*
X201772Y-9984D02*
X199138D01*
Y-13067D01*
X206068D01*
X205740Y-12276D01*
X205012Y-11327D01*
X204063Y-10598D01*
X202958Y-10141D01*
X201772Y-9984D01*
D02*
G37*
G36*
X196138D02*
X193504D01*
X192318Y-10141D01*
X191213Y-10598D01*
X190264Y-11327D01*
X189535Y-12276D01*
X189208Y-13067D01*
X196138D01*
Y-9984D01*
D02*
G37*
G36*
X138779D02*
X136146D01*
Y-13067D01*
X143076D01*
X142748Y-12276D01*
X142020Y-11327D01*
X141071Y-10598D01*
X139966Y-10141D01*
X138779Y-9984D01*
D02*
G37*
G36*
X133146D02*
X130512D01*
X129326Y-10141D01*
X128221Y-10598D01*
X127271Y-11327D01*
X126543Y-12276D01*
X126216Y-13067D01*
X133146D01*
Y-9984D01*
D02*
G37*
G36*
X206068Y-16067D02*
X199138D01*
Y-19149D01*
X201772D01*
X202958Y-18993D01*
X204063Y-18535D01*
X205012Y-17807D01*
X205740Y-16858D01*
X206068Y-16067D01*
D02*
G37*
G36*
X196138D02*
X189208D01*
X189535Y-16858D01*
X190264Y-17807D01*
X191213Y-18535D01*
X192318Y-18993D01*
X193504Y-19149D01*
X196138D01*
Y-16067D01*
D02*
G37*
G36*
X143076Y-16067D02*
X136146D01*
Y-19149D01*
X138779D01*
X139966Y-18993D01*
X141071Y-18535D01*
X142020Y-17807D01*
X142748Y-16858D01*
X143076Y-16067D01*
D02*
G37*
G36*
X133146D02*
X126216D01*
X126543Y-16858D01*
X127271Y-17807D01*
X128221Y-18535D01*
X129326Y-18993D01*
X130512Y-19149D01*
X133146D01*
Y-16067D01*
D02*
G37*
G36*
X197638Y-25687D02*
X196593Y-25825D01*
X195619Y-26228D01*
X194783Y-26870D01*
X194141Y-27706D01*
X193738Y-28679D01*
X193600Y-29724D01*
Y-31162D01*
X170866D01*
X170866Y-31162D01*
X170437Y-31247D01*
X170073Y-31490D01*
X170073Y-31490D01*
X168498Y-33065D01*
X168255Y-33429D01*
X168170Y-33858D01*
X168170Y-33858D01*
Y-41562D01*
X158491Y-51241D01*
X135827D01*
X135827Y-51241D01*
X135398Y-51326D01*
X135286Y-51401D01*
X134904Y-50934D01*
X135439Y-50399D01*
X135439Y-50399D01*
X135682Y-50036D01*
X135767Y-49606D01*
Y-38710D01*
X136664Y-38339D01*
X137501Y-37697D01*
X138142Y-36861D01*
X138545Y-35888D01*
X138683Y-34843D01*
Y-29724D01*
X138545Y-28679D01*
X138142Y-27706D01*
X137501Y-26870D01*
X136664Y-26228D01*
X135691Y-25825D01*
X134646Y-25687D01*
X133601Y-25825D01*
X132627Y-26228D01*
X131791Y-26870D01*
X131149Y-27706D01*
X130746Y-28679D01*
X130608Y-29724D01*
Y-34843D01*
X130746Y-35888D01*
X131149Y-36861D01*
X131791Y-37697D01*
X132627Y-38339D01*
X133524Y-38710D01*
Y-49142D01*
X122042Y-60624D01*
X121799Y-60988D01*
X121713Y-61417D01*
X121713Y-61417D01*
Y-91925D01*
X121321Y-92187D01*
X120856Y-92881D01*
X120694Y-93701D01*
X120856Y-94520D01*
X121321Y-95215D01*
X122015Y-95679D01*
X122835Y-95842D01*
X122932Y-95823D01*
X123483Y-96230D01*
X123612Y-96882D01*
X124076Y-97577D01*
X124771Y-98041D01*
X125591Y-98204D01*
X126410Y-98041D01*
X127105Y-97577D01*
X127569Y-96882D01*
X127732Y-96063D01*
X127569Y-95244D01*
X127105Y-94549D01*
X126712Y-94287D01*
Y-89031D01*
X127312Y-88849D01*
X127620Y-89309D01*
X128314Y-89773D01*
X129134Y-89936D01*
X129953Y-89773D01*
X130648Y-89309D01*
X131112Y-88615D01*
X131275Y-87795D01*
X131112Y-86976D01*
X130648Y-86281D01*
X129953Y-85817D01*
X129134Y-85654D01*
X128314Y-85817D01*
X127620Y-86281D01*
X127312Y-86742D01*
X126712Y-86560D01*
Y-83913D01*
X127312Y-83731D01*
X127620Y-84191D01*
X128314Y-84655D01*
X129134Y-84818D01*
X129953Y-84655D01*
X130648Y-84191D01*
X131112Y-83497D01*
X131275Y-82677D01*
X131112Y-81858D01*
X130648Y-81163D01*
X129953Y-80699D01*
X129134Y-80536D01*
X128314Y-80699D01*
X127620Y-81163D01*
X127312Y-81624D01*
X126712Y-81442D01*
Y-78794D01*
X127312Y-78613D01*
X127620Y-79073D01*
X128314Y-79537D01*
X129134Y-79700D01*
X129953Y-79537D01*
X130648Y-79073D01*
X131112Y-78378D01*
X131275Y-77559D01*
X131112Y-76740D01*
X130648Y-76045D01*
X129953Y-75581D01*
X129134Y-75418D01*
X128314Y-75581D01*
X127620Y-76045D01*
X127312Y-76506D01*
X126712Y-76324D01*
Y-69739D01*
X127312Y-69557D01*
X127620Y-70018D01*
X128314Y-70482D01*
X129134Y-70645D01*
X129953Y-70482D01*
X130648Y-70018D01*
X131112Y-69323D01*
X131275Y-68504D01*
X131112Y-67685D01*
X130648Y-66990D01*
X129953Y-66526D01*
X129134Y-66363D01*
X128314Y-66526D01*
X127620Y-66990D01*
X127312Y-67450D01*
X126712Y-67269D01*
Y-63063D01*
X136291Y-53484D01*
X158956D01*
X158956Y-53484D01*
X159385Y-53398D01*
X159749Y-53155D01*
X170084Y-42820D01*
X170084Y-42820D01*
X170327Y-42456D01*
X170413Y-42026D01*
X170413Y-42026D01*
Y-34323D01*
X171331Y-33405D01*
X193600D01*
Y-34843D01*
X193738Y-35888D01*
X194141Y-36861D01*
X194783Y-37697D01*
X195619Y-38339D01*
X196593Y-38742D01*
X197638Y-38880D01*
X198683Y-38742D01*
X199656Y-38339D01*
X200493Y-37697D01*
X201134Y-36861D01*
X201537Y-35888D01*
X201675Y-34843D01*
Y-29724D01*
X201537Y-28679D01*
X201134Y-27706D01*
X200493Y-26870D01*
X199656Y-26228D01*
X198683Y-25825D01*
X197638Y-25687D01*
D02*
G37*
G36*
X253346Y-7038D02*
X251368Y-7194D01*
X249438Y-7657D01*
X247605Y-8417D01*
X245913Y-9454D01*
X244404Y-10742D01*
X243115Y-12251D01*
X242078Y-13943D01*
X241319Y-15777D01*
X240855Y-17707D01*
X240700Y-19685D01*
X240855Y-21664D01*
X241319Y-23593D01*
X242078Y-25427D01*
X243115Y-27119D01*
X244404Y-28628D01*
X245913Y-29917D01*
X247605Y-30953D01*
X249438Y-31713D01*
X251368Y-32176D01*
X253346Y-32332D01*
X255325Y-32176D01*
X257255Y-31713D01*
X259088Y-30953D01*
X260780Y-29917D01*
X262289Y-28628D01*
X263578Y-27119D01*
X264615Y-25427D01*
X265374Y-23593D01*
X265838Y-21664D01*
X265993Y-19685D01*
X265838Y-17707D01*
X265374Y-15777D01*
X264615Y-13943D01*
X263578Y-12251D01*
X262289Y-10742D01*
X260780Y-9454D01*
X259088Y-8417D01*
X257255Y-7657D01*
X255325Y-7194D01*
X253346Y-7038D01*
D02*
G37*
G36*
X233480Y-42898D02*
X216498D01*
Y-43701D01*
X233480D01*
Y-42898D01*
D02*
G37*
G36*
X214998D02*
X198016D01*
Y-43701D01*
X214998D01*
Y-42898D01*
D02*
G37*
G36*
X16798Y-42257D02*
X6824D01*
Y-60105D01*
X16798D01*
Y-42257D01*
D02*
G37*
G36*
X40420Y-41273D02*
X30446D01*
Y-61089D01*
X40420D01*
Y-41273D01*
D02*
G37*
G36*
X135039Y-61638D02*
X134220Y-61801D01*
X133525Y-62265D01*
X133061Y-62960D01*
X132983Y-63353D01*
X132371D01*
X132293Y-62960D01*
X131829Y-62265D01*
X131134Y-61801D01*
X130315Y-61638D01*
X129496Y-61801D01*
X128801Y-62265D01*
X128337Y-62960D01*
X128174Y-63779D01*
X128337Y-64599D01*
X128801Y-65294D01*
X129496Y-65758D01*
X130315Y-65921D01*
X131134Y-65758D01*
X131829Y-65294D01*
X132293Y-64599D01*
X132371Y-64206D01*
X132983D01*
X133061Y-64599D01*
X133525Y-65294D01*
X134220Y-65758D01*
X135039Y-65921D01*
X135859Y-65758D01*
X136553Y-65294D01*
X137018Y-64599D01*
X137180Y-63779D01*
X137018Y-62960D01*
X136553Y-62265D01*
X135859Y-61801D01*
X135039Y-61638D01*
D02*
G37*
G36*
X191339D02*
X190519Y-61801D01*
X189825Y-62265D01*
X189360Y-62960D01*
X189197Y-63779D01*
X189360Y-64599D01*
X189825Y-65294D01*
X190519Y-65758D01*
X191339Y-65921D01*
X192158Y-65758D01*
X192853Y-65294D01*
X193317Y-64599D01*
X193480Y-63779D01*
X193317Y-62960D01*
X192853Y-62265D01*
X192158Y-61801D01*
X191339Y-61638D01*
D02*
G37*
G36*
X186221D02*
X185401Y-61801D01*
X184706Y-62265D01*
X184242Y-62960D01*
X184079Y-63779D01*
X184242Y-64599D01*
X184706Y-65294D01*
X185401Y-65758D01*
X186221Y-65921D01*
X187040Y-65758D01*
X187734Y-65294D01*
X188199Y-64599D01*
X188362Y-63779D01*
X188199Y-62960D01*
X187734Y-62265D01*
X187040Y-61801D01*
X186221Y-61638D01*
D02*
G37*
G36*
X181102D02*
X180283Y-61801D01*
X179588Y-62265D01*
X179124Y-62960D01*
X178961Y-63779D01*
X179124Y-64599D01*
X179588Y-65294D01*
X180283Y-65758D01*
X181102Y-65921D01*
X181922Y-65758D01*
X182616Y-65294D01*
X183080Y-64599D01*
X183244Y-63779D01*
X183080Y-62960D01*
X182616Y-62265D01*
X181922Y-61801D01*
X181102Y-61638D01*
D02*
G37*
G36*
X175984D02*
X175165Y-61801D01*
X174470Y-62265D01*
X174006Y-62960D01*
X173843Y-63779D01*
X174006Y-64599D01*
X174470Y-65294D01*
X175165Y-65758D01*
X175984Y-65921D01*
X176804Y-65758D01*
X177498Y-65294D01*
X177962Y-64599D01*
X178125Y-63779D01*
X177962Y-62960D01*
X177498Y-62265D01*
X176804Y-61801D01*
X175984Y-61638D01*
D02*
G37*
G36*
X170866D02*
X170047Y-61801D01*
X169352Y-62265D01*
X168888Y-62960D01*
X168725Y-63779D01*
X168888Y-64599D01*
X169352Y-65294D01*
X170047Y-65758D01*
X170866Y-65921D01*
X171686Y-65758D01*
X172380Y-65294D01*
X172844Y-64599D01*
X173007Y-63779D01*
X172844Y-62960D01*
X172380Y-62265D01*
X171686Y-61801D01*
X170866Y-61638D01*
D02*
G37*
G36*
X165748D02*
X164929Y-61801D01*
X164234Y-62265D01*
X163770Y-62960D01*
X163607Y-63779D01*
X163770Y-64599D01*
X164234Y-65294D01*
X164929Y-65758D01*
X165748Y-65921D01*
X166567Y-65758D01*
X167262Y-65294D01*
X167726Y-64599D01*
X167889Y-63779D01*
X167726Y-62960D01*
X167262Y-62265D01*
X166567Y-61801D01*
X165748Y-61638D01*
D02*
G37*
G36*
X160630D02*
X159810Y-61801D01*
X159116Y-62265D01*
X158652Y-62960D01*
X158489Y-63779D01*
X158652Y-64599D01*
X159116Y-65294D01*
X159810Y-65758D01*
X160630Y-65921D01*
X161449Y-65758D01*
X162144Y-65294D01*
X162608Y-64599D01*
X162771Y-63779D01*
X162608Y-62960D01*
X162144Y-62265D01*
X161449Y-61801D01*
X160630Y-61638D01*
D02*
G37*
G36*
X155512D02*
X154692Y-61801D01*
X153998Y-62265D01*
X153534Y-62960D01*
X153371Y-63779D01*
X153534Y-64599D01*
X153998Y-65294D01*
X154692Y-65758D01*
X155512Y-65921D01*
X156331Y-65758D01*
X157026Y-65294D01*
X157490Y-64599D01*
X157653Y-63779D01*
X157490Y-62960D01*
X157026Y-62265D01*
X156331Y-61801D01*
X155512Y-61638D01*
D02*
G37*
G36*
X150394D02*
X149574Y-61801D01*
X148880Y-62265D01*
X148416Y-62960D01*
X148253Y-63779D01*
X148416Y-64599D01*
X148880Y-65294D01*
X149574Y-65758D01*
X150394Y-65921D01*
X151213Y-65758D01*
X151908Y-65294D01*
X152372Y-64599D01*
X152535Y-63779D01*
X152372Y-62960D01*
X151908Y-62265D01*
X151213Y-61801D01*
X150394Y-61638D01*
D02*
G37*
G36*
X145276D02*
X144456Y-61801D01*
X143762Y-62265D01*
X143297Y-62960D01*
X143134Y-63779D01*
X143297Y-64599D01*
X143762Y-65294D01*
X144456Y-65758D01*
X145276Y-65921D01*
X146095Y-65758D01*
X146790Y-65294D01*
X147254Y-64599D01*
X147417Y-63779D01*
X147254Y-62960D01*
X146790Y-62265D01*
X146095Y-61801D01*
X145276Y-61638D01*
D02*
G37*
G36*
X140157D02*
X139338Y-61801D01*
X138644Y-62265D01*
X138179Y-62960D01*
X138016Y-63779D01*
X138179Y-64599D01*
X138644Y-65294D01*
X139338Y-65758D01*
X140157Y-65921D01*
X140977Y-65758D01*
X141672Y-65294D01*
X142136Y-64599D01*
X142299Y-63779D01*
X142136Y-62960D01*
X141672Y-62265D01*
X140977Y-61801D01*
X140157Y-61638D01*
D02*
G37*
G36*
X237795Y-65969D02*
X236976Y-66132D01*
X236281Y-66596D01*
X235817Y-67291D01*
X235654Y-68110D01*
X235817Y-68930D01*
X236281Y-69624D01*
X236976Y-70088D01*
X237795Y-70251D01*
X238615Y-70088D01*
X239309Y-69624D01*
X239773Y-68930D01*
X239936Y-68110D01*
X239773Y-67291D01*
X239309Y-66596D01*
X238615Y-66132D01*
X237795Y-65969D01*
D02*
G37*
G36*
X162642Y-70359D02*
Y-72516D01*
X164799D01*
X164594Y-72022D01*
X163961Y-71197D01*
X163135Y-70563D01*
X162642Y-70359D01*
D02*
G37*
G36*
X159642Y-70359D02*
X159148Y-70563D01*
X158323Y-71197D01*
X157689Y-72022D01*
X157485Y-72516D01*
X159642D01*
Y-70359D01*
D02*
G37*
G36*
Y-75516D02*
X157485D01*
X157689Y-76009D01*
X158323Y-76835D01*
X159148Y-77469D01*
X159642Y-77673D01*
Y-75516D01*
D02*
G37*
G36*
X164799D02*
X162642D01*
Y-77673D01*
X163135Y-77469D01*
X163961Y-76835D01*
X164594Y-76009D01*
X164799Y-75516D01*
D02*
G37*
G36*
X191142Y-69978D02*
X190097Y-70116D01*
X189123Y-70519D01*
X188287Y-71161D01*
X187645Y-71997D01*
X187242Y-72971D01*
X187104Y-74016D01*
X187242Y-75061D01*
X187645Y-76034D01*
X188287Y-76871D01*
X189123Y-77512D01*
X190097Y-77916D01*
X191142Y-78053D01*
X192187Y-77916D01*
X193160Y-77512D01*
X193997Y-76871D01*
X194638Y-76034D01*
X195042Y-75061D01*
X195179Y-74016D01*
X195042Y-72971D01*
X194638Y-71997D01*
X193997Y-71161D01*
X193160Y-70519D01*
X192187Y-70116D01*
X191142Y-69978D01*
D02*
G37*
G36*
X181142D02*
X180097Y-70116D01*
X179123Y-70519D01*
X178287Y-71161D01*
X177645Y-71997D01*
X177242Y-72971D01*
X177104Y-74016D01*
X177242Y-75061D01*
X177645Y-76034D01*
X178287Y-76871D01*
X179123Y-77512D01*
X180097Y-77916D01*
X181142Y-78053D01*
X182187Y-77916D01*
X183084Y-77544D01*
X184167Y-78627D01*
X184246Y-78746D01*
X185099Y-79598D01*
Y-81612D01*
X184499Y-81816D01*
X183996Y-81161D01*
X183160Y-80519D01*
X182187Y-80116D01*
X181142Y-79978D01*
X180097Y-80116D01*
X179123Y-80519D01*
X178287Y-81161D01*
X177645Y-81997D01*
X177242Y-82971D01*
X177104Y-84016D01*
X177242Y-85061D01*
X177614Y-85958D01*
X176870Y-86701D01*
X176316Y-86471D01*
Y-78069D01*
X176316Y-78069D01*
X176231Y-77639D01*
X175988Y-77275D01*
X175988Y-77275D01*
X174670Y-75958D01*
X175041Y-75061D01*
X175179Y-74016D01*
X175041Y-72971D01*
X174638Y-71997D01*
X173996Y-71161D01*
X173160Y-70519D01*
X172187Y-70116D01*
X171142Y-69978D01*
X170097Y-70116D01*
X169123Y-70519D01*
X168287Y-71161D01*
X167645Y-71997D01*
X167242Y-72971D01*
X167104Y-74016D01*
X167242Y-75061D01*
X167645Y-76034D01*
X168287Y-76871D01*
X169123Y-77512D01*
X170097Y-77916D01*
X171142Y-78053D01*
X172187Y-77916D01*
X173084Y-77544D01*
X174073Y-78533D01*
Y-80463D01*
X173473Y-80759D01*
X173160Y-80519D01*
X172187Y-80116D01*
X171142Y-79978D01*
X170097Y-80116D01*
X169123Y-80519D01*
X168287Y-81161D01*
X167645Y-81997D01*
X167242Y-82971D01*
X167104Y-84016D01*
X167242Y-85061D01*
X167614Y-85958D01*
X160255Y-93316D01*
X151967D01*
X151738Y-92762D01*
X156699Y-87801D01*
X156699Y-87801D01*
X156942Y-87437D01*
X157027Y-87008D01*
Y-85979D01*
X157627Y-85860D01*
X157689Y-86009D01*
X158323Y-86835D01*
X159148Y-87468D01*
X159642Y-87673D01*
Y-84016D01*
Y-80359D01*
X159148Y-80563D01*
X158323Y-81197D01*
X157689Y-82022D01*
X157627Y-82172D01*
X157027Y-82052D01*
Y-78780D01*
X157027Y-78780D01*
X156942Y-78350D01*
X156699Y-77987D01*
X156699Y-77987D01*
X154670Y-75958D01*
X155042Y-75061D01*
X155179Y-74016D01*
X155042Y-72971D01*
X154638Y-71997D01*
X153997Y-71161D01*
X153160Y-70519D01*
X152187Y-70116D01*
X151142Y-69978D01*
X150097Y-70116D01*
X149123Y-70519D01*
X148287Y-71161D01*
X147645Y-71997D01*
X147242Y-72971D01*
X147104Y-74016D01*
X147242Y-75061D01*
X147645Y-76034D01*
X148287Y-76871D01*
X149123Y-77512D01*
X150097Y-77916D01*
X151142Y-78053D01*
X152187Y-77916D01*
X153084Y-77544D01*
X154784Y-79244D01*
Y-81201D01*
X154184Y-81405D01*
X153997Y-81161D01*
X153160Y-80519D01*
X152187Y-80116D01*
X151142Y-79978D01*
X150097Y-80116D01*
X149123Y-80519D01*
X148287Y-81161D01*
X147784Y-81816D01*
X147185Y-81612D01*
Y-78937D01*
X147185Y-78937D01*
X147099Y-78508D01*
X146856Y-78144D01*
X146856Y-78144D01*
X144670Y-75958D01*
X145042Y-75061D01*
X145179Y-74016D01*
X145042Y-72971D01*
X144638Y-71997D01*
X143997Y-71161D01*
X143160Y-70519D01*
X142187Y-70116D01*
X141142Y-69978D01*
X140097Y-70116D01*
X139123Y-70519D01*
X138287Y-71161D01*
X137645Y-71997D01*
X137242Y-72971D01*
X137104Y-74016D01*
X137242Y-75061D01*
X137645Y-76034D01*
X138287Y-76871D01*
X139123Y-77512D01*
X140097Y-77916D01*
X141142Y-78053D01*
X142187Y-77916D01*
X143084Y-77544D01*
X144941Y-79402D01*
Y-80013D01*
X137139D01*
Y-88019D01*
X140020D01*
Y-90880D01*
X130158Y-100742D01*
X129915Y-101106D01*
X129830Y-101535D01*
X129830Y-101535D01*
Y-119372D01*
X113486Y-135716D01*
X113269Y-136040D01*
X113105Y-136060D01*
X112648Y-135994D01*
X112608Y-135795D01*
X112144Y-135100D01*
X111815Y-134881D01*
X112049Y-134315D01*
X112598Y-134425D01*
X113418Y-134262D01*
X114112Y-133798D01*
X114577Y-133103D01*
X114740Y-132283D01*
X114606Y-131613D01*
X114731Y-131420D01*
X114884Y-131266D01*
X115078Y-131142D01*
X115748Y-131275D01*
X116567Y-131112D01*
X117262Y-130648D01*
X117726Y-129953D01*
X117889Y-129134D01*
X117726Y-128314D01*
X117262Y-127620D01*
X116567Y-127156D01*
X115748Y-126993D01*
X114929Y-127156D01*
X114234Y-127620D01*
X113770Y-128314D01*
X113607Y-129134D01*
X113740Y-129804D01*
X113616Y-129997D01*
X113462Y-130151D01*
X113269Y-130276D01*
X112598Y-130142D01*
X111779Y-130305D01*
X111546Y-130461D01*
X111114Y-130028D01*
X111427Y-129560D01*
X111590Y-128740D01*
X111427Y-127921D01*
X110963Y-127226D01*
X110268Y-126762D01*
X109449Y-126599D01*
X108629Y-126762D01*
X107935Y-127226D01*
X107471Y-127921D01*
X107308Y-128740D01*
X107471Y-129560D01*
X107935Y-130254D01*
X108629Y-130718D01*
X109449Y-130881D01*
X110268Y-130718D01*
X110501Y-130563D01*
X110933Y-130996D01*
X110620Y-131464D01*
X110457Y-132283D01*
X110620Y-133103D01*
X111084Y-133798D01*
X111413Y-134017D01*
X111179Y-134582D01*
X110630Y-134473D01*
X109810Y-134636D01*
X109116Y-135100D01*
X108652Y-135795D01*
X108489Y-136614D01*
X108652Y-137434D01*
X109116Y-138128D01*
X109810Y-138592D01*
X110204Y-138671D01*
Y-139282D01*
X109810Y-139360D01*
X109116Y-139825D01*
X108652Y-140519D01*
X108489Y-141339D01*
X108652Y-142158D01*
X109116Y-142853D01*
X109810Y-143317D01*
X110204Y-143395D01*
Y-144007D01*
X109810Y-144085D01*
X109116Y-144549D01*
X108652Y-145244D01*
X108489Y-146063D01*
X108566Y-146451D01*
X108021Y-146787D01*
X107512Y-146447D01*
X106693Y-146284D01*
X105874Y-146447D01*
X105179Y-146911D01*
X104715Y-147606D01*
X104552Y-148425D01*
X104715Y-149245D01*
X105179Y-149939D01*
X105640Y-150247D01*
X105457Y-150847D01*
X102810D01*
X102628Y-150247D01*
X103089Y-149939D01*
X103553Y-149245D01*
X103716Y-148425D01*
X103553Y-147606D01*
X103089Y-146911D01*
X102394Y-146447D01*
X101575Y-146284D01*
X100755Y-146447D01*
X100061Y-146911D01*
X99597Y-147606D01*
X99434Y-148425D01*
X99597Y-149245D01*
X100061Y-149939D01*
X100521Y-150247D01*
X100339Y-150847D01*
X97692D01*
X97510Y-150247D01*
X97971Y-149939D01*
X98435Y-149245D01*
X98598Y-148425D01*
X98435Y-147606D01*
X97971Y-146911D01*
X97276Y-146447D01*
X96457Y-146284D01*
X95637Y-146447D01*
X94943Y-146911D01*
X94478Y-147606D01*
X94315Y-148425D01*
X94478Y-149245D01*
X94943Y-149939D01*
X95403Y-150247D01*
X95221Y-150847D01*
X92574D01*
X92392Y-150247D01*
X92853Y-149939D01*
X93317Y-149245D01*
X93480Y-148425D01*
X93317Y-147606D01*
X92853Y-146911D01*
X92158Y-146447D01*
X91339Y-146284D01*
X90519Y-146447D01*
X89825Y-146911D01*
X89360Y-147606D01*
X89197Y-148425D01*
X89360Y-149245D01*
X89825Y-149939D01*
X90285Y-150247D01*
X90103Y-150847D01*
X87456D01*
X87274Y-150247D01*
X87735Y-149939D01*
X88199Y-149245D01*
X88362Y-148425D01*
X88199Y-147606D01*
X87735Y-146911D01*
X87594Y-146817D01*
X87749Y-146199D01*
X88045Y-146170D01*
X89421Y-145753D01*
X90689Y-145075D01*
X91800Y-144163D01*
X92713Y-143051D01*
X93390Y-141783D01*
X93787Y-140476D01*
X86614D01*
X79441D01*
X79838Y-141783D01*
X80516Y-143051D01*
X81428Y-144163D01*
X82539Y-145075D01*
X83807Y-145753D01*
X84876Y-146077D01*
X84973Y-146733D01*
X84706Y-146911D01*
X84242Y-147606D01*
X84079Y-148425D01*
X84242Y-149245D01*
X84706Y-149939D01*
X85167Y-150247D01*
X84985Y-150847D01*
X82338D01*
X82156Y-150247D01*
X82616Y-149939D01*
X83081Y-149245D01*
X83244Y-148425D01*
X83081Y-147606D01*
X82616Y-146911D01*
X81922Y-146447D01*
X81102Y-146284D01*
X80283Y-146447D01*
X79588Y-146911D01*
X79124Y-147606D01*
X78961Y-148425D01*
X79124Y-149245D01*
X79588Y-149939D01*
X80283Y-150403D01*
X80387Y-150424D01*
X80488Y-151056D01*
X80309Y-151175D01*
X80309Y-151175D01*
X74339Y-157146D01*
X73676D01*
X73494Y-156546D01*
X73955Y-156238D01*
X74419Y-155544D01*
X74582Y-154724D01*
X74419Y-153905D01*
X73955Y-153210D01*
X73260Y-152746D01*
X72441Y-152583D01*
X71622Y-152746D01*
X70927Y-153210D01*
X70463Y-153905D01*
X70300Y-154724D01*
X70463Y-155544D01*
X70927Y-156238D01*
X71387Y-156546D01*
X71206Y-157146D01*
X68165D01*
X67983Y-156546D01*
X68443Y-156238D01*
X68907Y-155544D01*
X69070Y-154724D01*
X68907Y-153905D01*
X68443Y-153210D01*
X67748Y-152746D01*
X66929Y-152583D01*
X66110Y-152746D01*
X65415Y-153210D01*
X64951Y-153905D01*
X64788Y-154724D01*
X64951Y-155544D01*
X65415Y-156238D01*
X65876Y-156546D01*
X65694Y-157146D01*
X62259D01*
X62077Y-156546D01*
X62538Y-156238D01*
X63002Y-155544D01*
X63165Y-154724D01*
X63002Y-153905D01*
X62538Y-153210D01*
X61843Y-152746D01*
X61024Y-152583D01*
X60204Y-152746D01*
X59510Y-153210D01*
X59045Y-153905D01*
X58882Y-154724D01*
X59045Y-155544D01*
X59510Y-156238D01*
X60108Y-156638D01*
X60160Y-156970D01*
X60106Y-157295D01*
X59837Y-157475D01*
X55413Y-161898D01*
X54860Y-161603D01*
X54897Y-161417D01*
X54734Y-160598D01*
X54270Y-159903D01*
X53575Y-159439D01*
X52756Y-159276D01*
X51937Y-159439D01*
X51242Y-159903D01*
X50778Y-160598D01*
X50615Y-161417D01*
X50778Y-162237D01*
X51242Y-162931D01*
X51937Y-163396D01*
X52756Y-163558D01*
X52941Y-163522D01*
X53237Y-164075D01*
X49010Y-168301D01*
X48767Y-168665D01*
X48682Y-169095D01*
X48682Y-169095D01*
Y-170266D01*
X47136D01*
Y-172501D01*
X44690D01*
X44427Y-172108D01*
X43733Y-171644D01*
X43537Y-171605D01*
Y-170993D01*
X44126Y-170876D01*
X44821Y-170412D01*
X45285Y-169717D01*
X45448Y-168898D01*
X45285Y-168078D01*
X44821Y-167384D01*
X44126Y-166920D01*
X43307Y-166756D01*
X42488Y-166920D01*
X41793Y-167384D01*
X41329Y-168078D01*
X41166Y-168898D01*
X41329Y-169717D01*
X41793Y-170412D01*
X42488Y-170876D01*
X42684Y-170915D01*
Y-171527D01*
X42094Y-171644D01*
X41399Y-172108D01*
X40935Y-172803D01*
X40772Y-173622D01*
X40935Y-174441D01*
X41399Y-175136D01*
X42094Y-175600D01*
X42913Y-175763D01*
X43733Y-175600D01*
X44427Y-175136D01*
X44690Y-174744D01*
X47136D01*
Y-176978D01*
X52470D01*
Y-170266D01*
X50925D01*
Y-169559D01*
X61094Y-159389D01*
X74803D01*
X74803Y-159389D01*
X75232Y-159304D01*
X75596Y-159061D01*
X81567Y-153090D01*
X109641D01*
X109903Y-153482D01*
X110598Y-153947D01*
X111417Y-154110D01*
X112237Y-153947D01*
X112557Y-153733D01*
X113157Y-154053D01*
Y-173839D01*
X110165Y-176831D01*
X106969D01*
X106721Y-176232D01*
X106174Y-175519D01*
X105888Y-175300D01*
Y-174700D01*
X106174Y-174481D01*
X106721Y-173768D01*
X107064Y-172938D01*
X107182Y-172047D01*
X107064Y-171157D01*
X106721Y-170326D01*
X106174Y-169614D01*
X105949Y-169441D01*
X105949Y-168685D01*
X106138Y-168540D01*
X106677Y-167837D01*
X106758Y-167642D01*
X102362D01*
X97966D01*
X98047Y-167837D01*
X98586Y-168540D01*
X98776Y-168685D01*
X98776Y-169441D01*
X98551Y-169614D01*
X98004Y-170326D01*
X97755Y-170926D01*
X95276D01*
X95276Y-170926D01*
X94846Y-171011D01*
X94482Y-171254D01*
X94482Y-171254D01*
X93472Y-172264D01*
X92332D01*
Y-171256D01*
X92732D01*
Y-169136D01*
X86614D01*
X80496D01*
Y-171256D01*
X80896D01*
Y-172501D01*
X59950D01*
Y-170266D01*
X54616D01*
Y-176978D01*
X59950D01*
Y-174744D01*
X80896D01*
Y-175856D01*
X80896D01*
Y-175916D01*
X80896D01*
Y-177264D01*
X68071D01*
X67642Y-177350D01*
X67278Y-177593D01*
X67278Y-177593D01*
X65677Y-179193D01*
X34121D01*
Y-178412D01*
X32218Y-176509D01*
X28412D01*
X26509Y-178412D01*
Y-182218D01*
X28412Y-184121D01*
X32218D01*
X34121Y-182218D01*
Y-181437D01*
X66142D01*
X66142Y-181437D01*
X66571Y-181351D01*
X66935Y-181108D01*
X68535Y-179507D01*
X80896D01*
Y-180856D01*
X80896D01*
Y-180916D01*
X80896D01*
Y-182264D01*
X37087D01*
X37087Y-182264D01*
X36657Y-182350D01*
X36294Y-182593D01*
X32376Y-186510D01*
X32218Y-186352D01*
X28412D01*
X26509Y-188254D01*
Y-192060D01*
X28412Y-193963D01*
X32218D01*
X34121Y-192060D01*
Y-188254D01*
X33962Y-188096D01*
X37551Y-184507D01*
X80896D01*
Y-185856D01*
X80896D01*
Y-185916D01*
X80896D01*
Y-187264D01*
X49409D01*
X49409Y-187264D01*
X48980Y-187350D01*
X48616Y-187593D01*
X32573Y-203636D01*
X32218Y-203281D01*
X28412D01*
X26509Y-205184D01*
Y-208990D01*
X27655Y-210135D01*
X27425Y-210689D01*
X25661D01*
X24120Y-209148D01*
X24278Y-208990D01*
Y-205184D01*
X22375Y-203281D01*
X18570D01*
X16682Y-205168D01*
X16082Y-205146D01*
Y-202433D01*
X17230Y-201285D01*
X18570Y-202625D01*
X22375D01*
X24278Y-200722D01*
Y-196916D01*
X22375Y-195013D01*
X18570D01*
X16667Y-196916D01*
Y-198923D01*
X16510Y-198954D01*
X16146Y-199197D01*
X16146Y-199197D01*
X14714Y-200629D01*
X14114Y-200381D01*
Y-196528D01*
X18411Y-192230D01*
X18570Y-192389D01*
X22375D01*
X24278Y-190486D01*
Y-186680D01*
X22375Y-184777D01*
X18570D01*
X16667Y-186680D01*
Y-190486D01*
X16825Y-190644D01*
X12624Y-194845D01*
X12024Y-194597D01*
Y-189264D01*
X8768Y-186008D01*
X7012D01*
Y-193701D01*
Y-201394D01*
X8768D01*
X11316Y-198845D01*
X11871Y-199075D01*
Y-212598D01*
X11871Y-212598D01*
X11956Y-213028D01*
X12047Y-213164D01*
X11759Y-213764D01*
X10161D01*
Y-218185D01*
X15567D01*
Y-217543D01*
X16121Y-217314D01*
X24010Y-225202D01*
X24010Y-225202D01*
X24374Y-225446D01*
X24803Y-225531D01*
X43106D01*
X43368Y-225923D01*
X44063Y-226388D01*
X44882Y-226551D01*
X45701Y-226388D01*
X46396Y-225923D01*
X46860Y-225229D01*
X47023Y-224410D01*
X46971Y-224149D01*
X46983Y-224123D01*
X47491Y-223687D01*
X48031Y-223795D01*
X48851Y-223632D01*
X49545Y-223168D01*
X50010Y-222473D01*
X50173Y-221654D01*
X50010Y-220834D01*
X49545Y-220140D01*
X48851Y-219675D01*
X48031Y-219512D01*
X47212Y-219675D01*
X46518Y-220140D01*
X46255Y-220532D01*
X25661D01*
X16082Y-210953D01*
Y-209027D01*
X16682Y-209005D01*
X18570Y-210893D01*
X22375D01*
X22534Y-210734D01*
X24074Y-212274D01*
X23877Y-212926D01*
X23590Y-212983D01*
X22895Y-213447D01*
X22431Y-214141D01*
X22268Y-214961D01*
X22431Y-215780D01*
X22895Y-216475D01*
X23590Y-216939D01*
X24409Y-217102D01*
X25229Y-216939D01*
X25923Y-216475D01*
X26388Y-215780D01*
X26466Y-215387D01*
X27077D01*
X27156Y-215780D01*
X27620Y-216475D01*
X28315Y-216939D01*
X29134Y-217102D01*
X29953Y-216939D01*
X30648Y-216475D01*
X31112Y-215780D01*
X31190Y-215387D01*
X31802D01*
X31880Y-215780D01*
X32344Y-216475D01*
X33039Y-216939D01*
X33858Y-217102D01*
X34678Y-216939D01*
X35372Y-216475D01*
X35836Y-215780D01*
X35999Y-214961D01*
X35836Y-214141D01*
X35681Y-213909D01*
X36114Y-213476D01*
X36582Y-213789D01*
X37402Y-213952D01*
X38221Y-213789D01*
X38916Y-213325D01*
X39380Y-212630D01*
X39543Y-211811D01*
X39380Y-210992D01*
X38916Y-210297D01*
X38221Y-209833D01*
X37402Y-209670D01*
X37216Y-209707D01*
X36920Y-209154D01*
X39224Y-206850D01*
X39726Y-207197D01*
X39591Y-207874D01*
X39754Y-208693D01*
X40218Y-209388D01*
X40913Y-209852D01*
X41732Y-210015D01*
X42552Y-209852D01*
X43246Y-209388D01*
X43710Y-208693D01*
X43873Y-207874D01*
X43710Y-207055D01*
X43246Y-206360D01*
X42552Y-205896D01*
X41732Y-205733D01*
X41055Y-205868D01*
X40709Y-205366D01*
X42844Y-203230D01*
X43307Y-203322D01*
X44126Y-203159D01*
X44821Y-202695D01*
X45285Y-202000D01*
X45448Y-201181D01*
X45285Y-200362D01*
X44821Y-199667D01*
X44126Y-199203D01*
X43307Y-199040D01*
X42488Y-199203D01*
X41793Y-199667D01*
X41329Y-200362D01*
X41166Y-201181D01*
X41258Y-201644D01*
X34675Y-208227D01*
X34121Y-207997D01*
Y-205260D01*
X49874Y-189507D01*
X80896D01*
Y-190856D01*
X80896D01*
Y-190916D01*
X80896D01*
Y-195856D01*
X80896D01*
Y-195916D01*
X80896D01*
Y-200856D01*
X80896D01*
Y-200916D01*
X80896D01*
Y-205516D01*
X80496D01*
Y-207636D01*
X86614D01*
X92732D01*
Y-205516D01*
X92332D01*
Y-204507D01*
X93079D01*
X96329Y-207758D01*
X96329Y-207758D01*
X96693Y-208001D01*
X97122Y-208086D01*
X97648Y-208282D01*
X97660Y-208371D01*
X98004Y-209201D01*
X98551Y-209914D01*
X98776Y-210086D01*
Y-210843D01*
X98586Y-210988D01*
X98047Y-211690D01*
X97709Y-212508D01*
X97593Y-213386D01*
X97605Y-213478D01*
X97037Y-213758D01*
X95872Y-212593D01*
X95508Y-212350D01*
X95079Y-212264D01*
X95079Y-212264D01*
X92332D01*
Y-211256D01*
X92732D01*
Y-209136D01*
X86614D01*
X80496D01*
Y-211256D01*
X80896D01*
Y-215856D01*
X92332D01*
Y-214507D01*
X94614D01*
X97632Y-217525D01*
X97572Y-217585D01*
Y-220997D01*
X99278Y-222704D01*
X105446D01*
X107152Y-220997D01*
Y-217585D01*
X106014Y-216447D01*
X106054Y-215849D01*
X106138Y-215784D01*
X106677Y-215081D01*
X106758Y-214886D01*
X102362D01*
Y-211886D01*
X106758D01*
X106677Y-211690D01*
X106138Y-210988D01*
X105949Y-210843D01*
Y-210086D01*
X106174Y-209914D01*
X106721Y-209201D01*
X106969Y-208602D01*
X107087D01*
X107087Y-208602D01*
X107516Y-208517D01*
X107880Y-208273D01*
X107973Y-208180D01*
X108526Y-208476D01*
X108489Y-208661D01*
X108652Y-209481D01*
X109116Y-210175D01*
X109810Y-210640D01*
X110630Y-210803D01*
X111449Y-210640D01*
X112144Y-210175D01*
X112608Y-209481D01*
X112771Y-208661D01*
X112608Y-207842D01*
X112144Y-207147D01*
X111449Y-206683D01*
X110630Y-206520D01*
X110444Y-206557D01*
X110149Y-206004D01*
X112058Y-204095D01*
X112560Y-204441D01*
X112426Y-205118D01*
X112589Y-205938D01*
X113053Y-206632D01*
X113748Y-207096D01*
X114567Y-207259D01*
X115386Y-207096D01*
X116081Y-206632D01*
X116545Y-205938D01*
X116708Y-205118D01*
X116545Y-204299D01*
X116081Y-203604D01*
X115386Y-203140D01*
X114567Y-202977D01*
X113890Y-203112D01*
X113543Y-202610D01*
X115602Y-200551D01*
X116104Y-200898D01*
X115969Y-201575D01*
X116132Y-202394D01*
X116596Y-203089D01*
X117291Y-203553D01*
X118110Y-203716D01*
X118930Y-203553D01*
X119624Y-203089D01*
X120088Y-202394D01*
X120251Y-201575D01*
X120088Y-200755D01*
X119624Y-200061D01*
X118930Y-199597D01*
X118110Y-199434D01*
X117433Y-199568D01*
X117087Y-199066D01*
X119145Y-197008D01*
X119647Y-197354D01*
X119512Y-198031D01*
X119675Y-198851D01*
X120140Y-199546D01*
X120834Y-200010D01*
X121653Y-200173D01*
X122473Y-200010D01*
X123168Y-199546D01*
X123632Y-198851D01*
X123795Y-198031D01*
X123632Y-197212D01*
X123168Y-196518D01*
X122473Y-196053D01*
X121653Y-195890D01*
X120977Y-196025D01*
X120630Y-195523D01*
X125203Y-190951D01*
X125203Y-190951D01*
X125446Y-190587D01*
X125531Y-190157D01*
X125531Y-190157D01*
Y-186470D01*
X125788Y-186315D01*
X126131Y-186217D01*
X126740Y-186624D01*
X127559Y-186787D01*
X128378Y-186624D01*
X129073Y-186160D01*
X129537Y-185465D01*
X129700Y-184646D01*
X129537Y-183826D01*
X129073Y-183132D01*
X128378Y-182668D01*
X127985Y-182589D01*
Y-181978D01*
X128378Y-181899D01*
X129073Y-181435D01*
X129537Y-180741D01*
X129700Y-179921D01*
X129537Y-179102D01*
X129073Y-178407D01*
X128378Y-177943D01*
X127559Y-177780D01*
X126740Y-177943D01*
X126131Y-178350D01*
X125788Y-178252D01*
X125531Y-178097D01*
Y-174266D01*
X125788Y-174110D01*
X126131Y-174012D01*
X126740Y-174419D01*
X127559Y-174582D01*
X128378Y-174419D01*
X129073Y-173955D01*
X129537Y-173260D01*
X129700Y-172441D01*
X129537Y-171622D01*
X129073Y-170927D01*
X128378Y-170463D01*
X127986Y-170385D01*
Y-169773D01*
X128378Y-169695D01*
X129073Y-169230D01*
X129537Y-168536D01*
X129607Y-168185D01*
X130207Y-168244D01*
Y-171466D01*
X131753D01*
Y-193593D01*
X130109D01*
Y-198927D01*
X136820D01*
Y-193593D01*
X133996D01*
Y-171466D01*
X135541D01*
Y-164754D01*
X130207D01*
Y-167189D01*
X129607Y-167248D01*
X129537Y-166897D01*
X129073Y-166202D01*
X128378Y-165738D01*
X127985Y-165660D01*
Y-165049D01*
X128378Y-164970D01*
X129073Y-164506D01*
X129537Y-163812D01*
X129700Y-162992D01*
X129537Y-162173D01*
X129073Y-161478D01*
X128378Y-161014D01*
X127789Y-160897D01*
Y-160285D01*
X127985Y-160246D01*
X128679Y-159782D01*
X128942Y-159389D01*
X130207D01*
Y-161624D01*
X135541D01*
Y-154912D01*
X130207D01*
Y-157146D01*
X128942D01*
X128679Y-156754D01*
X127985Y-156290D01*
X127165Y-156127D01*
X126346Y-156290D01*
X126131Y-156433D01*
X125531Y-156113D01*
Y-154974D01*
X125788Y-154819D01*
X126131Y-154721D01*
X126740Y-155128D01*
X127559Y-155291D01*
X128378Y-155128D01*
X129073Y-154664D01*
X129537Y-153969D01*
X129700Y-153150D01*
X129537Y-152330D01*
X129073Y-151636D01*
X128378Y-151172D01*
X127559Y-151008D01*
X126740Y-151172D01*
X126131Y-151578D01*
X125788Y-151480D01*
X125531Y-151325D01*
Y-146706D01*
X125788Y-146551D01*
X126131Y-146453D01*
X126740Y-146860D01*
X127559Y-147023D01*
X128378Y-146860D01*
X129073Y-146396D01*
X129537Y-145701D01*
X129700Y-144882D01*
X129537Y-144062D01*
X129073Y-143368D01*
X128743Y-143147D01*
X128759Y-142814D01*
X128835Y-142487D01*
X129467Y-142065D01*
X129931Y-141371D01*
X130094Y-140551D01*
X129931Y-139732D01*
X129776Y-139499D01*
X130208Y-139067D01*
X130677Y-139380D01*
X131496Y-139543D01*
X132315Y-139380D01*
X133010Y-138916D01*
X133474Y-138221D01*
X133637Y-137402D01*
X133474Y-136582D01*
X133161Y-136114D01*
X133594Y-135681D01*
X133826Y-135836D01*
X134646Y-135999D01*
X135465Y-135836D01*
X136160Y-135372D01*
X136624Y-134678D01*
X136787Y-133858D01*
X136624Y-133039D01*
X136160Y-132344D01*
X135465Y-131880D01*
X134646Y-131717D01*
X133826Y-131880D01*
X133132Y-132344D01*
X132668Y-133039D01*
X132504Y-133858D01*
X132668Y-134678D01*
X132981Y-135146D01*
X132548Y-135579D01*
X132315Y-135423D01*
X131496Y-135260D01*
X130677Y-135423D01*
X129982Y-135888D01*
X129518Y-136582D01*
X129355Y-137402D01*
X129518Y-138221D01*
X129673Y-138454D01*
X129241Y-138886D01*
X128772Y-138573D01*
X127953Y-138410D01*
X127133Y-138573D01*
X126439Y-139037D01*
X126131Y-139498D01*
X125531Y-139316D01*
Y-138654D01*
X138875Y-125309D01*
X139430Y-125539D01*
Y-128346D01*
X139430Y-128347D01*
X139430Y-128347D01*
Y-154912D01*
X137687D01*
Y-161624D01*
X139430D01*
Y-164754D01*
X137687D01*
Y-171466D01*
X143021D01*
Y-164754D01*
X141673D01*
Y-161624D01*
X143021D01*
Y-154912D01*
X141673D01*
Y-128811D01*
X146343Y-124141D01*
X157626D01*
X157921Y-124853D01*
X158563Y-125689D01*
X159399Y-126331D01*
X160372Y-126734D01*
X161417Y-126872D01*
X162462Y-126734D01*
X163436Y-126331D01*
X164272Y-125689D01*
X164914Y-124853D01*
X165317Y-123880D01*
X165455Y-122835D01*
X165317Y-121790D01*
X164914Y-120816D01*
X164272Y-119980D01*
X163436Y-119338D01*
X162462Y-118935D01*
X161417Y-118797D01*
X160372Y-118935D01*
X159399Y-119338D01*
X158563Y-119980D01*
X157921Y-120816D01*
X157518Y-121790D01*
X157503Y-121898D01*
X151155D01*
X150973Y-121298D01*
X151120Y-121199D01*
X151584Y-120504D01*
X151747Y-119685D01*
X151584Y-118866D01*
X151120Y-118171D01*
X150426Y-117707D01*
X149606Y-117544D01*
X148787Y-117707D01*
X148092Y-118171D01*
X147775Y-118646D01*
X147107D01*
X146790Y-118171D01*
X146558Y-118017D01*
Y-117417D01*
X146790Y-117262D01*
X147254Y-116567D01*
X147417Y-115748D01*
X147254Y-114929D01*
X146790Y-114234D01*
X146095Y-113770D01*
X145276Y-113607D01*
X144456Y-113770D01*
X143762Y-114234D01*
X143297Y-114929D01*
X143134Y-115748D01*
X143297Y-116567D01*
X143762Y-117262D01*
X143993Y-117417D01*
Y-118017D01*
X143762Y-118171D01*
X143297Y-118866D01*
X143134Y-119685D01*
X143297Y-120504D01*
X143762Y-121199D01*
X144456Y-121663D01*
X144758Y-121723D01*
X144843Y-121854D01*
X144940Y-122371D01*
X142227Y-125084D01*
X141673Y-124855D01*
Y-105976D01*
X148890Y-98759D01*
X150146D01*
X150266Y-99359D01*
X149556Y-99653D01*
X148720Y-100295D01*
X148078Y-101131D01*
X147675Y-102105D01*
X147538Y-103150D01*
X147675Y-104194D01*
X148078Y-105168D01*
X148720Y-106004D01*
X149556Y-106646D01*
X150530Y-107049D01*
X151575Y-107187D01*
X152620Y-107049D01*
X153594Y-106646D01*
X154430Y-106004D01*
X155071Y-105168D01*
X155474Y-104194D01*
X155612Y-103150D01*
X155474Y-102105D01*
X155071Y-101131D01*
X154430Y-100295D01*
X153594Y-99653D01*
X152884Y-99359D01*
X153003Y-98759D01*
X159989D01*
X160108Y-99359D01*
X159399Y-99653D01*
X158563Y-100295D01*
X157921Y-101131D01*
X157518Y-102105D01*
X157380Y-103150D01*
X157518Y-104194D01*
X157921Y-105168D01*
X158563Y-106004D01*
X159399Y-106646D01*
X160372Y-107049D01*
X161417Y-107187D01*
X162462Y-107049D01*
X163436Y-106646D01*
X164272Y-106004D01*
X164914Y-105168D01*
X165285Y-104271D01*
X168827D01*
X172501Y-107945D01*
Y-134439D01*
X171546D01*
Y-141151D01*
X172162D01*
X172411Y-141751D01*
X159250Y-154912D01*
X156972D01*
X156723Y-154312D01*
X167525Y-143510D01*
X167769Y-143146D01*
X167854Y-142717D01*
X167854Y-142717D01*
Y-141151D01*
X169399D01*
Y-136026D01*
X169691Y-135734D01*
X169691Y-135734D01*
X169934Y-135370D01*
X170019Y-134941D01*
X170019Y-134941D01*
Y-114567D01*
X169934Y-114138D01*
X169691Y-113774D01*
X169691Y-113774D01*
X168116Y-112199D01*
X167752Y-111956D01*
X167323Y-111871D01*
X167323Y-111871D01*
X165285D01*
X164914Y-110974D01*
X164272Y-110137D01*
X163436Y-109496D01*
X162462Y-109092D01*
X161417Y-108955D01*
X160372Y-109092D01*
X159399Y-109496D01*
X158563Y-110137D01*
X157921Y-110974D01*
X157518Y-111947D01*
X157380Y-112992D01*
X157518Y-114037D01*
X157921Y-115011D01*
X158563Y-115847D01*
X159399Y-116489D01*
X160372Y-116892D01*
X161417Y-117029D01*
X162462Y-116892D01*
X163436Y-116489D01*
X164272Y-115847D01*
X164914Y-115011D01*
X165285Y-114114D01*
X166858D01*
X167776Y-115032D01*
Y-134439D01*
X164065D01*
Y-141151D01*
X165611D01*
Y-142252D01*
X152357Y-155506D01*
X152113Y-155870D01*
X152028Y-156299D01*
X152028Y-156299D01*
Y-156885D01*
X151636Y-157147D01*
X151172Y-157842D01*
X151008Y-158661D01*
X151172Y-159481D01*
X151636Y-160175D01*
X152330Y-160640D01*
X153150Y-160803D01*
X153969Y-160640D01*
X154664Y-160175D01*
X155128Y-159481D01*
X155291Y-158661D01*
X155128Y-157842D01*
X154664Y-157147D01*
X154631Y-156404D01*
X155591Y-155444D01*
X156191Y-155692D01*
Y-161624D01*
X157638D01*
Y-164754D01*
X156191D01*
Y-171466D01*
X157737D01*
Y-175323D01*
X150857Y-182203D01*
X150394Y-182111D01*
X149574Y-182274D01*
X148880Y-182738D01*
X148416Y-183433D01*
X148253Y-184252D01*
X148416Y-185071D01*
X148880Y-185766D01*
X149574Y-186230D01*
X150394Y-186393D01*
X151213Y-186230D01*
X151908Y-185766D01*
X152372Y-185071D01*
X152535Y-184252D01*
X152443Y-183789D01*
X159651Y-176581D01*
X159895Y-176217D01*
X159980Y-175787D01*
X159980Y-175787D01*
Y-171466D01*
X161525D01*
Y-164754D01*
X159881D01*
Y-161624D01*
X161525D01*
Y-155809D01*
X174809Y-142525D01*
X175052Y-142162D01*
X175137Y-141732D01*
X175137Y-141732D01*
Y-141151D01*
X176880D01*
Y-134439D01*
X174744D01*
Y-107480D01*
X174744Y-107480D01*
X174658Y-107051D01*
X174415Y-106687D01*
X174415Y-106687D01*
X170084Y-102357D01*
X169720Y-102113D01*
X169291Y-102028D01*
X169291Y-102028D01*
X165285D01*
X164914Y-101131D01*
X164272Y-100295D01*
X163436Y-99653D01*
X162726Y-99359D01*
X162846Y-98759D01*
X167520D01*
X167520Y-98759D01*
X167949Y-98674D01*
X168313Y-98431D01*
X171014Y-95730D01*
X171567Y-96025D01*
X171481Y-96457D01*
X171644Y-97276D01*
X172108Y-97971D01*
X172803Y-98435D01*
X173622Y-98598D01*
X174441Y-98435D01*
X175136Y-97971D01*
X175600Y-97276D01*
X175763Y-96457D01*
X175711Y-96196D01*
X175724Y-96170D01*
X176231Y-95735D01*
X176772Y-95842D01*
X177591Y-95679D01*
X177609Y-95667D01*
X178234Y-95971D01*
X178337Y-96489D01*
X178801Y-97183D01*
X179496Y-97648D01*
X180315Y-97810D01*
X181134Y-97648D01*
X181829Y-97183D01*
X182293Y-96489D01*
X182456Y-95669D01*
X182444Y-95609D01*
X182984Y-95249D01*
X183039Y-95285D01*
X183858Y-95448D01*
X184678Y-95285D01*
X185372Y-94821D01*
X185836Y-94126D01*
X185999Y-93307D01*
X185865Y-92630D01*
X186367Y-92283D01*
X191333Y-97250D01*
X191333Y-97250D01*
X191697Y-97493D01*
X192126Y-97578D01*
X192126Y-97578D01*
X199105D01*
Y-101880D01*
X199346D01*
Y-111278D01*
X198823Y-111456D01*
X198746Y-111470D01*
X198064Y-111014D01*
X197244Y-110851D01*
X196425Y-111014D01*
X195730Y-111478D01*
X195266Y-112173D01*
X195103Y-112992D01*
X195266Y-113812D01*
X195730Y-114506D01*
X196425Y-114970D01*
X197244Y-115133D01*
X198064Y-114970D01*
X198746Y-114514D01*
X198823Y-114528D01*
X199346Y-114706D01*
Y-118199D01*
X199105D01*
Y-125108D01*
X199346D01*
Y-132378D01*
X194602Y-137122D01*
X194186Y-137665D01*
X193924Y-138298D01*
X193834Y-138976D01*
X193834Y-138977D01*
Y-163386D01*
X193834Y-163386D01*
X193924Y-164065D01*
X194186Y-164697D01*
X194602Y-165240D01*
X201841Y-172479D01*
X201812Y-172575D01*
X201670Y-174016D01*
X201812Y-175456D01*
X202233Y-176842D01*
X202915Y-178119D01*
X203833Y-179238D01*
X204952Y-180156D01*
X206229Y-180838D01*
X207614Y-181259D01*
X209055Y-181401D01*
X210496Y-181259D01*
X211881Y-180838D01*
X213158Y-180156D01*
X214277Y-179238D01*
X215195Y-178119D01*
X215878Y-176842D01*
X216298Y-175456D01*
X216440Y-174016D01*
X216298Y-172575D01*
X215878Y-171190D01*
X215195Y-169913D01*
X214277Y-168794D01*
X213158Y-167876D01*
X211881Y-167193D01*
X210496Y-166773D01*
X209055Y-166631D01*
X207614Y-166773D01*
X206229Y-167193D01*
X204952Y-167876D01*
X204789Y-168009D01*
X199079Y-162300D01*
Y-140063D01*
X203823Y-135319D01*
X203823Y-135319D01*
X204240Y-134776D01*
X204502Y-134143D01*
X204591Y-133465D01*
X204591Y-133465D01*
Y-125108D01*
X204832D01*
Y-118199D01*
X204591D01*
Y-101880D01*
X204832D01*
Y-98726D01*
X204855Y-98555D01*
X204855Y-98555D01*
Y-98161D01*
X204832Y-97991D01*
Y-94971D01*
X204591D01*
Y-94000D01*
X210535Y-88055D01*
X221654D01*
X222332Y-87966D01*
X222965Y-87704D01*
X223508Y-87287D01*
X223925Y-86744D01*
X224187Y-86112D01*
X224276Y-85433D01*
X224187Y-84754D01*
X223925Y-84122D01*
X223508Y-83579D01*
X222965Y-83162D01*
X222332Y-82900D01*
X222326Y-82899D01*
X222366Y-82299D01*
X233480D01*
Y-82284D01*
X198016D01*
Y-82299D01*
X208737D01*
X208776Y-82899D01*
X208770Y-82900D01*
X208138Y-83162D01*
X207594Y-83579D01*
X200114Y-91059D01*
X199697Y-91602D01*
X199435Y-92235D01*
X199346Y-92913D01*
X199346Y-92914D01*
Y-94971D01*
X199105D01*
Y-95335D01*
X192591D01*
X187342Y-90087D01*
Y-86625D01*
X187942Y-86421D01*
X188287Y-86870D01*
X189123Y-87512D01*
X190097Y-87915D01*
X191142Y-88053D01*
X192187Y-87915D01*
X193160Y-87512D01*
X193997Y-86870D01*
X194638Y-86034D01*
X195042Y-85061D01*
X195179Y-84016D01*
X195042Y-82971D01*
X194638Y-81997D01*
X193997Y-81161D01*
X193160Y-80519D01*
X192187Y-80116D01*
X191142Y-79978D01*
X190097Y-80116D01*
X189123Y-80519D01*
X188287Y-81161D01*
X187942Y-81610D01*
X187342Y-81407D01*
Y-79134D01*
X187342Y-79134D01*
X187257Y-78705D01*
X187013Y-78341D01*
X187013Y-78341D01*
X185912Y-77239D01*
X185832Y-77120D01*
X184670Y-75958D01*
X185041Y-75061D01*
X185179Y-74016D01*
X185041Y-72971D01*
X184638Y-71997D01*
X183996Y-71161D01*
X183160Y-70519D01*
X182187Y-70116D01*
X181142Y-69978D01*
D02*
G37*
G36*
X162642Y-80359D02*
Y-82516D01*
X164799D01*
X164594Y-82022D01*
X163961Y-81197D01*
X163135Y-80563D01*
X162642Y-80359D01*
D02*
G37*
G36*
X164799Y-85516D02*
X162642D01*
Y-87673D01*
X163135Y-87468D01*
X163961Y-86835D01*
X164594Y-86009D01*
X164799Y-85516D01*
D02*
G37*
G36*
X212319Y-94571D02*
X209805D01*
Y-97675D01*
X212319D01*
Y-94571D01*
D02*
G37*
G36*
X208305D02*
X205791D01*
Y-97675D01*
X208305D01*
Y-94571D01*
D02*
G37*
G36*
X131102Y-93528D02*
X130283Y-93691D01*
X129588Y-94155D01*
X129124Y-94850D01*
X128961Y-95669D01*
X129124Y-96489D01*
X129588Y-97183D01*
X130283Y-97648D01*
X131102Y-97810D01*
X131922Y-97648D01*
X132616Y-97183D01*
X133080Y-96489D01*
X133244Y-95669D01*
X133080Y-94850D01*
X132616Y-94155D01*
X131922Y-93691D01*
X131102Y-93528D01*
D02*
G37*
G36*
X212319Y-99175D02*
X209805D01*
Y-102279D01*
X212319D01*
Y-99175D01*
D02*
G37*
G36*
X208305D02*
X205791D01*
Y-102279D01*
X208305D01*
Y-99175D01*
D02*
G37*
G36*
X94342Y-102462D02*
Y-104405D01*
X96287D01*
X96123Y-104011D01*
X95521Y-103227D01*
X94737Y-102625D01*
X94342Y-102462D01*
D02*
G37*
G36*
X91343D02*
X90948Y-102625D01*
X90164Y-103227D01*
X89562Y-104011D01*
X89398Y-104405D01*
X91343D01*
Y-102462D01*
D02*
G37*
G36*
X220988Y-106218D02*
Y-107949D01*
X222719D01*
X222597Y-107654D01*
X222026Y-106911D01*
X221283Y-106340D01*
X220988Y-106218D01*
D02*
G37*
G36*
X217988D02*
X217693Y-106340D01*
X216950Y-106911D01*
X216379Y-107654D01*
X216257Y-107949D01*
X217988D01*
Y-106218D01*
D02*
G37*
G36*
X96287Y-107405D02*
X94342D01*
Y-109350D01*
X94737Y-109186D01*
X95521Y-108584D01*
X96123Y-107800D01*
X96287Y-107405D01*
D02*
G37*
G36*
X91343D02*
X89398D01*
X89562Y-107800D01*
X90164Y-108584D01*
X90948Y-109186D01*
X91343Y-109350D01*
Y-107405D01*
D02*
G37*
G36*
X73158Y-102067D02*
X72164Y-102198D01*
X71238Y-102581D01*
X70443Y-103191D01*
X69833Y-103986D01*
X69450Y-104912D01*
X69319Y-105905D01*
X69450Y-106899D01*
X69833Y-107825D01*
X70443Y-108620D01*
X71238Y-109230D01*
X72164Y-109613D01*
X73158Y-109744D01*
X74151Y-109613D01*
X75077Y-109230D01*
X75872Y-108620D01*
X76482Y-107825D01*
X76865Y-106899D01*
X76996Y-105905D01*
X76865Y-104912D01*
X76482Y-103986D01*
X75872Y-103191D01*
X75077Y-102581D01*
X74151Y-102198D01*
X73158Y-102067D01*
D02*
G37*
G36*
X126871Y-105733D02*
X126052Y-105896D01*
X125357Y-106360D01*
X124893Y-107055D01*
X124730Y-107874D01*
X124893Y-108693D01*
X125357Y-109388D01*
X126052Y-109852D01*
X126871Y-110015D01*
X127690Y-109852D01*
X128385Y-109388D01*
X128849Y-108693D01*
X129012Y-107874D01*
X128849Y-107055D01*
X128385Y-106360D01*
X127690Y-105896D01*
X126871Y-105733D01*
D02*
G37*
G36*
X222719Y-110949D02*
X220988D01*
Y-112680D01*
X221283Y-112558D01*
X222026Y-111987D01*
X222597Y-111244D01*
X222719Y-110949D01*
D02*
G37*
G36*
X217988D02*
X216257D01*
X216379Y-111244D01*
X216950Y-111987D01*
X217693Y-112558D01*
X217988Y-112680D01*
Y-110949D01*
D02*
G37*
G36*
X209646Y-105809D02*
X208703Y-105933D01*
X207826Y-106296D01*
X207072Y-106875D01*
X206493Y-107629D01*
X206130Y-108507D01*
X206006Y-109449D01*
X206130Y-110391D01*
X206493Y-111269D01*
X207072Y-112023D01*
X207826Y-112601D01*
X208703Y-112965D01*
X209646Y-113089D01*
X210588Y-112965D01*
X211466Y-112601D01*
X212220Y-112023D01*
X212798Y-111269D01*
X213162Y-110391D01*
X213286Y-109449D01*
X213162Y-108507D01*
X212798Y-107629D01*
X212220Y-106875D01*
X211466Y-106296D01*
X210588Y-105933D01*
X209646Y-105809D01*
D02*
G37*
G36*
X32809Y-106430D02*
X28609D01*
X26509Y-108530D01*
Y-112730D01*
X28609Y-114830D01*
X32809D01*
X34908Y-112730D01*
Y-108530D01*
X32809Y-106430D01*
D02*
G37*
G36*
X9186D02*
X4987D01*
X2887Y-108530D01*
Y-112730D01*
X4987Y-114830D01*
X9186D01*
X11286Y-112730D01*
Y-108530D01*
X9186Y-106430D01*
D02*
G37*
G36*
X126871Y-110851D02*
X126052Y-111014D01*
X125357Y-111478D01*
X124893Y-112173D01*
X124730Y-112992D01*
X124893Y-113812D01*
X125357Y-114506D01*
X126052Y-114970D01*
X126871Y-115133D01*
X127690Y-114970D01*
X128385Y-114506D01*
X128849Y-113812D01*
X129012Y-112992D01*
X128849Y-112173D01*
X128385Y-111478D01*
X127690Y-111014D01*
X126871Y-110851D01*
D02*
G37*
G36*
X151575Y-108955D02*
X150530Y-109092D01*
X149556Y-109496D01*
X148720Y-110137D01*
X148078Y-110974D01*
X147675Y-111947D01*
X147538Y-112992D01*
X147675Y-114037D01*
X148078Y-115011D01*
X148720Y-115847D01*
X149556Y-116489D01*
X150530Y-116892D01*
X151575Y-117029D01*
X152620Y-116892D01*
X153594Y-116489D01*
X154430Y-115847D01*
X155071Y-115011D01*
X155474Y-114037D01*
X155612Y-112992D01*
X155474Y-111947D01*
X155071Y-110974D01*
X154430Y-110137D01*
X153594Y-109496D01*
X152620Y-109092D01*
X151575Y-108955D01*
D02*
G37*
G36*
X113386Y-116756D02*
X112566Y-116920D01*
X111872Y-117384D01*
X111555Y-117858D01*
X110886D01*
X110569Y-117384D01*
X109874Y-116920D01*
X109055Y-116756D01*
X108236Y-116920D01*
X107541Y-117384D01*
X107077Y-118078D01*
X106914Y-118898D01*
X107077Y-119717D01*
X107541Y-120412D01*
X108236Y-120876D01*
X109055Y-121039D01*
X109874Y-120876D01*
X110569Y-120412D01*
X110886Y-119937D01*
X111555D01*
X111872Y-120412D01*
X112566Y-120876D01*
X113386Y-121039D01*
X114205Y-120876D01*
X114900Y-120412D01*
X115364Y-119717D01*
X115527Y-118898D01*
X115364Y-118078D01*
X114900Y-117384D01*
X114205Y-116920D01*
X113386Y-116756D01*
D02*
G37*
G36*
X126871Y-115969D02*
X126052Y-116132D01*
X125357Y-116596D01*
X124893Y-117291D01*
X124730Y-118110D01*
X124893Y-118930D01*
X125357Y-119624D01*
X126052Y-120088D01*
X126871Y-120251D01*
X127690Y-120088D01*
X128385Y-119624D01*
X128849Y-118930D01*
X129012Y-118110D01*
X128849Y-117291D01*
X128385Y-116596D01*
X127690Y-116132D01*
X126871Y-115969D01*
D02*
G37*
G36*
X212319Y-117799D02*
X209805D01*
Y-120904D01*
X212319D01*
Y-117799D01*
D02*
G37*
G36*
X208305D02*
X205791D01*
Y-120904D01*
X208305D01*
Y-117799D01*
D02*
G37*
G36*
X15879Y-114698D02*
X12073D01*
X10170Y-116601D01*
Y-120407D01*
X12073Y-122310D01*
X15879D01*
X17782Y-120407D01*
Y-116601D01*
X15879Y-114698D01*
D02*
G37*
G36*
X212319Y-122404D02*
X209805D01*
Y-125508D01*
X212319D01*
Y-122404D01*
D02*
G37*
G36*
X208305D02*
X205791D01*
Y-125508D01*
X208305D01*
Y-122404D01*
D02*
G37*
G36*
X207874Y-127780D02*
X207055Y-127943D01*
X206360Y-128407D01*
X205896Y-129102D01*
X205733Y-129921D01*
X205896Y-130741D01*
X206360Y-131435D01*
X207055Y-131899D01*
X207874Y-132062D01*
X208693Y-131899D01*
X209388Y-131435D01*
X209852Y-130741D01*
X210015Y-129921D01*
X209852Y-129102D01*
X209388Y-128407D01*
X208693Y-127943D01*
X207874Y-127780D01*
D02*
G37*
G36*
X164961Y-128568D02*
X164141Y-128730D01*
X163447Y-129195D01*
X162982Y-129889D01*
X162820Y-130709D01*
X162982Y-131528D01*
X163447Y-132223D01*
X164141Y-132687D01*
X164961Y-132850D01*
X165780Y-132687D01*
X166475Y-132223D01*
X166939Y-131528D01*
X167102Y-130709D01*
X166939Y-129889D01*
X166475Y-129195D01*
X165780Y-128730D01*
X164961Y-128568D01*
D02*
G37*
G36*
X147244D02*
X146425Y-128730D01*
X145730Y-129195D01*
X145266Y-129889D01*
X145103Y-130709D01*
X145266Y-131528D01*
X145730Y-132223D01*
X146425Y-132687D01*
X147244Y-132850D01*
X148064Y-132687D01*
X148758Y-132223D01*
X149222Y-131528D01*
X149385Y-130709D01*
X149222Y-129889D01*
X148758Y-129195D01*
X148064Y-128730D01*
X147244Y-128568D01*
D02*
G37*
G36*
X159843Y-130536D02*
X159023Y-130699D01*
X158328Y-131163D01*
X157864Y-131858D01*
X157701Y-132677D01*
X157864Y-133497D01*
X158328Y-134191D01*
X159023Y-134655D01*
X159843Y-134818D01*
X160662Y-134655D01*
X161356Y-134191D01*
X161821Y-133497D01*
X161984Y-132677D01*
X161821Y-131858D01*
X161356Y-131163D01*
X160662Y-130699D01*
X159843Y-130536D01*
D02*
G37*
G36*
X25722Y-114698D02*
X21916D01*
X20013Y-116601D01*
Y-120407D01*
X21916Y-122310D01*
X25722D01*
X27625Y-120407D01*
Y-120217D01*
X28225Y-119968D01*
X40939Y-132683D01*
X40939Y-132683D01*
X41303Y-132926D01*
X41732Y-133011D01*
X41732Y-133011D01*
X49147D01*
Y-135302D01*
X49415D01*
X49711Y-135902D01*
X49578Y-136074D01*
X49330Y-136674D01*
X41016D01*
X37801Y-133459D01*
X37437Y-133216D01*
X37008Y-133130D01*
X37008Y-133130D01*
X27625D01*
Y-132349D01*
X25722Y-130446D01*
X21916D01*
X20013Y-132349D01*
Y-136155D01*
X21677Y-137819D01*
X21854Y-138189D01*
X21677Y-138559D01*
X20013Y-140223D01*
Y-144029D01*
X21677Y-145693D01*
X21854Y-146063D01*
X21677Y-146433D01*
X20013Y-148097D01*
Y-151903D01*
X21916Y-153806D01*
X25722D01*
X27625Y-151903D01*
Y-150925D01*
X49412D01*
X49578Y-151327D01*
X50125Y-152040D01*
X50838Y-152587D01*
X51668Y-152931D01*
X52559Y-153048D01*
X55315D01*
X56206Y-152931D01*
X57036Y-152587D01*
X57749Y-152040D01*
X58296Y-151327D01*
X58639Y-150497D01*
X58757Y-149606D01*
X58639Y-148716D01*
X58296Y-147886D01*
X57749Y-147173D01*
X57463Y-146953D01*
Y-146353D01*
X57749Y-146134D01*
X58296Y-145422D01*
X58639Y-144592D01*
X58757Y-143701D01*
X58639Y-142810D01*
X58296Y-141980D01*
X57749Y-141267D01*
X57463Y-141048D01*
Y-140448D01*
X57749Y-140229D01*
X58296Y-139516D01*
X58639Y-138686D01*
X58757Y-137795D01*
X58639Y-136905D01*
X58296Y-136074D01*
X58163Y-135902D01*
X58459Y-135302D01*
X58727D01*
Y-128478D01*
X49147D01*
Y-130768D01*
X42197D01*
X29140Y-117711D01*
X28776Y-117468D01*
X28346Y-117382D01*
X28346Y-117382D01*
X27625D01*
Y-116601D01*
X25722Y-114698D01*
D02*
G37*
G36*
X88114Y-131804D02*
Y-137476D01*
X93787D01*
X93390Y-136170D01*
X92713Y-134901D01*
X91800Y-133790D01*
X90689Y-132878D01*
X89421Y-132200D01*
X88114Y-131804D01*
D02*
G37*
G36*
X85114Y-131804D02*
X83807Y-132200D01*
X82539Y-132878D01*
X81428Y-133790D01*
X80516Y-134901D01*
X79838Y-136170D01*
X79441Y-137476D01*
X85114D01*
Y-131804D01*
D02*
G37*
G36*
X209055Y-135135D02*
X207614Y-135277D01*
X206229Y-135697D01*
X204952Y-136380D01*
X203833Y-137298D01*
X202915Y-138417D01*
X202233Y-139694D01*
X201812Y-141079D01*
X201670Y-142520D01*
X201812Y-143960D01*
X202233Y-145346D01*
X202915Y-146623D01*
X203833Y-147741D01*
X204952Y-148660D01*
X206229Y-149342D01*
X207614Y-149763D01*
X209055Y-149905D01*
X210496Y-149763D01*
X211881Y-149342D01*
X213158Y-148660D01*
X214277Y-147741D01*
X215195Y-146623D01*
X215878Y-145346D01*
X216298Y-143960D01*
X216440Y-142520D01*
X216298Y-141079D01*
X215878Y-139694D01*
X215195Y-138417D01*
X214277Y-137298D01*
X213158Y-136380D01*
X211881Y-135697D01*
X210496Y-135277D01*
X209055Y-135135D01*
D02*
G37*
G36*
X76378Y-149040D02*
X75559Y-149203D01*
X74864Y-149667D01*
X74400Y-150362D01*
X74237Y-151181D01*
X74400Y-152000D01*
X74864Y-152695D01*
X75559Y-153159D01*
X76378Y-153322D01*
X77197Y-153159D01*
X77892Y-152695D01*
X78356Y-152000D01*
X78519Y-151181D01*
X78356Y-150362D01*
X77892Y-149667D01*
X77197Y-149203D01*
X76378Y-149040D01*
D02*
G37*
G36*
X15879Y-130446D02*
X12073D01*
X10170Y-132349D01*
Y-136155D01*
X11835Y-137819D01*
X12011Y-138189D01*
X11835Y-138559D01*
X10170Y-140223D01*
Y-144029D01*
X11835Y-145693D01*
X12011Y-146063D01*
X11835Y-146433D01*
X10170Y-148097D01*
Y-151903D01*
X12073Y-153806D01*
X15879D01*
X17782Y-151903D01*
Y-148097D01*
X16118Y-146433D01*
X15942Y-146063D01*
X16118Y-145693D01*
X17782Y-144029D01*
Y-140223D01*
X16118Y-138559D01*
X15942Y-138189D01*
X16118Y-137819D01*
X17782Y-136155D01*
Y-132349D01*
X15879Y-130446D01*
D02*
G37*
G36*
X103862Y-156861D02*
Y-158736D01*
X106758D01*
X106677Y-158541D01*
X106138Y-157838D01*
X105436Y-157299D01*
X104618Y-156961D01*
X103862Y-156861D01*
D02*
G37*
G36*
X100862D02*
X100107Y-156961D01*
X99289Y-157299D01*
X98586Y-157838D01*
X98047Y-158541D01*
X97966Y-158736D01*
X100862D01*
Y-156861D01*
D02*
G37*
G36*
X147244Y-155733D02*
X146425Y-155896D01*
X145730Y-156360D01*
X145266Y-157055D01*
X145103Y-157874D01*
X145266Y-158693D01*
X145730Y-159388D01*
X146425Y-159852D01*
X147244Y-160015D01*
X148064Y-159852D01*
X148758Y-159388D01*
X149222Y-158693D01*
X149385Y-157874D01*
X149222Y-157055D01*
X148758Y-156360D01*
X148064Y-155896D01*
X147244Y-155733D01*
D02*
G37*
G36*
X169006Y-154912D02*
X163672D01*
Y-161624D01*
X169006D01*
Y-159389D01*
X170271D01*
X170533Y-159782D01*
X171228Y-160246D01*
X172047Y-160409D01*
X172867Y-160246D01*
X173561Y-159782D01*
X174025Y-159087D01*
X174188Y-158268D01*
X174025Y-157448D01*
X173561Y-156754D01*
X172867Y-156290D01*
X172047Y-156127D01*
X171228Y-156290D01*
X170533Y-156754D01*
X170271Y-157146D01*
X169006D01*
Y-154912D01*
D02*
G37*
G36*
X32809Y-153674D02*
X28609D01*
X26509Y-155774D01*
Y-159974D01*
X28609Y-162074D01*
X32809D01*
X34908Y-159974D01*
Y-155774D01*
X32809Y-153674D01*
D02*
G37*
G36*
X110236Y-158095D02*
X109417Y-158258D01*
X108722Y-158722D01*
X108258Y-159417D01*
X108095Y-160236D01*
X108258Y-161056D01*
X108722Y-161750D01*
X109417Y-162214D01*
X110236Y-162377D01*
X111056Y-162214D01*
X111750Y-161750D01*
X112214Y-161056D01*
X112377Y-160236D01*
X112214Y-159417D01*
X111750Y-158722D01*
X111056Y-158258D01*
X110236Y-158095D01*
D02*
G37*
G36*
X86614Y-156127D02*
X85795Y-156290D01*
X85100Y-156754D01*
X84636Y-157448D01*
X84473Y-158268D01*
X84636Y-159087D01*
X85100Y-159782D01*
X85301Y-159916D01*
X85119Y-160516D01*
X80496D01*
Y-162636D01*
X86614D01*
X92732D01*
Y-160516D01*
X88110D01*
X87928Y-159916D01*
X88128Y-159782D01*
X88592Y-159087D01*
X88755Y-158268D01*
X88592Y-157448D01*
X88128Y-156754D01*
X87434Y-156290D01*
X86614Y-156127D01*
D02*
G37*
G36*
X106758Y-161736D02*
X102362D01*
X97966D01*
X98047Y-161932D01*
X98586Y-162634D01*
X98817Y-162811D01*
Y-163567D01*
X98586Y-163744D01*
X98047Y-164446D01*
X97966Y-164642D01*
X102362D01*
X106758D01*
X106677Y-164446D01*
X106138Y-163744D01*
X105908Y-163567D01*
Y-162811D01*
X106138Y-162634D01*
X106677Y-161932D01*
X106758Y-161736D01*
D02*
G37*
G36*
X68110Y-161245D02*
X67291Y-161408D01*
X66596Y-161872D01*
X66132Y-162566D01*
X65969Y-163386D01*
X66132Y-164205D01*
X66596Y-164900D01*
X67291Y-165364D01*
X68110Y-165527D01*
X68930Y-165364D01*
X69624Y-164900D01*
X70088Y-164205D01*
X70251Y-163386D01*
X70088Y-162566D01*
X69624Y-161872D01*
X68930Y-161408D01*
X68110Y-161245D01*
D02*
G37*
G36*
X209055Y-150883D02*
X207614Y-151025D01*
X206229Y-151445D01*
X204952Y-152128D01*
X203833Y-153046D01*
X202915Y-154165D01*
X202233Y-155442D01*
X201812Y-156827D01*
X201670Y-158268D01*
X201812Y-159708D01*
X202233Y-161094D01*
X202915Y-162371D01*
X203833Y-163489D01*
X204952Y-164408D01*
X206229Y-165090D01*
X207614Y-165511D01*
X209055Y-165653D01*
X210496Y-165511D01*
X211881Y-165090D01*
X213158Y-164408D01*
X214277Y-163489D01*
X215195Y-162371D01*
X215878Y-161094D01*
X216298Y-159708D01*
X216440Y-158268D01*
X216298Y-156827D01*
X215878Y-155442D01*
X215195Y-154165D01*
X214277Y-153046D01*
X213158Y-152128D01*
X211881Y-151445D01*
X210496Y-151025D01*
X209055Y-150883D01*
D02*
G37*
G36*
X9186Y-153674D02*
X4987D01*
X2887Y-155774D01*
Y-159974D01*
X4713Y-161799D01*
X1756Y-164756D01*
Y-166217D01*
X8661D01*
X15567D01*
Y-164756D01*
X12606Y-161795D01*
X10249D01*
X10019Y-161241D01*
X11286Y-159974D01*
Y-155774D01*
X9186Y-153674D01*
D02*
G37*
G36*
X48031Y-163213D02*
X47212Y-163376D01*
X46518Y-163840D01*
X46053Y-164535D01*
X45890Y-165354D01*
X46053Y-166174D01*
X46518Y-166868D01*
X47212Y-167332D01*
X48031Y-167496D01*
X48851Y-167332D01*
X49545Y-166868D01*
X50010Y-166174D01*
X50173Y-165354D01*
X50010Y-164535D01*
X49545Y-163840D01*
X48851Y-163376D01*
X48031Y-163213D01*
D02*
G37*
G36*
X92732Y-164136D02*
X86614D01*
X80496D01*
Y-166256D01*
Y-167636D01*
X86614D01*
X92732D01*
Y-166256D01*
Y-164136D01*
D02*
G37*
G36*
X110236Y-164001D02*
X109417Y-164164D01*
X108722Y-164628D01*
X108258Y-165322D01*
X108095Y-166142D01*
X108258Y-166961D01*
X108722Y-167656D01*
X109417Y-168120D01*
X110236Y-168283D01*
X111056Y-168120D01*
X111750Y-167656D01*
X112214Y-166961D01*
X112377Y-166142D01*
X112214Y-165322D01*
X111750Y-164628D01*
X111056Y-164164D01*
X110236Y-164001D01*
D02*
G37*
G36*
X15567Y-169217D02*
X10161D01*
Y-173638D01*
X12606D01*
X15567Y-170677D01*
Y-169217D01*
D02*
G37*
G36*
X7161D02*
X1756D01*
Y-170677D01*
X4716Y-173638D01*
X7161D01*
Y-169217D01*
D02*
G37*
G36*
X110236Y-169906D02*
X109417Y-170069D01*
X108722Y-170533D01*
X108258Y-171228D01*
X108095Y-172047D01*
X108258Y-172867D01*
X108722Y-173561D01*
X109417Y-174025D01*
X110236Y-174188D01*
X111056Y-174025D01*
X111750Y-173561D01*
X112214Y-172867D01*
X112377Y-172047D01*
X112214Y-171228D01*
X111750Y-170533D01*
X111056Y-170069D01*
X110236Y-169906D01*
D02*
G37*
G36*
X147244Y-160851D02*
X146425Y-161014D01*
X145730Y-161478D01*
X145266Y-162173D01*
X145103Y-162992D01*
X145266Y-163812D01*
X145730Y-164506D01*
X146425Y-164970D01*
X146818Y-165049D01*
Y-165660D01*
X146425Y-165738D01*
X145730Y-166202D01*
X145266Y-166897D01*
X145103Y-167717D01*
X145266Y-168536D01*
X145730Y-169230D01*
X146425Y-169695D01*
X146621Y-169734D01*
Y-170345D01*
X146031Y-170463D01*
X145336Y-170927D01*
X144872Y-171622D01*
X144709Y-172441D01*
X144872Y-173260D01*
X145336Y-173955D01*
X146031Y-174419D01*
X146850Y-174582D01*
X147670Y-174419D01*
X148364Y-173955D01*
X148828Y-173260D01*
X148992Y-172441D01*
X148828Y-171622D01*
X148364Y-170927D01*
X147670Y-170463D01*
X147474Y-170424D01*
Y-169812D01*
X148064Y-169695D01*
X148758Y-169230D01*
X149222Y-168536D01*
X149385Y-167717D01*
X149222Y-166897D01*
X148758Y-166202D01*
X148064Y-165738D01*
X147670Y-165660D01*
Y-165049D01*
X148064Y-164970D01*
X148758Y-164506D01*
X149222Y-163812D01*
X149385Y-162992D01*
X149222Y-162173D01*
X148758Y-161478D01*
X148064Y-161014D01*
X147244Y-160851D01*
D02*
G37*
G36*
X22375Y-176509D02*
X18570D01*
X16667Y-178412D01*
Y-182218D01*
X18570Y-184121D01*
X22375D01*
X24278Y-182218D01*
Y-178412D01*
X22375Y-176509D01*
D02*
G37*
G36*
X4012Y-186008D02*
X2256D01*
X-1000Y-189264D01*
Y-192201D01*
X4012D01*
Y-186008D01*
D02*
G37*
G36*
X159055Y-184473D02*
X158236Y-184636D01*
X157541Y-185100D01*
X157077Y-185795D01*
X156914Y-186614D01*
X157077Y-187434D01*
X157123Y-187502D01*
X157081Y-187543D01*
X156838Y-187907D01*
X156753Y-188337D01*
X156753Y-188337D01*
Y-189951D01*
X155010D01*
Y-194192D01*
X147450D01*
Y-192313D01*
X143888D01*
Y-199222D01*
X147450D01*
Y-196434D01*
X155010D01*
Y-196663D01*
X159848D01*
X160056Y-196663D01*
X160304Y-197263D01*
X158201Y-199366D01*
X158179Y-199400D01*
X155010D01*
Y-202323D01*
X151191D01*
Y-199991D01*
X147628D01*
Y-206899D01*
X151191D01*
Y-204566D01*
X155010D01*
Y-206112D01*
X156556D01*
Y-208849D01*
X155010D01*
Y-215561D01*
X160344D01*
Y-208849D01*
X158799D01*
Y-206112D01*
X160344D01*
Y-200396D01*
X161491Y-199249D01*
X162091Y-199498D01*
Y-202006D01*
X164408D01*
Y-199000D01*
X162588D01*
X162340Y-198400D01*
X164077Y-196663D01*
X167824D01*
Y-189951D01*
X162491D01*
Y-195077D01*
X160944Y-196623D01*
X160344Y-196375D01*
X160344Y-196182D01*
Y-189951D01*
X158996D01*
Y-189332D01*
X159055Y-188755D01*
X159874Y-188592D01*
X160569Y-188128D01*
X161033Y-187434D01*
X161196Y-186614D01*
X161033Y-185795D01*
X160569Y-185100D01*
X159874Y-184636D01*
X159055Y-184473D01*
D02*
G37*
G36*
X169006Y-164754D02*
X163672D01*
Y-171466D01*
X169006D01*
Y-169232D01*
X177094D01*
X198419Y-190557D01*
X198419Y-190557D01*
X198783Y-190800D01*
X199213Y-190885D01*
X199213Y-190885D01*
X201781D01*
X201812Y-191205D01*
X202233Y-192590D01*
X202915Y-193867D01*
X203833Y-194986D01*
X204952Y-195904D01*
X206229Y-196586D01*
X207614Y-197007D01*
X209055Y-197149D01*
X210496Y-197007D01*
X211881Y-196586D01*
X213158Y-195904D01*
X214277Y-194986D01*
X215195Y-193867D01*
X215878Y-192590D01*
X216298Y-191205D01*
X216440Y-189764D01*
X216298Y-188323D01*
X215878Y-186938D01*
X215195Y-185661D01*
X214277Y-184542D01*
X213158Y-183624D01*
X211881Y-182941D01*
X210496Y-182521D01*
X209055Y-182379D01*
X207614Y-182521D01*
X206229Y-182941D01*
X204952Y-183624D01*
X203833Y-184542D01*
X202915Y-185661D01*
X202233Y-186938D01*
X201812Y-188323D01*
X201781Y-188642D01*
X199677D01*
X178352Y-167317D01*
X177988Y-167074D01*
X177559Y-166989D01*
X177559Y-166989D01*
X169006D01*
Y-164754D01*
D02*
G37*
G36*
X32193Y-195063D02*
X31815D01*
Y-197319D01*
X34071D01*
Y-196941D01*
X32193Y-195063D01*
D02*
G37*
G36*
X28815D02*
X28437D01*
X26559Y-196941D01*
Y-197319D01*
X28815D01*
Y-195063D01*
D02*
G37*
G36*
X4012Y-195201D02*
X-1000D01*
Y-198138D01*
X2256Y-201394D01*
X4012D01*
Y-195201D01*
D02*
G37*
G36*
X168224Y-199000D02*
X165908D01*
Y-202006D01*
X168224D01*
Y-199000D01*
D02*
G37*
G36*
X34071Y-200319D02*
X31815D01*
Y-202575D01*
X32193D01*
X34071Y-200697D01*
Y-200319D01*
D02*
G37*
G36*
X28815D02*
X26559D01*
Y-200697D01*
X28437Y-202575D01*
X28815D01*
Y-200319D01*
D02*
G37*
G36*
X143710Y-199991D02*
X140148D01*
Y-202619D01*
X136820D01*
Y-201073D01*
X130109D01*
Y-206407D01*
X136820D01*
Y-204862D01*
X140148D01*
Y-206899D01*
X143207D01*
X144202Y-207894D01*
X143973Y-208449D01*
X142679D01*
Y-211455D01*
X144996D01*
Y-209472D01*
X145550Y-209243D01*
X146742Y-210435D01*
Y-215561D01*
X152076D01*
Y-208849D01*
X148329D01*
X144236Y-204756D01*
X143872Y-204513D01*
X143710Y-204481D01*
Y-199991D01*
D02*
G37*
G36*
X212631Y-198359D02*
X205479D01*
X201903Y-201936D01*
Y-204390D01*
X194882D01*
X194882Y-204390D01*
X194453Y-204476D01*
X194089Y-204719D01*
X194089Y-204719D01*
X187101Y-211707D01*
X186857Y-212071D01*
X186772Y-212500D01*
X186772Y-212500D01*
Y-214754D01*
X183947D01*
Y-223041D01*
X191840D01*
Y-214754D01*
X189015D01*
Y-212965D01*
X195346Y-206633D01*
X201903D01*
Y-209088D01*
X205479Y-212664D01*
X212631D01*
X216208Y-209088D01*
Y-201936D01*
X212631Y-198359D01*
D02*
G37*
G36*
X168224Y-203506D02*
X165908D01*
Y-206512D01*
X168224D01*
Y-203506D01*
D02*
G37*
G36*
X164408D02*
X162091D01*
Y-206512D01*
X164408D01*
Y-203506D01*
D02*
G37*
G36*
X46063Y-202977D02*
X45244Y-203140D01*
X44549Y-203604D01*
X44085Y-204299D01*
X43922Y-205118D01*
X44085Y-205938D01*
X44549Y-206632D01*
X45244Y-207096D01*
X46063Y-207259D01*
X46882Y-207096D01*
X47577Y-206632D01*
X48041Y-205938D01*
X48204Y-205118D01*
X48041Y-204299D01*
X47577Y-203604D01*
X46882Y-203140D01*
X46063Y-202977D01*
D02*
G37*
G36*
X141179Y-208449D02*
X138862D01*
Y-211455D01*
X141179D01*
Y-208449D01*
D02*
G37*
G36*
X144996Y-212955D02*
X142679D01*
Y-215961D01*
X144996D01*
Y-212955D01*
D02*
G37*
G36*
X141179D02*
X138862D01*
Y-215961D01*
X141179D01*
Y-212955D01*
D02*
G37*
G36*
X57087Y-215969D02*
X56267Y-216132D01*
X55573Y-216596D01*
X55108Y-217291D01*
X55030Y-217684D01*
X54418D01*
X54340Y-217291D01*
X53876Y-216596D01*
X53182Y-216132D01*
X52362Y-215969D01*
X51543Y-216132D01*
X50848Y-216596D01*
X50384Y-217291D01*
X50221Y-218110D01*
X50384Y-218930D01*
X50848Y-219624D01*
X51543Y-220088D01*
X52362Y-220251D01*
X53182Y-220088D01*
X53876Y-219624D01*
X54340Y-218930D01*
X54418Y-218537D01*
X55030D01*
X55108Y-218930D01*
X55573Y-219624D01*
X56267Y-220088D01*
X57087Y-220251D01*
X57906Y-220088D01*
X58601Y-219624D01*
X59065Y-218930D01*
X59228Y-218110D01*
X59065Y-217291D01*
X58601Y-216596D01*
X57906Y-216132D01*
X57087Y-215969D01*
D02*
G37*
G36*
X7161Y-213764D02*
X4716D01*
X1756Y-216724D01*
Y-218185D01*
X7161D01*
Y-213764D01*
D02*
G37*
G36*
X167824Y-208849D02*
X162491D01*
Y-215561D01*
X167824D01*
Y-213326D01*
X168925D01*
X171939Y-216340D01*
Y-223041D01*
X179832D01*
Y-214754D01*
X173721D01*
X173658Y-214712D01*
X173440Y-214668D01*
X170183Y-211412D01*
X169819Y-211169D01*
X169390Y-211083D01*
X169390Y-211083D01*
X167824D01*
Y-208849D01*
D02*
G37*
G36*
X15567Y-221185D02*
X10161D01*
Y-225606D01*
X12606D01*
X15567Y-222646D01*
Y-221185D01*
D02*
G37*
G36*
X7161D02*
X1756D01*
Y-222646D01*
X4716Y-225606D01*
X7161D01*
Y-221185D01*
D02*
G37*
G36*
X55118Y-246477D02*
X53832Y-246604D01*
X52595Y-246979D01*
X51455Y-247588D01*
X50456Y-248409D01*
X49636Y-249408D01*
X49026Y-250548D01*
X48651Y-251784D01*
X48524Y-253071D01*
X48651Y-254357D01*
X49026Y-255594D01*
X49636Y-256734D01*
X50456Y-257733D01*
X51455Y-258553D01*
X52595Y-259162D01*
X53832Y-259538D01*
X55118Y-259664D01*
X56404Y-259538D01*
X57641Y-259162D01*
X58781Y-258553D01*
X59781Y-257733D01*
X60601Y-256734D01*
X61210Y-255594D01*
X61585Y-254357D01*
X61712Y-253071D01*
X61585Y-251784D01*
X61210Y-250548D01*
X60601Y-249408D01*
X59781Y-248409D01*
X58781Y-247588D01*
X57641Y-246979D01*
X56404Y-246604D01*
X55118Y-246477D01*
D02*
G37*
G36*
X15748Y-240424D02*
X13770Y-240580D01*
X11840Y-241043D01*
X10007Y-241802D01*
X8314Y-242839D01*
X6805Y-244128D01*
X5517Y-245637D01*
X4480Y-247329D01*
X3720Y-249163D01*
X3257Y-251093D01*
X3101Y-253071D01*
X3257Y-255049D01*
X3720Y-256979D01*
X4480Y-258812D01*
X5517Y-260505D01*
X6805Y-262014D01*
X8314Y-263302D01*
X10007Y-264339D01*
X11840Y-265099D01*
X13770Y-265562D01*
X15748Y-265718D01*
X17726Y-265562D01*
X19656Y-265099D01*
X21490Y-264339D01*
X23182Y-263302D01*
X24691Y-262014D01*
X25980Y-260505D01*
X27016Y-258812D01*
X27776Y-256979D01*
X28239Y-255049D01*
X28395Y-253071D01*
X28239Y-251093D01*
X27776Y-249163D01*
X27016Y-247329D01*
X25980Y-245637D01*
X24691Y-244128D01*
X23182Y-242839D01*
X21490Y-241802D01*
X19656Y-241043D01*
X17726Y-240580D01*
X15748Y-240424D01*
D02*
G37*
%LPD*%
G36*
X114757Y-176196D02*
Y-180496D01*
X112516Y-182737D01*
X106969D01*
X106721Y-182137D01*
X106174Y-181425D01*
X105888Y-181205D01*
Y-180605D01*
X106174Y-180386D01*
X106721Y-179674D01*
X106969Y-179074D01*
X110630D01*
X110630Y-179074D01*
X111059Y-178989D01*
X111423Y-178746D01*
X114203Y-175966D01*
X114757Y-176196D01*
D02*
G37*
G36*
X116357Y-182852D02*
Y-187175D01*
X114890Y-188642D01*
X106969D01*
X106721Y-188043D01*
X106174Y-187330D01*
X105888Y-187111D01*
Y-186511D01*
X106174Y-186292D01*
X106721Y-185579D01*
X106969Y-184980D01*
X112981D01*
X112981Y-184980D01*
X113410Y-184895D01*
X113774Y-184651D01*
X115803Y-182622D01*
X116357Y-182852D01*
D02*
G37*
G36*
X39758Y-138588D02*
X39758Y-138588D01*
X40122Y-138831D01*
X40551Y-138917D01*
X49330D01*
X49578Y-139516D01*
X50125Y-140229D01*
X50411Y-140448D01*
Y-141048D01*
X50125Y-141267D01*
X49578Y-141980D01*
X49330Y-142579D01*
X38653D01*
X37407Y-141333D01*
X37043Y-141090D01*
X36614Y-141004D01*
X36614Y-141004D01*
X27625D01*
Y-140223D01*
X25961Y-138559D01*
X25784Y-138189D01*
X25961Y-137819D01*
X27625Y-136155D01*
Y-135373D01*
X36543D01*
X39758Y-138588D01*
D02*
G37*
G36*
X37396Y-144494D02*
X37760Y-144737D01*
X38189Y-144822D01*
X38189Y-144822D01*
X49330D01*
X49578Y-145422D01*
X50125Y-146134D01*
X50411Y-146353D01*
Y-146953D01*
X50125Y-147173D01*
X49578Y-147886D01*
X49249Y-148682D01*
X27625D01*
Y-148097D01*
X25961Y-146433D01*
X25784Y-146063D01*
X25961Y-145693D01*
X27625Y-144029D01*
Y-143247D01*
X36150D01*
X37396Y-144494D01*
D02*
G37*
D10*
X273819Y-35433D02*
Y1575D01*
X-7087Y-272756D02*
X70866D01*
Y-229842D01*
X265748Y-84646D02*
Y-35433D01*
X209842Y-229842D02*
X229724D01*
Y-84646D01*
X265748D01*
X102977Y-229842D02*
X170669D01*
X265748Y-35433D02*
X273819D01*
X209842Y-245591D02*
Y-229842D01*
X170669Y-245591D02*
X209842D01*
X170669D02*
Y-229842D01*
X44882Y1575D02*
Y13780D01*
X25000D02*
X44882D01*
X25000Y1181D02*
Y13780D01*
X70866Y-229842D02*
X102977D01*
X-7087Y-272756D02*
Y-68898D01*
Y1181D02*
X25000D01*
X-7087Y-33465D02*
Y1181D01*
X-18898Y-33465D02*
X-7087D01*
X-18898Y-68898D02*
Y-33465D01*
Y-68898D02*
X-7087D01*
X44882Y1575D02*
X113386D01*
X218898D02*
X273819D01*
X113386Y-6299D02*
Y1575D01*
Y-6299D02*
X218898D01*
Y1575D01*
D12*
X170866Y-32283D02*
X197638D01*
X169291Y-42026D02*
Y-33858D01*
X170866Y-32283D01*
X134646Y-49606D02*
Y-37402D01*
X149394Y-212221D02*
X149409Y-212205D01*
X157677Y-213189D02*
Y-212205D01*
X30315Y-180315D02*
X66142D01*
X68071Y-178386D01*
X86614D01*
X49409Y-188386D02*
X86614D01*
X30709Y-207087D02*
X49409Y-188386D01*
X30315Y-207087D02*
X30709D01*
X30315Y-190157D02*
X37087Y-183386D01*
X86614D01*
X20472Y-207087D02*
X25197Y-211811D01*
X57284Y-173622D02*
X86378D01*
X86614Y-173386D01*
Y-178386D02*
X94449D01*
X94882Y-177953D01*
X102362D01*
X101890Y-183386D02*
X102362Y-183858D01*
X86614Y-183386D02*
X101890D01*
X86614Y-173386D02*
X93937D01*
X95276Y-172047D01*
X102362D01*
X86614Y-188386D02*
X94291D01*
X95669Y-189764D02*
X102362D01*
X94291Y-188386D02*
X95669Y-189764D01*
X86614Y-193386D02*
X94173D01*
X96457Y-195669D02*
X102362D01*
X94173Y-193386D02*
X96457Y-195669D01*
X86614Y-198386D02*
X93661D01*
X96850Y-201575D01*
X102362D01*
X86614Y-203386D02*
X93543D01*
X101846Y-206965D02*
X102362Y-207480D01*
X97122Y-206965D02*
X101846D01*
X93543Y-203386D02*
X97122Y-206965D01*
X86614Y-213386D02*
X95079D01*
X100984Y-219291D02*
X102362D01*
X95079Y-213386D02*
X100984Y-219291D01*
X187106Y-218898D02*
X187894D01*
X157677Y-212205D02*
Y-202756D01*
X165157Y-193996D02*
Y-193307D01*
X158994Y-200159D02*
X165157Y-193996D01*
X158994Y-201439D02*
Y-200159D01*
X157677Y-202756D02*
X158994Y-201439D01*
X149409Y-203445D02*
X156988D01*
X157677Y-202756D01*
X149409Y-212205D02*
Y-211516D01*
X141929Y-205118D02*
X142360Y-205549D01*
X141929Y-205118D02*
Y-203445D01*
X133465Y-203740D02*
X141634D01*
X141929Y-203445D01*
X143443Y-205549D02*
X149409Y-211516D01*
X142360Y-205549D02*
X143443D01*
X157677Y-193996D02*
Y-193307D01*
X156360Y-195313D02*
X157677Y-193996D01*
X146100Y-195313D02*
X156360D01*
X145669Y-195744D02*
X146100Y-195313D01*
X145669Y-195768D02*
Y-195744D01*
X157677Y-193307D02*
Y-192618D01*
X167520Y-97638D02*
X181142Y-84016D01*
X127165Y-158268D02*
X132709D01*
X140354Y-167913D02*
X140551Y-167717D01*
Y-158465D01*
X140354Y-158268D02*
X140551Y-158465D01*
X145878Y-123019D02*
X161018D01*
X140551Y-128347D02*
X145878Y-123019D01*
X140354Y-158268D02*
X140551Y-158071D01*
Y-128347D01*
X140551Y-128347D02*
X140551Y-128347D01*
X49803Y-173622D02*
Y-169095D01*
X151142Y-74016D02*
X155905Y-78780D01*
Y-87008D02*
Y-78780D01*
X148425Y-97638D02*
X148425D01*
X140157Y-168110D02*
X140354Y-167913D01*
X148425Y-97638D02*
X167520D01*
X140551Y-128347D02*
Y-105512D01*
X148425Y-97638D01*
X138951Y-123647D02*
Y-104849D01*
X171142Y-74016D02*
X175195Y-78069D01*
Y-87404D02*
Y-78069D01*
X147763Y-96038D02*
X166561D01*
X175195Y-87404D01*
X138951Y-104849D02*
X147763Y-96038D01*
X160720Y-94438D02*
X171142Y-84016D01*
X147100Y-94438D02*
X160720D01*
X137351Y-122860D02*
Y-104186D01*
X147100Y-94438D01*
X150076Y-92838D02*
X155905Y-87008D01*
X146437Y-92838D02*
X150076D01*
X135751Y-103524D02*
X146437Y-92838D01*
X135751Y-122123D02*
Y-103524D01*
X102362Y-189764D02*
X115354D01*
X150394Y-84764D02*
X151142Y-84016D01*
X134151Y-121460D02*
Y-102861D01*
X118504Y-137107D02*
X134151Y-121460D01*
X121209Y-136665D02*
X135751Y-122123D01*
X134151Y-102861D02*
X150394Y-86618D01*
Y-84764D01*
X141142Y-74016D02*
X146063Y-78937D01*
Y-88686D02*
Y-78937D01*
X132551Y-102198D02*
X146063Y-88686D01*
X132551Y-120797D02*
Y-102198D01*
X102362Y-177953D02*
X110630D01*
X115354Y-189764D02*
X117479Y-187639D01*
X110630Y-177953D02*
X114279Y-174304D01*
X124409Y-138189D02*
X138951Y-123647D01*
X122809Y-137402D02*
X137351Y-122860D01*
X121209Y-153150D02*
Y-136665D01*
X118504Y-151969D02*
Y-137107D01*
X130951Y-119836D02*
Y-101535D01*
X141142Y-91345D01*
Y-84016D01*
X117479Y-187639D02*
Y-156880D01*
X121209Y-153150D01*
X114279Y-136509D02*
X130951Y-119836D01*
X115879Y-137470D02*
X132551Y-120797D01*
X114279Y-174304D02*
Y-136509D01*
X49803Y-169095D02*
X60630Y-158268D01*
X74803D01*
X81102Y-151969D01*
X111417D01*
X166732Y-137795D02*
Y-137106D01*
X161417Y-112992D02*
X167323D01*
X161417Y-103150D02*
X169291D01*
X166732Y-137106D02*
X168898Y-134941D01*
Y-114567D01*
X167323Y-112992D02*
X168898Y-114567D01*
X173622Y-137205D02*
X174213Y-137795D01*
X173622Y-137205D02*
Y-107480D01*
X169291Y-103150D02*
X173622Y-107480D01*
X199213Y-189764D02*
X209055D01*
X166339Y-168110D02*
X177559D01*
X199213Y-189764D01*
X187894Y-212500D02*
X194882Y-205512D01*
X209055D01*
X19302Y-199990D02*
X20472Y-198819D01*
X16939Y-199990D02*
X19302D01*
X14961Y-211417D02*
Y-201969D01*
X16939Y-199990D01*
X12992Y-196063D02*
X20472Y-188583D01*
X12992Y-212598D02*
Y-196063D01*
X102362Y-207480D02*
X107087D01*
X124409Y-190157D01*
Y-138189D01*
X102362Y-201575D02*
X109843D01*
X122809Y-188608D01*
Y-137402D01*
X102362Y-195669D02*
X112598D01*
X120079Y-188189D01*
Y-158268D01*
X132709D02*
X132791Y-158350D01*
X174016Y-137992D02*
X174213Y-137795D01*
X158858Y-156890D02*
X174016Y-141732D01*
Y-137992D01*
X158858Y-158268D02*
Y-156890D01*
X158760Y-168012D02*
X158858Y-168110D01*
X158760Y-168012D02*
Y-158653D01*
X153150Y-158661D02*
Y-156299D01*
X166732Y-142717D01*
Y-137795D01*
X166339Y-158268D02*
X172047D01*
X172047Y-158268D01*
X158858Y-175787D02*
Y-168110D01*
X150394Y-184252D02*
X158858Y-175787D01*
X23819Y-150000D02*
X24016Y-149803D01*
X54921D01*
X55118Y-149606D01*
X23819Y-118504D02*
X28346D01*
X41732Y-131890D01*
X55118D01*
X23819Y-134252D02*
X37008D01*
X40551Y-137795D01*
X55118D01*
X23819Y-142126D02*
X36614D01*
X38189Y-143701D01*
X55118D01*
X122835Y-93701D02*
Y-61417D01*
X134646Y-49606D01*
X125591Y-96063D02*
Y-62598D01*
X135827Y-52362D01*
X158956D01*
X169291Y-42026D01*
X49803Y-173622D02*
X49803Y-173622D01*
X25197Y-211811D02*
X32677D01*
X42913Y-173622D02*
X49803D01*
X32677Y-211811D02*
X43307Y-201181D01*
X43307D01*
X14961Y-211417D02*
X25197Y-221654D01*
X48031D01*
X12992Y-212598D02*
X24803Y-224410D01*
X44882D01*
X102362Y-183858D02*
X112981D01*
X115879Y-180960D01*
Y-137470D01*
X181142Y-74016D02*
X185039Y-77913D01*
Y-77953D02*
Y-77913D01*
Y-77953D02*
X186221Y-79134D01*
Y-90551D02*
Y-79134D01*
Y-90551D02*
X192126Y-96457D01*
X200394D01*
X157677Y-193307D02*
X157874Y-193110D01*
X159055Y-187155D02*
Y-186614D01*
X157874Y-188337D02*
X159055Y-187155D01*
X157874Y-191051D02*
Y-188337D01*
X158161Y-191339D02*
X158268D01*
X157874Y-191051D02*
X158161Y-191339D01*
X132874Y-195669D02*
Y-168110D01*
Y-195669D02*
X133465Y-196260D01*
X187894Y-218898D02*
Y-212500D01*
X175886Y-218898D02*
Y-218701D01*
X165157Y-212205D02*
X169390D01*
X173228Y-216043D01*
X175886Y-218701D01*
X173228Y-218799D02*
Y-216043D01*
Y-215748D01*
D44*
X174213Y-137795D02*
X174311Y-137894D01*
X158091Y-168878D02*
X158858Y-168110D01*
X158760Y-158653D02*
X158858Y-158752D01*
X132791Y-158350D02*
X132874Y-158268D01*
X208661Y-174409D02*
X209055Y-174016D01*
X140354Y-168110D02*
Y-167913D01*
Y-167220D01*
X157697Y-168484D02*
X158091Y-168878D01*
X181102Y-73976D02*
X181142Y-74016D01*
X181102Y-73976D02*
Y-72441D01*
D45*
X201969Y-98425D02*
X201969Y-98425D01*
X221890Y-62598D02*
X222047Y-62441D01*
X252756Y-58661D02*
X252787Y-58630D01*
Y-52665D01*
X252854Y-52598D01*
X257480D01*
X252854Y-72598D02*
X257480D01*
X252787Y-72531D02*
X252854Y-72598D01*
X252787Y-72531D02*
Y-66567D01*
X252756Y-66535D02*
X252787Y-66567D01*
X209449Y-85433D02*
X221654D01*
X201969Y-92913D02*
X209449Y-85433D01*
X201969Y-123622D02*
Y-98819D01*
Y-98425D01*
X196457Y-163386D02*
X207087Y-174016D01*
X209055D01*
X196457Y-163386D02*
Y-138976D01*
X201969Y-133465D01*
Y-124016D01*
X208661Y-174409D02*
X209055Y-174803D01*
X202232Y-98555D02*
Y-98161D01*
X201969Y-98819D02*
X202232Y-98555D01*
X201969Y-98425D02*
Y-92913D01*
D46*
X134646Y-32283D02*
D03*
X197638D02*
D03*
D47*
X134646Y-14567D02*
D03*
X197638D02*
D03*
D48*
X102362Y-160236D02*
D03*
Y-166142D02*
D03*
Y-172047D02*
D03*
Y-177953D02*
D03*
Y-183858D02*
D03*
Y-189764D02*
D03*
Y-195669D02*
D03*
Y-201575D02*
D03*
Y-207480D02*
D03*
Y-213386D02*
D03*
X53937Y-137795D02*
D03*
Y-143701D02*
D03*
Y-149606D02*
D03*
D49*
X102362Y-219291D02*
D03*
D50*
X92843Y-105905D02*
D03*
X73158D02*
D03*
D51*
X209646Y-109449D02*
D03*
X219488D02*
D03*
D52*
X86614Y-138976D02*
D03*
X209055Y-142520D02*
D03*
Y-158268D02*
D03*
Y-174016D02*
D03*
Y-189764D02*
D03*
D53*
X11811Y-51181D02*
D03*
D54*
X35433D02*
D03*
D55*
X209055Y-205512D02*
D03*
D56*
X53937Y-131890D02*
D03*
D57*
X20472Y-198819D02*
D03*
Y-188583D02*
D03*
X30315Y-198819D02*
D03*
Y-207087D02*
D03*
Y-180315D02*
D03*
Y-190157D02*
D03*
X20472Y-180315D02*
D03*
Y-207087D02*
D03*
X23819Y-142126D02*
D03*
X13976Y-150000D02*
D03*
X23819D02*
D03*
Y-134252D02*
D03*
Y-118504D02*
D03*
X13976Y-142126D02*
D03*
Y-134252D02*
D03*
Y-118504D02*
D03*
D58*
X8661Y-167717D02*
D03*
Y-219685D02*
D03*
D59*
X5512Y-193701D02*
D03*
D60*
X7087Y-157874D02*
D03*
X30709D02*
D03*
Y-110630D02*
D03*
X7087D02*
D03*
D61*
X161417Y-122835D02*
D03*
X141142Y-74016D02*
D03*
X151142Y-84016D02*
D03*
Y-74016D02*
D03*
X161142Y-84016D02*
D03*
Y-74016D02*
D03*
X171142Y-84016D02*
D03*
Y-74016D02*
D03*
X181142Y-84016D02*
D03*
Y-74016D02*
D03*
X191142Y-84016D02*
D03*
Y-74016D02*
D03*
X161417Y-112992D02*
D03*
Y-103150D02*
D03*
X151575D02*
D03*
Y-112992D02*
D03*
D62*
X141142Y-84016D02*
D03*
D63*
X253346Y-19685D02*
D03*
X15748Y-253071D02*
D03*
D64*
X55118D02*
D03*
D65*
X127165Y-158268D02*
D03*
X120079D02*
D03*
X118504Y-151969D02*
D03*
X111417D02*
D03*
X153150Y-158661D02*
D03*
X172047Y-158268D02*
D03*
X150394Y-184252D02*
D03*
X237795Y-68110D02*
D03*
X125591Y-96063D02*
D03*
X122835Y-93701D02*
D03*
X109055Y-118898D02*
D03*
X113386D02*
D03*
X109449Y-128740D02*
D03*
X42913Y-173622D02*
D03*
X43307Y-201181D02*
D03*
X48031Y-221654D02*
D03*
X44882Y-224410D02*
D03*
X86614Y-158268D02*
D03*
X68110Y-163386D02*
D03*
X197244Y-112992D02*
D03*
X207874Y-129921D02*
D03*
X159055Y-186614D02*
D03*
X126871Y-107874D02*
D03*
X126871Y-112992D02*
D03*
X126871Y-118110D02*
D03*
X145276Y-115748D02*
D03*
X147244Y-130709D02*
D03*
X110630Y-208661D02*
D03*
X114567Y-205118D02*
D03*
X118110Y-201575D02*
D03*
X121653Y-198031D02*
D03*
X127559Y-184646D02*
D03*
X127559Y-172441D02*
D03*
X127559Y-167717D02*
D03*
X127559Y-162992D02*
D03*
X146850Y-172441D02*
D03*
X147244Y-167717D02*
D03*
Y-162992D02*
D03*
Y-157874D02*
D03*
X159843Y-132677D02*
D03*
X164961Y-130709D02*
D03*
X127559Y-179921D02*
D03*
X127559Y-153150D02*
D03*
Y-144882D02*
D03*
X127953Y-140551D02*
D03*
X131496Y-137402D02*
D03*
X134646Y-133858D02*
D03*
X115748Y-129134D02*
D03*
X112598Y-132283D02*
D03*
X110630Y-136614D02*
D03*
Y-141339D02*
D03*
Y-146063D02*
D03*
X110236Y-172047D02*
D03*
Y-166142D02*
D03*
Y-160236D02*
D03*
X145276Y-119685D02*
D03*
X131102Y-95669D02*
D03*
X129134Y-87795D02*
D03*
Y-82677D02*
D03*
Y-77559D02*
D03*
X180315Y-90945D02*
D03*
X176772Y-93701D02*
D03*
X173622Y-96457D02*
D03*
X191339Y-63779D02*
D03*
X129134Y-68504D02*
D03*
X130315Y-63779D02*
D03*
X186221D02*
D03*
X181102D02*
D03*
X175984D02*
D03*
X170866D02*
D03*
X165748D02*
D03*
X160630D02*
D03*
X155512D02*
D03*
X150394D02*
D03*
X145276D02*
D03*
X140157D02*
D03*
X135039D02*
D03*
X24409Y-214961D02*
D03*
X29134D02*
D03*
X33858D02*
D03*
X37402Y-211811D02*
D03*
X41732Y-207874D02*
D03*
X46063Y-205118D02*
D03*
X57087Y-218110D02*
D03*
X52362D02*
D03*
X106693Y-148425D02*
D03*
X101575D02*
D03*
X96457D02*
D03*
X91339D02*
D03*
X86221D02*
D03*
X81102D02*
D03*
X76378Y-151181D02*
D03*
X72441Y-154724D02*
D03*
X66929D02*
D03*
X61024D02*
D03*
X52756Y-161417D02*
D03*
X48031Y-165354D02*
D03*
X43307Y-168898D02*
D03*
X183858Y-93307D02*
D03*
X180315Y-95669D02*
D03*
X149606Y-119685D02*
D03*
D66*
X252756Y-58661D02*
D03*
Y-66535D02*
D03*
X221654Y-85433D02*
D03*
D67*
X174213Y-137795D02*
D03*
X166732D02*
D03*
X149409Y-212205D02*
D03*
X141929D02*
D03*
X166339Y-168110D02*
D03*
X158858D02*
D03*
X132874Y-168110D02*
D03*
X140354D02*
D03*
X57284Y-173622D02*
D03*
X49803D02*
D03*
X132874Y-158268D02*
D03*
X140354D02*
D03*
X166339Y-158268D02*
D03*
X158858D02*
D03*
X157677Y-193307D02*
D03*
X165157D02*
D03*
X157677Y-212205D02*
D03*
X165157D02*
D03*
X157677Y-202756D02*
D03*
X165157D02*
D03*
D68*
X149409Y-203445D02*
D03*
X141929D02*
D03*
X145669Y-195768D02*
D03*
D69*
X201969Y-121653D02*
D03*
X209055D02*
D03*
X201969Y-98425D02*
D03*
X209055D02*
D03*
D70*
X133465Y-203740D02*
D03*
Y-196260D02*
D03*
D71*
X215748Y-62598D02*
D03*
D72*
X257480Y-72598D02*
D03*
Y-52598D02*
D03*
D73*
X175886Y-218898D02*
D03*
X187894D02*
D03*
D74*
X86614Y-163386D02*
D03*
Y-168386D02*
D03*
Y-173386D02*
D03*
Y-178386D02*
D03*
Y-183386D02*
D03*
Y-188386D02*
D03*
Y-193386D02*
D03*
Y-198386D02*
D03*
Y-203386D02*
D03*
Y-208386D02*
D03*
Y-213386D02*
D03*
M02*
